<!-- Оптимизировано для шелкографии -->
          <!-- Рекомендации: одноцветная печать, плотность красок 100% -->
          <svg xmlns="http://www.w3.org/2000/svg" width="100%" height="100%" viewBox="0 0 1024 1024">
	<path d="M 305.725 174.752 C 299.450 181.686, 299.652 206.119, 306.190 231 C 313.419 258.509, 313.201 257.027, 313.463 280.500 C 313.771 308.088, 315.515 314.056, 329.622 335.784 C 332.580 340.341, 335 344.226, 335 344.418 C 335 344.610, 331.974 345.091, 328.275 345.487 C 314.441 346.969, 282.722 355.986, 269 362.339 C 260.719 366.172, 264.100 365.504, 275.464 361.060 C 292.757 354.299, 317.456 347.849, 331.500 346.426 C 336.771 345.892, 337.643 346.057, 338.680 347.784 C 339.779 349.614, 339.331 349.905, 332.180 351.996 C 317.057 356.419, 290.531 367.616, 276.231 375.613 C 265.706 381.499, 269.790 380.405, 282.093 374.042 C 299.849 364.859, 317.984 357.496, 333.995 352.969 C 339.891 351.302, 340.648 351.277, 342.215 352.695 C 343.812 354.140, 343.048 354.770, 331.915 361.170 C 310.987 373.202, 279 398.071, 279 402.310 C 279 402.841, 282.712 399.716, 287.250 395.365 C 305.065 378.283, 341.976 354.021, 345.860 356.839 C 351.183 360.701, 353.813 361.993, 356.360 361.996 C 358.391 361.999, 360.798 363.443, 364.664 366.976 C 373.669 375.206, 386.330 377.009, 395.598 371.382 C 405.746 365.221, 413.766 362.808, 415.830 365.296 C 416.669 366.306, 415.871 366.866, 412.203 367.841 C 409.616 368.528, 406.150 369.831, 404.500 370.737 C 390.940 378.178, 390.883 378.197, 383 377.757 C 373.475 377.226, 367.372 374.554, 361.509 368.347 C 356.429 362.970, 356.460 362.927, 358.468 372.500 C 361.978 389.237, 361.630 399.763, 356.383 435.500 C 352.778 460.059, 352.210 482.439, 354.854 495.749 C 357.318 508.149, 363.451 523.846, 369.801 534 C 379.592 549.657, 386.557 566.497, 388.415 579 L 389.084 583.500 386.228 577 C 382.974 569.594, 372.042 548.611, 368.583 543.132 C 367.313 541.119, 365.056 537.071, 363.569 534.137 C 359.418 525.945, 359.585 528.567, 363.885 539.094 C 371.791 558.451, 383.797 598.322, 388.905 622.178 C 391.709 635.280, 393.277 646.233, 397.397 681.500 C 399.325 698, 401.480 716.450, 402.187 722.500 C 402.894 728.550, 403.479 743.625, 403.486 756 C 403.498 777.069, 403.351 778.911, 401.168 784.961 C 398.430 792.548, 394.326 797.653, 388.535 800.676 C 377.321 806.530, 372.751 818.064, 376.561 830.895 C 378.320 836.816, 382.987 839.935, 390.152 839.978 L 393.804 840 392.350 835.250 C 388.877 823.912, 395.597 808.960, 405.208 806.637 C 417.987 803.550, 432.379 744.594, 436.184 679.752 C 439.228 627.855, 429.877 591.094, 403.494 551.250 C 398.662 543.952, 399.667 544.669, 407.703 554.250 C 422.964 572.446, 432.880 594.172, 437.483 619.500 C 442.169 645.281, 439.905 697.174, 432.007 745 C 425.304 785.593, 421.317 796.526, 408.336 809.907 C 400.502 817.982, 398.507 823.413, 399.231 834.691 C 399.684 841.756, 399.622 842.015, 397.640 841.386 C 395.678 840.763, 395.654 840.848, 397.135 843.116 C 399.684 847.020, 407.873 849.210, 420.500 849.365 C 445.296 849.669, 452.533 842.875, 459.001 813.218 C 463.573 792.250, 466.719 781.496, 480.261 740.523 L 492.483 703.546 493.695 710.523 C 499.989 746.741, 504.550 757.711, 523.822 782.985 L 527.242 787.471 524.871 788.075 C 523.567 788.407, 518.087 788.773, 512.693 788.889 C 490.778 789.360, 481.084 796.851, 480.616 813.676 C 480.477 818.665, 483.151 822.829, 487.851 824.943 C 489.615 825.737, 491.242 827.312, 491.467 828.443 C 492.799 835.164, 493.363 836.517, 495.884 839.038 C 500.962 844.116, 504.269 844.475, 532.268 842.983 C 553.196 841.867, 562.532 841.860, 587 842.938 C 669.306 846.566, 677.504 845.612, 693.813 830.513 C 704.721 820.413, 708.978 809.195, 710.976 785.273 C 712.071 772.166, 711.624 773.581, 724.895 741.254 C 742.085 699.382, 744.665 662.274, 733.512 617.339 C 715.620 545.262, 677.635 483.041, 629.487 446.945 C 607.532 430.485, 596.629 425, 555 409.467 C 514.198 394.243, 502.397 385.446, 488.934 360.216 C 482.660 348.459, 478.036 330.909, 477.974 318.619 L 477.949 313.500 475.459 320.809 C 470.507 335.347, 463.698 346.017, 454.631 353.446 C 450.214 357.065, 449.994 357.130, 446.297 355.878 C 441.895 354.387, 439.891 353, 442.139 353 C 444.701 353, 455.062 343.780, 460.680 336.500 C 470.917 323.235, 479.968 296.208, 479.992 278.830 C 479.997 275.370, 481.345 268.488, 483.451 261.172 C 491.417 233.495, 490.666 205.050, 481.559 189.510 C 478.869 184.921, 478.652 184.783, 474.906 185.286 C 468.159 186.191, 455.131 198.718, 442.703 216.251 C 438.973 221.512, 435.173 226.103, 434.257 226.455 C 430.712 227.815, 417.145 228.208, 410.485 227.143 C 406.643 226.529, 397.200 225.790, 389.500 225.500 C 374.041 224.919, 370.920 224.477, 366.500 222.243 C 362.219 220.078, 346.493 206.267, 332.515 192.394 C 312.807 172.836, 309.456 170.629, 305.725 174.752 M 308.444 177.910 C 309.388 179.437, 307.924 181.908, 306.417 181.330 C 304.729 180.682, 304.436 206.017, 306.091 209.500 C 306.976 211.363, 307.012 211.346, 306.614 209.249 C 306.379 208.010, 306.595 207.249, 307.093 207.558 C 307.592 207.866, 308.006 209.554, 308.013 211.309 C 308.041 218.148, 312.543 228.857, 324.250 249.931 L 327.822 256.361 329.264 252.931 C 330.641 249.651, 332.966 246.977, 339.969 240.617 L 343.143 237.734 346.864 241.367 C 351.304 245.703, 352.552 245.993, 350.666 242.250 C 349.904 240.738, 349.005 238.345, 348.668 236.934 C 348.330 235.523, 347.255 233.428, 346.277 232.278 C 343.536 229.053, 341.484 225.893, 341.654 225.162 C 341.739 224.798, 341.091 223.840, 340.214 223.033 C 338.803 221.734, 338.692 221.755, 339.250 223.210 C 339.597 224.114, 338.150 223.199, 336.033 221.177 C 332.243 217.554, 332.218 217.482, 334.343 216.285 C 335.541 215.611, 335.890 215.055, 335.128 215.035 C 334.021 215.007, 333.996 214.709, 335 213.500 C 336.055 212.228, 335.807 211.982, 333.372 211.882 L 330.500 211.763 333.500 211.110 C 335.522 210.670, 336.087 210.198, 335.234 209.660 C 334.537 209.221, 334.179 208.520, 334.437 208.102 C 334.695 207.685, 333.477 205.803, 331.731 203.921 C 329.984 202.040, 328.543 200.152, 328.528 199.726 C 328.475 198.259, 316.612 182.867, 313.275 179.937 C 310.104 177.152, 307.231 175.947, 308.444 177.910 M 311.442 180.361 C 311.864 181.712, 311.622 182.069, 310.562 181.662 C 309.584 181.287, 309.285 181.579, 309.656 182.545 C 309.960 183.339, 310.663 183.708, 311.217 183.366 C 311.770 183.024, 312.616 183.364, 313.096 184.122 C 313.779 185.199, 313.973 185.215, 313.985 184.194 C 313.993 183.476, 315.169 184.151, 316.598 185.694 L 319.195 188.500 317.163 185.698 C 316.046 184.158, 314.840 183.033, 314.485 183.198 C 314.129 183.364, 313.168 182.375, 312.350 181 C 311.529 179.621, 311.122 179.335, 311.442 180.361 M 311.784 187.184 C 313.572 188.972, 317.299 189.065, 315.821 187.284 C 314.892 186.165, 314.522 186.149, 313.854 187.203 C 313.220 188.202, 313.027 188.213, 313.015 187.250 C 313.007 186.563, 312.460 186, 311.800 186 C 310.875 186, 310.872 186.272, 311.784 187.184 M 475.500 190 C 475.840 190.550, 476.316 191, 476.559 191 C 476.802 191, 477 190.550, 477 190 C 477 189.450, 476.523 189, 475.941 189 C 475.359 189, 475.160 189.450, 475.500 190 M 307.624 191.539 C 307.281 192.432, 307.029 193.689, 307.063 194.332 C 307.098 194.974, 307.558 194.422, 308.085 193.105 C 308.612 191.787, 308.864 190.531, 308.645 190.312 C 308.426 190.093, 307.966 190.645, 307.624 191.539 M 314.370 190.703 C 315.157 191.490, 319.966 191.754, 319.490 190.984 C 319.241 190.580, 317.885 190.250, 316.477 190.250 C 315.069 190.250, 314.121 190.454, 314.370 190.703 M 467.499 194.108 C 464.473 196.897, 463.023 198.981, 463.320 200.114 C 463.632 201.307, 463.327 201.679, 462.346 201.303 C 461.561 201.001, 461.049 201.147, 461.209 201.627 C 461.369 202.107, 461.181 202.500, 460.791 202.500 C 459.299 202.500, 455.164 209.264, 455.740 210.764 C 456.136 211.796, 455.942 212.082, 455.170 211.605 C 453.705 210.700, 453.683 211.539, 455.100 214.186 C 455.705 215.317, 455.817 216.008, 455.350 215.724 C 454.882 215.439, 453.631 216.397, 452.569 217.853 C 450.641 220.495, 450.641 220.497, 452.647 218.750 C 455.081 216.631, 456.718 216.430, 455.036 218.456 C 454.372 219.257, 454.075 220.312, 454.377 220.801 C 454.679 221.290, 453.437 223.316, 451.617 225.303 C 448.187 229.047, 439.668 243.002, 440.379 243.712 C 440.601 243.934, 442.267 241.824, 444.081 239.024 C 446.267 235.651, 447.871 234.120, 448.832 234.489 C 450.079 234.967, 450.087 234.808, 448.891 233.359 C 447.611 231.807, 447.699 231.778, 450 233 C 452.262 234.201, 452.374 234.174, 451.171 232.716 C 450.277 231.632, 450.146 230.561, 450.772 229.443 C 451.619 227.930, 451.757 227.925, 452.320 229.391 C 452.659 230.276, 453.417 231, 454.004 231 C 454.744 231, 454.757 230.415, 454.048 229.090 C 452.977 227.089, 455.031 226.608, 456.721 228.465 C 457.149 228.935, 456.922 228.987, 456.216 228.580 C 455.274 228.037, 455.054 228.511, 455.389 230.359 C 455.735 232.266, 455.490 232.742, 454.382 232.316 C 453.577 232.007, 453.031 232.147, 453.170 232.627 C 453.308 233.107, 450.858 235.975, 447.725 239 C 442.476 244.069, 440.700 247, 442.878 247 C 443.361 247, 444.506 245.988, 445.423 244.750 C 447.054 242.548, 447.078 242.589, 446.543 246.690 L 445.996 250.880 450.571 249.321 C 453.337 248.379, 456.601 247.996, 458.823 248.353 C 461.248 248.742, 461.999 248.631, 461.028 248.025 C 459.773 247.243, 459.817 247.008, 461.321 246.430 C 464.942 245.041, 464.232 247.196, 459.477 252.023 C 454.074 257.509, 454.483 258.699, 460.164 254.017 C 465.393 249.706, 467.224 252.010, 463.097 257.708 L 460.196 261.713 462.353 264.419 C 463.705 266.113, 465.092 266.902, 466.064 266.529 C 468.234 265.696, 474.044 255.279, 473.349 253.467 C 472.926 252.365, 473.241 252.155, 474.562 252.662 C 475.962 253.199, 476.204 252.975, 475.685 251.622 C 475.321 250.673, 475.420 250.141, 475.905 250.441 C 478.710 252.175, 484.309 231.938, 483.823 221.823 C 483.469 214.436, 484.620 213.800, 485.313 221 C 485.552 223.475, 485.590 221.973, 485.398 217.661 C 484.802 204.275, 480.735 191.053, 477.256 191.195 C 476.290 191.235, 474.742 190.945, 473.816 190.552 C 472.626 190.047, 470.774 191.089, 467.499 194.108 M 321.079 192.691 C 320.965 194.412, 322.735 195.239, 323.585 193.862 C 324.017 193.164, 323.877 192.958, 323.240 193.352 C 322.652 193.715, 321.943 193.447, 321.664 192.756 C 321.302 191.857, 321.135 191.839, 321.079 192.691 M 467.405 196.250 L 465.500 198.500 467.750 196.595 C 469.864 194.805, 470.455 194, 469.655 194 C 469.465 194, 468.453 195.012, 467.405 196.250 M 470.564 195.707 C 470.022 197.132, 470.136 197.247, 471.124 196.267 C 471.808 195.588, 472.115 194.781, 471.807 194.474 C 471.499 194.166, 470.940 194.721, 470.564 195.707 M 320.302 197.321 C 319.932 197.919, 320.214 197.986, 321.015 197.490 C 321.977 196.896, 322.165 197.128, 321.701 198.336 C 320.843 200.574, 321.686 200.456, 322.911 198.167 C 323.975 196.177, 321.503 195.376, 320.302 197.321 M 306.079 201.583 C 306.127 202.748, 306.364 202.985, 306.683 202.188 C 306.972 201.466, 306.936 200.603, 306.604 200.271 C 306.272 199.939, 306.036 200.529, 306.079 201.583 M 328.955 204.917 C 329.421 205.787, 329.813 206.939, 329.826 207.475 C 329.839 208.011, 330.334 208.611, 330.926 208.809 C 331.586 209.029, 331.736 208.459, 331.313 207.334 C 330.684 205.657, 330.791 205.628, 332.563 207 C 334.353 208.386, 334.396 208.368, 333.137 206.761 C 332.387 205.805, 331.298 205.316, 330.717 205.675 C 330.082 206.067, 329.890 205.730, 330.235 204.831 C 330.570 203.956, 330.247 203.333, 329.459 203.333 C 328.536 203.333, 328.377 203.835, 328.955 204.917 M 462.048 204.949 C 461.249 205.455, 460.287 205.678, 459.911 205.445 C 459.535 205.212, 458.701 205.656, 458.057 206.431 C 456.437 208.383, 458.942 207.972, 462.116 205.764 C 464.614 204.026, 464.559 203.361, 462.048 204.949 M 309.079 206.583 C 309.127 207.748, 309.364 207.985, 309.683 207.188 C 309.972 206.466, 309.936 205.603, 309.604 205.271 C 309.272 204.939, 309.036 205.529, 309.079 206.583 M 450.554 216.193 L 448.961 219.385 451.450 217.047 C 452.818 215.761, 453.701 214.325, 453.410 213.855 C 452.582 212.515, 452.254 212.784, 450.554 216.193 M 457.882 216.906 C 458.968 217.594, 458.807 217.926, 457.132 218.458 C 455.959 218.830, 455 219.554, 455 220.067 C 455 221.408, 455.712 221.227, 457.937 219.322 C 459.942 217.605, 459.822 215.988, 457.691 216.015 C 456.911 216.025, 456.976 216.332, 457.882 216.906 M 459.721 221.414 C 458.080 222.658, 458.072 222.814, 459.614 223.405 C 460.534 223.758, 461.522 223.811, 461.810 223.524 C 462.098 223.236, 461.753 223, 461.044 223 C 460.012 223, 460.003 222.701, 461 221.500 C 462.528 219.659, 462.073 219.629, 459.721 221.414 M 463.269 225.693 C 464.242 225.947, 465.592 225.930, 466.269 225.656 C 466.946 225.382, 466.150 225.175, 464.500 225.195 C 462.850 225.215, 462.296 225.439, 463.269 225.693 M 330.500 227 C 330.840 227.550, 331.316 228, 331.559 228 C 331.802 228, 332 227.550, 332 227 C 332 226.450, 331.523 226, 330.941 226 C 330.359 226, 330.160 226.450, 330.500 227 M 459.559 229.532 C 458.491 230.339, 458.064 231, 458.609 231 C 459.154 231, 460.028 230.582, 460.550 230.071 C 461.072 229.561, 463.075 228.958, 465 228.731 L 468.500 228.320 465 228.192 C 463.075 228.121, 460.626 228.724, 459.559 229.532 M 341.588 234.394 C 348.364 240.576, 349.488 240.754, 345.513 235.018 C 342.829 231.146, 341.955 230.574, 339.250 230.925 C 338.563 231.015, 338 230.618, 338 230.044 C 338 229.470, 337.477 229, 336.838 229 C 336.199 229, 338.337 231.427, 341.588 234.394 M 451 231 C 451 231.550, 451.477 232, 452.059 232 C 452.641 232, 452.840 231.550, 452.500 231 C 452.160 230.450, 451.684 230, 451.441 230 C 451.198 230, 451 230.450, 451 231 M 317.564 235.293 C 317.940 236.279, 318.499 236.834, 318.807 236.526 C 319.115 236.219, 318.808 235.412, 318.124 234.733 C 317.136 233.753, 317.022 233.868, 317.564 235.293 M 456.690 235.452 C 455.892 236.251, 454.936 236.602, 454.566 236.233 C 454.197 235.863, 454.191 236.335, 454.554 237.280 C 454.965 238.352, 454.734 239, 453.940 239 C 453.240 239, 452.953 239.287, 453.304 239.637 C 453.654 239.988, 455.260 238.863, 456.872 237.137 C 459.733 234.075, 459.571 232.572, 456.690 235.452 M 339 235.985 C 339 236.721, 338.298 236.970, 337.250 236.605 C 335.791 236.097, 335.823 236.245, 337.441 237.498 C 340.575 239.923, 343.490 238.482, 340.489 235.991 C 339.315 235.016, 339 235.015, 339 235.985 M 458.504 237.373 C 456.696 238.696, 456.710 238.773, 458.888 239.465 C 460.133 239.860, 461.417 239.917, 461.742 239.591 C 462.067 239.266, 461.471 238.986, 460.417 238.968 C 458.538 238.937, 458.539 238.907, 460.441 237.468 C 461.509 236.661, 461.932 236, 461.382 236 C 460.832 236, 459.537 236.618, 458.504 237.373 M 473.158 246 C 473.158 247.375, 473.385 247.938, 473.662 247.250 C 473.940 246.563, 473.940 245.438, 473.662 244.750 C 473.385 244.063, 473.158 244.625, 473.158 246 M 476.158 247 C 476.158 248.375, 476.385 248.938, 476.662 248.250 C 476.940 247.563, 476.940 246.438, 476.662 245.750 C 476.385 245.063, 476.158 245.625, 476.158 247 M 332.333 280.806 C 327.231 282.880, 325.311 284.633, 329.500 283.393 C 335.638 281.576, 345.158 282.337, 350.500 285.073 C 358.554 289.197, 366.538 302.549, 367.150 312.916 C 367.283 315.162, 367.811 317, 368.324 317 C 368.860 317, 369.064 313.703, 368.803 309.250 C 367.536 287.613, 349.736 273.730, 332.333 280.806 M 417.306 285.104 C 415.549 285.612, 411.427 288.609, 408.146 291.764 C 402.783 296.920, 401.918 298.339, 399.590 305.802 C 395.439 319.105, 396.294 321.062, 401.499 310.171 C 403.951 305.039, 407.403 299.017, 409.169 296.786 C 416.049 288.100, 429.362 285.519, 441.500 290.519 C 448.705 293.487, 448.934 293.519, 445.885 291.135 C 437.640 284.687, 426.716 282.382, 417.306 285.104 M 326.376 292.539 C 328.279 308.735, 340.161 318.121, 354.653 314.878 C 360.607 313.546, 360.804 311.495, 354.901 312.286 C 342.446 313.957, 330.883 304.546, 328.441 290.750 C 327.369 284.694, 325.631 286.200, 326.376 292.539 M 333.250 287.662 C 331.698 288.288, 331.668 290.795, 333.141 296.646 C 335.792 307.174, 350.761 314.341, 356.607 307.882 C 358.750 305.514, 359.303 301.083, 357.703 299.104 C 356.756 297.933, 356.766 297.776, 357.750 298.367 C 359.276 299.284, 359.339 298.502, 357.950 295.906 C 357.372 294.827, 356.461 294.215, 355.925 294.546 C 355.389 294.878, 355.074 294.553, 355.225 293.824 C 355.904 290.554, 352.387 292.873, 351.207 296.474 C 350.491 298.659, 349.251 301.170, 348.453 302.052 C 346.669 304.023, 346.593 305.656, 348.250 306.377 C 348.938 306.676, 348.150 306.653, 346.500 306.326 C 340.108 305.059, 337.664 297.495, 341.671 291.379 C 343.095 289.206, 343.132 288.696, 341.921 287.930 C 340.413 286.976, 335.340 286.819, 333.250 287.662 M 429 294.325 C 429 297.040, 431.262 300, 433.337 300 C 435.343 300, 435.647 300.398, 435.245 302.500 C 434.812 304.764, 433.889 305.456, 431.750 305.118 C 431.337 305.053, 431 305.800, 431 306.777 C 431 309.367, 428.164 313, 426.143 313 C 423.772 313, 420 305.002, 420 299.973 C 420 295.103, 418.818 294.982, 414.400 299.400 C 410.454 303.346, 410.280 304.668, 413.003 310.006 C 416.289 316.447, 423.355 317.977, 431.434 313.998 C 440.097 309.731, 445.503 295.178, 438.469 295.058 C 437.386 295.039, 434.813 294.744, 432.750 294.402 C 430.688 294.061, 429 294.026, 429 294.325 M 445.028 302.442 C 439.780 313.437, 431.186 318.873, 421.072 317.596 C 418.557 317.278, 413.800 316.788, 410.500 316.507 L 404.500 315.996 410 318.052 C 423.032 322.925, 431.067 322.338, 439.863 315.869 C 445.638 311.622, 452.862 296, 449.051 296 C 448.529 296, 446.719 298.899, 445.028 302.442 M 355.656 305.545 C 355.960 306.339, 356.612 306.740, 357.105 306.435 C 358.345 305.669, 358.231 305.303, 356.551 304.658 C 355.584 304.287, 355.286 304.582, 355.656 305.545 M 436 355.892 C 436 356.501, 434.988 357.007, 433.750 357.015 C 429.136 357.047, 428.849 358.547, 433.009 360.885 C 437.435 363.373, 440.998 362.884, 445.893 359.117 L 448.285 357.276 444.393 356.570 C 442.252 356.181, 439.488 355.620, 438.250 355.323 C 436.945 355.010, 436 355.249, 436 355.892 M 419.687 361.393 L 415.874 362.576 417.998 364.498 C 419.524 365.879, 420.327 366.089, 420.850 365.243 C 421.250 364.595, 424.137 363.938, 427.265 363.783 C 432.863 363.504, 432.917 363.473, 430.726 361.772 C 428.186 359.801, 425.155 359.696, 419.687 361.393 M 353 418.184 C 353 418.469, 351.904 423.157, 350.564 428.601 C 344.821 451.940, 343.836 464.708, 346.445 482 C 347.944 491.943, 350.470 500.495, 349.545 492.500 C 348.058 479.638, 347.974 474.934, 348.966 459.951 C 349.568 450.849, 350.918 437.807, 351.965 430.969 C 353.012 424.131, 353.674 418.340, 353.435 418.101 C 353.196 417.862, 353 417.900, 353 418.184 M 513.642 513.139 C 513.282 522.688, 512.567 539.725, 512.051 551 C 511.536 562.275, 511.089 580.221, 511.057 590.879 L 511 610.258 505.941 627.879 C 501.200 644.395, 492.521 684.063, 493.202 686.106 C 493.475 686.926, 503.221 655.068, 511.131 627.500 C 512.898 621.341, 514.397 612.891, 515.035 605.500 C 515.605 598.900, 516.767 585.625, 517.617 576 C 521.163 535.859, 521.134 526.460, 517.405 507 C 514.858 493.708, 514.343 494.549, 513.642 513.139 M 380.502 574.502 C 380.868 576.151, 381.344 578.072, 381.561 578.772 C 387.553 598.142, 396.130 648.270, 401.448 695 C 409.340 764.361, 408.690 785.470, 398.340 795.850 C 394.234 799.969, 394.158 800.487, 397.948 798.527 C 410.436 792.069, 413.240 768.711, 407.497 719 C 398.607 642.038, 391.001 598.301, 382.963 577.906 C 380.456 571.546, 379.577 570.329, 380.502 574.502 M 592 621.475 C 579.080 623.383, 567.662 625.894, 559.904 628.533 C 521.344 641.648, 502.455 670.329, 504.308 712.949 C 505.710 745.182, 518.615 769.873, 544.500 789.850 C 550.488 794.471, 550.484 794.464, 542.438 786.449 C 527.797 771.862, 520.057 759.836, 514.154 742.500 C 507.011 721.525, 507.354 696.048, 515.116 671 C 517.223 664.201, 523.931 654.307, 530.878 647.753 C 539.588 639.537, 548.494 635.160, 564.587 631.185 C 585.664 625.979, 590.878 625.500, 626.456 625.500 C 655.535 625.500, 658.653 625.354, 652.956 624.256 C 630.682 619.963, 608.949 618.971, 592 621.475 M 503.097 806.082 C 493.899 811.690, 489.629 827.075, 495.611 833.055 C 497.463 834.906, 497.501 834.801, 497.563 827.721 C 497.631 819.947, 499.840 813.521, 504.581 807.305 C 507.548 803.415, 507.516 803.388, 503.097 806.082 M 450.582 824.354 C 446.799 834.118, 440.652 841.706, 435.099 843.469 C 433.861 843.861, 433.060 844.393, 433.317 844.650 C 434.270 845.604, 440.667 842.180, 443.819 839.027 C 447.735 835.112, 450.688 829.567, 453.127 821.552 C 455.889 812.473, 454.662 813.824, 450.582 824.354 M 429.813 845.683 C 430.534 845.972, 431.397 845.936, 431.729 845.604 C 432.061 845.272, 431.471 845.036, 430.417 845.079 C 429.252 845.127, 429.015 845.364, 429.813 845.683" stroke="#000000" stroke-width="0.5" fill="#000000" fill-rule="evenodd"/>
</svg>