<!-- Оптимизировано для DTF печати -->
          <!-- Рекомендации: полноцветная печать, высокое разрешение -->
          <svg xmlns="http://www.w3.org/2000/svg" width="100%" height="100%" viewBox="0 0 1024 1024">
	<path d="M 0 512.001 L 0 1024.002 512.250 1023.751 L 1024.500 1023.500 1024.751 511.750 L 1025.002 0 512.501 0 L 0 0 0 512.001 M 0.496 512.500 C 0.496 794.100, 0.610 909.151, 0.750 768.168 C 0.890 627.186, 0.890 396.786, 0.750 256.168 C 0.610 115.551, 0.496 230.900, 0.496 512.500 M 732.559 110.532 C 731.491 111.339, 731.099 112, 731.686 112 C 732.274 112, 733.315 111.325, 734 110.500 C 735.557 108.624, 735.067 108.634, 732.559 110.532 M 273.500 111 C 273.840 111.550, 274.343 112, 274.618 112 C 274.893 112, 274.840 111.550, 274.500 111 C 274.160 110.450, 273.657 110, 273.382 110 C 273.107 110, 273.160 110.450, 273.500 111 M 280 111 C 280.825 111.533, 281.950 111.969, 282.500 111.969 C 283.050 111.969, 282.825 111.533, 282 111 C 281.175 110.467, 280.050 110.031, 279.500 110.031 C 278.950 110.031, 279.175 110.467, 280 111 M 285 113.893 C 285 114.384, 285.739 115.069, 286.641 115.416 C 288.014 115.943, 288.076 115.796, 287.019 114.523 C 285.579 112.788, 285 112.607, 285 113.893 M 722.234 117.600 C 718.788 120.097, 716.196 122.508, 716.474 122.957 C 716.751 123.407, 716.366 123.712, 715.618 123.637 C 713.863 123.460, 696.439 137.901, 683.086 150.598 C 664.582 168.193, 644.224 191.936, 645.656 194.252 C 646.026 194.851, 645.835 195.016, 645.217 194.634 C 644.594 194.249, 642.880 195.797, 641.232 198.229 C 637.452 203.812, 636.261 206.254, 639.067 202.670 C 640.789 200.471, 641.489 200.137, 642.207 201.170 C 642.825 202.059, 642.908 201.712, 642.458 200.125 C 641.993 198.482, 642.135 197.965, 642.918 198.449 C 643.563 198.848, 643.932 198.599, 643.775 197.870 C 643.624 197.166, 643.995 196.570, 644.601 196.545 C 645.207 196.520, 648.736 193.252, 652.445 189.281 C 656.153 185.311, 659.708 182.161, 660.344 182.281 C 660.980 182.402, 661.384 181.785, 661.243 180.911 C 661.102 180.037, 662.002 178.462, 663.243 177.411 L 665.500 175.500 663.500 177.901 C 662.400 179.221, 670.706 171.121, 681.959 159.901 C 693.211 148.680, 702.324 139.163, 702.209 138.750 C 702.094 138.338, 702.563 138.113, 703.250 138.250 C 703.938 138.388, 704.376 137.904, 704.225 137.176 C 704.074 136.447, 704.372 136.112, 704.887 136.430 C 705.403 136.749, 708.984 134.492, 712.846 131.415 C 717.805 127.464, 719.713 125.333, 719.340 124.160 C 718.960 122.967, 719.068 122.855, 719.723 123.764 C 720.415 124.722, 722.010 124.044, 726.318 120.959 C 729.443 118.721, 732 116.674, 732 116.410 C 732 115.737, 727.896 117.933, 725.517 119.878 C 723.628 121.423, 723.604 121.410, 725.017 119.596 C 725.833 118.549, 726.500 117.424, 726.500 117.096 C 726.500 116.768, 726.885 116.628, 727.355 116.785 C 728.627 117.209, 731.064 114.912, 730.430 113.887 C 729.560 112.479, 728.867 112.793, 722.234 117.600 M 727.507 114.989 C 727.157 115.555, 727.558 115.723, 728.448 115.382 C 730.180 114.717, 730.497 114, 729.059 114 C 728.541 114, 727.843 114.445, 727.507 114.989 M 733.405 115.155 C 732.962 115.870, 733.130 116.038, 733.845 115.595 C 734.998 114.883, 735.393 114, 734.559 114 C 734.316 114, 733.797 114.520, 733.405 115.155 M 284.531 118.638 C 308.642 137.351, 315.933 143.708, 333.500 161.337 C 344.500 172.375, 353.871 181.303, 354.324 181.178 C 354.778 181.053, 354.904 181.347, 354.605 181.831 C 354.305 182.315, 355.537 184.463, 357.342 186.605 C 359.147 188.747, 362.508 193.161, 364.812 196.413 C 367.115 199.665, 369 201.829, 369 201.222 C 369 200.615, 368.538 199.833, 367.973 199.484 C 367.409 199.135, 367.071 198.096, 367.223 197.175 C 367.381 196.218, 366.932 195.618, 366.176 195.775 C 365.447 195.926, 365.124 195.608, 365.458 195.068 C 366.173 193.911, 369 194.787, 369 196.166 C 369 196.690, 369.450 196.840, 370 196.500 C 370.550 196.160, 371.018 196.246, 371.041 196.691 C 371.063 197.136, 372.490 199.075, 374.211 201 C 377.367 204.530, 376.857 203.619, 370.567 194.500 C 360.984 180.607, 331.812 150.139, 313 134.376 C 298.782 122.463, 286.753 113.666, 290.473 117.903 L 292.446 120.150 289.473 119.491 C 284.637 118.420, 283.845 118.059, 284.393 117.174 C 284.678 116.712, 284.158 116.333, 283.237 116.333 C 282.044 116.333, 282.417 116.997, 284.531 118.638 M 291.566 120.898 C 290.330 121.382, 290.035 121.903, 290.747 122.344 C 291.360 122.723, 292.149 122.568, 292.500 122 C 292.851 121.432, 293.564 121.231, 294.085 121.553 C 294.606 121.875, 294.731 122.627, 294.362 123.224 C 293.952 123.887, 294.159 124.020, 294.894 123.565 C 295.815 122.996, 295.823 122.491, 294.926 121.411 C 294.282 120.635, 293.698 120.032, 293.628 120.070 C 293.557 120.109, 292.630 120.481, 291.566 120.898 M 721.405 122.155 C 720.962 122.870, 721.130 123.038, 721.845 122.595 C 722.998 121.883, 723.393 121, 722.559 121 C 722.316 121, 721.797 121.520, 721.405 122.155 M 297.500 127 C 297.840 127.550, 298.343 128, 298.618 128 C 298.893 128, 298.840 127.550, 298.500 127 C 298.160 126.450, 297.657 126, 297.382 126 C 297.107 126, 297.160 126.450, 297.500 127 M 290.250 148.689 C 291.212 148.941, 292.788 148.941, 293.750 148.689 C 294.712 148.438, 293.925 148.232, 292 148.232 C 290.075 148.232, 289.288 148.438, 290.250 148.689 M 723.762 148.707 C 725.006 148.946, 726.806 148.937, 727.762 148.687 C 728.718 148.437, 727.700 148.241, 725.500 148.252 C 723.300 148.263, 722.518 148.468, 723.762 148.707 M 742.750 150.662 C 743.438 150.940, 744.563 150.940, 745.250 150.662 C 745.938 150.385, 745.375 150.158, 744 150.158 C 742.625 150.158, 742.063 150.385, 742.750 150.662 M 682.405 156.155 C 681.962 156.870, 682.130 157.038, 682.845 156.595 C 683.998 155.883, 684.393 155, 683.559 155 C 683.316 155, 682.797 155.520, 682.405 156.155 M 236.336 163 C 236.336 167.125, 236.513 168.813, 236.728 166.750 C 236.944 164.688, 236.944 161.313, 236.728 159.250 C 236.513 157.188, 236.336 158.875, 236.336 163 M 277.333 159.667 C 277.700 160.033, 278.300 160.033, 278.667 159.667 C 279.033 159.300, 278.733 159, 278 159 C 277.267 159, 276.967 159.300, 277.333 159.667 M 677.980 160.524 C 677.284 161.362, 676.909 162.242, 677.145 162.479 C 677.382 162.715, 678.125 162.030, 678.796 160.955 C 680.248 158.630, 679.764 158.375, 677.980 160.524 M 736.333 159.667 C 736.700 160.033, 737.300 160.033, 737.667 159.667 C 738.033 159.300, 737.733 159, 737 159 C 736.267 159, 735.967 159.300, 736.333 159.667 M 272.333 160.667 C 272.700 161.033, 273.300 161.033, 273.667 160.667 C 274.033 160.300, 273.733 160, 273 160 C 272.267 160, 271.967 160.300, 272.333 160.667 M 741.333 160.667 C 741.700 161.033, 742.300 161.033, 742.667 160.667 C 743.033 160.300, 742.733 160, 742 160 C 741.267 160, 740.967 160.300, 741.333 160.667 M 672.437 166.250 L 669.500 169.500 672.750 166.563 C 674.538 164.948, 676 163.485, 676 163.313 C 676 162.540, 675.175 163.221, 672.437 166.250 M 313.333 169.667 C 313.700 170.033, 314.300 170.033, 314.667 169.667 C 315.033 169.300, 314.733 169, 314 169 C 313.267 169, 312.967 169.300, 313.333 169.667 M 699.813 169.683 C 700.534 169.972, 701.397 169.936, 701.729 169.604 C 702.061 169.272, 701.471 169.036, 700.417 169.079 C 699.252 169.127, 699.015 169.364, 699.813 169.683 M 237.158 178 C 237.158 179.375, 237.385 179.938, 237.662 179.250 C 237.940 178.563, 237.940 177.438, 237.662 176.750 C 237.385 176.063, 237.158 176.625, 237.158 178 M 722.500 177 C 724.150 177.420, 726.400 177.785, 727.500 177.811 L 729.500 177.859 727.500 177 C 726.400 176.527, 724.150 176.162, 722.500 176.189 L 719.500 176.237 722.500 177 M 286.333 177.667 C 286.700 178.033, 287.300 178.033, 287.667 177.667 C 288.033 177.300, 287.733 177, 287 177 C 286.267 177, 285.967 177.300, 286.333 177.667 M 701.500 178 C 699.870 178.701, 699.812 178.872, 701.191 178.930 C 702.121 178.968, 703.160 178.550, 703.500 178 C 704.211 176.850, 704.176 176.850, 701.500 178 M 318.750 180.662 C 319.438 180.940, 320.563 180.940, 321.250 180.662 C 321.938 180.385, 321.375 180.158, 320 180.158 C 318.625 180.158, 318.063 180.385, 318.750 180.662 M 323.333 181.667 C 323.700 182.033, 324.300 182.033, 324.667 181.667 C 325.033 181.300, 324.733 181, 324 181 C 323.267 181, 322.967 181.300, 323.333 181.667 M 238 185 C 238 185.733, 238.300 186.033, 238.667 185.667 C 239.033 185.300, 239.033 184.700, 238.667 184.333 C 238.300 183.967, 238 184.267, 238 185 M 774.232 189 C 774.232 190.925, 774.438 191.713, 774.689 190.750 C 774.941 189.787, 774.941 188.213, 774.689 187.250 C 774.438 186.287, 774.232 187.075, 774.232 189 M 363 192 C 363.589 193.100, 364.295 194, 364.570 194 C 364.845 194, 364.589 193.100, 364 192 C 363.411 190.900, 362.705 190, 362.430 190 C 362.155 190, 362.411 190.900, 363 192 M 324.264 191.718 C 325.784 191.947, 328.034 191.941, 329.264 191.704 C 330.494 191.467, 329.250 191.279, 326.500 191.286 C 323.750 191.294, 322.744 191.488, 324.264 191.718 M 684.250 191.689 C 685.212 191.941, 686.788 191.941, 687.750 191.689 C 688.712 191.438, 687.925 191.232, 686 191.232 C 684.075 191.232, 683.288 191.438, 684.250 191.689 M 651.405 193.155 C 650.962 193.870, 651.130 194.038, 651.845 193.595 C 652.998 192.883, 653.393 192, 652.559 192 C 652.316 192, 651.797 192.520, 651.405 193.155 M 291.750 195.662 C 292.438 195.940, 293.563 195.940, 294.250 195.662 C 294.938 195.385, 294.375 195.158, 293 195.158 C 291.625 195.158, 291.063 195.385, 291.750 195.662 M 717.250 195.689 C 718.212 195.941, 719.788 195.941, 720.750 195.689 C 721.712 195.438, 720.925 195.232, 719 195.232 C 717.075 195.232, 716.288 195.438, 717.250 195.689 M 314.269 196.693 C 315.242 196.947, 316.592 196.930, 317.269 196.656 C 317.946 196.382, 317.150 196.175, 315.500 196.195 C 313.850 196.215, 313.296 196.439, 314.269 196.693 M 697.813 196.683 C 698.534 196.972, 699.397 196.936, 699.729 196.604 C 700.061 196.272, 699.471 196.036, 698.417 196.079 C 697.252 196.127, 697.015 196.364, 697.813 196.683 M 320.813 197.683 C 321.534 197.972, 322.397 197.936, 322.729 197.604 C 323.061 197.272, 322.471 197.036, 321.417 197.079 C 320.252 197.127, 320.015 197.364, 320.813 197.683 M 691.750 197.662 C 692.438 197.940, 693.563 197.940, 694.250 197.662 C 694.938 197.385, 694.375 197.158, 693 197.158 C 691.625 197.158, 691.063 197.385, 691.750 197.662 M 612.500 209.619 C 604.800 214.335, 597.669 218.993, 596.654 219.971 C 594.992 221.570, 589.736 235.055, 590.480 235.809 C 590.648 235.980, 593.646 233.259, 597.143 229.763 C 600.639 226.267, 608.814 218.366, 615.310 212.204 C 621.805 206.042, 626.980 201.010, 626.810 201.022 C 626.639 201.035, 620.200 204.903, 612.500 209.619 M 295.750 202.706 C 296.988 202.944, 299.012 202.944, 300.250 202.706 C 301.488 202.467, 300.475 202.272, 298 202.272 C 295.525 202.272, 294.512 202.467, 295.750 202.706 M 393.412 206.015 C 400.475 213.868, 425.272 236.433, 424.653 234.444 C 424.320 233.375, 423.235 229.814, 422.242 226.531 L 420.437 220.562 409.223 213.917 C 403.056 210.262, 396.095 206.011, 393.755 204.469 L 389.500 201.666 393.412 206.015 M 712.750 202.706 C 713.987 202.944, 716.013 202.944, 717.250 202.706 C 718.487 202.467, 717.475 202.272, 715 202.272 C 712.525 202.272, 711.513 202.467, 712.750 202.706 M 692.333 203.667 C 692.700 204.033, 693.300 204.033, 693.667 203.667 C 694.033 203.300, 693.733 203, 693 203 C 692.267 203, 691.967 203.300, 692.333 203.667 M 689.333 204.667 C 689.700 205.033, 690.300 205.033, 690.667 204.667 C 691.033 204.300, 690.733 204, 690 204 C 689.267 204, 688.967 204.300, 689.333 204.667 M 692.762 208.707 C 694.006 208.946, 695.806 208.937, 696.762 208.687 C 697.718 208.437, 696.700 208.241, 694.500 208.252 C 692.300 208.263, 691.518 208.468, 692.762 208.707 M 493.828 209.903 C 490.708 210.237, 487.783 210.885, 487.328 211.342 C 486.234 212.439, 486.817 242.734, 488.088 250.895 C 489.777 261.735, 488.080 261, 511.413 261 C 527.112 261, 532.007 260.697, 532.858 259.671 C 535.236 256.806, 537.151 215.368, 535.059 212.061 C 534.544 211.248, 531.613 210.306, 528.324 209.895 C 521.436 209.036, 501.865 209.040, 493.828 209.903 M 334.269 210.693 C 335.242 210.947, 336.592 210.930, 337.269 210.656 C 337.946 210.382, 337.150 210.175, 335.500 210.195 C 333.850 210.215, 333.296 210.439, 334.269 210.693 M 450 212.629 C 440.489 215.132, 431 218.147, 431 218.665 C 431 218.940, 433.090 218.881, 435.645 218.534 C 439.799 217.971, 440.608 218.201, 443.283 220.702 L 446.275 223.500 444.523 220.750 L 442.770 218 445.709 218 C 447.463 218, 450.632 216.589, 453.571 214.500 C 458.915 210.700, 458.385 210.423, 450 212.629 M 540.500 236.546 L 540.500 261.837 538.076 264.419 L 535.651 267 511.897 267 C 486.142 267, 486.087 266.989, 483.916 261.280 C 483.412 259.954, 483 248.338, 483 235.466 C 483 215.074, 482.807 212.137, 481.500 212.638 C 480.225 213.128, 480 216.756, 480 236.791 C 480 258.196, 480.181 260.743, 481.968 264.434 L 483.936 268.500 511.718 268.309 L 539.500 268.119 541.500 264.809 C 543.291 261.846, 543.536 259.370, 543.841 241.100 C 544.200 219.608, 543.681 212.476, 541.702 211.716 C 540.786 211.364, 540.500 217.262, 540.500 236.546 M 566.399 214.141 C 569.006 215.868, 572.444 217.555, 574.037 217.891 L 576.933 218.500 571.792 224.500 L 566.651 230.500 573.244 224.109 C 579.731 217.822, 579.908 217.729, 584.169 218.347 L 588.500 218.976 585 217.372 C 581.789 215.901, 564.725 211.067, 562.579 211.020 C 562.072 211.009, 563.791 212.413, 566.399 214.141 M 342.813 212.683 C 343.534 212.972, 344.397 212.936, 344.729 212.604 C 345.061 212.272, 344.471 212.036, 343.417 212.079 C 342.252 212.127, 342.015 212.364, 342.813 212.683 M 490.163 237.462 C 490.402 249.085, 490.985 257.385, 491.605 258.005 C 492.272 258.672, 499.410 258.948, 511.502 258.773 L 530.358 258.500 531.229 255.500 C 531.708 253.850, 532.190 244.850, 532.300 235.500 L 532.500 218.500 511.131 218.230 L 489.762 217.960 490.163 237.462 M 674.500 222 C 674.840 222.550, 675.343 223, 675.618 223 C 675.893 223, 675.840 222.550, 675.500 222 C 675.160 221.450, 674.657 221, 674.382 221 C 674.107 221, 674.160 221.450, 674.500 222 M 666 224.500 C 664.625 225.286, 663.950 225.929, 664.500 225.929 C 665.050 225.929, 666.625 225.286, 668 224.500 C 669.375 223.714, 670.050 223.071, 669.500 223.071 C 668.950 223.071, 667.375 223.714, 666 224.500 M 447 224.378 C 447 224.585, 447.788 225.373, 448.750 226.128 C 450.336 227.371, 450.371 227.336, 449.128 225.750 C 447.821 224.084, 447 223.555, 447 224.378 M 348.333 225.667 C 348.700 226.033, 349.300 226.033, 349.667 225.667 C 350.033 225.300, 349.733 225, 349 225 C 348.267 225, 347.967 225.300, 348.333 225.667 M 351.333 226.667 C 351.700 227.033, 352.300 227.033, 352.667 226.667 C 353.033 226.300, 352.733 226, 352 226 C 351.267 226, 350.967 226.300, 351.333 226.667 M 454.333 228.667 C 454.700 229.033, 455.300 229.033, 455.667 228.667 C 456.033 228.300, 455.733 228, 455 228 C 454.267 228, 453.967 228.300, 454.333 228.667 M 718.813 230.683 C 719.534 230.972, 720.397 230.936, 720.729 230.604 C 721.061 230.272, 720.471 230.036, 719.417 230.079 C 718.252 230.127, 718.015 230.364, 718.813 230.683 M 346.813 236.683 C 347.534 236.972, 348.397 236.936, 348.729 236.604 C 349.061 236.272, 348.471 236.036, 347.417 236.079 C 346.252 236.127, 346.015 236.364, 346.813 236.683 M 350.333 237.667 C 350.700 238.033, 351.300 238.033, 351.667 237.667 C 352.033 237.300, 351.733 237, 351 237 C 350.267 237, 349.967 237.300, 350.333 237.667 M 661.333 237.667 C 661.700 238.033, 662.300 238.033, 662.667 237.667 C 663.033 237.300, 662.733 237, 662 237 C 661.267 237, 660.967 237.300, 661.333 237.667 M 709.813 237.683 C 710.534 237.972, 711.397 237.936, 711.729 237.604 C 712.061 237.272, 711.471 237.036, 710.417 237.079 C 709.252 237.127, 709.015 237.364, 709.813 237.683 M 354.333 238.667 C 354.700 239.033, 355.300 239.033, 355.667 238.667 C 356.033 238.300, 355.733 238, 355 238 C 354.267 238, 353.967 238.300, 354.333 238.667 M 304.250 243.689 C 305.212 243.941, 306.788 243.941, 307.750 243.689 C 308.712 243.438, 307.925 243.232, 306 243.232 C 304.075 243.232, 303.288 243.438, 304.250 243.689 M 705.762 243.707 C 707.006 243.946, 708.806 243.937, 709.762 243.687 C 710.718 243.437, 709.700 243.241, 707.500 243.252 C 705.300 243.263, 704.518 243.468, 705.762 243.707 M 755.645 246.250 C 754.170 249.773, 754.379 251.021, 756.146 249.254 C 757.212 248.188, 758.264 243, 757.415 243 C 757.190 243, 756.393 244.463, 755.645 246.250 M 340.500 246 C 343.249 247.181, 344.828 247.181, 343 246 C 342.175 245.467, 340.825 245.055, 340 245.086 C 339.011 245.122, 339.181 245.433, 340.500 246 M 329.333 249.667 C 329.700 250.033, 330.300 250.033, 330.667 249.667 C 331.033 249.300, 330.733 249, 330 249 C 329.267 249, 328.967 249.300, 329.333 249.667 M 310.762 250.707 C 312.006 250.946, 313.806 250.937, 314.762 250.687 C 315.718 250.437, 314.700 250.241, 312.500 250.252 C 310.300 250.263, 309.518 250.468, 310.762 250.707 M 699.762 250.707 C 701.006 250.946, 702.806 250.937, 703.762 250.687 C 704.718 250.437, 703.700 250.241, 701.500 250.252 C 699.300 250.263, 698.518 250.468, 699.762 250.707 M 669.750 253.662 C 670.438 253.940, 671.563 253.940, 672.250 253.662 C 672.938 253.385, 672.375 253.158, 671 253.158 C 669.625 253.158, 669.063 253.385, 669.750 253.662 M 751.459 254.067 C 751.096 254.653, 751.014 255.348, 751.276 255.610 C 751.538 255.872, 752.019 255.392, 752.345 254.543 C 753.021 252.781, 752.445 252.471, 751.459 254.067 M 666.333 254.667 C 666.700 255.033, 667.300 255.033, 667.667 254.667 C 668.033 254.300, 667.733 254, 667 254 C 666.267 254, 665.967 254.300, 666.333 254.667 M 262 255.378 C 262 255.585, 262.788 256.373, 263.750 257.128 C 265.336 258.371, 265.371 258.336, 264.128 256.750 C 262.821 255.084, 262 254.555, 262 255.378 M 661 256 C 660.175 256.533, 659.950 256.969, 660.500 256.969 C 661.050 256.969, 662.175 256.533, 663 256 C 663.825 255.467, 664.050 255.031, 663.500 255.031 C 662.950 255.031, 661.825 255.467, 661 256 M 717.333 260.667 C 717.700 261.033, 718.300 261.033, 718.667 260.667 C 719.033 260.300, 718.733 260, 718 260 C 717.267 260, 716.967 260.300, 717.333 260.667 M 261 274.114 C 261 283.722, 263.468 293.141, 265.755 292.264 C 266.551 291.958, 267.600 292.337, 268.086 293.104 C 268.642 293.983, 268.975 291.616, 268.985 286.719 C 268.997 280.559, 269.329 278.811, 270.580 278.331 C 271.449 277.997, 275.611 278.647, 279.830 279.774 C 284.048 280.901, 287.592 281.734, 287.704 281.624 C 287.817 281.514, 283.767 279.229, 278.704 276.545 C 273.642 273.861, 267.587 270.368, 265.250 268.784 L 261 265.904 261 274.114 M 751 267.419 C 750.175 268.242, 744.550 271.648, 738.500 274.989 C 729.213 280.118, 728.123 280.959, 731.500 280.392 C 733.700 280.022, 736.542 279.333, 737.815 278.860 C 739.088 278.387, 741.226 278, 742.565 278 C 744.949 278, 745.003 278.183, 745.136 286.750 C 745.211 291.563, 745.462 294.530, 745.693 293.344 C 745.937 292.097, 747.129 290.933, 748.521 290.584 C 752.580 289.565, 755.377 276.046, 753.150 268.212 C 752.573 266.181, 752.332 266.092, 751 267.419 M 662.500 270 C 662.840 270.550, 663.343 271, 663.618 271 C 663.893 271, 663.840 270.550, 663.500 270 C 663.160 269.450, 662.657 269, 662.382 269 C 662.107 269, 662.160 269.450, 662.500 270 M 449.269 271.693 C 450.242 271.947, 451.592 271.930, 452.269 271.656 C 452.946 271.382, 452.150 271.175, 450.500 271.195 C 448.850 271.215, 448.296 271.439, 449.269 271.693 M 480.589 274.077 C 479.165 275.769, 477.714 278.293, 477.364 279.685 C 476.078 284.809, 479.348 319.470, 481.347 321.904 C 481.981 322.676, 482.275 323.533, 482 323.808 C 481.725 324.084, 482.322 324.430, 483.327 324.578 C 484.637 324.770, 484.982 324.394, 484.544 323.253 C 482.300 317.406, 479.294 285.489, 480.479 280.094 C 481.851 273.850, 482.481 273.711, 509.236 273.753 C 522.581 273.774, 534.640 273.838, 536.034 273.896 C 539.575 274.041, 542 278.528, 542 284.933 C 542 290.190, 539.375 317.847, 538.521 321.583 C 538.210 322.947, 538.541 323.667, 539.480 323.667 C 541.166 323.667, 541.490 322.297, 543.488 306.699 C 545.565 290.491, 545.492 279.156, 543.291 275.973 C 539.740 270.835, 540.804 271, 511.160 271 L 483.178 271 480.589 274.077 M 357 273 C 357.825 273.533, 358.950 273.969, 359.500 273.969 C 360.050 273.969, 359.825 273.533, 359 273 C 358.175 272.467, 357.050 272.031, 356.500 272.031 C 355.950 272.031, 356.175 272.467, 357 273 M 566 275 C 566 275.733, 566.300 276.033, 566.667 275.667 C 567.033 275.300, 567.033 274.700, 566.667 274.333 C 566.300 273.967, 566 274.267, 566 275 M 487.470 281.673 C 485.998 283.145, 485.882 284.924, 486.508 296.423 C 486.899 303.615, 487.789 310.850, 488.486 312.500 C 490.334 316.874, 509.080 344.518, 510.118 344.400 C 510.603 344.345, 511.604 344.233, 512.343 344.150 C 514.349 343.926, 533.074 315.587, 534.081 311.252 C 535.072 306.983, 535.314 283.982, 534.393 281.582 C 533.865 280.205, 530.896 280, 511.464 280 C 491.929 280, 488.934 280.209, 487.470 281.673 M 365.122 286.835 C 353.987 292.930, 351.475 295.416, 347.604 304.168 C 345.259 309.472, 345.229 309.753, 347.072 309.271 C 348.144 308.991, 352.738 305.327, 357.282 301.131 C 361.825 296.934, 368.683 290.696, 372.521 287.269 C 381.452 279.296, 379.143 279.160, 365.122 286.835 M 642.517 287.724 C 659.296 303.928, 666.421 309.913, 667.566 308.767 C 668.701 307.633, 663.778 297.181, 660.752 294.300 C 658.964 292.596, 653.738 289.327, 649.139 287.034 C 635.295 280.132, 634.718 280.193, 642.517 287.724 M 315.333 282.667 C 315.700 283.033, 316.300 283.033, 316.667 282.667 C 317.033 282.300, 316.733 282, 316 282 C 315.267 282, 314.967 282.300, 315.333 282.667 M 489.489 285.034 C 488.576 287.913, 490.020 311.053, 491.266 313.500 C 493.336 317.564, 509.305 341.029, 509.719 340.615 C 510.290 340.043, 507.412 334.513, 503.776 329.199 C 502.158 326.833, 499.296 322.178, 497.417 318.853 C 494.017 312.837, 494 312.745, 494 299.904 L 494 287 511.118 287 L 528.235 287 527.779 300.920 L 527.323 314.840 522.967 322.170 C 514.752 335.994, 512.185 340.866, 513.354 340.418 C 514.578 339.948, 527.481 320.871, 530.379 315.247 C 531.761 312.563, 532.006 309.499, 531.777 297.747 L 531.500 283.500 510.824 283.230 C 490.662 282.967, 490.131 283.012, 489.489 285.034 M 696.333 283.667 C 696.700 284.033, 697.300 284.033, 697.667 283.667 C 698.033 283.300, 697.733 283, 697 283 C 696.267 283, 695.967 283.300, 696.333 283.667 M 696.405 289.155 C 695.962 289.870, 696.130 290.038, 696.845 289.595 C 697.480 289.203, 698 288.684, 698 288.441 C 698 287.607, 697.117 288.002, 696.405 289.155 M 296.500 295 C 296.840 295.550, 297.343 296, 297.618 296 C 297.893 296, 297.840 295.550, 297.500 295 C 297.160 294.450, 296.657 294, 296.382 294 C 296.107 294, 296.160 294.450, 296.500 295 M 715.564 295.707 C 715.022 297.132, 715.136 297.247, 716.124 296.267 C 716.808 295.588, 717.115 294.781, 716.807 294.474 C 716.499 294.166, 715.940 294.721, 715.564 295.707 M 298.500 298 C 298.840 298.550, 299.343 299, 299.618 299 C 299.893 299, 299.840 298.550, 299.500 298 C 299.160 297.450, 298.657 297, 298.382 297 C 298.107 297, 298.160 297.450, 298.500 298 M 293.978 300.970 C 295.142 302.603, 296.604 304.255, 297.228 304.641 C 297.852 305.027, 297.103 303.690, 295.563 301.671 C 292.220 297.289, 290.960 296.731, 293.978 300.970 M 719.872 299.750 C 718.629 301.336, 718.664 301.371, 720.250 300.128 C 721.916 298.821, 722.445 298, 721.622 298 C 721.415 298, 720.627 298.788, 719.872 299.750 M 300.899 301.500 C 302.585 304.762, 303.970 306.570, 303.962 305.500 C 303.959 304.950, 303.035 303.375, 301.911 302 C 300.552 300.339, 300.213 300.172, 300.899 301.500 M 312.079 301.583 C 312.127 302.748, 312.364 302.985, 312.683 302.188 C 312.972 301.466, 312.936 300.603, 312.604 300.271 C 312.272 299.939, 312.036 300.529, 312.079 301.583 M 711 303 C 710.411 304.100, 710.155 305, 710.430 305 C 710.705 305, 711.411 304.100, 712 303 C 712.589 301.900, 712.845 301, 712.570 301 C 712.295 301, 711.589 301.900, 711 303 M 287 303.759 C 287 304.177, 288.012 305.141, 289.250 305.901 C 291.492 307.278, 291.493 307.276, 289.595 305.142 C 287.557 302.850, 287 302.554, 287 303.759 M 724.981 304.523 C 723.924 305.796, 723.986 305.943, 725.359 305.416 C 726.261 305.069, 727 304.384, 727 303.893 C 727 302.607, 726.421 302.788, 724.981 304.523 M 701.158 306 C 701.158 307.375, 701.385 307.938, 701.662 307.250 C 701.940 306.563, 701.940 305.438, 701.662 304.750 C 701.385 304.063, 701.158 304.625, 701.158 306 M 715 305.500 C 714.282 306.365, 714.185 307, 714.771 307 C 715.329 307, 716.045 306.325, 716.362 305.500 C 716.678 304.675, 716.781 304, 716.591 304 C 716.401 304, 715.685 304.675, 715 305.500 M 313.158 308 C 313.158 309.375, 313.385 309.938, 313.662 309.250 C 313.940 308.563, 313.940 307.438, 313.662 306.750 C 313.385 306.063, 313.158 306.625, 313.158 308 M 721.405 307.155 C 720.962 307.870, 721.130 308.038, 721.845 307.595 C 722.480 307.203, 723 306.684, 723 306.441 C 723 305.607, 722.117 306.002, 721.405 307.155 M 293.441 308.445 C 294.509 309.300, 295.821 310, 296.358 310 C 297.628 310, 297.061 309.538, 294 308.080 C 291.643 306.958, 291.611 306.978, 293.441 308.445 M 700.158 311 C 700.158 312.375, 700.385 312.938, 700.662 312.250 C 700.940 311.563, 700.940 310.438, 700.662 309.750 C 700.385 309.063, 700.158 309.625, 700.158 311 M 314.237 313 C 314.237 314.375, 314.580 316.850, 315 318.500 C 315.681 321.176, 315.763 321.230, 315.763 319 C 315.763 317.625, 315.420 315.150, 315 313.500 C 314.319 310.824, 314.237 310.770, 314.237 313 M 699.079 316.583 C 699.127 317.748, 699.364 317.985, 699.683 317.188 C 699.972 316.466, 699.936 315.603, 699.604 315.271 C 699.272 314.939, 699.036 315.529, 699.079 316.583 M 271.500 320 C 271.840 320.550, 272.343 321, 272.618 321 C 272.893 321, 272.840 320.550, 272.500 320 C 272.160 319.450, 271.657 319, 271.382 319 C 271.107 319, 271.160 319.450, 271.500 320 M 698.079 321.583 C 698.127 322.748, 698.364 322.985, 698.683 322.188 C 698.972 321.466, 698.936 320.603, 698.604 320.271 C 698.272 319.939, 698.036 320.529, 698.079 321.583 M 740.405 322.155 C 739.962 322.870, 740.130 323.038, 740.845 322.595 C 741.480 322.203, 742 321.684, 742 321.441 C 742 320.607, 741.117 321.002, 740.405 322.155 M 534.809 329.803 C 527.728 342.165, 526.014 345.358, 527.349 343.697 C 528.242 342.586, 529 342.308, 529.324 342.972 C 529.613 343.565, 529.720 343.476, 529.562 342.775 C 529.404 342.074, 529.899 340.262, 530.663 338.750 C 532.118 335.869, 533.632 334.911, 532.638 337.500 C 531.523 340.408, 532.946 338.949, 535.535 334.530 C 536.976 332.071, 537.826 329.527, 537.423 328.875 C 536.989 328.173, 537.118 327.955, 537.741 328.340 C 538.318 328.697, 539.057 328.293, 539.384 327.442 C 539.710 326.592, 539.571 326.147, 539.074 326.454 C 538.577 326.761, 538.020 326.583, 537.835 326.059 C 537.651 325.535, 536.289 327.219, 534.809 329.803 M 483 327 C 483 327.733, 483.300 328.033, 483.667 327.667 C 484.033 327.300, 484.033 326.700, 483.667 326.333 C 483.300 325.967, 483 326.267, 483 327 M 485.500 327 C 485.840 327.550, 486.343 328, 486.618 328 C 486.893 328, 486.840 327.550, 486.500 327 C 486.160 326.450, 485.657 326, 485.382 326 C 485.107 326, 485.160 326.450, 485.500 327 M 313.959 330.192 L 311.700 333.500 314.547 330.780 C 316.113 329.284, 317.129 327.796, 316.806 327.473 C 316.483 327.149, 315.202 328.373, 313.959 330.192 M 486.405 330.155 C 485.954 330.884, 486.131 331.037, 486.886 330.571 C 487.730 330.049, 487.917 330.516, 487.523 332.166 C 487.097 333.950, 488.673 336.928, 494.214 344.808 C 498.200 350.477, 501.621 354.638, 501.816 354.053 C 502.133 353.102, 488.333 329, 487.471 329 C 487.277 329, 486.797 329.520, 486.405 330.155 M 406.254 333 C 412.136 347.067, 426.965 372.606, 427.798 370.106 C 428.325 368.525, 410.039 334.383, 407.302 331.837 L 404.791 329.500 406.254 333 M 608.356 332.191 C 606.401 334.337, 602.395 341.559, 592.099 361.500 C 589.477 366.578, 587.793 371.326, 587.487 374.500 L 587.007 379.500 588.409 374.712 C 589.181 372.079, 591.837 366.904, 594.312 363.212 C 599.433 355.572, 611.271 332.314, 610.783 330.850 C 610.606 330.317, 609.514 330.920, 608.356 332.191 M 488.031 332.500 C 488.031 333.050, 488.467 334.175, 489 335 C 489.533 335.825, 489.969 336.050, 489.969 335.500 C 489.969 334.950, 489.533 333.825, 489 333 C 488.467 332.175, 488.031 331.950, 488.031 332.500 M 533.459 334.067 C 533.096 334.653, 533.014 335.348, 533.276 335.610 C 533.538 335.872, 534.019 335.392, 534.345 334.543 C 535.021 332.781, 534.445 332.471, 533.459 334.067 M 418 338.590 C 418 339.016, 421.155 345.091, 425.011 352.089 C 433.594 367.664, 434.606 370.462, 436.508 383.879 C 438.977 401.286, 439.100 401.830, 440.019 399.417 C 441.209 396.291, 443.417 367.788, 442.688 364.959 C 441.869 361.782, 429.871 347.753, 423.187 342.156 C 420.334 339.768, 418 338.163, 418 338.590 M 589.735 345.006 C 586.130 348.309, 580.839 354.171, 577.977 358.032 L 572.773 365.051 573.449 371.776 C 574.582 383.028, 577.101 399.357, 577.934 400.846 C 578.397 401.675, 579.019 398.815, 579.450 393.875 C 581.322 372.383, 583.624 364.883, 593.558 347.912 C 600.145 336.661, 599.433 336.120, 589.735 345.006 M 605.200 359.200 C 603.574 360.826, 603.691 361.667, 605.543 361.667 C 606.392 361.667, 606.867 361.096, 606.599 360.398 C 606.331 359.700, 606.650 358.911, 607.306 358.644 C 607.965 358.376, 608.029 358.122, 607.450 358.079 C 606.872 358.036, 605.860 358.540, 605.200 359.200 M 412.500 362.290 C 412.500 363.676, 412.837 364.600, 413.250 364.345 C 413.663 364.091, 414 364.332, 414 364.882 C 414 365.432, 413.502 366.190, 412.893 366.566 C 412.122 367.043, 412.197 367.510, 413.143 368.110 C 414.197 368.778, 414.212 368.973, 413.211 368.985 C 412.158 368.997, 412.158 369.256, 413.211 370.395 C 413.920 371.162, 414.907 371.543, 415.405 371.241 C 415.902 370.938, 416.021 371.158, 415.668 371.728 C 415.316 372.298, 415.913 373.891, 416.995 375.267 C 418.078 376.643, 421.897 382.187, 425.482 387.586 C 432.216 397.730, 433.161 397.839, 430.371 388.154 C 427.933 379.691, 423.745 372.182, 417.814 365.636 C 413.021 360.346, 412.500 360.018, 412.500 362.290 M 599.852 366.331 C 594.108 374.201, 586 392.400, 586 397.425 C 586 398.009, 589.444 393.315, 593.653 386.993 C 597.862 380.672, 602.376 374.212, 603.683 372.638 C 605.668 370.247, 605.849 369.516, 604.780 368.196 C 603.726 366.895, 603.740 366.760, 604.857 367.433 C 605.895 368.058, 606.055 367.750, 605.540 366.125 C 605.101 364.742, 605.296 364, 606.099 364 C 606.778 364, 607.020 363.687, 606.638 363.304 C 604.853 361.520, 602.645 362.504, 599.852 366.331 M 603.405 370.155 C 602.962 370.870, 603.130 371.038, 603.845 370.595 C 604.480 370.203, 605 369.684, 605 369.441 C 605 368.607, 604.117 369.002, 603.405 370.155 M 586.079 381.583 C 586.127 382.748, 586.364 382.985, 586.683 382.188 C 586.972 381.466, 586.936 380.603, 586.604 380.271 C 586.272 379.939, 586.036 380.529, 586.079 381.583 M 295.675 392.965 C 288.878 397.725, 284.948 401.267, 282.925 404.457 C 281.316 406.994, 280 409.226, 280 409.418 C 280 409.610, 280.938 410.012, 282.085 410.312 C 283.822 410.766, 284.505 410.051, 286.179 406.023 C 287.845 402.013, 289.698 400.062, 297.048 394.573 C 305.588 388.196, 308.024 385.952, 306.309 386.042 C 305.864 386.066, 301.079 389.181, 295.675 392.965 M 708.403 386.843 C 708.690 387.307, 713.188 390.708, 718.398 394.402 C 726.501 400.145, 728.074 401.725, 729.265 405.309 C 730.255 408.291, 731.283 409.592, 732.828 409.820 C 735.149 410.161, 735.676 408.686, 733.941 406.708 C 733.358 406.044, 732.073 404.133, 731.085 402.463 C 730.079 400.763, 724.833 396.469, 719.173 392.713 C 709.355 386.197, 707.318 385.087, 708.403 386.843 M 384.333 396.667 C 384.700 397.033, 385.300 397.033, 385.667 396.667 C 386.033 396.300, 385.733 396, 385 396 C 384.267 396, 383.967 396.300, 384.333 396.667 M 633.250 396.689 C 634.212 396.941, 635.788 396.941, 636.750 396.689 C 637.712 396.438, 636.925 396.232, 635 396.232 C 633.075 396.232, 632.288 396.438, 633.250 396.689 M 391.750 397.662 C 392.438 397.940, 393.563 397.940, 394.250 397.662 C 394.938 397.385, 394.375 397.158, 393 397.158 C 391.625 397.158, 391.063 397.385, 391.750 397.662 M 624 398.046 C 622.905 398.787, 623.309 398.880, 625.500 398.390 C 629.177 397.567, 629.975 396.995, 627.417 397.015 C 626.362 397.024, 624.825 397.487, 624 398.046 M 397.500 399 C 398.600 399.473, 400.400 399.846, 401.500 399.830 C 403.108 399.806, 403.010 399.644, 401 399 C 397.581 397.905, 394.952 397.905, 397.500 399 M 614.500 400.504 L 611.500 401.918 614.500 401.310 C 616.150 400.976, 618.400 400.348, 619.500 399.915 L 621.500 399.127 619.500 399.108 C 618.400 399.098, 616.150 399.726, 614.500 400.504 M 368.015 404.600 C 368.028 406.193, 368.187 406.257, 369 405 C 369.777 403.798, 369.972 403.968, 369.985 405.857 C 369.995 407.455, 369.555 408.043, 368.618 407.684 C 367.652 407.313, 367.054 408.258, 366.629 410.827 C 363.225 431.416, 374.534 453.739, 392.668 462.225 C 401.404 466.313, 413.994 467.282, 421.819 464.468 C 428.793 461.960, 436.336 456.317, 435.528 454.212 C 435.179 453.304, 435.219 452.886, 435.616 453.283 C 436.787 454.454, 440.133 450.865, 439.067 449.581 C 438.468 448.859, 438.864 447.588, 440.189 445.982 L 442.237 443.500 440.596 446.250 C 439.693 447.762, 439.352 449, 439.838 449 C 440.324 449, 441.757 447.049, 443.022 444.664 L 445.322 440.329 442.187 435.771 C 437.107 428.388, 421.819 416, 417.787 416 C 415.552 416, 413 419.333, 413 422.252 C 413 423.679, 414.091 426.144, 415.425 427.729 L 417.851 430.612 414.331 437.556 C 412.396 441.375, 409.670 446.481, 408.275 448.902 L 405.738 453.304 403.950 450.933 C 398.777 444.076, 396.608 426.552, 399.441 414.508 C 400.216 411.213, 400.691 408.357, 400.496 408.163 C 399.278 406.945, 384.094 403.853, 376.750 403.327 C 368.597 402.743, 368.001 402.830, 368.015 404.600 M 500.200 404.200 C 498.351 406.049, 498.779 407.189, 500.897 406.055 C 503.408 404.711, 521.994 405.896, 522.015 407.401 C 522.024 408.005, 522.448 407.840, 522.958 407.034 C 523.546 406.104, 523.496 405.097, 522.820 404.284 C 521.390 402.560, 501.912 402.488, 500.200 404.200 M 633.831 404.023 C 624.779 405.551, 617.793 408.019, 618.358 409.491 C 623.141 421.956, 621.495 443.228, 615.139 451.076 L 613.298 453.351 609.010 445.925 C 606.652 441.841, 603.968 437.375, 603.045 436 C 601.444 433.614, 601.473 433.344, 603.683 430.102 C 604.958 428.233, 606 425.521, 606 424.075 C 606 420.510, 603.367 417, 600.693 417.001 C 596.364 417.002, 582.492 429.913, 576.520 439.500 C 575.135 441.722, 575.055 442.169, 576.209 441.224 C 577.502 440.165, 577.898 440.250, 578.542 441.724 C 578.969 442.701, 579.227 443.894, 579.117 444.375 C 579.007 444.856, 579.680 446.094, 580.613 447.125 C 581.546 448.156, 581.945 449, 581.500 449 C 581.055 449, 581.547 450.012, 582.595 451.250 L 584.500 453.500 582.274 451.616 C 581.049 450.580, 580.259 449.390, 580.518 448.971 C 580.777 448.552, 580.311 447.950, 579.482 447.632 C 578.156 447.122, 578.146 447.378, 579.406 449.777 C 581.579 453.917, 587.875 459.469, 594 462.646 C 598.974 465.226, 600.456 465.499, 609.500 465.499 C 618.695 465.500, 620.049 465.240, 626.315 462.272 C 641.730 454.971, 652.953 436.501, 652.988 418.375 C 653.002 411.212, 652.086 405.829, 650.972 406.518 C 650.540 406.784, 650.422 406.102, 650.710 405.001 C 651.195 403.146, 650.769 403.009, 644.867 403.118 C 641.365 403.182, 636.399 403.590, 633.831 404.023 M 184 405 C 184 406.313, 216.969 406.313, 219 405 C 219.999 404.355, 214.402 404.026, 202.250 404.015 C 190.740 404.006, 184 404.369, 184 405 M 801.500 405 C 804.371 406.234, 838.738 406.234, 839.500 405 C 839.905 404.345, 833.111 404.024, 819.809 404.070 C 807.535 404.113, 800.291 404.481, 801.500 405 M 420 407.393 C 420 407.609, 420.698 408.054, 421.552 408.382 C 422.442 408.723, 422.843 408.555, 422.493 407.989 C 421.906 407.038, 420 406.583, 420 407.393 M 596.507 408.989 C 596.157 409.555, 596.558 409.723, 597.448 409.382 C 599.180 408.717, 599.497 408, 598.059 408 C 597.541 408, 596.843 408.445, 596.507 408.989 M 367.630 411.250 C 366.838 414.208, 366.958 423.039, 367.820 425.213 C 368.194 426.155, 368.500 422.892, 368.500 417.963 C 368.500 413.033, 368.440 409, 368.367 409 C 368.293 409, 367.962 410.012, 367.630 411.250 M 424 409.393 C 424 409.609, 424.698 410.054, 425.552 410.382 C 426.442 410.723, 426.843 410.555, 426.493 409.989 C 425.906 409.038, 424 408.583, 424 409.393 M 505.015 411.250 C 505.043 415.311, 506.324 416.136, 512.095 415.808 C 517.388 415.506, 517.506 415.433, 517.813 412.250 L 518.127 409 511.563 409 C 505.419 409, 505.001 409.144, 505.015 411.250 M 651.286 420.500 C 651.294 423.250, 651.488 424.256, 651.718 422.736 C 651.947 421.216, 651.941 418.966, 651.704 417.736 C 651.467 416.506, 651.279 417.750, 651.286 420.500 M 484 422 C 484 422.733, 484.300 423.033, 484.667 422.667 C 485.033 422.300, 485.033 421.700, 484.667 421.333 C 484.300 420.967, 484 421.267, 484 422 M 690 427.706 C 690 428.117, 693.214 431.689, 697.142 435.643 L 704.285 442.834 702.605 449.667 C 697.011 472.427, 692.894 482.512, 684.609 493.753 C 682.074 497.192, 680 500.454, 680 501.003 C 680 505.392, 689.204 494.025, 695.514 481.843 C 700.493 472.231, 705.578 457.660, 706.574 450.154 C 707.327 444.480, 708.321 442.463, 709.888 443.431 C 712.347 444.950, 710.851 452.471, 704.304 471.500 C 699.107 486.604, 694.165 495.548, 686.349 503.990 C 680.686 510.107, 668.810 518.109, 657.500 523.430 C 643.645 529.948, 629.381 537.292, 627.750 538.748 C 626.210 540.123, 625.301 543, 626.407 543 C 626.631 543, 629.893 541.617, 633.657 539.926 C 637.421 538.235, 647.925 533.766, 657 529.994 C 687.020 517.519, 685.930 518.237, 694.299 505.425 C 699.926 496.811, 701.918 492.265, 706.427 477.740 C 709.885 466.599, 715 446.122, 715 443.417 C 715 442.644, 711.168 439.540, 706.484 436.518 C 696.703 430.208, 690 426.625, 690 427.706 M 317.944 432.816 C 313.850 435.466, 309.038 438.488, 307.250 439.532 C 305.462 440.577, 304 442.001, 304 442.697 C 304 443.393, 305.614 450.834, 307.586 459.231 C 313.147 482.907, 319.099 498.867, 326.539 510.059 C 332.086 518.403, 332.184 518.459, 362 530.300 C 373.825 534.997, 386.120 540.009, 389.322 541.439 L 395.144 544.039 394.822 541.841 C 394.456 539.344, 388.723 535.830, 377 530.918 C 372.875 529.189, 363.897 525.013, 357.049 521.637 C 346.568 516.471, 343.474 514.382, 337.496 508.431 C 322.465 493.469, 316.179 480.062, 308.603 446.802 C 308.061 444.424, 308.551 443.728, 312.744 440.925 C 317 438.080, 317.214 438.024, 314.778 440.388 C 311.712 443.363, 311.707 443.248, 315.524 458.500 C 317.955 468.213, 320.950 475.379, 326.699 485.234 C 331.146 492.859, 337.919 502, 339.120 502 C 340.963 502, 339.791 499.294, 335.471 493.572 C 329.310 485.413, 321.590 469.330, 318.542 458.304 C 314.960 445.346, 315.117 443.497, 320.250 438.143 C 322.587 435.706, 323.825 434.068, 323 434.503 C 322.175 434.939, 322.962 433.951, 324.750 432.309 C 331.401 426.196, 327.756 426.468, 317.944 432.816 M 442.183 440.217 C 440.715 441.685, 440.656 443, 442.059 443 C 442.641 443, 442.864 442.588, 442.553 442.085 C 442.242 441.582, 442.553 440.969, 443.244 440.722 C 443.935 440.476, 444.245 439.995, 443.933 439.654 C 443.622 439.312, 442.834 439.566, 442.183 440.217 M 499.500 446 C 499.840 446.550, 500.343 447, 500.618 447 C 500.893 447, 500.840 446.550, 500.500 446 C 500.160 445.450, 499.657 445, 499.382 445 C 499.107 445, 499.160 445.450, 499.500 446 M 437 451 C 437 451.733, 437.300 452.033, 437.667 451.667 C 438.033 451.300, 438.033 450.700, 437.667 450.333 C 437.300 449.967, 437 450.267, 437 451 M 453.624 464.539 C 453.281 465.432, 453.039 466.914, 453.086 467.832 C 453.133 468.749, 453.568 468.173, 454.053 466.550 C 454.996 463.394, 454.662 461.832, 453.624 464.539 M 566 466.441 C 566 467.234, 566.408 468.134, 566.907 468.442 C 567.405 468.751, 567.578 468.102, 567.290 467.001 C 566.679 464.666, 566 464.371, 566 466.441 M 385.333 469.667 C 385.700 470.033, 386.300 470.033, 386.667 469.667 C 387.033 469.300, 386.733 469, 386 469 C 385.267 469, 384.967 469.300, 385.333 469.667 M 276 471 C 276 471.733, 276.300 472.033, 276.667 471.667 C 277.033 471.300, 277.033 470.700, 276.667 470.333 C 276.300 469.967, 276 470.267, 276 471 M 392.550 470.949 C 393.072 471.471, 395.525 472.153, 398 472.466 L 402.500 473.034 397.500 471.561 C 391.426 469.772, 391.364 469.764, 392.550 470.949 M 621.333 471.667 C 621.700 472.033, 622.300 472.033, 622.667 471.667 C 623.033 471.300, 622.733 471, 622 471 C 621.267 471, 620.967 471.300, 621.333 471.667 M 616.750 472.662 C 617.438 472.940, 618.563 472.940, 619.250 472.662 C 619.938 472.385, 619.375 472.158, 618 472.158 C 616.625 472.158, 616.063 472.385, 616.750 472.662 M 407.250 473.735 C 409.863 473.941, 414.137 473.941, 416.750 473.735 C 419.363 473.529, 417.225 473.360, 412 473.360 C 406.775 473.360, 404.637 473.529, 407.250 473.735 M 601.250 473.735 C 603.862 473.941, 608.138 473.941, 610.750 473.735 C 613.362 473.529, 611.225 473.360, 606 473.360 C 600.775 473.360, 598.638 473.529, 601.250 473.735 M 404.750 479.706 C 405.988 479.944, 408.012 479.944, 409.250 479.706 C 410.488 479.467, 409.475 479.272, 407 479.272 C 404.525 479.272, 403.512 479.467, 404.750 479.706 M 280 482 C 280 482.733, 280.300 483.033, 280.667 482.667 C 281.033 482.300, 281.033 481.700, 280.667 481.333 C 280.300 480.967, 280 481.267, 280 482 M 350 483.500 C 351.292 484.875, 352.574 486, 352.849 486 C 353.124 486, 352.292 484.875, 351 483.500 C 349.708 482.125, 348.426 481, 348.151 481 C 347.876 481, 348.708 482.125, 350 483.500 M 669.405 483.155 C 668.962 483.870, 669.130 484.038, 669.845 483.595 C 670.998 482.883, 671.393 482, 670.559 482 C 670.316 482, 669.797 482.520, 669.405 483.155 M 659.333 488.667 C 659.700 489.033, 660.300 489.033, 660.667 488.667 C 661.033 488.300, 660.733 488, 660 488 C 659.267 488, 658.967 488.300, 659.333 488.667 M 371.333 490.667 C 371.700 491.033, 372.300 491.033, 372.667 490.667 C 373.033 490.300, 372.733 490, 372 490 C 371.267 490, 370.967 490.300, 371.333 490.667 M 646.333 490.667 C 646.700 491.033, 647.300 491.033, 647.667 490.667 C 648.033 490.300, 647.733 490, 647 490 C 646.267 490, 645.967 490.300, 646.333 490.667 M 639.750 491.662 C 640.438 491.940, 641.563 491.940, 642.250 491.662 C 642.938 491.385, 642.375 491.158, 641 491.158 C 639.625 491.158, 639.063 491.385, 639.750 491.662 M 432.848 493.750 C 431.485 495.383, 429 500.455, 429 501.606 C 429 502.824, 431.198 500.572, 434.035 496.449 C 436.102 493.444, 436.644 492, 435.703 492 C 434.937 492, 433.652 492.788, 432.848 493.750 M 585 492.685 C 585 494.162, 590.025 501, 591.111 501 C 592.458 501, 587.893 492.775, 586.250 492.240 C 585.563 492.016, 585 492.216, 585 492.685 M 634.333 492.667 C 634.700 493.033, 635.300 493.033, 635.667 492.667 C 636.033 492.300, 635.733 492, 635 492 C 634.267 492, 633.967 492.300, 634.333 492.667 M 624.750 493.662 C 625.438 493.940, 626.563 493.940, 627.250 493.662 C 627.938 493.385, 627.375 493.158, 626 493.158 C 624.625 493.158, 624.063 493.385, 624.750 493.662 M 594.564 497.707 C 594.022 499.132, 594.136 499.247, 595.124 498.267 C 595.808 497.588, 596.115 496.781, 595.807 496.474 C 595.499 496.166, 594.940 496.721, 594.564 497.707 M 610 503 C 610 503.733, 610.300 504.033, 610.667 503.667 C 611.033 503.300, 611.033 502.700, 610.667 502.333 C 610.300 501.967, 610 502.267, 610 503 M 410 506 C 410 506.733, 410.300 507.033, 410.667 506.667 C 411.033 506.300, 411.033 505.700, 410.667 505.333 C 410.300 504.967, 410 505.267, 410 506 M 609.020 506.476 C 608.231 507.426, 608.155 508, 608.819 508 C 610.027 508, 611.436 506.103, 610.743 505.409 C 610.491 505.158, 609.716 505.638, 609.020 506.476 M 405.500 511 C 405.840 511.550, 406.343 512, 406.618 512 C 406.893 512, 406.840 511.550, 406.500 511 C 406.160 510.450, 405.657 510, 405.382 510 C 405.107 510, 405.160 510.450, 405.500 511 M 481 538.642 L 476.500 543.416 481.228 539.208 C 483.828 536.894, 486.303 535.009, 486.728 535.019 C 487.152 535.030, 492.885 536.770, 499.466 538.885 C 510.598 542.464, 511.713 542.643, 515.466 541.460 C 535.239 535.228, 537.144 534.821, 538.930 536.436 C 539.880 537.296, 541.020 538, 541.464 538 C 541.907 538, 541.046 537.037, 539.550 535.861 L 536.831 533.722 524.165 537.686 L 511.500 541.650 501 538.233 C 485.379 533.149, 486.195 533.133, 481 538.642 M 481.250 544.247 C 475.542 546.078, 477.503 549.784, 483.328 548.175 C 487.320 547.073, 493.009 548.721, 496.485 551.986 C 499.751 555.054, 501.541 562.010, 500.116 566.098 C 498.633 570.350, 498.709 572, 500.386 572 C 502.838 572, 505.275 565.209, 504.757 559.820 C 504.175 553.769, 500.239 548.448, 493.980 545.250 C 489.246 542.831, 486.369 542.605, 481.250 544.247 M 529.121 545.169 C 522.959 548.219, 519 554.665, 519 561.649 C 519 567.407, 520.598 572, 522.601 572 C 524.657 572, 524.913 570.716, 523.737 566.309 C 521.358 557.396, 527.823 548, 536.335 548 C 538.681 548, 541.159 548.559, 541.842 549.242 C 542.830 550.230, 543.275 550.180, 544.026 548.992 C 545.643 546.434, 545.110 545.234, 541.851 544.098 C 537.205 542.478, 534.015 542.747, 529.121 545.169 M 371.287 548.740 C 374.469 548.939, 379.419 548.937, 382.287 548.736 C 385.154 548.535, 382.550 548.372, 376.500 548.374 C 370.450 548.376, 368.104 548.541, 371.287 548.740 M 396.768 549.725 C 398.565 549.947, 401.265 549.943, 402.768 549.715 C 404.271 549.486, 402.800 549.304, 399.500 549.310 C 396.200 549.315, 394.971 549.502, 396.768 549.725 M 622.750 549.723 C 624.538 549.945, 627.462 549.945, 629.250 549.723 C 631.038 549.502, 629.575 549.320, 626 549.320 C 622.425 549.320, 620.962 549.502, 622.750 549.723 M 660.813 549.683 C 661.534 549.972, 662.397 549.936, 662.729 549.604 C 663.061 549.272, 662.471 549.036, 661.417 549.079 C 660.252 549.127, 660.015 549.364, 660.813 549.683 M 407.250 550.689 C 408.212 550.941, 409.788 550.941, 410.750 550.689 C 411.712 550.438, 410.925 550.232, 409 550.232 C 407.075 550.232, 406.288 550.438, 407.250 550.689 M 613.250 550.689 C 614.212 550.941, 615.788 550.941, 616.750 550.689 C 617.712 550.438, 616.925 550.232, 615 550.232 C 613.075 550.232, 612.288 550.438, 613.250 550.689 M 709.813 551.683 C 710.534 551.972, 711.397 551.936, 711.729 551.604 C 712.061 551.272, 711.471 551.036, 710.417 551.079 C 709.252 551.127, 709.015 551.364, 709.813 551.683 M 288.750 552.662 C 289.438 552.940, 290.563 552.940, 291.250 552.662 C 291.938 552.385, 291.375 552.158, 290 552.158 C 288.625 552.158, 288.063 552.385, 288.750 552.662 M 364.333 553.667 C 364.700 554.033, 365.300 554.033, 365.667 553.667 C 366.033 553.300, 365.733 553, 365 553 C 364.267 553, 363.967 553.300, 364.333 553.667 M 377.998 553.750 C 377.996 554.163, 381.934 554.380, 386.748 554.232 C 402.282 553.757, 403.809 553.354, 390.750 553.175 C 383.738 553.079, 377.999 553.337, 377.998 553.750 M 627.287 553.740 C 630.469 553.939, 635.419 553.937, 638.287 553.736 C 641.154 553.535, 638.550 553.372, 632.500 553.374 C 626.450 553.376, 624.104 553.541, 627.287 553.740 M 658.269 553.693 C 659.242 553.947, 660.592 553.930, 661.269 553.656 C 661.946 553.382, 661.150 553.175, 659.500 553.195 C 657.850 553.215, 657.296 553.439, 658.269 553.693 M 342.250 554.689 C 343.212 554.941, 344.788 554.941, 345.750 554.689 C 346.712 554.438, 345.925 554.232, 344 554.232 C 342.075 554.232, 341.288 554.438, 342.250 554.689 M 355.269 554.693 C 356.242 554.947, 357.592 554.930, 358.269 554.656 C 358.946 554.382, 358.150 554.175, 356.500 554.195 C 354.850 554.215, 354.296 554.439, 355.269 554.693 M 650.250 554.689 C 651.212 554.941, 652.788 554.941, 653.750 554.689 C 654.712 554.438, 653.925 554.232, 652 554.232 C 650.075 554.232, 649.288 554.438, 650.250 554.689 M 676.333 554.667 C 676.700 555.033, 677.300 555.033, 677.667 554.667 C 678.033 554.300, 677.733 554, 677 554 C 676.267 554, 675.967 554.300, 676.333 554.667 M 320.813 556.683 C 321.534 556.972, 322.397 556.936, 322.729 556.604 C 323.061 556.272, 322.471 556.036, 321.417 556.079 C 320.252 556.127, 320.015 556.364, 320.813 556.683 M 213.333 562.667 C 213.700 563.033, 214.300 563.033, 214.667 562.667 C 215.033 562.300, 214.733 562, 214 562 C 213.267 562, 212.967 562.300, 213.333 562.667 M 815.333 563.667 C 815.700 564.033, 816.300 564.033, 816.667 563.667 C 817.033 563.300, 816.733 563, 816 563 C 815.267 563, 814.967 563.300, 815.333 563.667 M 390.750 568.706 C 391.988 568.944, 394.012 568.944, 395.250 568.706 C 396.488 568.467, 395.475 568.272, 393 568.272 C 390.525 568.272, 389.512 568.467, 390.750 568.706 M 622.333 568.667 C 622.700 569.033, 623.300 569.033, 623.667 568.667 C 624.033 568.300, 623.733 568, 623 568 C 622.267 568, 621.967 568.300, 622.333 568.667 M 625.750 568.662 C 626.438 568.940, 627.563 568.940, 628.250 568.662 C 628.938 568.385, 628.375 568.158, 627 568.158 C 625.625 568.158, 625.063 568.385, 625.750 568.662 M 381.762 569.707 C 383.006 569.946, 384.806 569.937, 385.762 569.687 C 386.718 569.437, 385.700 569.241, 383.500 569.252 C 381.300 569.263, 380.518 569.468, 381.762 569.707 M 635.750 569.706 C 636.987 569.944, 639.013 569.944, 640.250 569.706 C 641.487 569.467, 640.475 569.272, 638 569.272 C 635.525 569.272, 634.513 569.467, 635.750 569.706 M 374.269 570.693 C 375.242 570.947, 376.592 570.930, 377.269 570.656 C 377.946 570.382, 377.150 570.175, 375.500 570.195 C 373.850 570.215, 373.296 570.439, 374.269 570.693 M 645.250 570.689 C 646.212 570.941, 647.788 570.941, 648.750 570.689 C 649.712 570.438, 648.925 570.232, 647 570.232 C 645.075 570.232, 644.288 570.438, 645.250 570.689 M 367.813 571.683 C 368.534 571.972, 369.397 571.936, 369.729 571.604 C 370.061 571.272, 369.471 571.036, 368.417 571.079 C 367.252 571.127, 367.015 571.364, 367.813 571.683 M 652.750 571.706 C 653.987 571.944, 656.013 571.944, 657.250 571.706 C 658.487 571.467, 657.475 571.272, 655 571.272 C 652.525 571.272, 651.513 571.467, 652.750 571.706 M 358.269 572.693 C 359.242 572.947, 360.592 572.930, 361.269 572.656 C 361.946 572.382, 361.150 572.175, 359.500 572.195 C 357.850 572.215, 357.296 572.439, 358.269 572.693 M 661.250 572.689 C 662.212 572.941, 663.788 572.941, 664.750 572.689 C 665.712 572.438, 664.925 572.232, 663 572.232 C 661.075 572.232, 660.288 572.438, 661.250 572.689 M 352.750 573.662 C 353.438 573.940, 354.563 573.940, 355.250 573.662 C 355.938 573.385, 355.375 573.158, 354 573.158 C 352.625 573.158, 352.063 573.385, 352.750 573.662 M 414.333 573.667 C 414.700 574.033, 415.300 574.033, 415.667 573.667 C 416.033 573.300, 415.733 573, 415 573 C 414.267 573, 413.967 573.300, 414.333 573.667 M 609.813 573.683 C 610.534 573.972, 611.397 573.936, 611.729 573.604 C 612.061 573.272, 611.471 573.036, 610.417 573.079 C 609.252 573.127, 609.015 573.364, 609.813 573.683 M 347.813 574.683 C 348.534 574.972, 349.397 574.936, 349.729 574.604 C 350.061 574.272, 349.471 574.036, 348.417 574.079 C 347.252 574.127, 347.015 574.364, 347.813 574.683 M 410.813 574.683 C 411.534 574.972, 412.397 574.936, 412.729 574.604 C 413.061 574.272, 412.471 574.036, 411.417 574.079 C 410.252 574.127, 410.015 574.364, 410.813 574.683 M 614.083 574.379 C 614.313 574.587, 620.575 576.579, 628 578.806 C 635.425 581.033, 642.400 583.146, 643.500 583.503 C 645.116 584.027, 645.200 583.955, 643.938 583.131 C 643.078 582.570, 636.328 580.286, 628.938 578.055 C 616.405 574.273, 613.055 573.444, 614.083 574.379 M 676.269 574.693 C 677.242 574.947, 678.592 574.930, 679.269 574.656 C 679.946 574.382, 679.150 574.175, 677.500 574.195 C 675.850 574.215, 675.296 574.439, 676.269 574.693 M 342.750 575.662 C 343.438 575.940, 344.563 575.940, 345.250 575.662 C 345.938 575.385, 345.375 575.158, 344 575.158 C 342.625 575.158, 342.063 575.385, 342.750 575.662 M 407.333 575.667 C 407.700 576.033, 408.300 576.033, 408.667 575.667 C 409.033 575.300, 408.733 575, 408 575 C 407.267 575, 406.967 575.300, 407.333 575.667 M 399.188 577.683 C 396.816 578.522, 395.052 579.385, 395.268 579.601 C 395.484 579.817, 398.099 579.128, 401.080 578.070 C 404.061 577.012, 405.825 576.149, 405 576.152 C 404.175 576.155, 401.559 576.844, 399.188 577.683 M 690.333 576.667 C 690.700 577.033, 691.300 577.033, 691.667 576.667 C 692.033 576.300, 691.733 576, 691 576 C 690.267 576, 689.967 576.300, 690.333 576.667 M 332.813 577.683 C 333.534 577.972, 334.397 577.936, 334.729 577.604 C 335.061 577.272, 334.471 577.036, 333.417 577.079 C 332.252 577.127, 332.015 577.364, 332.813 577.683 M 344.681 577.653 C 343.422 578.911, 343.986 590.708, 345.511 595.030 C 346.342 597.385, 346.904 599.407, 346.761 599.524 C 346.617 599.641, 345.150 600.499, 343.500 601.432 C 341.850 602.364, 341.400 602.823, 342.500 602.450 C 343.600 602.078, 345.175 601.578, 346 601.341 C 346.984 601.057, 348.655 602.846, 350.861 606.545 C 352.709 609.646, 355.607 613.761, 357.301 615.690 C 360.210 619.003, 360.457 619.096, 361.734 617.349 C 362.478 616.332, 363.292 615.612, 363.543 615.750 C 366.027 617.109, 365.352 614.942, 361.674 609.750 C 359.238 606.313, 356.925 602.455, 356.533 601.178 C 356.041 599.578, 355.321 599.047, 354.216 599.471 C 352.914 599.970, 352.960 599.702, 354.461 598.043 C 356.080 596.254, 356.108 596, 354.690 596 C 352.340 596, 351 592.825, 351 587.253 C 351 583.207, 350.519 581.913, 348.181 579.673 C 346.630 578.187, 345.055 577.278, 344.681 577.653 M 672.051 579.662 C 669.632 582.737, 668.694 585.816, 669.167 589.126 C 669.424 590.926, 670.206 591.512, 672.608 591.704 L 675.715 591.953 676.333 585.340 C 677.176 576.305, 675.961 574.692, 672.051 579.662 M 695.813 577.683 C 696.534 577.972, 697.397 577.936, 697.729 577.604 C 698.061 577.272, 697.471 577.036, 696.417 577.079 C 695.252 577.127, 695.015 577.364, 695.813 577.683 M 707.333 579.667 C 707.700 580.033, 708.300 580.033, 708.667 579.667 C 709.033 579.300, 708.733 579, 708 579 C 707.267 579, 706.967 579.300, 707.333 579.667 M 391 581 C 390.175 581.533, 389.950 581.969, 390.500 581.969 C 391.050 581.969, 392.175 581.533, 393 581 C 393.825 580.467, 394.050 580.031, 393.500 580.031 C 392.950 580.031, 391.825 580.467, 391 581 M 387.333 582.667 C 387.700 583.033, 388.300 583.033, 388.667 582.667 C 389.033 582.300, 388.733 582, 388 582 C 387.267 582, 386.967 582.300, 387.333 582.667 M 379.500 585.434 C 372.930 588.598, 374.211 588.696, 381.122 585.558 C 384.080 584.214, 386.050 583.095, 385.500 583.070 C 384.950 583.046, 382.250 584.109, 379.500 585.434 M 729.333 583.667 C 729.700 584.033, 730.300 584.033, 730.667 583.667 C 731.033 583.300, 730.733 583, 730 583 C 729.267 583, 728.967 583.300, 729.333 583.667 M 735.333 584.667 C 735.700 585.033, 736.300 585.033, 736.667 584.667 C 737.033 584.300, 736.733 584, 736 584 C 735.267 584, 734.967 584.300, 735.333 584.667 M 650.545 585.872 C 651.070 586.356, 654.108 587.710, 657.296 588.880 C 663.798 591.265, 671 594.774, 671 595.556 C 671 595.839, 670.052 595.563, 668.893 594.943 C 666.315 593.563, 666.064 593.837, 662.223 602.206 L 659.146 608.912 661.323 609.645 C 662.520 610.048, 664.095 610.483, 664.822 610.611 C 666.226 610.859, 674 599.622, 674 597.345 C 674 596.605, 674.436 596, 674.969 596 C 675.501 596, 675.644 595.235, 675.285 594.301 C 674.888 593.267, 674.479 593.064, 674.239 593.782 C 673.963 594.611, 672.701 594.378, 669.991 592.995 C 665.081 590.490, 649.277 584.701, 650.545 585.872 M 292.333 586.667 C 292.700 587.033, 293.300 587.033, 293.667 586.667 C 294.033 586.300, 293.733 586, 293 586 C 292.267 586, 291.967 586.300, 292.333 586.667 M 608.333 588.667 C 608.700 589.033, 609.300 589.033, 609.667 588.667 C 610.033 588.300, 609.733 588, 609 588 C 608.267 588, 607.967 588.300, 608.333 588.667 M 363.500 592.453 C 359.650 594.309, 356.779 595.867, 357.120 595.914 C 357.461 595.961, 361.061 594.454, 365.120 592.565 C 369.179 590.676, 372.050 589.118, 371.500 589.104 C 370.950 589.089, 367.350 590.596, 363.500 592.453 M 611.333 589.667 C 611.700 590.033, 612.300 590.033, 612.667 589.667 C 613.033 589.300, 612.733 589, 612 589 C 611.267 589, 610.967 589.300, 611.333 589.667 M 399.500 596.310 C 387.834 602.990, 380 607.974, 380 608.714 C 380 609.177, 385.579 605.958, 390 602.945 C 391.375 602.008, 396.997 598.712, 402.493 595.621 C 407.990 592.529, 412.040 590.002, 411.493 590.005 C 410.947 590.008, 405.550 592.845, 399.500 596.310 M 614.333 590.667 C 614.700 591.033, 615.300 591.033, 615.667 590.667 C 616.033 590.300, 615.733 590, 615 590 C 614.267 590, 613.967 590.300, 614.333 590.667 M 618 592 C 618.825 592.533, 619.950 592.969, 620.500 592.969 C 621.050 592.969, 620.825 592.533, 620 592 C 619.175 591.467, 618.050 591.031, 617.500 591.031 C 616.950 591.031, 617.175 591.467, 618 592 M 627 596 C 630.025 597.598, 632.950 598.906, 633.500 598.906 C 634.050 598.906, 632.025 597.598, 629 596 C 625.975 594.402, 623.050 593.094, 622.500 593.094 C 621.950 593.094, 623.975 594.402, 627 596 M 430.405 595.155 C 429.962 595.870, 430.130 596.038, 430.845 595.595 C 431.998 594.883, 432.393 594, 431.559 594 C 431.316 594, 430.797 594.520, 430.405 595.155 M 424.741 598.374 C 419.937 601.327, 418.596 602.722, 422.500 600.703 C 425.635 599.083, 429.863 596.064, 429 596.063 C 428.725 596.063, 426.808 597.103, 424.741 598.374 M 594.500 596.751 C 595.281 597.528, 607.683 605.820, 617.750 612.295 C 618.438 612.738, 619 612.886, 619 612.626 C 619 612.365, 614.335 609.016, 608.633 605.182 C 598.390 598.296, 592.557 594.816, 594.500 596.751 M 639.500 601.827 C 640.711 602.982, 656 610.044, 656 609.449 C 656 608.947, 644.952 603.309, 641.167 601.881 C 639.602 601.290, 638.913 601.268, 639.500 601.827 M 407.913 609.139 C 398.097 615.869, 393.486 619.391, 397 617.476 C 398.866 616.459, 417.152 603.978, 418.450 602.836 C 421.307 600.322, 417.121 602.826, 407.913 609.139 M 703.333 602.667 C 703.700 603.033, 704.300 603.033, 704.667 602.667 C 705.033 602.300, 704.733 602, 704 602 C 703.267 602, 702.967 602.300, 703.333 602.667 M 337 604 C 336.175 604.533, 335.950 604.969, 336.500 604.969 C 337.050 604.969, 338.175 604.533, 339 604 C 339.825 603.467, 340.050 603.031, 339.500 603.031 C 338.950 603.031, 337.825 603.467, 337 604 M 693.083 603.377 C 694.106 604.303, 702 607.989, 702 607.541 C 702 606.972, 694.453 603, 693.373 603 C 692.985 603, 692.854 603.170, 693.083 603.377 M 430.234 610.250 C 425.296 614.508, 413.881 627.215, 408.674 634.250 C 403.431 641.333, 406.828 637.994, 413.950 629.063 C 417.870 624.148, 424.480 616.948, 428.640 613.063 C 436.999 605.256, 437.930 603.615, 430.234 610.250 M 597.398 615.266 C 602.842 620.620, 607.554 625, 607.869 625 C 608.783 625, 595.900 612.163, 591.500 608.690 C 589.300 606.954, 591.954 609.913, 597.398 615.266 M 665.459 607.067 C 665.096 607.653, 665.014 608.348, 665.276 608.610 C 665.538 608.872, 666.019 608.392, 666.345 607.543 C 667.021 605.781, 666.445 605.471, 665.459 607.067 M 374.500 611.835 C 372.300 613.359, 368.137 615.892, 365.250 617.462 C 362.363 619.033, 360 620.681, 360 621.125 C 360 621.569, 361.594 620.992, 363.543 619.842 C 365.491 618.693, 367.404 618.094, 367.793 618.513 C 368.182 618.931, 368.001 619.453, 367.392 619.673 C 366.782 619.893, 365.491 620.651, 364.523 621.359 C 362.988 622.482, 362.937 622.926, 364.122 624.823 C 365.777 627.473, 366.692 627.520, 370.306 625.137 L 373.112 623.287 370.575 620.272 L 368.039 617.257 373.519 613.618 C 376.534 611.617, 379 609.759, 379 609.490 C 379 608.750, 378.809 608.849, 374.500 611.835 M 321 611 C 320.175 611.533, 319.950 611.969, 320.500 611.969 C 321.050 611.969, 322.175 611.533, 323 611 C 323.825 610.467, 324.050 610.031, 323.500 610.031 C 322.950 610.031, 321.825 610.467, 321 611 M 315 613.500 C 313.625 614.286, 312.950 614.929, 313.500 614.929 C 314.050 614.929, 315.625 614.286, 317 613.500 C 318.375 612.714, 319.050 612.071, 318.500 612.071 C 317.950 612.071, 316.375 612.714, 315 613.500 M 620.918 614.363 C 622.249 616.003, 626 618.483, 626 617.723 C 626 617.532, 624.538 616.305, 622.750 614.997 C 620.739 613.525, 620.040 613.283, 620.918 614.363 M 651.701 617.990 C 647.811 623.201, 646.601 625.901, 649.967 621.861 C 652.062 619.346, 652.638 619.938, 651.027 622.950 C 650.255 624.392, 650.410 624.741, 651.777 624.634 C 652.828 624.552, 653.370 625.085, 653.168 626 C 652.952 626.974, 653.727 626.663, 655.379 625.112 C 657.389 623.225, 657.714 622.333, 656.926 620.862 C 656.378 619.838, 655.383 619.036, 654.715 619.079 C 653.799 619.138, 653.808 619.282, 654.750 619.662 C 655.438 619.940, 656 620.606, 656 621.142 C 656 621.679, 655.555 621.843, 655.011 621.507 C 654.436 621.152, 654.254 621.649, 654.575 622.698 C 654.879 623.689, 654.368 623.184, 653.441 621.576 C 651.846 618.812, 651.852 618.581, 653.557 617.334 C 655.075 616.225, 655.644 616.273, 657.157 617.642 C 658.145 618.536, 658.678 619.770, 658.342 620.384 C 658.006 620.998, 659.260 619.925, 661.128 618 C 665.190 613.815, 665.123 612.793, 660.988 615.851 C 659.344 617.066, 658 617.596, 658 617.030 C 658 616.463, 658.450 616, 659 616 C 659.550 616, 660 615.502, 660 614.893 C 660 614.270, 659.270 614.066, 658.330 614.427 C 657.411 614.779, 656.377 614.610, 656.031 614.050 C 655.685 613.491, 653.737 615.264, 651.701 617.990 M 666 615.459 C 666 615.734, 667.800 616.878, 670 618 C 672.200 619.122, 674 619.816, 674 619.541 C 674 619.266, 672.200 618.122, 670 617 C 667.800 615.878, 666 615.184, 666 615.459 M 732 615.430 C 732 615.705, 732.900 616.411, 734 617 C 735.100 617.589, 736 617.845, 736 617.570 C 736 617.295, 735.100 616.589, 734 616 C 732.900 615.411, 732 615.155, 732 615.430 M 719.333 616.667 C 719.700 617.033, 720.300 617.033, 720.667 616.667 C 721.033 616.300, 720.733 616, 720 616 C 719.267 616, 718.967 616.300, 719.333 616.667 M 191.333 618.667 C 191.700 619.033, 192.300 619.033, 192.667 618.667 C 193.033 618.300, 192.733 618, 192 618 C 191.267 618, 190.967 618.300, 191.333 618.667 M 393.405 619.155 C 392.962 619.870, 393.130 620.038, 393.845 619.595 C 394.998 618.883, 395.393 618, 394.559 618 C 394.316 618, 393.797 618.520, 393.405 619.155 M 628.500 620 C 628.840 620.550, 629.343 621, 629.618 621 C 629.893 621, 629.840 620.550, 629.500 620 C 629.160 619.450, 628.657 619, 628.382 619 C 628.107 619, 628.160 619.450, 628.500 620 M 740.500 620 C 740.840 620.550, 741.343 621, 741.618 621 C 741.893 621, 741.840 620.550, 741.500 620 C 741.160 619.450, 740.657 619, 740.382 619 C 740.107 619, 740.160 619.450, 740.500 620 M 686.500 621 C 686.840 621.550, 687.343 622, 687.618 622 C 687.893 622, 687.840 621.550, 687.500 621 C 687.160 620.450, 686.657 620, 686.382 620 C 686.107 620, 686.160 620.450, 686.500 621 M 379.405 622.155 C 378.962 622.870, 379.130 623.038, 379.845 622.595 C 380.998 621.883, 381.393 621, 380.559 621 C 380.316 621, 379.797 621.520, 379.405 622.155 M 677.433 621.891 C 678.146 623.045, 682 625.374, 682 624.650 C 682 624.419, 680.820 623.457, 679.377 622.511 C 677.934 621.566, 677.059 621.287, 677.433 621.891 M 291 625 C 290.175 625.533, 289.950 625.969, 290.500 625.969 C 291.050 625.969, 292.175 625.533, 293 625 C 293.825 624.467, 294.050 624.031, 293.500 624.031 C 292.950 624.031, 291.825 624.467, 291 625 M 323.405 625.155 C 322.962 625.870, 323.130 626.038, 323.845 625.595 C 324.998 624.883, 325.393 624, 324.559 624 C 324.316 624, 323.797 624.520, 323.405 625.155 M 373.507 624.989 C 373.157 625.555, 373.558 625.723, 374.448 625.382 C 376.180 624.717, 376.497 624, 375.059 624 C 374.541 624, 373.843 624.445, 373.507 624.989 M 382.441 626.555 C 380.577 628.049, 380.589 628.067, 382.750 627.020 C 383.988 626.420, 385 625.720, 385 625.465 C 385 624.700, 384.481 624.921, 382.441 626.555 M 684.500 626 C 684.840 626.550, 685.343 627, 685.618 627 C 685.893 627, 685.840 626.550, 685.500 626 C 685.160 625.450, 684.657 625, 684.382 625 C 684.107 625, 684.160 625.450, 684.500 626 M 318.250 628.115 C 314.841 630.298, 313.738 631.764, 316.750 630.108 C 319.044 628.847, 322.639 626.068, 322 626.049 C 321.725 626.040, 320.038 626.970, 318.250 628.115 M 609.145 627.651 C 610.799 630.276, 624.949 649.107, 626.313 650.500 C 629.812 654.071, 615.365 633.817, 610.978 629 C 609.224 627.075, 608.399 626.468, 609.145 627.651 M 638.911 627.316 C 640.452 629.257, 646 633.433, 646 632.652 C 646 632.386, 644.087 630.676, 641.750 628.853 C 639.413 627.030, 638.135 626.338, 638.911 627.316 M 644.459 627.067 C 644.096 627.653, 644.014 628.348, 644.276 628.610 C 644.538 628.872, 645.019 628.392, 645.345 627.543 C 646.021 625.781, 645.445 625.471, 644.459 627.067 M 650.252 626.452 C 650.666 626.939, 650.299 628.117, 649.437 629.070 C 648.570 630.028, 648.286 631.059, 648.801 631.377 C 649.314 631.694, 650.479 631.128, 651.392 630.120 C 652.939 628.410, 652.931 628.196, 651.275 626.926 C 650.299 626.178, 649.838 625.965, 650.252 626.452 M 696.733 627.124 C 697.412 627.808, 698.219 628.115, 698.526 627.807 C 698.834 627.499, 698.279 626.940, 697.293 626.564 C 695.868 626.022, 695.753 626.136, 696.733 627.124 M 646.584 628.641 C 646.057 630.014, 646.204 630.076, 647.477 629.019 C 649.212 627.579, 649.393 627, 648.107 627 C 647.616 627, 646.931 627.739, 646.584 628.641 M 687 627.350 C 687 627.581, 688.180 628.543, 689.623 629.489 C 691.066 630.434, 691.941 630.713, 691.567 630.109 C 690.854 628.955, 687 626.626, 687 627.350 M 375.695 629.872 C 374.204 630.850, 373.325 632.026, 373.742 632.485 C 374.159 632.943, 373.613 632.998, 372.529 632.606 C 371.445 632.214, 373.718 635.180, 377.580 639.197 C 381.442 643.214, 385.640 647.988, 386.909 649.807 C 389.062 652.892, 389.337 653.005, 391.002 651.498 C 391.983 650.610, 393.237 648.110, 393.787 645.942 C 394.848 641.760, 394.457 640.590, 393.165 644.082 C 392.419 646.100, 392.360 646.086, 391.241 643.630 C 390.228 641.405, 390.295 641.172, 391.793 641.721 C 392.732 642.065, 391.475 640.655, 389 638.587 C 386.525 636.519, 383.129 633.312, 381.453 631.460 C 378.417 628.105, 378.397 628.099, 375.695 629.872 M 649.872 629.750 C 648.629 631.336, 648.664 631.371, 650.250 630.128 C 651.916 628.821, 652.445 628, 651.622 628 C 651.415 628, 650.627 628.788, 649.872 629.750 M 701 629.430 C 701 629.705, 701.900 630.411, 703 631 C 704.100 631.589, 705 631.845, 705 631.570 C 705 631.295, 704.100 630.589, 703 630 C 701.900 629.411, 701 629.155, 701 629.430 M 278.405 632.155 C 277.962 632.870, 278.130 633.038, 278.845 632.595 C 279.998 631.883, 280.393 631, 279.559 631 C 279.316 631, 278.797 631.520, 278.405 632.155 M 634.314 637.074 L 628.128 643.068 629.455 646.784 C 630.185 648.828, 631.265 650.393, 631.855 650.262 C 632.445 650.131, 632.669 650.699, 632.353 651.523 C 631.191 654.552, 634.527 651.941, 637.191 647.738 C 638.668 645.407, 641.479 641.949, 643.438 640.054 C 647.893 635.744, 648.168 633.569, 643.754 637.563 C 640.830 640.208, 640.741 640.234, 642.858 637.824 C 645.214 635.143, 644.970 632.414, 642.461 633.376 C 641.727 633.658, 640.985 633.257, 640.813 632.485 C 640.615 631.595, 638.232 633.278, 634.314 637.074 M 706 632.430 C 706 632.705, 706.900 633.411, 708 634 C 709.100 634.589, 710 634.845, 710 634.570 C 710 634.295, 709.100 633.589, 708 633 C 706.900 632.411, 706 632.155, 706 632.430 M 358.872 634.750 C 357.629 636.336, 357.664 636.371, 359.250 635.128 C 360.916 633.821, 361.445 633, 360.622 633 C 360.415 633, 359.627 633.788, 358.872 634.750 M 365.861 636.059 L 363.500 638.119 366.250 636.444 C 367.762 635.523, 369 634.597, 369 634.385 C 369 633.604, 368.165 634.050, 365.861 636.059 M 766.500 635 C 766.840 635.550, 767.343 636, 767.618 636 C 767.893 636, 767.840 635.550, 767.500 635 C 767.160 634.450, 766.657 634, 766.382 634 C 766.107 634, 766.160 634.450, 766.500 635 M 637.143 635.890 C 636.309 636.419, 636.172 636.988, 636.788 637.369 C 637.340 637.710, 638.048 637.316, 638.364 636.494 C 639.026 634.767, 638.964 634.737, 637.143 635.890 M 711.500 636 C 711.840 636.550, 712.343 637, 712.618 637 C 712.893 637, 712.840 636.550, 712.500 636 C 712.160 635.450, 711.657 635, 711.382 635 C 711.107 635, 711.160 635.450, 711.500 636 M 304.405 637.155 C 303.962 637.870, 304.130 638.038, 304.845 637.595 C 305.998 636.883, 306.393 636, 305.559 636 C 305.316 636, 304.797 636.520, 304.405 637.155 M 354.405 638.250 L 352.500 640.500 354.750 638.595 C 356.864 636.805, 357.455 636, 356.655 636 C 356.465 636, 355.453 637.013, 354.405 638.250 M 386 637.378 C 386 637.585, 386.788 638.373, 387.750 639.128 C 389.336 640.371, 389.371 640.336, 388.128 638.750 C 386.821 637.084, 386 636.555, 386 637.378 M 703 637.265 C 703 637.485, 704.913 639.185, 707.250 641.043 C 709.587 642.900, 710.865 643.630, 710.089 642.663 C 708.627 640.843, 703 636.558, 703 637.265 M 361.405 639.155 C 360.962 639.870, 361.130 640.038, 361.845 639.595 C 362.998 638.883, 363.393 638, 362.559 638 C 362.316 638, 361.797 638.520, 361.405 639.155 M 403.232 641.750 C 400.643 645.489, 399.802 647, 400.308 647 C 400.542 647, 401.925 645.200, 403.381 643 C 406.340 638.529, 406.211 637.448, 403.232 641.750 M 356.500 642.588 L 353.500 645.165 356.750 643.015 C 358.538 641.832, 360 640.669, 360 640.432 C 360 639.683, 359.577 639.944, 356.500 642.588 M 656.500 641 C 656.840 641.550, 657.343 642, 657.618 642 C 657.893 642, 657.840 641.550, 657.500 641 C 657.160 640.450, 656.657 640, 656.382 640 C 656.107 640, 656.160 640.450, 656.500 641 M 632 642 C 632 642.733, 632.300 643.033, 632.667 642.667 C 633.033 642.300, 633.033 641.700, 632.667 641.333 C 632.300 640.967, 632 641.267, 632 642 M 347.872 643.750 C 346.629 645.336, 346.664 645.371, 348.250 644.128 C 349.916 642.821, 350.445 642, 349.622 642 C 349.415 642, 348.627 642.788, 347.872 643.750 M 659.500 643 C 659.840 643.550, 660.343 644, 660.618 644 C 660.893 644, 660.840 643.550, 660.500 643 C 660.160 642.450, 659.657 642, 659.382 642 C 659.107 642, 659.160 642.450, 659.500 643 M 727.500 645 C 727.840 645.550, 728.343 646, 728.618 646 C 728.893 646, 728.840 645.550, 728.500 645 C 728.160 644.450, 727.657 644, 727.382 644 C 727.107 644, 727.160 644.450, 727.500 645 M 351.405 646.155 C 350.962 646.870, 351.130 647.038, 351.845 646.595 C 352.998 645.883, 353.393 645, 352.559 645 C 352.316 645, 351.797 645.520, 351.405 646.155 M 388.681 647.612 C 389.152 648.838, 388.978 649.104, 388.070 648.543 C 387.061 647.920, 387.041 648.208, 387.970 649.944 C 388.908 651.696, 389.423 651.894, 390.570 650.942 C 391.356 650.289, 392 649.049, 392 648.186 C 392 646.927, 391.704 647, 390.498 648.559 C 389.389 649.990, 389.145 650.067, 389.566 648.851 C 389.880 647.944, 389.661 646.908, 389.080 646.549 C 388.415 646.138, 388.267 646.533, 388.681 647.612 M 347.872 648.750 C 346.629 650.336, 346.664 650.371, 348.250 649.128 C 349.916 647.821, 350.445 647, 349.622 647 C 349.415 647, 348.627 647.788, 347.872 648.750 M 665 647.978 C 665 648.987, 672.922 656.412, 673.442 655.891 C 673.706 655.628, 671.914 653.601, 669.461 651.387 C 667.007 649.174, 665 647.640, 665 647.978 M 398.405 649.155 C 397.962 649.870, 398.130 650.038, 398.845 649.595 C 399.998 648.883, 400.393 648, 399.559 648 C 399.316 648, 398.797 648.520, 398.405 649.155 M 337.872 653.750 C 336.629 655.336, 336.664 655.371, 338.250 654.128 C 339.212 653.373, 340 652.585, 340 652.378 C 340 651.555, 339.179 652.084, 337.872 653.750 M 628.511 654.377 C 629.457 655.820, 630.419 657, 630.650 657 C 631.374 657, 629.045 653.146, 627.891 652.433 C 627.287 652.059, 627.566 652.934, 628.511 654.377 M 392 659 C 391.411 660.100, 391.155 661, 391.430 661 C 391.705 661, 392.411 660.100, 393 659 C 393.589 657.900, 393.845 657, 393.570 657 C 393.295 657, 392.589 657.900, 392 659 M 678 661 C 678 661.733, 678.300 662.033, 678.667 661.667 C 679.033 661.300, 679.033 660.700, 678.667 660.333 C 678.300 659.967, 678 660.267, 678 661 M 329.405 662.155 C 328.962 662.870, 329.130 663.038, 329.845 662.595 C 330.998 661.883, 331.393 661, 330.559 661 C 330.316 661, 329.797 661.520, 329.405 662.155 M 751.500 662 C 751.840 662.550, 752.343 663, 752.618 663 C 752.893 663, 752.840 662.550, 752.500 662 C 752.160 661.450, 751.657 661, 751.382 661 C 751.107 661, 751.160 661.450, 751.500 662 M 388.964 664.164 C 387.819 666.397, 387.846 666.424, 389.574 664.774 C 390.568 663.824, 391.107 662.773, 390.771 662.438 C 390.436 662.103, 389.623 662.880, 388.964 664.164 M 634.500 663 C 634.840 663.550, 635.343 664, 635.618 664 C 635.893 664, 635.840 663.550, 635.500 663 C 635.160 662.450, 634.657 662, 634.382 662 C 634.107 662, 634.160 662.450, 634.500 663 M 681 663.313 C 681 663.485, 682.462 664.948, 684.250 666.563 L 687.500 669.500 684.563 666.250 C 681.825 663.221, 681 662.540, 681 663.313 M 809 666.500 C 810.292 667.875, 811.574 669, 811.849 669 C 812.124 669, 811.292 667.875, 810 666.500 C 808.708 665.125, 807.426 664, 807.151 664 C 806.876 664, 807.708 665.125, 809 666.500 M 636.036 665.556 C 636.074 666.560, 640.987 672.888, 640.995 671.944 C 640.998 671.639, 639.875 669.864, 638.500 668 C 637.125 666.136, 636.016 665.036, 636.036 665.556 M 323.108 669.058 C 321.793 670.154, 320.929 671.262, 321.188 671.521 C 321.447 671.780, 322.714 670.869, 324.004 669.496 C 326.810 666.509, 326.406 666.312, 323.108 669.058 M 384.405 672.155 C 383.962 672.870, 384.130 673.038, 384.845 672.595 C 385.998 671.883, 386.393 671, 385.559 671 C 385.316 671, 384.797 671.520, 384.405 672.155 M 689.500 672 C 689.840 672.550, 690.343 673, 690.618 673 C 690.893 673, 690.840 672.550, 690.500 672 C 690.160 671.450, 689.657 671, 689.382 671 C 689.107 671, 689.160 671.450, 689.500 672 M 316.924 675.750 L 314.500 678.500 317.250 676.076 C 318.762 674.742, 320 673.505, 320 673.326 C 320 672.541, 319.190 673.180, 316.924 675.750 M 766.500 674 C 766.840 674.550, 767.343 675, 767.618 675 C 767.893 675, 767.840 674.550, 767.500 674 C 767.160 673.450, 766.657 673, 766.382 673 C 766.107 673, 766.160 673.450, 766.500 674 M 212.405 677.155 C 211.962 677.870, 212.130 678.038, 212.845 677.595 C 213.480 677.203, 214 676.684, 214 676.441 C 214 675.607, 213.117 676.002, 212.405 677.155 M 696 679.500 C 697.866 681.425, 699.617 683, 699.892 683 C 700.167 683, 698.866 681.425, 697 679.500 C 695.134 677.575, 693.383 676, 693.108 676 C 692.833 676, 694.134 677.575, 696 679.500 M 769.500 677 C 769.840 677.550, 770.343 678, 770.618 678 C 770.893 678, 770.840 677.550, 770.500 677 C 770.160 676.450, 769.657 676, 769.382 676 C 769.107 676, 769.160 676.450, 769.500 677 M 643.500 678 C 643.840 678.550, 644.343 679, 644.618 679 C 644.893 679, 644.840 678.550, 644.500 678 C 644.160 677.450, 643.657 677, 643.382 677 C 643.107 677, 643.160 677.450, 643.500 678 M 207.872 680.750 C 206.629 682.336, 206.664 682.371, 208.250 681.128 C 209.916 679.821, 210.445 679, 209.622 679 C 209.415 679, 208.627 679.788, 207.872 680.750 M 525.762 680.707 C 527.006 680.946, 528.806 680.937, 529.762 680.687 C 530.718 680.437, 529.700 680.241, 527.500 680.252 C 525.300 680.263, 524.518 680.468, 525.762 680.707 M 777.500 684 C 779.648 686.200, 781.631 688, 781.906 688 C 782.181 688, 780.648 686.200, 778.500 684 C 776.352 681.800, 774.369 680, 774.094 680 C 773.819 680, 775.352 681.800, 777.500 684 M 826 682 C 826 682.733, 826.300 683.033, 826.667 682.667 C 827.033 682.300, 827.033 681.700, 826.667 681.333 C 826.300 680.967, 826 681.267, 826 682 M 379 683 C 379 683.733, 379.300 684.033, 379.667 683.667 C 380.033 683.300, 380.033 682.700, 379.667 682.333 C 379.300 681.967, 379 682.267, 379 683 M 307.405 687.155 C 306.962 687.870, 307.130 688.038, 307.845 687.595 C 308.998 686.883, 309.393 686, 308.559 686 C 308.316 686, 307.797 686.520, 307.405 687.155 M 648 686.941 C 648 687.459, 648.445 688.157, 648.989 688.493 C 649.555 688.843, 649.723 688.442, 649.382 687.552 C 648.717 685.820, 648 685.503, 648 686.941 M 374.459 692.067 C 374.096 692.653, 374.014 693.348, 374.276 693.610 C 374.538 693.872, 375.019 693.392, 375.345 692.543 C 376.021 690.781, 375.445 690.471, 374.459 692.067 M 445.558 693.907 C 445.249 694.405, 445.898 694.578, 446.999 694.290 C 449.334 693.679, 449.629 693, 447.559 693 C 446.766 693, 445.866 693.408, 445.558 693.907 M 574.250 693.662 C 573.563 693.940, 573 694.669, 573 695.283 C 573 696.059, 573.366 696.034, 574.200 695.200 C 576.051 693.349, 577.973 693.772, 578.969 696.250 C 579.863 698.475, 579.874 698.476, 579.937 696.357 C 580.017 693.642, 577.388 692.396, 574.250 693.662 M 708.500 694 C 708.840 694.550, 709.343 695, 709.618 695 C 709.893 695, 709.840 694.550, 709.500 694 C 709.160 693.450, 708.657 693, 708.382 693 C 708.107 693, 708.160 693.450, 708.500 694 M 787 693.378 C 787 693.585, 787.788 694.373, 788.750 695.128 C 790.336 696.371, 790.371 696.336, 789.128 694.750 C 787.821 693.084, 787 692.555, 787 693.378 M 444 697 C 444 697.733, 444.300 698.033, 444.667 697.667 C 445.033 697.300, 445.033 696.700, 444.667 696.333 C 444.300 695.967, 444 696.267, 444 697 M 653 697 C 653 697.733, 653.300 698.033, 653.667 697.667 C 654.033 697.300, 654.033 696.700, 653.667 696.333 C 653.300 695.967, 653 696.267, 653 697 M 791.500 698 C 791.840 698.550, 792.343 699, 792.618 699 C 792.893 699, 792.840 698.550, 792.500 698 C 792.160 697.450, 791.657 697, 791.382 697 C 791.107 697, 791.160 697.450, 791.500 698 M 738 699 C 738 699.733, 738.300 700.033, 738.667 699.667 C 739.033 699.300, 739.033 698.700, 738.667 698.333 C 738.300 697.967, 738 698.267, 738 699 M 447.333 700.667 C 447.700 701.033, 448.300 701.033, 448.667 700.667 C 449.033 700.300, 448.733 700, 448 700 C 447.267 700, 446.967 700.300, 447.333 700.667 M 713 700.378 C 713 700.585, 713.788 701.373, 714.750 702.128 C 716.336 703.371, 716.371 703.336, 715.128 701.750 C 713.821 700.084, 713 699.555, 713 700.378 M 799.500 707 C 800.495 708.100, 801.535 709, 801.810 709 C 802.085 709, 801.495 708.100, 800.500 707 C 799.505 705.900, 798.465 705, 798.190 705 C 797.915 705, 798.505 705.900, 799.500 707 M 603 722 C 603 722.733, 603.300 723.033, 603.667 722.667 C 604.033 722.300, 604.033 721.700, 603.667 721.333 C 603.300 720.967, 603 721.267, 603 722 M 492.885 729.815 L 490.270 730.500 491.671 735.271 L 493.073 740.043 512.256 739.771 L 531.438 739.500 532.296 735.160 C 532.767 732.773, 532.859 730.525, 532.498 730.165 C 531.606 729.273, 496.153 728.959, 492.885 729.815 M 435 732 C 435.825 732.533, 436.950 732.969, 437.500 732.969 C 438.050 732.969, 437.825 732.533, 437 732 C 436.175 731.467, 435.050 731.031, 434.500 731.031 C 433.950 731.031, 434.175 731.467, 435 732 M 722.064 739.120 C 722.688 740.285, 724.049 741.461, 725.088 741.733 C 726.127 742.005, 726.787 742.536, 726.553 742.914 C 726.320 743.291, 727 744.144, 728.065 744.808 C 731.228 746.784, 730.272 744.672, 726.208 740.703 C 721.959 736.554, 720.365 735.945, 722.064 739.120 M 299.405 739.155 C 298.962 739.870, 299.130 740.038, 299.845 739.595 C 300.480 739.203, 301 738.684, 301 738.441 C 301 737.607, 300.117 738.002, 299.405 739.155 M 419 740.040 C 419 741.199, 423.349 744.117, 431.411 748.367 C 437.751 751.710, 440.820 752.420, 438.381 749.981 C 436.631 748.231, 419 739.187, 419 740.040 M 594.051 744.875 C 589.404 747.525, 585.413 750.261, 585.182 750.955 C 584.771 752.188, 600.744 744.418, 604.571 741.523 C 606.469 740.087, 606.468 740.064, 604.500 740.061 C 603.400 740.059, 598.698 742.225, 594.051 744.875 M 404 745.272 C 404 748.403, 404.747 749.680, 408.828 753.532 C 417.888 762.083, 439.484 774.886, 455.525 781.216 L 459.550 782.804 467.742 803.652 C 477.784 829.208, 480.524 835.857, 481.360 836.693 C 481.716 837.049, 481.335 835.126, 480.514 832.420 C 478.526 825.867, 478.648 825.708, 481.603 831 C 484.448 836.096, 484.532 836.406, 477.931 817.500 C 468.457 790.364, 463.464 778.593, 460.887 777.324 C 459.574 776.677, 452.875 773.461, 446 770.176 C 431.043 763.031, 416.442 753.698, 409.250 746.687 L 404 741.568 404 745.272 M 615 746.751 C 607.397 754.446, 582.986 768.983, 566.360 775.716 C 561.659 777.620, 561.044 778.256, 559.178 783.149 C 558.055 786.092, 554.807 794.575, 551.961 802 C 549.114 809.425, 545.489 819.325, 543.904 824 C 541.344 831.551, 541.252 832.221, 543.074 830 C 545.258 827.338, 545.276 827.530, 543.455 834 C 543.068 835.375, 542.968 836.275, 543.233 836 C 543.812 835.398, 554.644 808.750, 560.416 793.727 L 564.555 782.954 574.166 778.626 C 591.158 770.973, 607.327 761.134, 615.662 753.375 C 618.695 750.551, 619.967 748.483, 620.349 745.750 C 620.638 743.688, 620.565 742.044, 620.187 742.098 C 619.809 742.152, 617.475 744.246, 615 746.751 M 455.333 744.667 C 455.700 745.033, 456.300 745.033, 456.667 744.667 C 457.033 744.300, 456.733 744, 456 744 C 455.267 744, 454.967 744.300, 455.333 744.667 M 731.500 747 C 731.840 747.550, 732.343 748, 732.618 748 C 732.893 748, 732.840 747.550, 732.500 747 C 732.160 746.450, 731.657 746, 731.382 746 C 731.107 746, 731.160 746.450, 731.500 747 M 734.660 750.741 C 733.922 751.935, 739.720 757.613, 740.688 756.645 C 741.078 756.255, 740.014 754.553, 738.323 752.862 C 736.633 751.171, 734.984 750.217, 734.660 750.741 M 735 751.378 C 735 751.585, 735.788 752.373, 736.750 753.128 C 738.336 754.371, 738.371 754.336, 737.128 752.750 C 735.821 751.084, 735 750.555, 735 751.378 M 283 756 C 283 756.733, 283.300 757.033, 283.667 756.667 C 284.033 756.300, 284.033 755.700, 283.667 755.333 C 283.300 754.967, 283 755.267, 283 756 M 543 797 C 543 797.733, 543.300 798.033, 543.667 797.667 C 544.033 797.300, 544.033 796.700, 543.667 796.333 C 543.300 795.967, 543 796.267, 543 797 M 487 798.816 C 487 800.554, 490.214 807.493, 491.362 808.235 C 491.988 808.639, 501.601 808.976, 512.724 808.985 L 532.949 809 534.334 806.250 C 535.096 804.737, 535.999 802.330, 536.341 800.900 L 536.963 798.300 511.981 798.087 C 496.903 797.959, 487 798.248, 487 798.816 M 542 800 C 542 800.733, 542.300 801.033, 542.667 800.667 C 543.033 800.300, 543.033 799.700, 542.667 799.333 C 542.300 798.967, 542 799.267, 542 800 M 540.624 803.539 C 539.659 806.053, 539.943 806.702, 541.122 804.675 C 541.706 803.671, 541.973 802.639, 541.715 802.382 C 541.458 802.124, 540.966 802.645, 540.624 803.539 M 538 841 C 538 841.733, 538.300 842.033, 538.667 841.667 C 539.033 841.300, 539.033 840.700, 538.667 840.333 C 538.300 839.967, 538 840.267, 538 841 M 539.144 844.750 C 538.053 847.300, 538.078 847.359, 539.484 845.559 C 540.318 844.491, 541 843.254, 541 842.809 C 541 841.289, 540.322 841.999, 539.144 844.750 M 536.564 844.707 C 536.022 846.132, 536.136 846.247, 537.124 845.267 C 537.808 844.588, 538.115 843.781, 537.807 843.474 C 537.499 843.166, 536.940 843.721, 536.564 844.707 M 525.079 874.583 C 525.127 875.748, 525.364 875.985, 525.683 875.188 C 525.972 874.466, 525.936 873.603, 525.604 873.271 C 525.272 872.939, 525.036 873.529, 525.079 874.583 M 525.333 877.667 C 525.700 878.033, 526.300 878.033, 526.667 877.667 C 527.033 877.300, 526.733 877, 526 877 C 525.267 877, 524.967 877.300, 525.333 877.667" stroke="none" fill="black" fill-rule="evenodd"/>
</svg>