<!-- Оптимизировано для DTF печати -->
          <!-- Рекомендации: полноцветная печать, высокое разрешение -->
          <svg xmlns="http://www.w3.org/2000/svg" width="100%" height="100%" viewBox="0 0 1024 1024">
	<path d="M 553.776 72.137 C 553.153 72.523, 553.951 74.521, 555.800 77.209 C 559.674 82.840, 566.341 97.032, 568.688 104.643 C 570.033 109.006, 570.472 113.561, 570.407 122.500 C 570.311 135.721, 569.128 143.339, 565.288 155.456 C 563.097 162.370, 562.581 163.235, 561.619 161.610 C 556.460 152.900, 553.912 150.114, 546.882 145.500 C 542.693 142.750, 538.515 139.279, 537.598 137.788 C 536.596 136.157, 534.473 134.672, 532.276 134.066 C 530.265 133.511, 527.654 131.845, 526.473 130.364 C 523.835 127.055, 517.018 126.036, 503.397 126.913 C 494.838 127.465, 494.045 127.709, 490.133 131 C 479.819 139.678, 477.148 141.831, 471.812 145.771 C 464.772 150.970, 461.670 154.969, 458.080 163.479 L 455.284 170.107 452.149 161.303 C 446.842 146.402, 445.664 139.789, 445.590 124.500 C 445.537 113.489, 445.921 109.219, 447.392 104.500 C 449.327 98.289, 456.379 83.527, 460.624 76.804 C 462.766 73.410, 462.860 72.884, 461.422 72.332 C 459.138 71.455, 435.443 72.754, 420.775 74.559 C 409.444 75.954, 378.039 81.746, 377.085 82.617 C 376.857 82.826, 381.037 87.396, 386.374 92.773 C 403.148 109.673, 411.494 123.093, 420.010 146.856 C 425.711 162.762, 430.483 173.366, 436.203 182.837 L 441.341 191.342 437.920 197.810 C 434.772 203.764, 434.106 204.406, 429.539 205.889 C 422.738 208.097, 421.244 210.992, 419.806 224.738 C 418.699 235.327, 418.736 235.837, 420.856 239.267 L 423.053 242.822 419.933 248.114 C 418.217 251.025, 412.951 260.816, 408.232 269.872 L 399.651 286.338 400.798 292.919 C 402.150 300.675, 405.978 313, 407.035 313 C 407.441 313, 421.287 308.500, 437.802 303 C 454.318 297.500, 468.544 293, 469.415 293 C 471.151 293, 471.347 293.990, 471.122 301.640 C 470.920 308.551, 466.979 312.851, 458.500 315.414 C 448.795 318.347, 431.803 326.796, 427.845 330.655 L 424.191 334.220 422.150 329.606 C 420.007 324.762, 417.310 323, 412.039 323 C 408.263 323, 395.870 328.113, 391.223 331.587 C 385.394 335.946, 357.997 363.837, 353 370.500 C 350.525 373.800, 348.050 376.672, 347.500 376.882 C 346.950 377.093, 344.390 379.426, 341.811 382.066 C 335.941 388.076, 329.784 400.747, 327.508 411.500 C 326.536 416.093, 324.348 422.152, 322.371 425.728 C 317.595 434.364, 315.986 439.223, 317.189 441.374 C 317.934 442.705, 317.575 443.698, 315.653 445.619 C 314.274 446.999, 311.975 451.136, 310.545 454.814 L 307.945 461.500 310.423 463.660 C 315.212 467.833, 327.100 471.123, 340.369 471.946 C 340.846 471.976, 340.124 473.463, 338.763 475.250 C 337.402 477.038, 335.255 480.525, 333.992 483 C 330.669 489.513, 322.844 511.152, 323.343 512.451 C 324.047 514.286, 333.658 519.046, 338.223 519.821 L 342.500 520.547 342.800 526.271 C 342.988 529.872, 342.299 534.961, 340.941 539.995 L 338.782 547.995 335.814 545.497 C 334.182 544.124, 332.498 543, 332.072 543 C 331.093 543, 318.914 552.190, 317.278 554.164 C 316.077 555.612, 311.092 586.312, 309.023 605 C 308.445 610.225, 305.282 633.625, 301.995 657 C 298.708 680.375, 295.763 701.405, 295.450 703.733 C 295.134 706.092, 294.174 708.363, 293.281 708.862 C 292.135 709.504, 291.027 713.700, 289.382 723.629 C 286.414 741.551, 286.426 741.997, 290 746 C 293.499 749.919, 293.378 749.034, 291.597 757.685 C 290.825 761.433, 289.916 768.775, 289.578 774 C 289.240 779.225, 288.459 790.347, 287.844 798.715 C 286.891 811.663, 286.941 814.271, 288.176 816.215 C 288.974 817.472, 290.216 821.200, 290.934 824.500 C 292.703 832.624, 302.979 853.886, 308.232 860.292 C 310.580 863.155, 315.541 868.566, 319.258 872.317 C 326.847 879.976, 329.469 880.634, 331.950 875.500 C 333.230 872.851, 333.907 872.500, 337.736 872.500 C 340.503 872.500, 342.416 871.957, 343.021 871 C 344.619 868.473, 344.110 864.410, 341.835 861.517 C 339.863 859.010, 339.818 858.681, 341.335 857.833 C 345.215 855.661, 342.285 848.242, 334.231 839.847 C 331.086 836.570, 329.546 833.984, 329.018 831.097 C 328.606 828.844, 328.658 827, 329.134 827 C 329.610 827, 330 827.659, 330 828.465 C 330 829.271, 331.417 831.544, 333.149 833.517 C 335.828 836.568, 336.835 837.058, 339.899 836.801 L 343.500 836.500 344.631 845.445 C 345.845 855.038, 347.693 858, 352.464 858 C 354.455 858, 354.834 858.759, 355.836 864.750 C 356.457 868.462, 358.323 875.773, 359.983 880.995 C 361.642 886.218, 363 892.216, 363 894.325 C 363 896.434, 364.159 901.057, 365.577 904.599 C 366.994 908.142, 368.006 911.454, 367.827 911.960 C 367.647 912.466, 365.976 913.919, 364.113 915.190 C 356.192 920.592, 354.087 936.456, 358.497 957.500 C 359.995 964.650, 361.377 970.763, 361.567 971.085 C 361.758 971.406, 364.881 981.938, 368.507 994.488 C 372.134 1007.039, 375.731 1018.813, 376.500 1020.654 L 377.898 1024 400.297 1024 L 422.696 1024 424.594 1019.750 C 426.691 1015.052, 437.095 1004.294, 440.964 1002.824 C 442.967 1002.062, 443.156 1001.710, 441.966 1000.958 C 441.160 1000.448, 441.007 1000.024, 441.628 1000.015 C 442.248 1000.007, 443.255 1000.602, 443.865 1001.337 C 445.154 1002.890, 442.513 1005.750, 437.414 1008.324 C 435.716 1009.181, 433.195 1011.371, 431.812 1013.191 C 429.360 1016.416, 426 1022.348, 426 1023.450 C 426 1023.753, 438.766 1024, 454.370 1024 L 482.739 1024 484.877 1013.750 C 488.796 994.963, 488.804 995.202, 484.018 986.533 C 481.693 982.322, 479.984 978.683, 480.220 978.447 C 481.344 977.322, 509.899 961.813, 512.750 960.778 L 516 959.598 516.005 943.049 C 516.008 933.947, 516.301 922.113, 516.656 916.750 L 517.302 907 521.901 907.015 L 526.500 907.029 528.850 913.133 C 530.142 916.491, 533.908 923.721, 537.218 929.200 C 541.655 936.545, 542.943 939.457, 542.118 940.282 C 539.235 943.165, 543.344 961.441, 550.149 976 L 554.121 984.500 553.025 992.500 C 551.794 1001.481, 551.988 1002.473, 557.478 1015.250 L 561.237 1024 570.683 1024 L 580.128 1024 577.885 1020.009 C 576.652 1017.815, 571.898 1012.601, 567.321 1008.424 C 562.745 1004.246, 559 1000.161, 559 999.346 C 559 998.158, 559.546 998.258, 561.750 999.849 C 567.166 1003.760, 579.109 1016.293, 581.056 1020.110 L 583.041 1024 627.520 1024 L 672 1024 672.034 1020.250 C 672.053 1018.188, 672.471 1008.203, 672.963 998.062 C 673.897 978.808, 673.568 976.376, 669.584 973.070 C 668.243 971.957, 667.673 972.634, 665.322 978.143 C 663.830 981.639, 660.672 988.304, 658.304 992.954 C 655.863 997.750, 653.950 1002.943, 653.885 1004.954 L 653.770 1008.500 653.053 1004.814 C 652.658 1002.787, 652.433 999.637, 652.552 997.814 C 652.732 995.044, 658.172 980.327, 663.376 968.532 L 664.685 965.564 669.593 970.879 C 672.292 973.802, 674.931 976.937, 675.457 977.846 C 675.984 978.756, 676.600 989.513, 676.827 1001.750 C 677.181 1020.903, 677.452 1024, 678.773 1024 C 680.124 1024, 680.239 1021.265, 679.738 1001.113 C 679.086 974.912, 679.267 975.560, 670.071 966.527 C 664.038 960.599, 663.995 960.518, 664.594 956.003 C 665.254 951.030, 663.374 926.791, 661.941 921.795 C 661.450 920.082, 660.121 917.693, 658.988 916.487 C 657.127 914.507, 656.993 913.520, 657.598 906.262 L 658.268 898.230 662.632 897.738 C 667.242 897.218, 670.115 895.120, 684 882.134 C 687.575 878.791, 690.950 876.073, 691.500 876.094 C 692.050 876.116, 696.100 880.473, 700.500 885.778 C 719.263 908.397, 744.075 936.815, 745.559 937.384 C 750.266 939.191, 755.546 937.248, 760.638 931.835 C 767.163 924.901, 768.753 917.387, 764.999 911.230 C 763.903 909.432, 757.267 901.307, 750.253 893.174 C 743.239 885.041, 735.647 876.162, 733.383 873.443 C 731.119 870.725, 725.474 864, 720.840 858.500 C 710.625 846.377, 710.546 846.252, 711.957 844.552 C 712.578 843.803, 713.909 840.335, 714.914 836.845 C 715.919 833.355, 717.759 828.786, 719.004 826.691 C 720.885 823.526, 721.177 821.921, 720.735 817.191 C 720.442 814.061, 720.073 811.050, 719.914 810.500 C 719.755 809.950, 719.983 799.772, 720.419 787.883 C 720.924 774.124, 720.856 765.581, 720.233 764.383 C 719.695 763.347, 719.534 760.481, 719.877 758.013 C 720.380 754.387, 721.039 753.268, 723.306 752.182 C 727.109 750.359, 727.671 748.427, 729.127 732.149 C 730.280 719.268, 730.243 717.926, 728.695 716.215 C 727.102 714.455, 727.261 712.560, 731.448 683.424 C 737.244 643.080, 740.375 619.371, 743.389 593 C 747.266 559.065, 747.390 557.175, 745.855 555.325 C 742.488 551.268, 724.435 537.632, 721.687 537.070 C 718.153 536.347, 717.373 534.385, 716.844 524.887 L 716.500 518.722 720.500 517.526 C 725.773 515.949, 733 512.198, 733 511.039 C 733 510.533, 731.958 507.055, 730.684 503.310 C 729.410 499.564, 727.569 494.025, 726.592 491 C 725.615 487.975, 723.247 482.198, 721.329 478.163 C 719.410 474.127, 717.989 470.720, 718.170 470.590 C 718.352 470.461, 722.234 469.378, 726.798 468.185 C 736.536 465.637, 744.666 462.312, 745.320 460.608 C 746.160 458.419, 737.760 441, 735.865 441 C 735.207 441, 735.402 440.035, 736.355 438.581 C 737.846 436.306, 737.774 435.846, 735.139 430.831 C 733.599 427.899, 731.396 423.700, 730.244 421.500 C 729.091 419.300, 726.980 412.550, 725.551 406.500 C 721.508 389.373, 720.074 387.136, 700.114 366.798 C 690.426 356.926, 678.675 345.631, 674 341.697 C 669.325 337.764, 663.025 332.324, 660 329.609 C 653.727 323.979, 644.903 319.503, 636.671 317.777 C 631.502 316.693, 630.633 316.780, 626.474 318.800 C 623.704 320.146, 621.121 322.375, 619.865 324.505 C 618.730 326.427, 617.426 328, 616.966 328 C 616.506 328, 609.677 324.823, 601.790 320.939 C 589.647 314.960, 587.065 314.025, 584.936 314.834 C 583.134 315.520, 580.903 315.324, 577.060 314.145 C 572.863 312.858, 571.158 311.685, 569.215 308.749 C 567.850 306.686, 565.207 304.055, 563.342 302.902 C 559.979 300.824, 557 296.464, 557 293.620 C 557 291.665, 567.367 294.458, 599.500 305.073 C 612.700 309.433, 623.824 313.001, 624.221 313 C 625.171 313, 632.250 290.472, 632.250 287.447 C 632.250 285.289, 613.627 252.868, 604.995 240 C 601.559 234.876, 601.264 233.835, 600.682 224.788 C 600.339 219.446, 599.406 213.514, 598.608 211.604 C 597.068 207.920, 592.701 205, 588.729 205 C 586.785 205, 585.516 203.463, 581.679 196.460 C 579.106 191.764, 577 187.660, 577 187.341 C 577 187.022, 578.555 184.202, 580.456 181.073 C 584.549 174.335, 589.467 163.083, 595.693 146.214 C 604.640 121.973, 613.876 107.218, 629.667 91.942 C 638.538 83.361, 638.862 82.898, 636.616 82.044 C 632.428 80.452, 609.846 76.112, 597 74.431 C 583.136 72.616, 555.380 71.143, 553.776 72.137 M 440 75.088 C 419.940 76.488, 384.736 82.051, 382.500 84.175 C 381.335 85.281, 389.313 84.691, 412 81.992 C 420.525 80.978, 433.744 79.579, 441.375 78.883 C 451.852 77.928, 455.770 77.184, 457.375 75.843 C 459.478 74.085, 459.459 74.068, 455.500 74.176 C 453.300 74.236, 446.325 74.647, 440 75.088 M 557.895 75.373 C 559.149 76.884, 562.630 77.446, 580.500 79.022 C 587.100 79.604, 598.800 80.936, 606.500 81.982 C 620.687 83.910, 632.591 84.743, 633.465 83.868 C 634.952 82.381, 596.363 76.342, 576.865 75.010 C 557.244 73.671, 556.494 73.685, 557.895 75.373 M 451 86 C 450.411 87.100, 450.155 88, 450.430 88 C 450.705 88, 451.411 87.100, 452 86 C 452.589 84.900, 452.845 84, 452.570 84 C 452.295 84, 451.589 84.900, 451 86 M 607.405 113.155 C 606.962 113.870, 607.130 114.038, 607.845 113.595 C 608.998 112.883, 609.393 112, 608.559 112 C 608.316 112, 607.797 112.520, 607.405 113.155 M 408.500 115 C 408.840 115.550, 409.343 116, 409.618 116 C 409.893 116, 409.840 115.550, 409.500 115 C 409.160 114.450, 408.657 114, 408.382 114 C 408.107 114, 408.160 114.450, 408.500 115 M 573 116 C 573 116.733, 573.300 117.033, 573.667 116.667 C 574.033 116.300, 574.033 115.700, 573.667 115.333 C 573.300 114.967, 573 115.267, 573 116 M 495 130.288 C 492.931 131.329, 491.964 133.437, 489.390 142.523 C 487.679 148.560, 486.018 155.200, 485.698 157.278 L 485.117 161.056 488.957 157.778 C 491.069 155.975, 496.382 152.337, 500.764 149.694 L 508.730 144.889 519.115 152.357 C 527.083 158.088, 529.566 159.439, 529.785 158.163 C 529.942 157.248, 528.953 150.886, 527.586 144.024 C 525.877 135.441, 524.558 131.150, 523.360 130.274 C 520.987 128.539, 498.453 128.550, 495 130.288 M 573.079 130.583 C 573.127 131.748, 573.364 131.985, 573.683 131.188 C 573.972 130.466, 573.936 129.603, 573.604 129.271 C 573.272 128.939, 573.036 129.529, 573.079 130.583 M 442 135 C 442 135.733, 442.300 136.033, 442.667 135.667 C 443.033 135.300, 443.033 134.700, 442.667 134.333 C 442.300 133.967, 442 134.267, 442 135 M 443 141 C 443 141.733, 443.300 142.033, 443.667 141.667 C 444.033 141.300, 444.033 140.700, 443.667 140.333 C 443.300 139.967, 443 140.267, 443 141 M 422 144 C 422 144.733, 422.300 145.033, 422.667 144.667 C 423.033 144.300, 423.033 143.700, 422.667 143.333 C 422.300 142.967, 422 143.267, 422 144 M 498.250 153.982 C 489.537 159.594, 489.009 160.130, 489.150 163.220 L 489.300 166.500 489.740 163.503 C 490.154 160.687, 491.455 159.050, 493.309 159.015 C 493.754 159.007, 493.797 159.520, 493.405 160.155 C 492.949 160.892, 493.132 161.037, 493.912 160.554 C 494.584 160.139, 494.869 159.536, 494.547 159.214 C 494.225 158.891, 497.154 157.149, 501.056 155.341 C 505.065 153.484, 507.876 151.609, 507.519 151.030 C 507.091 150.338, 507.714 150.321, 509.437 150.976 C 513.250 152.426, 516.989 154.946, 522 159.444 C 526.263 163.270, 526.530 163.826, 527.073 169.991 L 527.647 176.500 527.823 169.205 C 527.980 162.726, 527.738 161.662, 525.660 159.705 C 523.565 157.731, 508.716 147.983, 507.849 148.012 C 507.657 148.018, 503.337 150.705, 498.250 153.982 M 549.638 151.500 C 549.955 152.325, 550.671 153, 551.229 153 C 551.815 153, 551.718 152.365, 551 151.500 C 550.315 150.675, 549.599 150, 549.409 150 C 549.219 150, 549.322 150.675, 549.638 151.500 M 552.729 153.604 C 552.335 153.998, 552.940 154.970, 554.074 155.764 C 555.207 156.558, 555.899 157.821, 555.611 158.572 C 555.323 159.322, 555.518 160.202, 556.044 160.527 C 556.570 160.852, 557 161.954, 557 162.976 C 557 163.997, 557.530 165.010, 558.177 165.226 C 558.915 165.472, 559.032 166.140, 558.490 167.017 C 558.014 167.786, 557.515 169.559, 557.380 170.958 C 557.171 173.129, 557.420 172.954, 559.088 169.757 L 561.041 166.014 558.600 161.257 C 555.431 155.081, 553.617 152.716, 552.729 153.604 M 553 158 C 553 158.733, 553.300 159.033, 553.667 158.667 C 554.033 158.300, 554.033 157.700, 553.667 157.333 C 553.300 156.967, 553 157.267, 553 158 M 461.441 161.115 C 460.397 163.132, 460.172 164.572, 460.802 165.202 C 461.432 165.832, 462.045 165.737, 462.542 164.933 C 463.036 164.132, 462.899 163.945, 462.155 164.405 C 460.606 165.362, 460.700 164.480, 462.526 160.950 C 463.365 159.328, 463.826 158, 463.551 158 C 463.276 158, 462.327 159.402, 461.441 161.115 M 491 163 C 491 163.733, 491.300 164.033, 491.667 163.667 C 492.033 163.300, 492.033 162.700, 491.667 162.333 C 491.300 161.967, 491 162.267, 491 163 M 491 166 C 491 166.733, 491.300 167.033, 491.667 166.667 C 492.033 166.300, 492.033 165.700, 491.667 165.333 C 491.300 164.967, 491 165.267, 491 166 M 458 169.882 C 458 170.432, 458.450 171.160, 459 171.500 C 459.550 171.840, 460 171.668, 460 171.118 C 460 170.568, 459.550 169.840, 459 169.500 C 458.450 169.160, 458 169.332, 458 169.882 M 458 174 C 458 174.733, 458.300 175.033, 458.667 174.667 C 459.033 174.300, 459.033 173.700, 458.667 173.333 C 458.300 172.967, 458 173.267, 458 174 M 556.511 181.623 C 555.566 183.066, 555.287 183.941, 555.891 183.567 C 557.045 182.854, 559.374 179, 558.650 179 C 558.419 179, 557.457 180.180, 556.511 181.623 M 438.500 181 C 438.840 181.550, 439.343 182, 439.618 182 C 439.893 182, 439.840 181.550, 439.500 181 C 439.160 180.450, 438.657 180, 438.382 180 C 438.107 180, 438.160 180.450, 438.500 181 M 488.158 183 C 488.158 184.375, 488.385 184.938, 488.662 184.250 C 488.940 183.563, 488.940 182.438, 488.662 181.750 C 488.385 181.063, 488.158 181.625, 488.158 183 M 527 183 C 527 183.733, 527.300 184.033, 527.667 183.667 C 528.033 183.300, 528.033 182.700, 527.667 182.333 C 527.300 181.967, 527 182.267, 527 183 M 440.500 185 C 440.840 185.550, 441.343 186, 441.618 186 C 441.893 186, 441.840 185.550, 441.500 185 C 441.160 184.450, 440.657 184, 440.382 184 C 440.107 184, 440.160 184.450, 440.500 185 M 573 186 C 572.411 187.100, 572.155 188, 572.430 188 C 572.705 188, 573.411 187.100, 574 186 C 574.589 184.900, 574.845 184, 574.570 184 C 574.295 184, 573.589 184.900, 573 186 M 443.500 189 C 443.840 189.550, 444.343 190, 444.618 190 C 444.893 190, 444.840 189.550, 444.500 189 C 444.160 188.450, 443.657 188, 443.382 188 C 443.107 188, 443.160 188.450, 443.500 189 M 551 190 C 550.411 191.100, 550.155 192, 550.430 192 C 550.705 192, 551.411 191.100, 552 190 C 552.589 188.900, 552.845 188, 552.570 188 C 552.295 188, 551.589 188.900, 551 190 M 491.300 197 C 491.300 200.025, 491.487 201.262, 491.716 199.750 C 491.945 198.238, 491.945 195.762, 491.716 194.250 C 491.487 192.738, 491.300 193.975, 491.300 197 M 528.079 196.583 C 528.127 197.748, 528.364 197.985, 528.683 197.188 C 528.972 196.466, 528.936 195.603, 528.604 195.271 C 528.272 194.939, 528.036 195.529, 528.079 196.583 M 559.405 202.155 C 558.962 202.870, 559.130 203.038, 559.845 202.595 C 560.998 201.883, 561.393 201, 560.559 201 C 560.316 201, 559.797 201.520, 559.405 202.155 M 528 205 C 528 205.733, 528.300 206.033, 528.667 205.667 C 529.033 205.300, 529.033 204.700, 528.667 204.333 C 528.300 203.967, 528 204.267, 528 205 M 535.405 206.155 C 534.962 206.870, 535.130 207.038, 535.845 206.595 C 536.998 205.883, 537.393 205, 536.559 205 C 536.316 205, 535.797 205.520, 535.405 206.155 M 556.405 206.155 C 555.962 206.870, 556.130 207.038, 556.845 206.595 C 557.998 205.883, 558.393 205, 557.559 205 C 557.316 205, 556.797 205.520, 556.405 206.155 M 552.405 209.155 C 551.962 209.870, 552.130 210.038, 552.845 209.595 C 553.998 208.883, 554.393 208, 553.559 208 C 553.316 208, 552.797 208.520, 552.405 209.155 M 487.168 212.556 C 487.046 215.495, 487.688 217.544, 489.500 220 C 490.875 221.864, 492 223.033, 492 222.599 C 492 222.164, 491.132 220.590, 490.072 219.101 C 489.012 217.612, 487.962 214.618, 487.740 212.447 L 487.336 208.500 487.168 212.556 M 527.516 212.903 C 527.141 215.124, 525.971 218.038, 524.917 219.378 C 523.863 220.719, 523 222.169, 523 222.602 C 523 223.035, 524.120 221.871, 525.488 220.016 C 527.882 216.772, 529.799 210.465, 528.719 209.386 C 528.433 209.100, 527.892 210.682, 527.516 212.903 M 463.333 210.667 C 463.700 211.033, 464.300 211.033, 464.667 210.667 C 465.033 210.300, 464.733 210, 464 210 C 463.267 210, 462.967 210.300, 463.333 210.667 M 549.500 215.678 C 546.750 218.208, 544.500 220.778, 544.500 221.389 C 544.500 222, 543.325 222.520, 541.888 222.545 C 540.451 222.569, 538.035 223.402, 536.519 224.396 C 534.627 225.636, 532.779 226.014, 530.631 225.603 C 528.386 225.173, 527.924 225.281, 529 225.986 C 530.251 226.806, 530.168 226.984, 528.500 227.055 L 526.500 227.141 528.500 228 C 529.600 228.473, 529.911 228.891, 529.191 228.930 C 528.471 228.968, 528.136 229.410, 528.446 229.912 C 529.250 231.214, 526.214 230.614, 524.790 229.190 C 523.957 228.357, 523.935 228, 524.717 228 C 525.331 228, 526.022 228.338, 526.253 228.750 C 526.483 229.162, 526.580 229.050, 526.468 228.500 C 526.084 226.627, 527.979 222.869, 528.992 223.495 C 529.546 223.838, 530 223.361, 530 222.436 C 530 221.390, 526.615 224.085, 521.053 229.558 C 516.132 234.401, 512.377 238.801, 512.708 239.336 C 513.038 239.871, 512.840 240.019, 512.268 239.666 C 511.695 239.312, 510.671 239.692, 509.991 240.511 C 508.107 242.781, 507.303 242.433, 500.660 236.473 C 496.648 232.872, 493.870 231.102, 492.693 231.394 C 491.196 231.766, 491.097 231.588, 492.116 230.361 C 493.129 229.139, 492.722 228.255, 489.798 225.332 C 487.227 222.760, 486.037 222.132, 485.471 223.047 C 485.019 223.778, 485.096 224.058, 485.654 223.714 C 486.533 223.170, 492.739 228.769, 491.875 229.325 C 491.669 229.458, 490.600 230.204, 489.500 230.985 C 487.826 232.172, 487.704 232.175, 488.750 231.002 C 490.421 229.128, 490.327 228, 488.500 228 C 487.675 228, 486.986 227.213, 486.968 226.250 C 486.939 224.667, 486.797 224.685, 485.468 226.441 C 484.267 228.030, 484 228.092, 484 226.785 C 484 225.761, 483.371 225.346, 482.250 225.630 C 481.288 225.874, 478.746 225.172, 476.602 224.069 C 474.458 222.967, 472.251 222.345, 471.698 222.687 C 471.144 223.029, 470.964 222.867, 471.298 222.327 C 471.632 221.786, 469.858 219.633, 467.355 217.541 L 462.805 213.737 463.525 221.619 C 463.921 225.953, 464.600 230.175, 465.034 231 C 465.468 231.825, 473.095 236.288, 481.983 240.918 C 490.870 245.547, 500.023 250.830, 502.321 252.658 C 507.198 256.536, 507.907 256.648, 511.194 254.062 C 512.548 252.997, 521.947 247.773, 532.078 242.455 C 542.210 237.137, 551.378 231.943, 552.452 230.913 C 554.004 229.424, 554.517 227.190, 554.952 220.020 C 555.253 215.059, 555.275 211.018, 555 211.039 C 554.725 211.061, 552.250 213.149, 549.500 215.678 M 467.570 212.887 C 467.269 213.374, 467.805 214.387, 468.761 215.137 C 470.297 216.341, 470.355 216.314, 469.259 214.908 C 468.576 214.032, 468.313 213.020, 468.675 212.658 C 469.037 212.296, 469.060 212, 468.726 212 C 468.391 212, 467.871 212.399, 467.570 212.887 M 544.872 214.750 C 543.629 216.336, 543.664 216.371, 545.250 215.128 C 546.916 213.821, 547.445 213, 546.622 213 C 546.415 213, 545.627 213.787, 544.872 214.750 M 433.183 219.217 C 431.783 220.617, 431.638 222, 432.893 222 C 433.809 222, 435.318 218.984, 434.707 218.374 C 434.520 218.186, 433.834 218.566, 433.183 219.217 M 538.441 219.555 C 536.577 221.049, 536.589 221.067, 538.750 220.020 C 539.987 219.420, 541 218.720, 541 218.465 C 541 217.700, 540.481 217.921, 538.441 219.555 M 479.613 222.183 C 479.902 222.650, 480.557 222.774, 481.069 222.457 C 482.377 221.649, 482.230 221.333, 480.544 221.333 C 479.743 221.333, 479.324 221.716, 479.613 222.183 M 533 222 C 533 222.733, 533.300 223.033, 533.667 222.667 C 534.033 222.300, 534.033 221.700, 533.667 221.333 C 533.300 220.967, 533 221.267, 533 222 M 542.333 221.667 C 542.700 222.033, 543.300 222.033, 543.667 221.667 C 544.033 221.300, 543.733 221, 543 221 C 542.267 221, 541.967 221.300, 542.333 221.667 M 496 222.378 C 496 222.585, 496.788 223.373, 497.750 224.128 C 499.336 225.371, 499.371 225.336, 498.128 223.750 C 496.821 222.084, 496 221.555, 496 222.378 M 584 223 C 584 223.733, 584.300 224.033, 584.667 223.667 C 585.033 223.300, 585.033 222.700, 584.667 222.333 C 584.300 221.967, 584 222.267, 584 223 M 493.500 225 C 493.840 225.550, 494.343 226, 494.618 226 C 494.893 226, 494.840 225.550, 494.500 225 C 494.160 224.450, 493.657 224, 493.382 224 C 493.107 224, 493.160 224.450, 493.500 225 M 498 229 C 498 229.733, 498.300 230.033, 498.667 229.667 C 499.033 229.300, 499.033 228.700, 498.667 228.333 C 498.300 227.967, 498 228.267, 498 229 M 520.384 231.274 L 518.500 233.500 520.646 231.689 C 522.303 230.291, 522.912 230.177, 523.317 231.189 C 523.669 232.069, 523.868 232.108, 523.921 231.309 C 524.070 229.065, 522.267 229.047, 520.384 231.274 M 509.405 231.155 C 508.962 231.870, 509.130 232.038, 509.845 231.595 C 510.998 230.883, 511.393 230, 510.559 230 C 510.316 230, 509.797 230.520, 509.405 231.155 M 502.500 233 C 503.495 234.100, 504.535 235, 504.810 235 C 505.085 235, 504.495 234.100, 503.500 233 C 502.505 231.900, 501.465 231, 501.190 231 C 500.915 231, 501.505 231.900, 502.500 233 M 493 232.839 C 493 233.301, 494.103 234.182, 495.451 234.796 C 497.199 235.592, 497.784 236.524, 497.491 238.045 C 497.150 239.818, 497.327 239.973, 498.540 238.967 C 499.646 238.049, 500 238.042, 500 238.937 C 500 239.586, 500.433 239.850, 500.963 239.523 C 501.493 239.196, 500.200 237.369, 498.092 235.464 C 494.199 231.947, 493 231.329, 493 232.839 M 517.613 235.183 C 517.902 235.650, 518.557 235.774, 519.069 235.457 C 520.377 234.649, 520.230 234.333, 518.544 234.333 C 517.743 234.333, 517.324 234.716, 517.613 235.183 M 506.500 237 C 506.840 237.550, 507.343 238, 507.618 238 C 507.893 238, 507.840 237.550, 507.500 237 C 507.160 236.450, 506.657 236, 506.382 236 C 506.107 236, 506.160 236.450, 506.500 237 M 516 236.378 C 516 236.585, 516.788 237.373, 517.750 238.128 C 519.336 239.371, 519.371 239.336, 518.128 237.750 C 516.821 236.084, 516 235.555, 516 236.378 M 553.738 237.215 C 552.781 237.922, 551.174 241.487, 550.165 245.137 C 547.795 253.714, 545.789 256.336, 536.856 262.529 C 532.126 265.807, 529.386 268.408, 529.181 269.813 C 528.904 271.704, 529.267 271.954, 531.874 271.669 C 535.398 271.283, 538.256 269.223, 537.334 267.732 C 536.978 267.155, 537.170 266.987, 537.766 267.355 C 539.201 268.242, 550.053 256.856, 552.213 252.196 C 554.085 248.156, 556.352 238.556, 555.814 236.942 C 555.605 236.316, 554.814 236.420, 553.738 237.215 M 464.343 243.012 C 464.927 248.598, 467.192 254.378, 470.227 258.031 C 472.056 260.232, 486.239 272, 487.063 272 C 487.444 272, 488.358 271.273, 489.095 270.385 C 490.603 268.569, 491.046 269.023, 479.673 260.740 C 474.637 257.072, 472.522 254.723, 470.457 250.502 C 468.983 247.489, 468.038 244.343, 468.357 243.512 C 468.676 242.680, 468.449 242, 467.852 242 C 467.255 242, 466.994 241.129, 467.273 240.065 C 467.713 238.380, 466.363 237, 464.276 237 C 463.967 237, 463.998 239.706, 464.343 243.012 M 534.898 242.590 C 528.629 245.664, 520.312 250.164, 516.416 252.590 C 512.520 255.015, 508.611 257, 507.729 257 C 506.848 257, 503.179 254.982, 499.577 252.516 C 491.444 246.948, 473.244 237.731, 471.955 238.528 C 470.507 239.423, 470.812 244.287, 472.465 246.646 C 473.270 247.796, 473.645 249.021, 473.298 249.369 C 472.951 249.716, 473.251 250, 473.966 250 C 474.681 250, 475.993 250.794, 476.883 251.764 C 479.251 254.346, 498.733 265.749, 499.750 265.148 C 499.887 265.067, 501.192 265, 502.648 265 C 504.890 265, 504.245 265.691, 498.445 269.500 C 491.876 273.815, 491.821 276.082, 498.382 272.114 C 501.757 270.073, 506.973 268.253, 505.748 269.545 C 504.673 270.677, 507.960 274, 510.155 274 C 511.170 274, 512 273.559, 512 273.019 C 512 271.271, 516.906 270.711, 519.257 272.191 C 520.491 272.968, 522.850 273.659, 524.500 273.727 C 526.150 273.796, 526.849 273.593, 526.053 273.277 C 525.258 272.961, 521.883 270.913, 518.553 268.727 C 514.415 266.009, 513.350 264.950, 515.189 265.380 C 516.668 265.725, 518.115 265.622, 518.406 265.152 C 518.697 264.682, 521.087 263.488, 523.717 262.499 C 531.792 259.465, 541.864 252.159, 545.177 246.935 C 547.694 242.966, 549.129 237, 547.567 237 C 546.868 237, 541.167 239.515, 534.898 242.590 M 600.667 238.667 C 600.300 239.033, 600 239.798, 600 240.367 C 600 240.993, 600.466 240.934, 601.183 240.217 C 601.834 239.566, 602.134 238.801, 601.850 238.517 C 601.566 238.232, 601.033 238.300, 600.667 238.667 M 601.507 242.989 C 601.157 243.555, 601.558 243.723, 602.448 243.382 C 604.180 242.717, 604.497 242, 603.059 242 C 602.541 242, 601.843 242.445, 601.507 242.989 M 591.011 244.305 C 590.997 245.349, 607.055 273, 607.675 273 C 608.161 273, 605.458 268.131, 596.297 252.500 C 593.395 247.550, 591.017 243.862, 591.011 244.305 M 603.704 245.750 C 604.057 246.713, 605.373 249.038, 606.628 250.917 C 607.884 252.796, 608.637 254.778, 608.301 255.322 C 607.966 255.865, 608.163 256.017, 608.741 255.660 C 609.318 255.303, 610.057 255.707, 610.384 256.558 C 610.785 257.603, 610.582 257.860, 609.757 257.350 C 609.086 256.935, 609.535 257.865, 610.755 259.415 C 611.975 260.966, 612.684 262.702, 612.332 263.272 C 611.961 263.873, 612.177 264.009, 612.845 263.595 C 613.480 263.203, 614 263.385, 614 264 C 614 264.615, 614.450 264.840, 615 264.500 C 615.550 264.160, 616 264.835, 616 266 C 616 267.294, 616.431 267.852, 617.107 267.434 C 617.847 266.976, 617.997 267.434, 617.559 268.814 C 617.097 270.270, 617.465 271.179, 618.810 271.898 C 621.476 273.325, 623.972 277.423, 624.397 281.071 C 624.594 282.768, 625.287 284.683, 625.937 285.328 C 626.844 286.227, 626.967 286.035, 626.466 284.500 C 625.917 282.817, 626.164 282.896, 628.026 285 L 630.237 287.500 628.637 284.814 C 627.757 283.336, 626.096 280.411, 624.945 278.314 C 619.301 268.027, 604.523 244, 603.839 244 C 603.412 244, 603.351 244.787, 603.704 245.750 M 422.459 249.067 C 422.096 249.653, 422.014 250.348, 422.276 250.610 C 422.538 250.872, 423.019 250.392, 423.345 249.543 C 424.021 247.781, 423.445 247.471, 422.459 249.067 M 420 254 C 419.411 255.100, 419.155 256, 419.430 256 C 419.705 256, 420.411 255.100, 421 254 C 421.589 252.900, 421.845 252, 421.570 252 C 421.295 252, 420.589 252.900, 420 254 M 428 257 C 428 257.733, 428.300 258.033, 428.667 257.667 C 429.033 257.300, 429.033 256.700, 428.667 256.333 C 428.300 255.967, 428 256.267, 428 257 M 414.029 265.162 C 412.749 267.439, 412.222 268.981, 412.858 268.588 C 414.208 267.753, 417.333 261.999, 416.752 261.418 C 416.534 261.201, 415.309 262.885, 414.029 265.162 M 424.405 264.155 C 423.962 264.870, 424.130 265.038, 424.845 264.595 C 425.998 263.883, 426.393 263, 425.559 263 C 425.316 263, 424.797 263.520, 424.405 264.155 M 422.624 267.539 C 421.659 270.053, 421.943 270.702, 423.122 268.675 C 423.706 267.671, 423.973 266.639, 423.715 266.382 C 423.458 266.124, 422.966 266.645, 422.624 267.539 M 618 270 C 618 270.733, 618.300 271.033, 618.667 270.667 C 619.033 270.300, 619.033 269.700, 618.667 269.333 C 618.300 268.967, 618 269.267, 618 270 M 410.324 271.607 C 409.926 272.648, 408.104 276.151, 406.275 279.391 C 404.446 282.631, 403.155 285.489, 403.407 285.741 C 403.659 285.993, 405.133 283.844, 406.683 280.965 C 408.232 278.086, 410.103 274.633, 410.841 273.290 C 411.578 271.947, 411.926 270.593, 411.614 270.281 C 411.302 269.969, 410.722 270.566, 410.324 271.607 M 463.500 272 C 463.840 272.550, 464.343 273, 464.618 273 C 464.893 273, 464.840 272.550, 464.500 272 C 464.160 271.450, 463.657 271, 463.382 271 C 463.107 271, 463.160 271.450, 463.500 272 M 557 273 C 557 273.733, 557.300 274.033, 557.667 273.667 C 558.033 273.300, 558.033 272.700, 557.667 272.333 C 557.300 271.967, 557 272.267, 557 273 M 552.405 275.250 L 550.500 277.500 552.750 275.595 C 554.864 273.805, 555.455 273, 554.655 273 C 554.465 273, 553.453 274.012, 552.405 275.250 M 466 274.754 C 466 275.248, 467.224 276.742, 468.720 278.076 C 470.715 279.854, 471.048 279.968, 469.970 278.504 C 467.625 275.320, 466 273.785, 466 274.754 M 620.032 275.559 C 620.049 276.076, 620.724 277.374, 621.532 278.441 C 622.339 279.509, 622.986 279.959, 622.968 279.441 C 622.951 278.924, 622.276 277.626, 621.468 276.559 C 620.661 275.491, 620.014 275.041, 620.032 275.559 M 611.500 280 C 611.840 280.550, 612.343 281, 612.618 281 C 612.893 281, 612.840 280.550, 612.500 280 C 612.160 279.450, 611.657 279, 611.382 279 C 611.107 279, 611.160 279.450, 611.500 280 M 471 282 C 471 282.733, 471.300 283.033, 471.667 282.667 C 472.033 282.300, 472.033 281.700, 471.667 281.333 C 471.300 280.967, 471 281.267, 471 282 M 546.624 282.539 C 545.659 285.053, 545.943 285.702, 547.122 283.675 C 547.706 282.671, 547.973 281.639, 547.715 281.382 C 547.458 281.124, 546.966 281.645, 546.624 282.539 M 625 282 C 625 282.733, 625.300 283.033, 625.667 282.667 C 626.033 282.300, 626.033 281.700, 625.667 281.333 C 625.300 280.967, 625 281.267, 625 282 M 541.405 297.155 C 540.962 297.870, 541.130 298.038, 541.845 297.595 C 542.480 297.203, 543 296.684, 543 296.441 C 543 295.607, 542.117 296.002, 541.405 297.155 M 573.698 320.098 C 570.430 322.791, 569.716 323.019, 568.220 321.848 C 566.662 320.627, 566.631 320.667, 567.895 322.277 C 569.167 323.898, 569.034 324.034, 566.379 323.832 C 563.417 323.606, 557 326.689, 557 328.338 C 557 328.837, 557.675 328.685, 558.500 328 C 559.325 327.315, 560.007 327.148, 560.015 327.628 C 560.024 328.107, 560.467 327.825, 561 327 C 561.736 325.861, 561.973 325.823, 561.985 326.844 C 561.993 327.583, 561.105 328.421, 560.011 328.707 C 558.917 328.993, 558.297 329.671, 558.632 330.213 C 558.987 330.787, 558.399 330.749, 557.226 330.121 C 555.699 329.304, 554.935 329.374, 554.076 330.408 C 553.159 331.514, 553.664 331.860, 556.721 332.225 C 560.164 332.635, 561.077 332.166, 567 326.948 C 570.575 323.799, 575.075 320.274, 577 319.115 C 578.925 317.956, 579.815 317.006, 578.978 317.004 C 578.141 317.002, 575.765 318.394, 573.698 320.098 M 453.173 325.250 C 450.695 333.448, 450.882 334.172, 454.777 331.443 C 456.235 330.422, 457 328.853, 457 326.884 C 457 325.105, 456.586 324.138, 455.984 324.510 C 455.425 324.856, 455.201 325.516, 455.487 325.979 C 456.194 327.123, 455.011 330, 453.834 330 C 453.310 330, 453.206 329.476, 453.602 328.836 C 454.323 327.668, 455.036 322, 454.461 322 C 454.293 322, 453.713 323.462, 453.173 325.250 M 563.527 326.044 C 563.882 326.618, 563.571 327.829, 562.836 328.736 C 561.894 329.898, 561.867 330.163, 562.745 329.636 C 563.429 329.225, 564.457 328.014, 565.030 326.944 C 565.858 325.396, 565.745 325, 564.476 325 C 563.599 325, 563.172 325.470, 563.527 326.044 M 645 331.818 C 639.640 333.205, 638.444 333.895, 638.180 335.750 C 637.797 338.449, 639.576 338.652, 645.467 336.583 C 647.685 335.804, 651.643 334.619, 654.262 333.950 C 658.111 332.967, 658.806 332.472, 657.889 331.367 C 656.432 329.610, 653.080 329.728, 645 331.818 M 631.737 342.500 C 630.218 347.450, 628.996 351.950, 629.022 352.500 C 629.047 353.050, 632.422 355.029, 636.520 356.899 L 643.972 360.297 651.876 356.245 C 659.153 352.514, 663.766 351.123, 674.500 349.423 L 678.500 348.790 672.809 343.595 C 664.039 335.591, 663.086 335.251, 655.227 337.312 C 651.590 338.266, 647.281 339.711, 645.653 340.523 C 639.941 343.373, 635.599 341.557, 634.841 336 C 634.605 334.271, 633.648 336.275, 631.737 342.500 M 389.081 336.403 C 388.187 337.480, 388.217 337.942, 389.208 338.394 C 389.919 338.717, 389.541 338.747, 388.368 338.461 C 386.957 338.116, 386.020 338.505, 385.595 339.613 C 385.242 340.533, 385.126 341.459, 385.338 341.671 C 385.979 342.313, 391.407 339.958, 392.214 338.687 C 394.252 335.483, 391.506 333.480, 389.081 336.403 M 376.223 348.382 C 371.055 353.349, 370.748 353.890, 372.246 355.388 C 373.138 356.281, 374.154 357.909, 374.502 359.006 C 375.384 361.786, 377.035 361.513, 382.641 357.661 C 386.505 355.005, 387.886 353.259, 389.386 349.130 C 390.424 346.275, 391.049 343.715, 390.775 343.442 C 390.501 343.168, 389.106 343.389, 387.674 343.934 C 386.014 344.565, 384.856 344.575, 384.476 343.962 C 383.368 342.168, 381.836 342.989, 376.223 348.382 M 679 351.393 C 679 351.609, 679.698 352.054, 680.552 352.382 C 681.442 352.723, 681.843 352.555, 681.493 351.989 C 680.906 351.038, 679 350.583, 679 351.393 M 539 355.713 C 538.175 356.018, 533.115 358.679, 527.756 361.625 C 522.397 364.571, 512.616 369.236, 506.022 371.991 L 494.033 377 479.093 377 C 461.886 377, 463.876 377.872, 449.803 364.155 L 442.106 356.652 437.847 357.928 C 429.852 360.323, 418.853 366.353, 415.648 370.099 C 408.225 378.773, 393 407.894, 393 413.418 C 393 422.648, 414.577 449.725, 424.557 453.019 C 427.001 453.825, 430.953 453.991, 436.582 453.522 C 443.931 452.909, 444.786 452.643, 443.507 451.364 C 441.569 449.426, 441.793 426.901, 443.756 426.247 C 444.447 426.017, 444.758 425.418, 444.447 424.915 C 444.136 424.412, 444.359 424, 444.941 424 C 445.523 424, 446 423.380, 446 422.622 C 446 421.865, 446.700 420.664, 447.555 419.955 C 448.410 419.245, 449.587 417.772, 450.171 416.681 C 451.084 414.974, 450.972 414.788, 449.366 415.351 C 447.621 415.962, 447.613 415.917, 449.234 414.654 C 450.188 413.910, 450.638 412.912, 450.234 412.434 C 449.831 411.957, 450.283 412.165, 451.239 412.896 C 452.195 413.628, 452.779 414.549, 452.535 414.943 C 452.158 415.554, 455.499 415.571, 457 414.965 C 457.275 414.854, 457.837 414.816, 458.250 414.882 C 460.061 415.168, 458.586 414.022, 452.750 410.608 C 449.313 408.598, 444.137 404.746, 441.250 402.049 L 436 397.146 436 386.515 C 436 374.952, 437.585 362.091, 439.206 360.500 C 439.894 359.825, 440.052 360.150, 439.693 361.500 C 438.340 366.594, 436.775 384.211, 437.179 389.803 C 437.572 395.226, 438.069 396.480, 441.065 399.594 C 444.110 402.760, 456.946 411.828, 462.578 414.792 C 464.249 415.672, 466.886 415.131, 476.078 412.019 C 491.077 406.941, 514.762 396.565, 517.806 393.738 C 521.180 390.605, 527.708 381.287, 534.962 369.250 C 538.359 363.613, 541.339 359, 541.584 359 C 543.128 359, 530.213 380.417, 522.898 389.987 L 517.939 396.475 499.219 404.715 C 488.924 409.247, 479.600 413.001, 478.500 413.057 C 477.386 413.113, 477.063 413.385, 477.771 413.669 C 478.470 413.951, 480.428 413.698, 482.122 413.107 C 484.747 412.192, 485.114 412.260, 484.612 413.569 C 484.256 414.496, 484.440 414.846, 485.074 414.454 C 486.304 413.694, 490.186 416.890, 489.460 418.065 C 489.189 418.503, 489.425 419.144, 489.984 419.490 C 490.543 419.835, 491 420.799, 491 421.630 C 491 422.462, 491.648 423.791, 492.439 424.582 C 494.361 426.504, 493.783 440.551, 491.696 442.638 C 491.313 443.020, 491 444.126, 491 445.095 C 491 446.064, 490.293 447.564, 489.429 448.429 C 488.249 449.608, 488.187 450.004, 489.179 450.015 C 491.549 450.043, 487.715 451.958, 485 452.103 C 482.675 452.227, 482.710 452.290, 485.500 453 C 490.902 454.375, 507.314 454.069, 513.413 452.481 C 522.445 450.128, 555.017 432.754, 572.673 420.871 C 579.308 416.405, 579.962 415.643, 581.402 410.691 C 582.841 405.739, 582.813 404.371, 581.022 392.419 C 578.917 378.363, 577.820 373.900, 575.663 370.608 C 573.931 367.964, 556.459 358.756, 549.068 356.591 C 543.429 354.939, 541.537 354.774, 539 355.713 M 688.333 361.667 C 688.700 362.033, 689.300 362.033, 689.667 361.667 C 690.033 361.300, 689.733 361, 689 361 C 688.267 361, 687.967 361.300, 688.333 361.667 M 361.405 364.250 L 359.500 366.500 361.750 364.595 C 363.864 362.805, 364.455 362, 363.655 362 C 363.465 362, 362.453 363.012, 361.405 364.250 M 547.500 362.945 C 538.533 366.616, 540.004 378.993, 549.941 383.473 C 553.875 385.247, 554.125 385.247, 558.061 383.473 C 562.752 381.357, 564 379.502, 564 374.642 C 564 370.431, 560.099 365.357, 555.329 363.364 C 551.665 361.833, 550.384 361.765, 547.500 362.945 M 423.828 367.257 C 418.267 371.443, 414.253 379.065, 415.809 382.481 C 418.900 389.264, 431.253 381.910, 434.102 371.593 C 436.237 363.859, 431.178 361.725, 423.828 367.257 M 547.750 367.039 C 545.616 368.332, 545.466 372.792, 547.460 375.640 C 548.263 376.786, 550.286 378.290, 551.954 378.981 C 554.526 380.046, 555.370 379.987, 557.494 378.596 C 560.647 376.530, 560.748 372.961, 557.750 369.555 C 555.210 366.668, 550.371 365.451, 547.750 367.039 M 425.367 368.904 C 421.484 371.289, 419 374.730, 419 377.723 C 419 381.449, 422.750 380.513, 427.714 375.549 C 434.128 369.135, 432.498 364.523, 425.367 368.904 M 693.133 378.359 C 688.631 383.151, 688.307 392.241, 692.414 398.510 C 694.808 402.163, 703.526 408.737, 706.985 409.497 C 713.957 411.028, 719.774 407.140, 720.674 400.348 C 721.337 395.340, 716.053 384.859, 711 381.159 L 707.500 378.597 711.140 382.548 C 718.584 390.631, 720.273 399.255, 715.434 404.477 C 713.196 406.891, 712.313 407.183, 708.525 406.756 C 694.252 405.147, 685.882 383.839, 697.371 378.360 C 700.134 377.042, 701.404 376.945, 704.006 377.852 C 706.814 378.831, 707.066 378.785, 705.989 377.487 C 705.217 376.557, 702.994 376, 700.052 376 C 696.403 376, 694.852 376.529, 693.133 378.359 M 698.223 382.557 C 694.124 385.427, 695.441 393.111, 700.994 398.722 C 705.329 403.102, 710.677 404.117, 713.174 401.033 C 717.082 396.208, 714.156 387.062, 707.500 383.296 C 702.749 380.608, 701.183 380.483, 698.223 382.557 M 341.211 385.733 C 337.982 389.810, 332.543 400.710, 330.889 406.416 L 330.045 409.332 332.868 406.626 C 336.421 403.222, 345.339 385.998, 344.853 383.477 C 344.555 381.930, 343.904 382.333, 341.211 385.733 M 552.392 399 C 552.392 406.425, 552.549 409.462, 552.742 405.750 C 552.934 402.038, 552.934 395.962, 552.742 392.250 C 552.549 388.538, 552.392 391.575, 552.392 399 M 416.474 393.654 C 415.099 396.763, 414.205 399.538, 414.487 399.820 C 414.769 400.103, 415 400.089, 415 399.791 C 415 399.493, 416.119 396.718, 417.487 393.624 C 418.855 390.531, 419.750 388, 419.475 388 C 419.200 388, 417.850 390.544, 416.474 393.654 M 412 404 C 412 404.733, 412.300 405.033, 412.667 404.667 C 413.033 404.300, 413.033 403.700, 412.667 403.333 C 412.300 402.967, 412 403.267, 412 404 M 487 412.500 C 487 413.325, 487.788 413.993, 488.750 413.985 C 490.120 413.973, 490.204 413.782, 489.137 413.106 C 487.986 412.377, 487.986 412.158, 489.137 411.700 C 490.087 411.322, 489.970 411.134, 488.750 411.079 C 487.788 411.036, 487 411.675, 487 412.500 M 453 413.393 C 453 413.609, 453.698 414.054, 454.552 414.382 C 455.442 414.723, 455.843 414.555, 455.493 413.989 C 454.906 413.038, 453 412.583, 453 413.393 M 347 422 C 347 422.733, 347.300 423.033, 347.667 422.667 C 348.033 422.300, 348.033 421.700, 347.667 421.333 C 347.300 420.967, 347 421.267, 347 422 M 552.079 426.583 C 552.127 427.748, 552.364 427.985, 552.683 427.188 C 552.972 426.466, 552.936 425.603, 552.604 425.271 C 552.272 424.939, 552.036 425.529, 552.079 426.583 M 729.032 426.750 C 729.049 427.163, 729.693 428.331, 730.463 429.347 C 731.233 430.363, 731.626 431.938, 731.337 432.847 C 730.885 434.269, 730.962 434.290, 731.890 433 C 732.806 431.728, 732.984 431.804, 733.064 433.500 C 733.115 434.600, 733.385 434.938, 733.662 434.252 C 733.939 433.565, 733.192 431.428, 732.001 429.502 C 729.890 426.086, 728.967 425.231, 729.032 426.750 M 322.212 431.500 C 321.010 433.975, 320.362 436, 320.772 436 C 321.669 436, 323.750 432.787, 325.025 429.433 C 326.624 425.229, 324.501 426.789, 322.212 431.500 M 646.607 440.582 C 645.654 443.064, 645.950 443.648, 647.282 441.912 C 647.952 441.039, 649.175 440.062, 650 439.741 C 651.046 439.334, 650.852 439.134, 649.357 439.079 C 648.178 439.036, 646.941 439.712, 646.607 440.582 M 368 440.882 C 368 441.432, 368.450 442.160, 369 442.500 C 369.550 442.840, 370 442.668, 370 442.118 C 370 441.568, 369.550 440.840, 369 440.500 C 368.450 440.160, 368 440.332, 368 440.882 M 721.500 444.444 C 711.803 446.581, 710.289 447.588, 712.831 450.210 C 713.400 450.796, 731.340 447.850, 735.793 446.439 C 737.703 445.834, 735.395 441.968, 733.215 442.120 C 732.272 442.186, 727 443.231, 721.500 444.444 M 316.101 448.378 C 315.210 449.452, 315.348 449.853, 316.729 450.196 C 319.221 450.815, 323.274 449.677, 323.759 448.222 C 324.336 446.492, 317.553 446.629, 316.101 448.378 M 738 451 C 738 451.550, 738.477 452, 739.059 452 C 739.641 452, 739.840 451.550, 739.500 451 C 739.160 450.450, 738.684 450, 738.441 450 C 738.198 450, 738 450.450, 738 451 M 645.527 453.264 C 644.687 454.464, 644 455.829, 644 456.298 C 644 457.109, 654.359 482.618, 657.686 490 C 660.289 495.776, 660.818 496.145, 664.072 494.463 C 666.484 493.215, 666.802 492.621, 666.065 490.739 C 665.582 489.508, 662.405 481.975, 659.005 474 C 655.604 466.025, 652.129 457.838, 651.282 455.807 C 649.377 451.240, 647.520 450.419, 645.527 453.264 M 313.100 455.600 C 312.394 457.552, 312.038 459.371, 312.309 459.642 C 312.579 459.913, 313.340 458.499, 314 456.500 C 315.563 451.765, 314.773 450.975, 313.100 455.600 M 365.992 452.271 C 365.988 452.397, 362.435 461.275, 358.097 472 C 349.978 492.073, 349.854 492.781, 354.059 495.032 C 355.532 495.820, 356.332 494.684, 359.557 487.227 C 366.009 472.308, 371.808 456.664, 371.339 455.441 C 370.968 454.473, 366.017 451.539, 365.992 452.271 M 741.079 457.583 C 741.127 458.748, 741.364 458.985, 741.683 458.188 C 741.972 457.466, 741.936 456.603, 741.604 456.271 C 741.272 455.939, 741.036 456.529, 741.079 457.583 M 434.066 462.393 C 430.429 463.707, 425.243 470.414, 427.016 471.510 C 427.557 471.844, 428 473.409, 428 474.988 C 428 476.566, 428.707 478.564, 429.571 479.429 C 431.655 481.512, 431.901 481.418, 431.338 478.750 C 430.908 476.717, 430.973 476.674, 432.015 478.311 C 432.649 479.307, 432.919 480.769, 432.615 481.561 C 432.311 482.352, 432.499 483, 433.031 483 C 433.564 483, 434 483.477, 434 484.059 C 434 484.641, 433.550 484.840, 433 484.500 C 432.450 484.160, 432 484.321, 432 484.858 C 432 485.394, 432.563 486.060, 433.250 486.338 C 434.250 486.741, 434.250 486.858, 433.250 486.921 C 432.463 486.971, 432.044 488.390, 432.118 490.750 C 432.236 494.482, 432.240 494.486, 433 491.500 C 433.420 489.850, 433.870 488.950, 434 489.500 C 434.130 490.050, 434.525 489.150, 434.878 487.500 C 435.231 485.850, 435.853 484.613, 436.260 484.750 C 436.667 484.887, 445.910 485, 456.799 485 L 476.598 485 477.917 488.750 C 480.913 497.265, 483.283 501.943, 484.287 501.322 C 484.966 500.903, 485.083 501.342, 484.617 502.555 C 484.220 503.591, 484.198 504.136, 484.569 503.765 C 484.940 503.394, 487.500 505.759, 490.258 509.020 C 494.478 514.010, 497 515.642, 497 513.382 C 497 513.107, 496.567 513.150, 496.038 513.477 C 495.509 513.804, 493.896 512.289, 492.455 510.111 C 491.013 507.932, 489.165 505.894, 488.348 505.580 C 487.348 505.196, 487.070 504.273, 487.497 502.755 C 487.930 501.216, 487.837 500.923, 487.205 501.834 C 486.459 502.908, 486.154 502.843, 485.639 501.502 C 484.738 499.152, 484.812 498.991, 486.500 499.638 C 487.325 499.955, 488 499.756, 488 499.195 C 488 498.066, 486.174 498.135, 484.250 499.337 C 483.563 499.767, 483 499.697, 483 499.181 C 483 497.777, 485.580 495.913, 486.395 496.728 C 486.786 497.119, 486.809 496.665, 486.446 495.720 C 486.067 494.732, 486.257 494, 486.893 494 C 487.502 494, 488 493.100, 488 492 C 488 490.900, 488.450 490, 489 490 C 489.550 490, 490 489.355, 490 488.567 C 490 487.779, 490.912 486.845, 492.026 486.492 C 493.141 486.138, 493.928 485.250, 493.776 484.519 C 493.418 482.797, 498.008 478.789, 499.627 479.410 C 500.311 479.673, 501.031 479.407, 501.227 478.819 C 501.739 477.283, 507.073 477.499, 508.059 479.096 C 508.517 479.836, 509.160 480.174, 509.488 479.845 C 510.234 479.099, 504.268 473.994, 502.673 474.015 C 501.993 474.024, 502.130 474.438, 503 475 C 504.270 475.821, 504.222 475.972, 502.683 475.985 C 501.373 475.996, 501.028 475.488, 501.447 474.168 C 502.108 472.083, 499.036 468.750, 496.875 469.208 C 496.108 469.371, 495.608 468.820, 495.745 467.963 C 496.072 465.911, 491.697 463.486, 485.201 462.117 C 477.722 460.541, 475.179 460.714, 472.273 463 C 470.085 464.721, 468.216 465, 458.874 465 C 449.100 465, 447.892 464.800, 446.768 463 C 445.307 460.661, 439.613 460.389, 434.066 462.393 M 428.333 470.667 C 428.700 471.033, 429.300 471.033, 429.667 470.667 C 430.033 470.300, 429.733 470, 429 470 C 428.267 470, 427.967 470.300, 428.333 470.667 M 488.500 471 C 488.160 471.550, 488.332 472, 488.882 472 C 489.432 472, 490.160 471.550, 490.500 471 C 490.840 470.450, 490.668 470, 490.118 470 C 489.568 470, 488.840 470.450, 488.500 471 M 429.158 474 C 429.158 475.375, 429.385 475.938, 429.662 475.250 C 429.940 474.563, 429.940 473.438, 429.662 472.750 C 429.385 472.063, 429.158 472.625, 429.158 474 M 483.959 477.058 C 482.762 478.739, 482.056 480.389, 482.391 480.724 C 482.726 481.059, 483 480.782, 483 480.108 C 483 479.434, 483.520 479.203, 484.155 479.595 C 484.856 480.029, 485.038 479.871, 484.618 479.191 C 484.238 478.576, 484.843 477.157, 485.964 476.036 C 487.084 474.916, 487.581 474, 487.068 474 C 486.556 474, 485.156 475.376, 483.959 477.058 M 498.226 476.574 C 499.176 477.568, 500.227 478.107, 500.562 477.771 C 500.897 477.436, 500.120 476.623, 498.836 475.964 C 496.603 474.819, 496.576 474.846, 498.226 476.574 M 419.405 480.155 C 418.962 480.870, 419.130 481.038, 419.845 480.595 C 420.480 480.203, 421 479.684, 421 479.441 C 421 478.607, 420.117 479.002, 419.405 480.155 M 503.333 479.667 C 503.700 480.033, 504.300 480.033, 504.667 479.667 C 505.033 479.300, 504.733 479, 504 479 C 503.267 479, 502.967 479.300, 503.333 479.667 M 486 481 C 486 481.733, 486.300 482.033, 486.667 481.667 C 487.033 481.300, 487.033 480.700, 486.667 480.333 C 486.300 479.967, 486 480.267, 486 481 M 479.405 483.155 C 478.962 483.870, 479.130 484.038, 479.845 483.595 C 480.480 483.203, 481 482.684, 481 482.441 C 481 481.607, 480.117 482.002, 479.405 483.155 M 514.517 485.972 C 514.187 486.506, 514.662 488.081, 515.573 489.472 C 516.485 490.862, 516.766 492, 516.198 492 C 515.631 492, 514.990 491.470, 514.774 490.823 C 514.298 489.395, 511.994 490.637, 512.015 492.309 C 512.025 493.036, 512.394 492.926, 512.962 492.028 C 513.759 490.767, 513.987 490.803, 514.553 492.278 C 514.917 493.225, 515.568 494, 516 494 C 517.632 494, 517.920 490.807, 516.485 488.618 C 515.664 487.365, 515.295 486.039, 515.663 485.670 C 516.032 485.302, 516.060 485, 515.726 485 C 515.391 485, 514.848 485.437, 514.517 485.972 M 485.333 487.667 C 485.700 488.033, 486.300 488.033, 486.667 487.667 C 487.033 487.300, 486.733 487, 486 487 C 485.267 487, 484.967 487.300, 485.333 487.667 M 517.500 488 C 517.840 488.550, 518.343 489, 518.618 489 C 518.893 489, 518.840 488.550, 518.500 488 C 518.160 487.450, 517.657 487, 517.382 487 C 517.107 487, 517.160 487.450, 517.500 488 M 645.500 489.083 C 642.722 490.999, 642.685 491.099, 645 490.441 C 646.375 490.050, 647.738 489.364, 648.028 488.915 C 648.318 488.467, 649.155 489.453, 649.887 491.108 C 651.601 494.980, 652.346 494.290, 650.907 490.162 C 649.606 486.432, 649.402 486.391, 645.500 489.083 M 368.733 491.124 C 369.412 491.808, 370.219 492.115, 370.526 491.807 C 370.834 491.499, 370.279 490.940, 369.293 490.564 C 367.868 490.022, 367.753 490.136, 368.733 491.124 M 646 492.110 C 644.734 493.020, 644.773 493.101, 646.250 492.626 C 648.104 492.029, 648.716 493.478, 646.975 494.342 C 646.411 494.621, 646.524 494.732, 647.225 494.587 C 647.926 494.443, 649.084 495.039, 649.798 495.912 C 650.555 496.837, 650.440 496.143, 649.523 494.250 C 647.729 490.546, 647.970 490.692, 646 492.110 M 653 492 C 653 492.733, 653.300 493.033, 653.667 492.667 C 654.033 492.300, 654.033 491.700, 653.667 491.333 C 653.300 490.967, 653 491.267, 653 492 M 404.753 498.696 C 400.233 502.320, 399.246 503.591, 400.126 504.652 C 400.741 505.393, 401.762 506, 402.394 506 C 403.608 506, 405.989 516.671, 406.015 522.224 C 406.027 524.707, 406.265 525.137, 407 524 C 407.755 522.831, 407.973 523.107, 407.985 525.250 C 407.993 526.763, 408.436 528, 408.969 528 C 409.501 528, 409.672 528.692, 409.347 529.538 C 408.887 530.738, 409.534 530.618, 412.289 528.992 C 414.232 527.846, 416.043 526.331, 416.314 525.625 C 416.584 524.919, 416.403 521.228, 415.911 517.421 C 414.939 509.906, 412.292 497.884, 411.965 499.500 C 411.854 500.050, 411.816 500.837, 411.882 501.250 C 411.947 501.663, 411.502 502, 410.893 502 C 410.232 502, 410.075 501.295, 410.504 500.250 C 410.899 499.288, 411.285 497.825, 411.361 497 C 411.437 496.175, 411.950 495.169, 412.500 494.765 C 413.084 494.336, 412.876 494.043, 412 494.060 C 411.175 494.076, 407.914 496.162, 404.753 498.696 M 513.395 494.722 C 513.773 495.394, 513.328 497.095, 512.406 498.503 C 511.484 499.911, 510.982 501.315, 511.291 501.624 C 511.600 501.933, 512.599 500.742, 513.511 498.978 C 514.819 496.449, 514.909 495.530, 513.938 494.635 C 513.011 493.781, 512.877 493.802, 513.395 494.722 M 522.596 495.389 C 522.936 496.275, 523.953 497.036, 524.857 497.079 C 525.895 497.129, 526.039 497.344, 525.250 497.662 C 524.563 497.940, 524 498.609, 524 499.150 C 524 499.691, 522.931 501.566, 521.625 503.317 C 520.318 505.068, 517.582 509.875, 515.545 514 C 513.508 518.125, 511.427 521.928, 510.921 522.450 C 510.414 522.973, 510 524.009, 510 524.753 C 510 526.279, 515.094 533, 516.250 533 C 517.499 533, 517.089 530.208, 515.750 529.593 C 515.063 529.277, 515.425 529.242, 516.555 529.515 C 517.813 529.819, 519.504 529.179, 520.911 527.868 C 522.805 526.103, 523.381 525.970, 524.171 527.112 C 524.852 528.097, 524.943 527.832, 524.483 526.202 C 524.122 524.922, 524.364 523.266, 525.029 522.465 C 525.686 521.673, 525.947 520.304, 525.609 519.422 C 524.801 517.318, 525.979 515.348, 527.029 517.047 C 527.540 517.874, 527.836 517.482, 527.892 515.903 C 527.938 514.581, 528.248 511.417, 528.579 508.871 C 529.109 504.800, 528.903 504.045, 526.869 502.621 C 525.596 501.729, 525.015 501, 525.577 501 C 526.140 501, 527.052 501.452, 527.603 502.003 C 528.155 502.555, 532.363 503.478, 536.953 504.053 C 541.544 504.629, 545.570 505.190, 545.900 505.300 C 546.230 505.410, 546.725 505.124, 547 504.665 C 547.275 504.206, 542.325 501.814, 536 499.351 C 529.675 496.887, 523.932 494.625, 523.239 494.324 C 522.404 493.962, 522.187 494.323, 522.596 495.389 M 719.500 497.581 C 715.459 498.573, 715.075 498.829, 717.500 498.919 C 719.822 499.005, 720.161 499.250, 719 500 C 717.831 500.755, 718.107 500.973, 720.250 500.985 C 722.021 500.995, 723 501.534, 723 502.500 C 723 503.325, 723.788 504.036, 724.750 504.079 C 727.194 504.189, 719.681 506.640, 712.631 508.032 C 707.641 509.018, 706.969 509.398, 708.143 510.571 C 709.316 511.744, 710.869 511.717, 718.511 510.389 C 723.455 509.530, 728.062 508.655, 728.748 508.445 C 729.681 508.160, 729.474 506.731, 727.927 502.782 C 726.788 499.877, 725.552 497.242, 725.178 496.927 C 724.805 496.611, 722.250 496.906, 719.500 497.581 M 418.079 499.583 C 418.127 500.748, 418.364 500.985, 418.683 500.188 C 418.972 499.466, 418.936 498.603, 418.604 498.271 C 418.272 497.939, 418.036 498.529, 418.079 499.583 M 651.500 499 C 651.160 499.550, 651.332 500, 651.882 500 C 652.432 500, 653.160 499.550, 653.500 499 C 653.840 498.450, 653.668 498, 653.118 498 C 652.568 498, 651.840 498.450, 651.500 499 M 721 499 C 721 499.733, 721.300 500.033, 721.667 499.667 C 722.033 499.300, 722.033 498.700, 721.667 498.333 C 721.300 497.967, 721 498.267, 721 499 M 328.024 503.678 C 326.886 506.250, 326.303 508.640, 326.728 508.988 C 328.342 510.309, 332.826 511.841, 333.400 511.266 C 334.504 510.162, 334.020 509.443, 330.949 507.629 C 328.887 506.411, 328.192 505.450, 328.805 504.664 C 329.770 503.425, 331.057 499, 330.453 499 C 330.255 499, 329.162 501.105, 328.024 503.678 M 430.141 501.637 C 428.940 504.317, 428.966 504.394, 430.545 502.848 C 431.473 501.940, 432.050 500.651, 431.828 499.985 C 431.606 499.318, 430.847 500.062, 430.141 501.637 M 658.333 500.667 C 658.700 501.033, 659.300 501.033, 659.667 500.667 C 660.033 500.300, 659.733 500, 659 500 C 658.267 500, 657.967 500.300, 658.333 500.667 M 408 502 C 408 502.733, 408.300 503.033, 408.667 502.667 C 409.033 502.300, 409.033 501.700, 408.667 501.333 C 408.300 500.967, 408 501.267, 408 502 M 653.459 502.067 C 653.096 502.653, 653.070 503.403, 653.400 503.733 C 653.730 504.063, 654 503.841, 654 503.240 C 654 502.639, 654.788 501.941, 655.750 501.689 C 657.328 501.277, 657.334 501.221, 655.809 501.116 C 654.879 501.052, 653.821 501.480, 653.459 502.067 M 509.241 503.498 C 509.649 503.948, 509.472 504.931, 508.849 505.682 C 508.225 506.434, 507.909 507.242, 508.145 507.479 C 508.382 507.715, 509.112 507.050, 509.767 506.001 C 510.695 504.515, 510.687 503.936, 509.730 503.386 C 509.053 502.997, 508.834 503.048, 509.241 503.498 M 428 507 C 428 507.733, 428.300 508.033, 428.667 507.667 C 429.033 507.300, 429.033 506.700, 428.667 506.333 C 428.300 505.967, 428 506.267, 428 507 M 622.895 510.820 C 622.128 511.860, 618.237 517.046, 614.250 522.344 C 610.263 527.643, 607 532.208, 607 532.489 C 607 534.046, 612.917 532.702, 614.654 530.750 C 620.070 524.665, 627.096 513.690, 626.811 511.760 C 626.393 508.935, 624.604 508.506, 622.895 510.820 M 505.405 512.155 C 504.962 512.870, 505.130 513.038, 505.845 512.595 C 506.480 512.203, 507 511.684, 507 511.441 C 507 510.607, 506.117 511.002, 505.405 512.155 M 421.713 515 C 422.367 518.984, 422.596 519.463, 423.303 518.317 C 423.580 517.867, 423.206 516.150, 422.473 514.500 L 421.139 511.500 421.713 515 M 541.459 513.067 C 541.096 513.653, 541.014 514.348, 541.276 514.610 C 541.538 514.872, 542.019 514.392, 542.345 513.543 C 543.021 511.781, 542.445 511.471, 541.459 513.067 M 537.249 521.250 C 536.174 524.188, 536.201 524.314, 537.530 522.559 C 538.802 520.879, 539.553 518, 538.719 518 C 538.565 518, 537.903 519.462, 537.249 521.250 M 501 520 C 501 520.733, 501.300 521.033, 501.667 520.667 C 502.033 520.300, 502.033 519.700, 501.667 519.333 C 501.300 518.967, 501 519.267, 501 520 M 406 529 C 406 529.733, 406.300 530.033, 406.667 529.667 C 407.033 529.300, 407.033 528.700, 406.667 528.333 C 406.300 527.967, 406 528.267, 406 529 M 422.167 532.105 C 421.444 533.262, 421.286 533.941, 421.816 533.613 C 422.622 533.115, 426 538.564, 426 540.363 C 426 540.671, 427.622 544.342, 429.606 548.520 C 432.037 553.642, 433.045 556.986, 432.700 558.789 C 432.221 561.296, 432.276 561.343, 433.595 559.540 C 434.368 558.483, 434.999 557.366, 434.999 557.059 C 434.998 556.751, 444.517 556.725, 456.153 557 C 472.821 557.394, 477.648 557.219, 478.905 556.176 C 480.123 555.165, 480.145 555.033, 479 555.618 C 477.667 556.299, 477.667 556.168, 479 554.442 C 481.179 551.621, 481.875 551.261, 484.578 551.558 C 485.928 551.706, 486.747 551.400, 486.419 550.869 C 486.094 550.343, 486.204 549.348, 486.664 548.659 C 487.124 547.970, 486.701 548.278, 485.725 549.345 C 484.749 550.411, 483.708 551.042, 483.413 550.747 C 482.948 550.282, 488.700 542.464, 495.655 534.108 C 497.782 531.553, 497.838 531.544, 499.905 533.414 C 501.057 534.457, 502 534.860, 502 534.310 C 502 532.820, 498.572 530, 496.760 530 C 494.730 530, 484.105 533.965, 481.527 535.684 C 480.065 536.660, 474.501 537, 459.999 537 L 440.444 537 433.140 533.500 C 424.596 529.405, 423.907 529.318, 422.167 532.105 M 496.399 534.250 C 496.003 534.938, 496.048 535.166, 496.498 534.759 C 496.948 534.351, 498.032 534.576, 498.908 535.259 C 500.317 536.357, 500.342 536.298, 499.128 534.750 C 497.492 532.664, 497.328 532.634, 496.399 534.250 M 518 534 C 518 534.733, 518.300 535.033, 518.667 534.667 C 519.033 534.300, 519.033 533.700, 518.667 533.333 C 518.300 532.967, 518 533.267, 518 534 M 635 544.378 C 635 554.432, 635.254 556.254, 636.886 557.886 C 638.733 559.733, 638.781 559.577, 639.241 550.136 C 639.499 544.836, 639.325 540.072, 638.855 539.550 C 638.385 539.028, 638 537.845, 638 536.922 C 638 536, 637.325 534.685, 636.500 534 C 635.181 532.906, 635 534.160, 635 544.378 M 491.957 540.250 C 490.100 542.587, 489.306 543.919, 490.193 543.208 C 491.511 542.153, 491.909 542.153, 492.374 543.208 C 492.686 543.919, 492.842 543.600, 492.721 542.500 C 492.587 541.291, 493.024 540.609, 493.824 540.775 C 494.553 540.926, 494.851 540.569, 494.488 539.981 C 494.125 539.393, 494.372 538.257, 495.036 537.456 C 495.701 536.655, 496.040 536, 495.790 536 C 495.540 536, 493.815 537.913, 491.957 540.250 M 506.932 539.237 C 508.819 541.290, 510.582 542.752, 510.848 542.485 C 511.115 542.218, 511.144 541.888, 510.912 541.750 C 510.680 541.612, 508.917 540.151, 506.995 538.502 L 503.500 535.504 506.932 539.237 M 597.648 541.910 C 595.176 545.161, 593.419 548.086, 593.743 548.410 C 594.697 549.364, 597.171 549.085, 596.558 548.093 C 596.249 547.595, 596.785 547.386, 597.749 547.629 C 599.783 548.144, 606.646 538.855, 605.546 537.075 C 604.172 534.852, 602.009 536.177, 597.648 541.910 M 715.551 548.161 C 707.294 559.750, 700.321 573.725, 701.975 575.366 C 702.830 576.214, 702.968 576.105, 702.524 574.937 C 702.166 573.996, 702.839 572.614, 704.215 571.463 C 705.472 570.413, 705.938 570.194, 705.250 570.977 C 703.166 573.349, 703.851 574.442, 706.146 572.405 C 708.284 570.506, 708.287 570.507, 707.064 572.836 C 706.390 574.120, 706.063 575.396, 706.338 575.671 C 707.240 576.573, 709.169 571.882, 708.554 570.280 C 708.052 568.972, 708.206 568.926, 709.500 570 C 710.798 571.077, 710.947 571.026, 710.431 569.681 C 709.965 568.467, 710.322 568.177, 711.908 568.482 C 714.061 568.897, 714.777 567.598, 713 566.500 C 712.450 566.160, 712 566.319, 712 566.852 C 712 567.630, 710.463 567.722, 708.236 567.077 C 707.766 566.941, 713.351 558.677, 718.424 552 C 724.766 543.654, 725.720 542.693, 723.392 547 C 722.351 548.925, 721.163 550.650, 720.750 550.833 C 720.337 551.017, 720 551.656, 720 552.255 C 720 552.853, 719.263 554.157, 718.362 555.153 C 716.953 556.710, 716.918 557.201, 718.112 558.673 C 719.036 559.812, 719.082 560.133, 718.250 559.633 C 717.563 559.220, 717 559.269, 717 559.741 C 717 560.213, 717.563 561.196, 718.250 561.925 C 719.250 562.985, 719.250 563.342, 718.250 563.708 C 716.488 564.354, 716.689 567, 718.500 567 C 719.325 567, 720 567.477, 720 568.059 C 720 568.641, 719.550 568.840, 719 568.500 C 718.450 568.160, 718 568.809, 718 569.941 C 718 571.073, 717.550 572, 717 572 C 716.450 572, 716.015 572.563, 716.033 573.250 C 716.052 573.938, 716.902 573.499, 717.923 572.275 C 719.777 570.053, 719.781 570.053, 720.324 572.130 C 720.623 573.273, 720.607 579.714, 720.289 586.442 C 719.815 596.490, 719.966 598.773, 721.136 599.222 C 722.091 599.588, 722.570 599.065, 722.588 597.634 C 722.708 588.365, 723.136 584, 723.927 584 C 724.436 584, 725.047 584.563, 725.283 585.250 C 725.520 585.938, 725.498 585.600, 725.235 584.500 C 724.035 579.478, 723.911 574.001, 724.960 572.330 C 725.883 570.858, 726.005 571.479, 725.581 575.500 L 725.054 580.500 726.326 576.500 L 727.597 572.500 728.679 576.698 C 729.553 580.088, 729.476 581.304, 728.278 583.013 C 727.463 584.177, 727.067 585.400, 727.398 585.731 C 727.729 586.062, 728 585.782, 728 585.108 C 728 584.434, 728.375 584.114, 728.833 584.397 C 729.863 585.034, 729.098 590.821, 727.885 591.571 C 727.398 591.872, 726.964 591.304, 726.921 590.309 C 726.873 589.203, 726.642 588.999, 726.327 589.784 C 726.043 590.490, 726.363 591.732, 727.037 592.545 C 728.110 593.837, 728.443 593.801, 729.694 592.261 C 730.972 590.687, 731.057 590.924, 730.493 594.500 C 730.123 596.850, 728.963 599.214, 727.681 600.230 C 725.543 601.926, 725.563 601.937, 728.700 600.780 C 731.431 599.772, 732.187 599.860, 733.861 601.374 C 734.940 602.351, 736.505 604.559, 737.340 606.283 C 738.856 609.412, 738.858 609.413, 739.420 606.958 C 740.375 602.779, 744 567.414, 744 562.270 C 744 557.922, 743.580 556.996, 740.045 553.544 C 736.751 550.328, 735.837 549.890, 734.585 550.930 C 733.318 551.981, 733.143 551.852, 733.478 550.113 C 733.758 548.660, 732.931 547.400, 730.688 545.863 C 728.935 544.661, 726.309 542.586, 724.852 541.250 L 722.205 538.822 715.551 548.161 M 506 541.378 C 506 541.585, 506.788 542.373, 507.750 543.128 C 509.336 544.371, 509.371 544.336, 508.128 542.750 C 506.821 541.084, 506 540.555, 506 541.378 M 525 544 C 525 544.733, 525.300 545.033, 525.667 544.667 C 526.033 544.300, 526.033 543.700, 525.667 543.333 C 525.300 542.967, 525 543.267, 525 544 M 640.947 545.500 C 640.885 546.600, 640.657 548.625, 640.442 550 C 640.226 551.375, 640.027 557.900, 640 564.500 C 639.972 571.100, 639.504 580.162, 638.960 584.639 C 638.184 591.032, 638.285 594.123, 639.435 599.050 C 641.048 605.968, 640.636 607.568, 636.371 610.922 C 634.145 612.674, 632.327 613, 624.798 613 C 616.753 613, 615.918 613.174, 616.400 614.750 C 616.694 615.712, 617.630 619.200, 618.480 622.500 C 619.890 627.976, 619.885 628.603, 618.415 629.682 C 616.947 630.759, 616.990 631.358, 618.903 636.469 C 621.424 643.208, 621.528 645.759, 619.378 648.135 C 617.862 649.810, 618.224 650.726, 624.878 662.069 C 628.795 668.747, 632 674.543, 632 674.950 C 632 675.357, 632.962 676.547, 634.137 677.595 C 637.427 680.528, 645.888 693.999, 654.460 709.951 C 661.042 722.198, 662.305 725.324, 662.744 730.451 C 663.535 739.704, 664.622 740.057, 665.299 731.282 C 665.634 726.930, 666.463 722.049, 667.140 720.435 C 667.933 718.546, 668.331 712.687, 668.257 704 C 668.157 692.275, 667.735 688.988, 665.047 679 C 661.433 665.570, 654.679 633.972, 652.990 622.597 L 651.817 614.694 654.915 612.270 C 657.980 609.871, 658.011 609.755, 657.861 601.173 C 657.725 593.408, 657.457 592.264, 655.305 590.252 C 653.098 588.188, 652.956 587.507, 653.584 581.959 C 654.196 576.555, 654.031 575.662, 652.033 573.535 C 649.695 571.046, 649.111 567.938, 650.318 564.411 C 650.848 562.861, 650.128 561.185, 647.525 557.911 C 645.596 555.485, 643.731 551.925, 643.381 550 C 642.534 545.346, 641.106 542.707, 640.947 545.500 M 726.603 545.833 C 726.320 546.292, 726.723 546.667, 727.500 546.667 C 728.277 546.667, 728.680 546.292, 728.397 545.833 C 728.114 545.375, 727.710 545, 727.500 545 C 727.290 545, 726.886 545.375, 726.603 545.833 M 514.500 547 C 514.840 547.550, 515.316 548, 515.559 548 C 515.802 548, 516 547.550, 516 547 C 516 546.450, 515.523 546, 514.941 546 C 514.359 546, 514.160 546.450, 514.500 547 M 324.417 550.967 C 321.777 553.149, 319.247 555.594, 318.796 556.400 C 318.084 557.673, 316.266 568.256, 312.938 590.500 C 312.444 593.800, 312.031 597.545, 312.020 598.821 C 312.002 600.967, 312.124 601.019, 313.629 599.514 C 314.525 598.618, 315.845 598.110, 316.563 598.386 C 317.840 598.876, 317.945 598.392, 317.973 591.860 C 317.980 590.408, 318.604 588.982, 319.360 588.692 C 320.254 588.349, 320.635 586.911, 320.450 584.582 C 320.247 582.024, 320.571 581, 321.583 581 C 323.333 581, 323.458 579.321, 321.750 578.746 C 320.843 578.441, 321.171 576.980, 322.950 573.413 C 325.258 568.784, 325.720 564.358, 324.376 559.750 C 324.095 558.788, 324.271 558, 324.766 558 C 325.261 558, 325.689 558.563, 325.715 559.250 C 325.911 564.265, 327.118 572.351, 327.884 573.783 C 328.393 574.734, 328.565 578.546, 328.268 582.256 C 327.802 588.055, 327.956 589, 329.363 589 C 330.263 589, 331 589.505, 331 590.122 C 331 590.932, 331.392 590.920, 332.404 590.079 C 333.285 589.348, 333.803 586.974, 333.793 583.707 C 333.779 579.002, 333.668 578.741, 332.633 581 C 332.004 582.375, 330.869 583.633, 330.110 583.795 C 328.725 584.091, 328.806 582.604, 330.560 575.617 C 330.973 573.973, 330.805 573, 330.108 573 C 329.352 573, 329.058 569.427, 329.183 561.750 L 329.367 550.500 330 558.500 C 330.348 562.900, 330.769 564.925, 330.934 563 C 331.219 559.692, 331.284 559.774, 332.126 564.500 C 332.616 567.250, 332.795 571.075, 332.525 573 C 332.075 576.202, 332.124 576.287, 333.102 574 C 333.864 572.217, 333.851 568.917, 333.056 562.500 C 331.394 549.085, 330.991 547, 330.064 547 C 329.598 547, 327.057 548.785, 324.417 550.967 M 726.500 549 C 725.423 550.742, 727.019 552.229, 728.578 550.935 C 729.348 550.296, 729.731 549.374, 729.430 548.887 C 728.700 547.706, 727.265 547.762, 726.500 549 M 727 550.059 C 727 550.641, 727.450 550.840, 728 550.500 C 728.550 550.160, 729 549.684, 729 549.441 C 729 549.198, 728.550 549, 728 549 C 727.450 549, 727 549.477, 727 550.059 M 323.617 553.870 C 322.022 555.633, 322.021 555.794, 323.600 556.400 C 324.527 556.756, 325.522 556.811, 325.810 556.524 C 326.098 556.236, 325.753 556, 325.044 556 C 324.003 556, 323.998 555.707, 325.020 554.476 C 326.889 552.224, 325.608 551.671, 323.617 553.870 M 736.500 553 C 736.840 553.550, 737.343 554, 737.618 554 C 737.893 554, 737.840 553.550, 737.500 553 C 737.160 552.450, 736.657 552, 736.382 552 C 736.107 552, 736.160 552.450, 736.500 553 M 719 557 C 719 557.733, 719.300 558.033, 719.667 557.667 C 720.033 557.300, 720.033 556.700, 719.667 556.333 C 719.300 555.967, 719 556.267, 719 557 M 715.286 558.294 C 715.260 558.957, 714.911 560.288, 714.512 561.250 C 714.107 562.227, 714.223 563, 714.776 563 C 715.943 563, 717.054 558.151, 716.033 557.520 C 715.648 557.282, 715.312 557.631, 715.286 558.294 M 737.405 558.155 C 736.962 558.870, 737.130 559.038, 737.845 558.595 C 738.480 558.203, 739 557.684, 739 557.441 C 739 556.607, 738.117 557.002, 737.405 558.155 M 633.103 568.237 C 633.014 573.332, 632.683 578.945, 632.367 580.710 C 631.950 583.040, 632.340 584.617, 633.789 586.459 C 635.568 588.721, 635.861 588.807, 636.467 587.249 C 636.841 586.287, 637.400 581.643, 637.710 576.928 C 638.285 568.168, 637.183 562.227, 634.581 560.067 C 633.509 559.177, 633.233 560.700, 633.103 568.237 M 483.333 560.667 C 483.700 561.033, 484.300 561.033, 484.667 560.667 C 485.033 560.300, 484.733 560, 484 560 C 483.267 560, 482.967 560.300, 483.333 560.667 M 725.195 565.500 C 725.215 567.150, 725.439 567.704, 725.693 566.731 C 725.947 565.758, 725.930 564.408, 725.656 563.731 C 725.382 563.054, 725.175 563.850, 725.195 565.500 M 721 568 C 721 568.733, 721.300 569.033, 721.667 568.667 C 722.033 568.300, 722.033 567.700, 721.667 567.333 C 721.300 566.967, 721 567.267, 721 568 M 322.079 569.583 C 322.127 570.748, 322.364 570.985, 322.683 570.188 C 322.972 569.466, 322.936 568.603, 322.604 568.271 C 322.272 567.939, 322.036 568.529, 322.079 569.583 M 330 569 C 330 569.733, 330.300 570.033, 330.667 569.667 C 331.033 569.300, 331.033 568.700, 330.667 568.333 C 330.300 567.967, 330 568.267, 330 569 M 404.764 570.250 C 402.804 573.258, 400.484 579.817, 401.146 580.479 C 401.437 580.771, 403.099 580.513, 404.838 579.907 C 407.861 578.853, 408 578.567, 408 573.402 C 408 567.583, 407.083 566.691, 404.764 570.250 M 486.549 570.054 C 488.819 572.562, 489.664 572.506, 491.110 569.750 L 492.291 567.500 489.976 569.500 C 488.277 570.968, 487.810 571.089, 488.221 569.955 C 488.598 568.912, 488.130 568.360, 486.784 568.259 C 484.869 568.114, 484.860 568.188, 486.549 570.054 M 716 569 C 716 569.733, 716.300 570.033, 716.667 569.667 C 717.033 569.300, 717.033 568.700, 716.667 568.333 C 716.300 567.967, 716 568.267, 716 569 M 712.515 572.719 L 710.759 575.500 713.074 573.278 C 714.347 572.056, 715.137 570.804, 714.830 570.497 C 714.522 570.189, 713.481 571.189, 712.515 572.719 M 324.457 573.175 C 324.057 574.454, 323.293 575.781, 322.758 576.125 C 322.136 576.525, 322.150 576.974, 322.796 577.374 C 323.763 577.972, 326.447 572.114, 325.596 571.262 C 325.369 571.035, 324.856 571.896, 324.457 573.175 M 319 577 C 319 577.733, 319.300 578.033, 319.667 577.667 C 320.033 577.300, 320.033 576.700, 319.667 576.333 C 319.300 575.967, 319 576.267, 319 577 M 727.158 579 C 727.158 580.375, 727.385 580.938, 727.662 580.250 C 727.940 579.563, 727.940 578.438, 727.662 577.750 C 727.385 577.063, 727.158 577.625, 727.158 579 M 325 579 C 325 579.733, 325.300 580.033, 325.667 579.667 C 326.033 579.300, 326.033 578.700, 325.667 578.333 C 325.300 577.967, 325 578.267, 325 579 M 513.413 582.888 C 515.564 585.104, 517.697 586.687, 518.151 586.407 C 518.605 586.126, 518.754 586.482, 518.481 587.198 C 517.838 588.886, 526.211 593.598, 531.500 594.524 C 533.700 594.909, 536.513 595.859, 537.750 596.635 C 541.806 599.178, 540.436 595.529, 535.866 591.618 C 531.548 587.922, 517.667 580.756, 512.500 579.556 L 509.500 578.859 513.413 582.888 M 400.823 584.182 C 393.161 588.311, 384.040 595.321, 385.015 596.331 C 386.280 597.640, 401.751 588.995, 405.958 584.628 C 408.410 582.082, 409.985 580.010, 409.458 580.022 C 408.931 580.035, 405.045 581.907, 400.823 584.182 M 710.158 583 C 710.158 584.375, 710.385 584.938, 710.662 584.250 C 710.940 583.563, 710.940 582.438, 710.662 581.750 C 710.385 581.063, 710.158 581.625, 710.158 583 M 468.500 583.572 C 470.700 584.360, 473.625 585.544, 475 586.205 C 479.324 588.282, 479.531 588.327, 478.200 586.897 C 477.485 586.129, 476.585 585.473, 476.200 585.439 C 475.815 585.406, 473.758 584.618, 471.628 583.689 C 469.498 582.760, 467.023 582.032, 466.128 582.070 C 465.233 582.109, 466.300 582.785, 468.500 583.572 M 698 583 C 698 583.733, 698.300 584.033, 698.667 583.667 C 699.033 583.300, 699.033 582.700, 698.667 582.333 C 698.300 581.967, 698 582.267, 698 583 M 329.369 585.480 C 328.543 587.633, 329.214 588.109, 330.740 586.452 C 331.528 585.597, 331.617 584.881, 330.983 584.489 C 330.435 584.151, 329.708 584.596, 329.369 585.480 M 705.405 585.155 C 704.962 585.870, 705.130 586.038, 705.845 585.595 C 706.480 585.203, 707 584.684, 707 584.441 C 707 583.607, 706.117 584.002, 705.405 585.155 M 701.553 585.915 C 701.231 586.436, 701.394 587.125, 701.915 587.447 C 702.436 587.769, 703.125 587.606, 703.447 587.085 C 703.769 586.564, 703.606 585.875, 703.085 585.553 C 702.564 585.231, 701.875 585.394, 701.553 585.915 M 331 588 C 331 588.550, 331.450 589, 332 589 C 332.550 589, 333 588.550, 333 588 C 333 587.450, 332.550 587, 332 587 C 331.450 587, 331 587.450, 331 588 M 610.750 588.662 C 611.438 588.940, 612.563 588.940, 613.250 588.662 C 613.938 588.385, 613.375 588.158, 612 588.158 C 610.625 588.158, 610.063 588.385, 610.750 588.662 M 698.559 589.532 C 697.491 590.339, 697.099 591, 697.686 591 C 698.274 591, 699.315 590.325, 700 589.500 C 701.557 587.624, 701.067 587.634, 698.559 589.532 M 724 590 C 724 590.733, 724.300 591.033, 724.667 590.667 C 725.033 590.300, 725.033 589.700, 724.667 589.333 C 724.300 588.967, 724 589.267, 724 590 M 397.920 593.750 C 397.668 599.291, 398.029 610.362, 398.475 610.809 C 398.764 611.097, 399 606.983, 399 601.667 C 399 596.350, 398.775 592, 398.500 592 C 398.225 592, 397.964 592.788, 397.920 593.750 M 521.994 598.917 C 522.694 608.345, 524.278 609.366, 523.762 600.058 C 523.536 595.966, 522.929 592.476, 522.415 592.305 C 521.862 592.121, 521.690 594.824, 521.994 598.917 M 473.739 594.750 C 472.878 598.449, 480.843 608.680, 482.499 606.001 C 482.840 605.451, 482.641 605, 482.059 605 C 481.477 605, 481.036 604.212, 481.079 603.250 C 481.126 602.205, 481.361 602.003, 481.662 602.750 C 482.340 604.431, 484 604.343, 484 602.627 C 484 601.423, 475.772 593, 474.596 593 C 474.349 593, 473.963 593.788, 473.739 594.750 M 725.357 594.500 C 726.182 595.325, 727.169 596, 727.551 596 C 727.933 596, 727.685 595.325, 727 594.500 C 726.315 593.675, 725.328 593, 724.806 593 C 724.284 593, 724.532 593.675, 725.357 594.500 M 458.500 596 C 459.600 596.473, 461.175 596.859, 462 596.859 C 462.945 596.859, 462.761 596.542, 461.500 596 C 460.400 595.527, 458.825 595.141, 458 595.141 C 457.055 595.141, 457.239 595.458, 458.500 596 M 474.405 596.155 C 473.962 596.870, 474.130 597.038, 474.845 596.595 C 475.998 595.883, 476.393 595, 475.559 595 C 475.316 595, 474.797 595.520, 474.405 596.155 M 444.333 596.667 C 444.700 597.033, 445.300 597.033, 445.667 596.667 C 446.033 596.300, 445.733 596, 445 596 C 444.267 596, 443.967 596.300, 444.333 596.667 M 534 596.393 C 534 596.609, 534.698 597.054, 535.552 597.382 C 536.442 597.723, 536.843 597.555, 536.493 596.989 C 535.906 596.038, 534 595.583, 534 596.393 M 461.526 597.892 L 457.553 598.500 461.562 599.554 C 465.149 600.497, 465.571 600.418, 465.571 598.804 C 465.571 597.812, 465.555 597.064, 465.536 597.142 C 465.516 597.220, 463.712 597.557, 461.526 597.892 M 564.500 598 C 564.840 598.550, 565.316 599, 565.559 599 C 565.802 599, 566 598.550, 566 598 C 566 597.450, 565.523 597, 564.941 597 C 564.359 597, 564.160 597.450, 564.500 598 M 469.083 599.261 C 469.313 599.404, 470.625 600.417, 472 601.511 L 474.500 603.500 472.595 601.250 C 471.547 600.013, 470.235 599, 469.678 599 C 469.122 599, 468.854 599.117, 469.083 599.261 M 535.603 599.833 C 535.320 600.292, 535.723 600.667, 536.500 600.667 C 537.277 600.667, 537.680 600.292, 537.397 599.833 C 537.114 599.375, 536.710 599, 536.500 599 C 536.290 599, 535.886 599.375, 535.603 599.833 M 539.272 603 C 539.272 605.475, 539.467 606.487, 539.706 605.250 C 539.944 604.013, 539.944 601.987, 539.706 600.750 C 539.467 599.513, 539.272 600.525, 539.272 603 M 532.333 600.667 C 532.700 601.033, 533.300 601.033, 533.667 600.667 C 534.033 600.300, 533.733 600, 533 600 C 532.267 600, 531.967 600.300, 532.333 600.667 M 437.405 603.155 C 436.962 603.870, 437.130 604.038, 437.845 603.595 C 438.998 602.883, 439.393 602, 438.559 602 C 438.316 602, 437.797 602.520, 437.405 603.155 M 433.029 603.961 C 432.220 604.473, 431.771 605.104, 432.031 605.364 C 432.290 605.624, 433.376 605.198, 434.443 604.418 C 436.576 602.858, 435.383 602.472, 433.029 603.961 M 449.358 603.911 C 447.630 604.347, 444.562 605.725, 442.541 606.975 C 429.531 615.015, 430.180 636.390, 443.645 643.323 C 461.908 652.728, 481.425 632.798, 471.872 614.500 C 470.436 611.750, 468.752 609.612, 468.131 609.750 C 467.509 609.888, 467.112 609.446, 467.250 608.768 C 467.866 605.733, 455.475 602.369, 449.358 603.911 M 473.845 606.119 C 475.685 607.782, 477.445 608.888, 477.756 608.577 C 478.641 607.693, 475.109 604.260, 472.685 603.648 C 470.883 603.193, 471.086 603.626, 473.845 606.119 M 422.054 609.097 C 419.649 614.687, 419.633 614.486, 422.549 615.379 C 424.228 615.894, 424.977 615.227, 426.694 611.692 C 428.177 608.641, 428.514 606.883, 427.846 605.689 C 426.195 602.739, 424.312 603.848, 422.054 609.097 M 433.405 607.155 C 432.962 607.870, 433.130 608.038, 433.845 607.595 C 434.998 606.883, 435.393 606, 434.559 606 C 434.316 606, 433.797 606.520, 433.405 607.155 M 528.333 607.667 C 528.700 608.033, 529.300 608.033, 529.667 607.667 C 530.033 607.300, 529.733 607, 529 607 C 528.267 607, 527.967 607.300, 528.333 607.667 M 535 609 C 535 609.733, 535.300 610.033, 535.667 609.667 C 536.033 609.300, 536.033 608.700, 535.667 608.333 C 535.300 607.967, 535 608.267, 535 609 M 539 609 C 539 609.733, 539.300 610.033, 539.667 609.667 C 540.033 609.300, 540.033 608.700, 539.667 608.333 C 539.300 607.967, 539 608.267, 539 609 M 614.629 619 C 615.257 624.782, 615.594 625.739, 616.636 624.697 C 616.987 624.347, 616.544 621.684, 615.652 618.780 L 614.031 613.500 614.629 619 M 528.333 620.667 C 528.700 621.033, 529.300 621.033, 529.667 620.667 C 530.033 620.300, 529.733 620, 529 620 C 528.267 620, 527.967 620.300, 528.333 620.667 M 688 632.299 C 688 634.383, 688.766 636.211, 690.128 637.378 C 692.240 639.186, 692.253 639.176, 691.801 636.100 C 691.551 634.395, 691.718 633, 692.173 633 C 693.916 633, 692.889 631.271, 690.500 630.182 C 688.112 629.094, 688 629.189, 688 632.299 M 330.035 632.934 C 328.487 635.827, 328.716 639.046, 330.423 638.391 C 332.457 637.611, 333.297 634.805, 331.784 633.845 C 330.840 633.246, 330.963 633.027, 332.250 633.015 C 333.212 633.007, 334 632.550, 334 632 C 334 630.246, 331.109 630.927, 330.035 632.934 M 689.333 631.667 C 689.700 632.033, 690.300 632.033, 690.667 631.667 C 691.033 631.300, 690.733 631, 690 631 C 689.267 631, 688.967 631.300, 689.333 631.667 M 522.333 633.667 C 522.700 634.033, 523.300 634.033, 523.667 633.667 C 524.033 633.300, 523.733 633, 523 633 C 522.267 633, 521.967 633.300, 522.333 633.667 M 402.750 634.662 C 403.438 634.940, 404.563 634.940, 405.250 634.662 C 405.938 634.385, 405.375 634.158, 404 634.158 C 402.625 634.158, 402.063 634.385, 402.750 634.662 M 549.333 634.667 C 549.700 635.033, 550.300 635.033, 550.667 634.667 C 551.033 634.300, 550.733 634, 550 634 C 549.267 634, 548.967 634.300, 549.333 634.667 M 383.592 639.056 C 383.321 639.850, 382.589 642.525, 381.966 645 C 380.653 650.220, 375.105 660.711, 363.408 680.095 C 352.466 698.227, 349.540 704.165, 344.742 717.970 C 341.877 726.215, 340.684 731.352, 340.554 736 C 340.315 744.610, 340.294 744.690, 338.115 745.260 C 336.736 745.620, 336.355 746.405, 336.695 748.185 C 336.951 749.523, 336.720 753.041, 336.181 756.002 C 335.230 761.239, 335.296 761.507, 338.601 765.837 C 340.471 768.285, 342 770.673, 342 771.144 C 342 771.615, 342.410 772, 342.912 772 C 343.414 772, 344.137 770.087, 344.519 767.750 C 345.953 758.985, 352.222 734.110, 355.672 723.500 C 360.635 708.233, 367.978 690.225, 376.579 672.224 C 383.136 658.500, 383.772 656.646, 382.840 653.971 C 382.140 651.962, 382.126 649.777, 382.798 647.247 C 383.633 644.102, 383.810 643.922, 383.897 646.124 C 383.962 647.778, 385.940 650.930, 389.250 654.652 C 392.137 657.899, 395.184 661.599, 396.020 662.874 C 397.452 665.059, 397.510 664.869, 397.020 659.582 C 396.578 654.813, 395.876 653.250, 392.333 649.147 C 390.042 646.493, 387.248 642.812, 386.126 640.967 C 384.720 638.654, 383.933 638.061, 383.592 639.056 M 530.226 646.543 C 523.051 653.680, 521.983 655.188, 522.188 657.887 C 522.319 659.599, 522.828 661, 523.320 661 C 523.812 661, 523.925 661.753, 523.572 662.673 C 523.219 663.593, 525.648 661.577, 528.969 658.193 C 532.290 654.810, 536.131 651.305, 537.504 650.406 C 539.595 649.036, 540 647.986, 540 643.944 C 540 641.290, 539.663 638.936, 539.250 638.715 C 538.837 638.493, 534.776 642.015, 530.226 646.543 M 480.127 642.686 C 477.985 645.991, 477.910 646.461, 479.362 647.522 C 480.246 648.169, 480.676 648.991, 480.318 649.349 C 479.272 650.395, 477.978 650.099, 478.250 648.875 C 478.758 646.588, 476.074 646.958, 474.478 649.394 C 472.647 652.188, 473.198 654, 475.879 654 C 478.665 654, 487.666 641.887, 486.401 639.840 C 485.229 637.944, 482.356 639.247, 480.127 642.686 M 306.616 641.558 C 306.097 642.911, 302 671.779, 302 674.085 C 302 676.424, 305.102 673.323, 305.940 670.147 C 306.829 666.778, 310 644.237, 310 641.292 C 310 639.470, 307.337 639.680, 306.616 641.558 M 422 641.329 C 422 643.895, 429.515 653.500, 431.523 653.500 C 434.751 653.500, 434.317 650.527, 430.301 645.119 C 427.692 641.607, 425.794 640.002, 424.250 640.001 C 423.012 640, 422 640.598, 422 641.329 M 718.514 641.707 C 718.110 642.693, 716.764 650.700, 715.521 659.500 C 713.207 675.893, 713.301 676.948, 717.090 676.985 C 718.376 676.997, 719.097 674.174, 720.852 662.250 C 723.480 644.402, 723.489 643.752, 721.124 641.612 C 719.356 640.012, 719.205 640.017, 718.514 641.707 M 726.124 646.840 C 725.656 647.753, 724.976 650.975, 724.612 654 C 724.248 657.025, 723.354 663.686, 722.625 668.802 L 721.300 678.104 724.100 679.552 C 725.641 680.348, 727.100 681, 727.343 681 C 728.231 681, 728.871 678.003, 731.045 663.652 C 733.387 648.190, 733.227 646.816, 728.954 645.698 C 727.721 645.376, 726.653 645.806, 726.124 646.840 M 435.961 652.453 C 436.860 653.536, 436.664 653.972, 435.050 654.484 C 433.237 655.059, 433.169 655.311, 434.470 656.613 C 437.062 659.205, 444.627 661.992, 450.834 662.640 C 458.441 663.435, 459.896 662.907, 459.260 659.579 C 458.789 657.118, 458.463 656.999, 452.133 656.982 C 446.688 656.967, 444.544 656.437, 440.159 654.019 C 437.221 652.400, 435.332 651.695, 435.961 652.453 M 474.750 651.662 C 475.438 651.940, 476.563 651.940, 477.250 651.662 C 477.938 651.385, 477.375 651.158, 476 651.158 C 474.625 651.158, 474.063 651.385, 474.750 651.662 M 571.836 654.740 C 568.148 654.932, 564.711 655.644, 564.138 656.333 C 563.569 657.019, 561.489 661.354, 559.514 665.966 C 556.396 673.252, 556.113 674.542, 557.360 675.788 C 558.606 677.035, 558.892 676.913, 559.535 674.862 C 559.942 673.563, 561.339 670.166, 562.638 667.314 C 563.937 664.462, 565 661.665, 565 661.099 C 565 659.116, 568.684 658.135, 576.958 657.917 C 584.161 657.726, 585.495 657.957, 586.691 659.598 C 587.454 660.644, 589.824 663.525, 591.957 666 C 596.624 671.416, 603.335 679.758, 607.690 685.559 C 612.080 691.406, 613.796 692.191, 610.899 687.026 C 608.052 681.953, 593.081 661.881, 588.690 657.250 C 586.219 654.644, 584.903 654.039, 582.054 654.196 C 580.099 654.304, 575.501 654.548, 571.836 654.740 M 585.500 663 C 585.840 663.550, 586.343 664, 586.618 664 C 586.893 664, 586.840 663.550, 586.500 663 C 586.160 662.450, 585.657 662, 585.382 662 C 585.107 662, 585.160 662.450, 585.500 663 M 383.210 666.161 C 380.325 670.834, 366.997 698.257, 367.014 699.488 C 367.028 700.491, 369.684 695.784, 379.985 676.500 C 382.923 671, 385.679 666.263, 386.110 665.974 C 386.542 665.684, 386.530 664.857, 386.083 664.135 C 385.492 663.177, 384.716 663.725, 383.210 666.161 M 504.500 665 C 504.840 665.550, 505.343 666, 505.618 666 C 505.893 666, 505.840 665.550, 505.500 665 C 505.160 664.450, 504.657 664, 504.382 664 C 504.107 664, 504.160 664.450, 504.500 665 M 504.543 668.931 C 504.226 669.443, 504.350 670.098, 504.817 670.387 C 505.284 670.676, 505.667 670.257, 505.667 669.456 C 505.667 667.770, 505.351 667.623, 504.543 668.931 M 546.849 674.854 C 544.908 675.759, 543.511 677.063, 543.744 677.750 C 544.349 679.540, 545.669 679.305, 549.052 676.803 L 552.023 674.607 556.632 679.053 C 559.166 681.499, 560.775 682.600, 560.206 681.500 C 558.944 679.058, 554.072 674.492, 551.938 673.750 C 551.079 673.452, 548.789 673.948, 546.849 674.854 M 401.711 676.750 C 401.423 677.712, 399.603 683, 397.665 688.500 C 395.727 694, 391.884 705.938, 389.125 715.028 C 386.365 724.118, 383.822 732.443, 383.472 733.528 C 382.845 735.476, 382.856 735.476, 384.418 733.560 C 386.356 731.181, 388.293 726.092, 397 700.500 C 405.092 676.719, 405.539 675, 403.636 675 C 402.864 675, 401.998 675.788, 401.711 676.750 M 515.750 680.662 C 516.438 680.940, 517.563 680.940, 518.250 680.662 C 518.938 680.385, 518.375 680.158, 517 680.158 C 515.625 680.158, 515.063 680.385, 515.750 680.662 M 561.613 681.183 C 561.902 681.650, 562.557 681.774, 563.069 681.457 C 564.377 680.649, 564.230 680.333, 562.544 680.333 C 561.743 680.333, 561.324 680.716, 561.613 681.183 M 631.695 682.700 C 630.702 682.957, 630.031 683.468, 630.204 683.834 C 631.914 687.448, 641.222 705.098, 646.902 715.494 C 650.807 722.641, 654.712 730.629, 655.581 733.244 C 656.450 735.860, 657.475 738, 657.859 738 C 658.243 738, 659.353 740.813, 660.327 744.250 C 661.300 747.688, 662.513 751.507, 663.021 752.738 C 663.530 753.969, 663.702 755.769, 663.404 756.738 C 663.106 757.707, 663.552 757.375, 664.395 756 C 666.558 752.474, 666.368 749.854, 663.433 742.730 C 662.021 739.304, 660.606 734.025, 660.290 731 C 659.563 724.065, 650.720 706.200, 638.158 686.287 C 635.498 682.069, 635.062 681.827, 631.695 682.700 M 557.306 684.332 C 557.688 685.339, 558 686.577, 558 687.082 C 558 687.587, 558.450 688, 559 688 C 560.542 688, 560.186 686.041, 558.306 684.179 C 556.719 682.606, 556.656 682.616, 557.306 684.332 M 563.584 686.627 C 564.456 688.757, 566.104 691.400, 567.246 692.500 C 569.210 694.392, 569.206 694.344, 567.161 691.615 C 565.973 690.028, 565 687.946, 565 686.988 C 565 686.029, 564.325 684.685, 563.500 684 C 562.207 682.927, 562.218 683.289, 563.584 686.627 M 544.520 685.854 C 544.807 686.140, 543.365 688.090, 541.317 690.187 C 539.270 692.284, 537.817 694, 538.089 694 C 538.361 694, 540.497 692.050, 542.836 689.667 C 545.524 686.928, 546.521 685.333, 545.545 685.333 C 544.695 685.333, 544.234 685.567, 544.520 685.854 M 531.015 697.750 C 531.007 698.987, 530.550 700, 530 700 C 528.352 700, 528.866 703.003, 531.036 706.050 C 532.400 707.966, 533.609 708.703, 534.700 708.285 C 535.834 707.850, 536.094 708.039, 535.558 708.907 C 535.002 709.806, 535.522 710.062, 537.425 709.827 C 538.875 709.647, 540.048 709.050, 540.031 708.500 C 540 707.490, 539.596 707.351, 536.026 707.125 C 533.531 706.967, 530.437 701.383, 531.880 699.645 C 532.510 698.886, 532.539 697.885, 531.958 696.966 C 531.228 695.811, 531.027 695.978, 531.015 697.750 M 297.262 708.740 C 295.480 709.627, 293.813 711.060, 293.557 711.926 C 292.701 714.820, 290.006 731.469, 290.003 733.886 L 290 736.273 292.456 733.816 C 295.624 730.649, 296.721 727.648, 297.566 719.843 C 297.944 716.354, 298.848 712.038, 299.576 710.250 C 300.303 708.462, 300.808 707.029, 300.699 707.064 C 300.590 707.099, 299.043 707.853, 297.262 708.740 M 708.129 717.488 C 706.312 729.710, 706.582 733.908, 709.250 734.905 C 712.256 736.028, 712.967 733.480, 713.268 720.500 C 713.489 710.987, 713.397 710.485, 711.379 710.197 C 709.458 709.923, 709.153 710.609, 708.129 717.488 M 716.629 713.526 C 715.607 716.188, 713.675 735.710, 714.278 737.281 C 714.794 738.628, 722.938 743, 724.930 743 C 725.620 743, 728.027 725.665, 728.010 720.818 C 728 718.073, 725.349 715.622, 719.834 713.261 C 717.693 712.344, 717.062 712.396, 716.629 713.526 M 306 719 C 306 719.733, 306.300 720.033, 306.667 719.667 C 307.033 719.300, 307.033 718.700, 306.667 718.333 C 306.300 717.967, 306 718.267, 306 719 M 695.195 725.500 C 695.215 727.150, 695.439 727.704, 695.693 726.731 C 695.947 725.758, 695.930 724.408, 695.656 723.731 C 695.382 723.054, 695.175 723.850, 695.195 725.500 M 695.195 731.500 C 695.215 733.150, 695.439 733.704, 695.693 732.731 C 695.947 731.758, 695.930 730.408, 695.656 729.731 C 695.382 729.054, 695.175 729.850, 695.195 731.500 M 304 731 C 304 731.733, 304.300 732.033, 304.667 731.667 C 305.033 731.300, 305.033 730.700, 304.667 730.333 C 304.300 729.967, 304 730.267, 304 731 M 333.500 772.631 C 338.264 780.159, 339 780.914, 339 778.278 C 339 775.946, 333.304 767.922, 331.143 767.210 C 330.397 766.963, 331.458 769.403, 333.500 772.631 M 652.857 774.857 C 650.186 777.529, 648.004 780.566, 648.009 781.607 C 648.016 783.140, 648.640 782.835, 651.295 780 C 655.325 775.697, 659.387 770, 658.425 770 C 658.034 770, 655.529 772.186, 652.857 774.857 M 292.250 776.731 C 291.563 776.970, 291 777.804, 291 778.583 C 291 780.427, 294.622 780.427, 295.330 778.583 C 295.921 777.041, 294.247 776.034, 292.250 776.731 M 706 784.025 C 706 785.150, 708.741 786.363, 713.750 787.452 C 716.360 788.020, 717 787.843, 717 786.555 C 717 785.672, 715.846 784.512, 714.435 783.975 C 711.069 782.696, 706 782.725, 706 784.025 M 290 814 C 290 815.824, 290.415 816.862, 291 816.500 C 291.550 816.160, 292 815.035, 292 814 C 292 812.965, 291.550 811.840, 291 811.500 C 290.415 811.138, 290 812.176, 290 814 M 416.500 820 C 416.840 820.550, 417.343 821, 417.618 821 C 417.893 821, 417.840 820.550, 417.500 820 C 417.160 819.450, 416.657 819, 416.382 819 C 416.107 819, 416.160 819.450, 416.500 820 M 716.079 824.583 C 716.127 825.748, 716.364 825.985, 716.683 825.188 C 716.972 824.466, 716.936 823.603, 716.604 823.271 C 716.272 822.939, 716.036 823.529, 716.079 824.583 M 669 844.723 C 669 848.316, 669.052 848.371, 670.500 846.304 C 671.325 845.126, 671.727 843.451, 671.393 842.581 C 670.305 839.747, 669 840.915, 669 844.723 M 599.180 859.158 L 589.860 868.274 575.680 867.713 C 565.664 867.317, 562.968 867.420, 566.500 868.064 C 574.392 869.505, 589.383 870.770, 590.670 870.105 C 593.219 868.787, 602.980 858.776, 602.490 857.983 C 602.202 857.518, 602.425 856.856, 602.984 856.510 C 603.543 856.165, 604 856.391, 604 857.012 C 604 857.689, 604.603 857.540, 605.500 856.643 C 606.325 855.818, 607 854.526, 607 853.771 C 607 853.017, 607.540 851.860, 608.200 851.200 C 608.860 850.540, 609.197 850.009, 608.950 850.021 C 608.702 850.032, 604.306 854.144, 599.180 859.158 M 608.872 852.750 C 607.629 854.336, 607.664 854.371, 609.250 853.128 C 610.916 851.821, 611.445 851, 610.622 851 C 610.415 851, 609.627 851.788, 608.872 852.750 M 710 852 C 710 852.733, 710.300 853.033, 710.667 852.667 C 711.033 852.300, 711.033 851.700, 710.667 851.333 C 710.300 850.967, 710 851.267, 710 852 M 377.121 861 L 383.149 869 388.325 868.912 C 391.171 868.864, 395.750 868.438, 398.500 867.966 C 402.740 867.238, 402.214 867.163, 395.035 867.474 C 386.196 867.857, 383.723 867.178, 380.882 863.591 C 379.970 862.441, 377.832 859.925, 376.129 858 C 374.425 856.075, 373.025 854.163, 373.016 853.750 C 373.007 853.337, 372.571 853, 372.046 853 C 371.522 853, 373.805 856.600, 377.121 861 M 715.333 857.667 C 715.700 858.033, 716.300 858.033, 716.667 857.667 C 717.033 857.300, 716.733 857, 716 857 C 715.267 857, 714.967 857.300, 715.333 857.667 M 599.872 859.750 C 598.629 861.336, 598.664 861.371, 600.250 860.128 C 601.916 858.821, 602.445 858, 601.622 858 C 601.415 858, 600.627 858.788, 599.872 859.750 M 718.500 862 C 718.160 862.550, 718.359 863, 718.941 863 C 719.523 863, 720 862.550, 720 862 C 720 861.450, 719.802 861, 719.559 861 C 719.316 861, 718.840 861.450, 718.500 862 M 595.405 864.155 C 594.962 864.870, 595.130 865.038, 595.845 864.595 C 596.998 863.883, 597.393 863, 596.559 863 C 596.316 863, 595.797 863.520, 595.405 864.155 M 404.333 866.667 C 404.700 867.033, 405.300 867.033, 405.667 866.667 C 406.033 866.300, 405.733 866, 405 866 C 404.267 866, 403.967 866.300, 404.333 866.667 M 555.333 866.667 C 555.700 867.033, 556.300 867.033, 556.667 866.667 C 557.033 866.300, 556.733 866, 556 866 C 555.267 866, 554.967 866.300, 555.333 866.667 M 558.333 866.667 C 558.700 867.033, 559.300 867.033, 559.667 866.667 C 560.033 866.300, 559.733 866, 559 866 C 558.267 866, 557.967 866.300, 558.333 866.667 M 746.500 895 C 746.840 895.550, 747.316 896, 747.559 896 C 747.802 896, 748 895.550, 748 895 C 748 894.450, 747.523 894, 746.941 894 C 746.359 894, 746.160 894.450, 746.500 895 M 368.500 915.563 C 366.850 916.416, 364.825 917.827, 364 918.699 C 362.653 920.122, 362.704 920.208, 364.500 919.543 C 373.430 916.237, 381.859 919.064, 395.416 929.912 C 397.570 931.635, 400.418 933.318, 401.745 933.651 L 404.158 934.256 401.694 935.878 C 400.339 936.770, 396.036 940.529, 392.131 944.232 L 385.032 950.963 387.972 953.971 C 390.481 956.538, 391.042 956.748, 391.795 955.402 C 393.447 952.450, 407.294 939.064, 408.149 939.592 C 408.617 939.881, 409 939.529, 409.001 938.809 C 409.001 938.089, 405.039 933.642, 400.197 928.926 C 386.843 915.922, 376.358 911.501, 368.500 915.563 M 595.844 917.394 C 586.778 920.632, 573 931.334, 573 935.137 C 573 936.162, 573.245 937, 573.544 937 C 573.843 937, 576.800 934.743, 580.115 931.984 C 593.562 920.793, 607.162 917.618, 620.891 922.462 C 624.618 923.776, 625.150 923.773, 625.666 922.428 C 626.427 920.446, 626.190 920.263, 619.891 917.960 C 613.603 915.662, 601.491 915.377, 595.844 917.394 M 360.391 924.596 C 357.374 931.797, 357.401 943.223, 360.467 956.072 C 361.967 962.357, 363.632 968.175, 364.166 969 C 364.884 970.108, 364.987 969.847, 364.562 968 C 364.246 966.625, 362.841 960.591, 361.440 954.592 C 359.885 947.931, 359.270 943.451, 359.861 943.086 C 360.758 942.532, 363.086 921.996, 362.355 921.096 C 362.174 920.875, 361.290 922.450, 360.391 924.596 M 627.174 923.750 C 626.268 925.519, 622.755 937.163, 621.585 942.273 C 621.064 944.548, 621.359 945.200, 623.225 945.906 C 624.476 946.378, 625.801 946.589, 626.168 946.374 C 627.192 945.775, 632.105 923.979, 631.454 922.926 C 630.519 921.412, 628.136 921.871, 627.174 923.750 M 569.737 938.564 C 567.977 940.906, 567.990 940.927, 577.482 950.705 C 582.711 956.092, 587.020 960.950, 587.058 961.500 C 587.096 962.050, 587.534 961.487, 588.031 960.250 C 588.529 959.013, 589.475 958, 590.134 958 C 590.794 958, 591.044 957.711, 590.691 957.357 C 590.337 957.004, 589.362 957.284, 588.524 957.980 C 587.570 958.772, 587 958.846, 587 958.179 C 587 957.593, 587.927 956.464, 589.060 955.670 C 591.302 954.100, 591.292 954.089, 576 940.281 L 571.500 936.218 569.737 938.564 M 619.469 947.050 C 618.519 948.588, 619.820 949.580, 621.104 948.296 C 621.822 947.578, 621.839 947.019, 621.156 946.597 C 620.596 946.251, 619.837 946.455, 619.469 947.050 M 371.333 947.667 C 371.700 948.033, 372.300 948.033, 372.667 947.667 C 373.033 947.300, 372.733 947, 372 947 C 371.267 947, 370.967 947.300, 371.333 947.667 M 611 949 C 607.425 949.994, 605.088 950.850, 605.807 950.903 C 607.852 951.055, 616.394 948.825, 617.450 947.864 C 617.972 947.389, 618.197 947.044, 617.950 947.097 C 617.702 947.150, 614.575 948.006, 611 949 M 372.333 949.667 C 372.700 950.033, 373.300 950.033, 373.667 949.667 C 374.033 949.300, 373.733 949, 373 949 C 372.267 949, 371.967 949.300, 372.333 949.667 M 618.405 951.155 C 617.962 951.870, 618.130 952.038, 618.845 951.595 C 619.480 951.203, 620 950.684, 620 950.441 C 620 949.607, 619.117 950.002, 618.405 951.155 M 611.813 951.683 C 612.534 951.972, 613.397 951.936, 613.729 951.604 C 614.061 951.272, 613.471 951.036, 612.417 951.079 C 611.252 951.127, 611.015 951.364, 611.813 951.683 M 598.500 953 C 596.870 953.701, 596.812 953.872, 598.191 953.930 C 599.121 953.968, 600.160 953.550, 600.500 953 C 601.211 951.850, 601.176 951.850, 598.500 953 M 625 953 C 625 953.733, 625.300 954.033, 625.667 953.667 C 626.033 953.300, 626.033 952.700, 625.667 952.333 C 625.300 951.967, 625 952.267, 625 953 M 385 954.378 C 385 954.585, 385.788 955.373, 386.750 956.128 C 388.336 957.371, 388.371 957.336, 387.128 955.750 C 385.821 954.084, 385 953.555, 385 954.378 M 598.333 955.667 C 598.700 956.033, 599.300 956.033, 599.667 955.667 C 600.033 955.300, 599.733 955, 599 955 C 598.267 955, 597.967 955.300, 598.333 955.667 M 592.333 956.667 C 592.700 957.033, 593.300 957.033, 593.667 956.667 C 594.033 956.300, 593.733 956, 593 956 C 592.267 956, 591.967 956.300, 592.333 956.667 M 626 957 C 626 957.733, 626.300 958.033, 626.667 957.667 C 627.033 957.300, 627.033 956.700, 626.667 956.333 C 626.300 955.967, 626 956.267, 626 957 M 593.333 958.667 C 593.700 959.033, 594.300 959.033, 594.667 958.667 C 595.033 958.300, 594.733 958, 594 958 C 593.267 958, 592.967 958.300, 593.333 958.667 M 590.405 960.155 C 589.962 960.870, 590.130 961.038, 590.845 960.595 C 591.998 959.883, 592.393 959, 591.559 959 C 591.316 959, 590.797 959.520, 590.405 960.155 M 627 961 C 627 961.733, 627.300 962.033, 627.667 961.667 C 628.033 961.300, 628.033 960.700, 627.667 960.333 C 627.300 959.967, 627 960.267, 627 961 M 588 964 C 588 964.733, 588.300 965.033, 588.667 964.667 C 589.033 964.300, 589.033 963.700, 588.667 963.333 C 588.300 962.967, 588 963.267, 588 964 M 589.158 968 C 589.158 969.375, 589.385 969.938, 589.662 969.250 C 589.940 968.563, 589.940 967.438, 589.662 966.750 C 589.385 966.063, 589.158 966.625, 589.158 968 M 365.405 971.155 C 364.962 971.870, 365.130 972.038, 365.845 971.595 C 366.998 970.883, 367.393 970, 366.559 970 C 366.316 970, 365.797 970.520, 365.405 971.155 M 590 972 C 590 972.733, 590.300 973.033, 590.667 972.667 C 591.033 972.300, 591.033 971.700, 590.667 971.333 C 590.300 970.967, 590 971.267, 590 972 M 366 974 C 366 974.733, 366.300 975.033, 366.667 974.667 C 367.033 974.300, 367.033 973.700, 366.667 973.333 C 366.300 972.967, 366 973.267, 366 974 M 374 995 C 374 995.733, 374.300 996.033, 374.667 995.667 C 375.033 995.300, 375.033 994.700, 374.667 994.333 C 374.300 993.967, 374 994.267, 374 995 M 557.079 999.583 C 557.127 1000.748, 557.364 1000.985, 557.683 1000.188 C 557.972 999.466, 557.936 998.603, 557.604 998.271 C 557.272 997.939, 557.036 998.529, 557.079 999.583 M 652 1013.941 C 652 1015.009, 652.385 1016.120, 652.856 1016.411 C 653.326 1016.702, 653.499 1015.828, 653.239 1014.470 C 652.675 1011.519, 652 1011.231, 652 1013.941" stroke="none" fill="black" fill-rule="evenodd"/>
</svg>