<!-- Оптимизировано для DTF печати -->
          <!-- Рекомендации: полноцветная печать, высокое разрешение -->
          <svg xmlns="http://www.w3.org/2000/svg" width="100%" height="100%" viewBox="0 0 1024 1024">
	<path d="M 405 134.490 C 405 134.760, 407.090 138.022, 409.644 141.740 C 418.676 154.889, 421.710 162.578, 437.563 212.500 C 440.707 222.400, 443.256 230.950, 443.228 231.500 C 443.200 232.050, 442.010 236.956, 440.582 242.403 C 438.336 250.974, 437.412 252.924, 433.707 256.903 C 431.352 259.431, 428.801 263.075, 428.036 265 C 427.272 266.925, 424.624 272.100, 422.151 276.500 C 410.095 297.954, 390.750 339.271, 390.750 343.566 C 390.750 344.782, 392.573 349.356, 394.802 353.730 L 398.854 361.683 391.410 367.944 C 387.316 371.387, 382.345 376.183, 380.363 378.602 C 378.381 381.021, 376.412 383, 375.987 383 C 375.563 383, 371.389 380.597, 366.711 377.660 C 355.501 370.623, 341.750 366, 332.024 366 C 325.596 366, 324.664 366.259, 322.434 368.666 C 319.787 371.522, 315.888 383.115, 313.785 394.381 L 312.500 401.262 305.500 406.533 C 293.540 415.538, 286.743 425.513, 276.522 449.059 C 271.872 459.773, 271.398 462.095, 275.524 453.953 C 276.930 451.177, 278.732 448.656, 279.526 448.351 C 281.015 447.780, 292.239 451.912, 292.833 453.250 C 293.017 453.662, 293.642 454, 294.223 454 C 296.019 454, 297.694 457.150, 297.219 459.635 C 296.970 460.936, 296.418 462, 295.992 462 C 295.566 462, 294.486 463.826, 293.593 466.058 C 291.548 471.170, 288.563 474.466, 286.907 473.442 C 286.026 472.898, 285.853 473.175, 286.319 474.388 C 286.691 475.357, 286.569 475.852, 286.039 475.524 C 285.523 475.205, 284.640 475.804, 284.078 476.854 C 282.343 480.095, 280.194 480.077, 273.475 476.764 C 268.357 474.240, 267.120 473.197, 267.568 471.786 C 269.041 467.143, 266.560 470.966, 262.073 480.250 C 259.349 485.887, 254.168 494.637, 250.560 499.694 C 246.258 505.724, 243.995 509.854, 243.986 511.694 C 243.978 513.237, 242.178 517.791, 239.985 521.814 L 235.998 529.127 238.249 534.759 C 240.390 540.114, 240.794 540.507, 246.500 542.789 C 249.800 544.109, 252.663 545.347, 252.863 545.541 C 253.063 545.734, 251.643 548.482, 249.707 551.647 L 246.187 557.401 248.136 562.344 C 251.076 569.805, 254.899 575.833, 257.141 576.545 C 258.567 576.998, 258.928 577.659, 258.391 578.840 C 257.977 579.753, 257.601 581.894, 257.555 583.599 C 257.502 585.584, 256.310 588.022, 254.236 590.384 C 250.692 594.420, 250.166 597.797, 252.521 601.392 C 253.548 602.959, 253.773 604.439, 253.215 605.948 C 252.425 608.083, 252.267 608.002, 249.733 604.173 C 245.732 598.127, 241.371 595.289, 234.852 594.489 C 229.936 593.885, 228.938 594.062, 227.142 595.858 C 222.640 600.360, 220.051 619.009, 220.040 647 C 220.031 671.651, 220.837 675.742, 229.549 695.300 C 238.227 714.780, 243.471 727.660, 249.087 743.281 C 251.218 749.210, 253.440 754.953, 254.023 756.043 C 254.876 757.637, 254.587 758.675, 252.542 761.356 C 251.144 763.189, 250 765.326, 250 766.105 C 250 766.884, 252.411 775.167, 255.358 784.511 C 260.361 800.370, 260.924 801.600, 263.837 803 C 266.689 804.371, 266.965 804.930, 267.055 809.500 C 267.109 812.250, 267.725 819.225, 268.424 825 C 269.123 830.775, 269.427 835.984, 269.098 836.577 C 268.769 837.169, 255.675 849.457, 240 863.885 C 209.153 892.278, 208.264 893.393, 211.068 900.166 C 211.828 902, 214.361 905.413, 216.698 907.750 C 219.999 911.052, 221.692 912, 224.283 912 C 227.956 912, 228.726 911.413, 250.038 892.359 C 256.892 886.232, 267.813 876.493, 274.306 870.716 L 286.112 860.214 293.306 864.258 C 297.719 866.738, 302.046 868.400, 304.500 868.556 C 306.700 868.696, 309.175 869.038, 310 869.317 C 316.125 871.386, 318.648 872, 321.027 872 C 322.527 872, 324.329 872.691, 325.030 873.536 C 329.431 878.839, 351.460 887.264, 372.186 891.571 C 387.733 894.802, 391.750 894.788, 393 891.500 L 393.950 889 423.332 889 L 452.713 889 454.854 876.250 C 460.174 844.568, 466 799.704, 466 790.421 C 466 785.428, 467.594 787.001, 468.329 792.721 C 468.668 795.349, 469.872 803.350, 471.006 810.500 C 472.140 817.650, 475.509 839.750, 478.493 859.611 C 482.078 883.468, 485.036 899.657, 487.210 907.316 L 490.500 918.910 499.500 922.855 C 528.704 935.655, 543.440 941.204, 546.943 940.720 C 549.854 940.317, 583.769 923.416, 591.659 918.436 C 595.721 915.872, 598.739 894.017, 602.508 839.883 C 603.937 819.356, 605.244 802.423, 605.411 802.256 C 605.579 802.088, 605.990 804.100, 606.325 806.726 C 607.082 812.659, 611.136 839.870, 614.038 858.500 C 615.238 866.200, 616.740 876.100, 617.377 880.500 L 618.534 888.500 637.973 889 L 657.412 889.500 658.017 892 C 658.582 894.332, 659.022 894.494, 664.561 894.411 C 669.128 894.342, 672.001 893.575, 677 891.088 C 686.637 886.295, 687.083 885.729, 686.436 879.103 C 686.136 876.021, 685.170 868.798, 684.290 863.052 C 683.384 857.139, 683.082 852.472, 683.595 852.300 C 689.691 850.257, 691.388 848.321, 695.699 838.500 C 698.112 833, 700.930 827.650, 701.959 826.612 C 703.792 824.764, 703.893 824.848, 706.757 830.612 C 708.365 833.850, 710.260 838.633, 710.968 841.240 C 712.134 845.538, 712.056 846.443, 710.127 850.926 C 708.957 853.646, 708 856.917, 708 858.195 C 708 859.473, 707.108 861.076, 706.018 861.756 C 703.925 863.064, 699 871.924, 699 874.383 C 699 875.917, 706.057 882, 707.837 882 C 708.414 882, 712.066 880.821, 715.953 879.381 C 723.944 876.418, 724.194 876.130, 736.175 856.073 C 743.560 843.710, 743.831 842.538, 741.578 832.706 C 740.797 829.292, 739.643 820.200, 739.015 812.500 C 738.388 804.800, 737.626 797.038, 737.323 795.250 C 736.862 792.524, 737.081 792, 738.687 792 C 742.435 792, 743.002 790.082, 742.956 777.550 C 742.908 764.088, 741.956 757.491, 739.806 755.702 C 733.784 750.695, 732.517 737.968, 734.162 699 C 735.196 674.485, 735.135 669.926, 733.599 657 C 730.719 632.758, 724.162 601.438, 721.617 599.765 C 721.003 599.361, 718.175 599.024, 715.333 599.015 C 710.895 599.002, 709.896 599.371, 708.248 601.634 L 706.329 604.268 704.165 600.766 C 702.974 598.840, 702 595.939, 702 594.320 C 702 592.187, 701.146 590.744, 698.899 589.084 L 695.798 586.791 699.302 583.145 C 701.229 581.140, 704.260 576.486, 706.037 572.802 L 709.267 566.105 705.946 557.865 C 704.119 553.333, 703.046 549.480, 703.562 549.303 C 704.078 549.125, 707.286 547.213, 710.691 545.053 C 715.838 541.788, 717.089 540.436, 718.106 537.039 C 719.203 533.378, 719.099 532.489, 717.108 528.501 C 715.885 526.053, 714.340 521.451, 713.674 518.275 C 713.007 515.099, 711.162 510.250, 709.573 507.500 C 707.984 504.750, 705.911 501.150, 704.967 499.500 C 704.024 497.850, 701.801 492.604, 700.028 487.842 L 696.804 479.184 693.434 480.592 C 691.581 481.366, 689.827 482, 689.537 482 C 689.247 482, 688.026 479.905, 686.822 477.346 C 685.079 473.636, 684.504 473.064, 683.990 474.529 C 683.544 475.799, 683.119 476.002, 682.613 475.184 C 682.211 474.533, 682.246 473.993, 682.691 473.985 C 683.136 473.976, 683.015 473.639, 682.423 473.235 C 681.831 472.831, 680.593 470.165, 679.673 467.312 C 677.775 461.428, 677.667 460.676, 678.819 461.388 C 679.270 461.667, 679.446 460.584, 679.211 458.983 C 678.833 456.412, 679.235 455.865, 682.642 454.315 C 684.764 453.349, 686.616 452.505, 686.758 452.438 C 687.336 452.167, 674.839 425.332, 671.798 420.315 C 668.367 414.653, 659.727 406.683, 652.310 402.336 C 649.326 400.587, 648.081 399.253, 648.389 398.137 C 648.638 397.236, 649.130 395.493, 649.484 394.263 C 650.265 391.543, 642.589 373.366, 640.128 372.107 C 639.233 371.650, 635.485 371.007, 631.800 370.680 C 625.811 370.148, 624.603 370.363, 620.409 372.707 C 617.828 374.149, 611.889 376.523, 607.210 377.981 C 598.818 380.597, 598.655 380.608, 595.157 378.825 C 593.070 377.761, 589.829 374.457, 587.284 370.801 C 584.905 367.382, 581.955 363.516, 580.729 362.209 L 578.500 359.834 583.611 361.848 C 586.423 362.955, 591.119 365.018, 594.049 366.431 C 602.989 370.744, 606.104 369.868, 611.428 361.545 C 616.702 353.300, 619.344 346.513, 618.541 343.272 C 617.791 340.247, 608.490 316.983, 602.133 302.234 C 599.937 297.138, 597.838 290.388, 597.469 287.234 C 596.587 279.692, 593.098 263.710, 592.118 262.723 C 591.694 262.296, 589.097 261.680, 586.347 261.355 L 581.347 260.762 578.759 252.869 L 576.171 244.977 589.082 205.738 C 602.388 165.298, 608.256 151.183, 616.106 140.737 C 620.400 135.022, 620.878 133.604, 618.250 134.385 C 606.744 137.803, 574.392 140.210, 559.354 138.767 C 554.610 138.311, 550.525 138.142, 550.277 138.389 C 550.030 138.637, 551.706 141.217, 554.003 144.124 C 559.281 150.801, 564.349 160.820, 566.630 169.087 C 569.402 179.135, 568.747 202.824, 565.381 214.250 C 564.547 217.082, 563.652 216.346, 560.122 209.926 C 557.642 205.414, 554.823 202.294, 549.163 197.797 C 542.317 192.356, 530.358 185.881, 524.389 184.383 C 523.156 184.073, 521.369 182.961, 520.419 181.910 C 518.983 180.324, 517.290 180, 510.428 180 C 505.390 180, 502.026 180.422, 501.806 181.082 C 501.607 181.678, 496.480 183.847, 490.411 185.904 C 477.906 190.141, 470.575 194.584, 463.171 202.413 L 458.057 207.820 457.298 204.160 C 456.881 202.147, 456.535 194.650, 456.530 187.500 C 456.523 176.713, 456.916 173.223, 458.838 167 C 461.457 158.526, 465.643 150.472, 470.621 144.332 C 472.479 142.039, 474 139.750, 474 139.245 C 474 138.711, 468.657 138.520, 461.235 138.788 C 446.310 139.326, 420.879 137.587, 413 135.489 C 407.227 133.951, 405 133.673, 405 134.490 M 410 137.628 C 410 137.778, 411.297 139.835, 412.882 142.200 C 420.573 153.674, 425.939 166.942, 436.465 200.500 C 451.822 249.461, 461.625 272.921, 469.830 280.346 C 471.722 282.058, 471.754 281.995, 471.253 277.549 C 470.805 273.581, 470.980 273, 472.620 273.004 C 473.654 273.006, 475.945 273.888, 477.711 274.965 L 480.921 276.923 480.004 274.510 C 479.499 273.183, 477.890 270.202, 476.428 267.887 C 468.283 254.984, 461.341 236.361, 456.841 215.341 C 454.966 206.581, 454.519 201.428, 454.510 188.500 C 454.501 174.419, 454.777 171.672, 456.812 165.598 C 459.705 156.964, 464.056 148.275, 467.592 144.073 L 470.305 140.849 462.902 141.653 C 449.586 143.099, 432.461 142.319, 420.750 139.732 C 414.837 138.426, 410 137.479, 410 137.628 M 603 140.110 C 593.193 142.226, 577.535 142.860, 564.291 141.678 L 555.081 140.856 559.444 147.363 C 572.729 167.174, 574.362 189.917, 565.054 225.500 C 560.751 241.950, 556.698 252.241, 549.498 265 C 545.928 271.325, 543.006 276.878, 543.004 277.339 C 543.002 277.800, 544.410 276.991, 546.133 275.541 C 550.423 271.932, 552.532 272.533, 552.382 277.323 C 552.318 279.388, 552.605 280.948, 553.021 280.789 C 553.438 280.630, 555.473 278.475, 557.545 276 C 564.763 267.376, 573.668 245.399, 588.437 199.758 C 599.816 164.594, 605.045 152.242, 613.633 140.250 C 615.142 138.142, 615.126 138.009, 613.372 138.138 C 612.342 138.214, 607.675 139.101, 603 140.110 M 493.500 187.450 L 487.501 189.698 482.754 199.076 C 478.604 207.274, 477.823 209.841, 476.546 219.477 C 475.743 225.540, 474.784 236.909, 474.415 244.741 L 473.745 258.983 477.352 264.241 C 481.897 270.866, 486.338 283.641, 488.487 296.268 C 489.402 301.640, 490.553 307.441, 491.046 309.160 C 492.291 313.500, 491.477 314.212, 487.197 312.526 C 485.163 311.726, 484.362 311.617, 485.415 312.285 C 487.051 313.322, 502.267 324.670, 509.532 330.271 C 511.795 332.016, 511.923 331.968, 518.164 327.023 C 521.649 324.263, 529.145 318.966, 534.822 315.252 C 540.499 311.538, 548.149 306.324, 551.822 303.663 C 555.495 301.003, 560.925 297.679, 563.889 296.275 L 569.278 293.723 568.702 285.612 C 568.386 281.150, 567.716 276.392, 567.213 275.037 L 566.298 272.574 565.035 274.935 C 564.339 276.234, 561.135 280.130, 557.914 283.593 C 553.924 287.881, 550.638 292.855, 547.607 299.194 C 543.909 306.926, 542.433 308.965, 538.878 311.250 C 534.384 314.139, 530.784 314.867, 531.464 312.750 C 531.685 312.063, 533.269 305.078, 534.985 297.229 C 538.606 280.666, 541.628 272.073, 546.407 264.744 L 549.827 259.500 548.913 248.500 C 548.410 242.450, 547.074 231.200, 545.945 223.500 C 544.082 210.802, 543.456 208.651, 539.217 200.373 C 534.578 191.312, 534.498 191.227, 528.232 188.497 C 524.760 186.984, 521.721 185.946, 521.477 186.190 C 521.233 186.433, 521.479 188.178, 522.023 190.066 C 525.868 203.419, 526.831 220.013, 524.977 241 C 523.506 257.664, 523.775 257, 518.481 257 C 514.764 257, 514 257.320, 514 258.878 C 514 260.964, 511.685 263.352, 510.658 262.325 C 510.296 261.963, 510 260.566, 510 259.220 C 510 256.896, 509.779 256.806, 505.619 257.430 C 501.276 258.081, 501.234 258.059, 500.666 254.793 C 497.797 238.291, 496.865 206.934, 498.848 193.595 C 499.494 189.247, 499.905 185.580, 499.762 185.445 C 499.618 185.311, 496.800 186.213, 493.500 187.450 M 471.750 198.572 C 470.238 199.393, 469 200.515, 469 201.067 C 469 202.332, 472.142 200.739, 473.955 198.555 C 475.526 196.662, 475.267 196.664, 471.750 198.572 M 549.659 203.780 C 554.607 208.207, 555.401 209.679, 556.981 217.356 C 557.644 220.577, 558.764 224.588, 559.471 226.269 C 560.713 229.223, 560.793 229.255, 561.878 227.228 C 562.495 226.075, 563 224.478, 563 223.679 C 563 220.956, 553.885 205.081, 550.861 202.536 C 546.104 198.534, 545.033 199.642, 549.659 203.780 M 462.251 207.750 C 459.813 210.884, 459.406 212.198, 459.772 215.750 C 460.013 218.088, 460.517 220, 460.893 220 C 461.268 220, 462.756 216.400, 464.198 212 C 465.641 207.600, 466.449 204, 465.994 204 C 465.540 204, 463.855 205.688, 462.251 207.750 M 521.195 233.500 C 521.215 235.150, 521.439 235.704, 521.693 234.731 C 521.947 233.758, 521.930 232.408, 521.656 231.731 C 521.382 231.054, 521.175 231.850, 521.195 233.500 M 444.598 239.500 C 444.134 240.600, 442.749 245.662, 441.519 250.750 C 439.903 257.441, 439.620 260, 440.498 260 C 441.875 260, 446.427 242.410, 445.825 239.413 C 445.454 237.566, 445.412 237.569, 444.598 239.500 M 431 264.883 C 431 265.918, 445.469 267.446, 446.901 266.561 C 447.476 266.206, 447.852 267.640, 447.819 270.061 C 447.787 272.316, 448.270 274.670, 448.891 275.291 C 449.729 276.129, 449.866 275.143, 449.425 271.460 C 448.491 263.668, 448.931 264, 439.531 264 C 434.839 264, 431 264.397, 431 264.883 M 502.250 270.980 C 497.581 275.439, 495 278.681, 495 280.086 C 495 281.286, 494.494 283.958, 493.875 286.023 C 492.314 291.232, 494.906 297.825, 500.390 302.595 C 508.325 309.498, 508.875 310.105, 509.186 312.294 C 509.675 315.733, 513.196 315.108, 515.129 311.239 C 516.025 309.446, 518.050 306.975, 519.629 305.748 C 523.427 302.797, 525.510 300.366, 528.580 295.306 C 530.833 291.593, 531.003 290.675, 530.068 287.306 C 529.487 285.213, 529.009 282.241, 529.006 280.702 C 528.998 276.978, 515.797 264.055, 512 264.055 C 510.272 264.055, 507.261 266.193, 502.250 270.980 M 575.026 266.430 C 574.462 267.915, 574.046 271.013, 574.103 273.315 L 574.205 277.500 575.853 272.496 C 577.334 267.996, 577.802 267.486, 580.500 267.433 C 589.678 267.251, 591.383 266.983, 590.292 265.892 C 589.683 265.283, 586.230 264.547, 582.619 264.257 C 576.204 263.743, 576.029 263.793, 575.026 266.430 M 510.500 267 C 510.160 267.550, 510.385 268, 511 268 C 511.615 268, 511.840 268.450, 511.500 269 C 511.160 269.550, 511.359 270, 511.941 270 C 512.523 270, 513.007 269.438, 513.015 268.750 C 513.026 267.917, 513.354 268, 514 269 C 514.533 269.825, 514.976 270.027, 514.985 269.450 C 515.002 268.249, 512.965 266, 511.859 266 C 511.451 266, 510.840 266.450, 510.500 267 M 455.162 274.118 C 454.523 276.887, 454 282.003, 454 285.487 C 454 291.334, 454.237 292.022, 457.077 294.411 C 458.769 295.835, 460.579 297, 461.098 297 C 462.284 297, 469.680 301.681, 473 304.534 C 474.375 305.715, 477.241 307.723, 479.368 308.996 L 483.237 311.309 480.368 307.333 C 478.791 305.146, 475.960 299.697, 474.079 295.225 C 472.197 290.753, 470.283 287.325, 469.826 287.608 C 468.933 288.160, 461.292 280.222, 459.285 276.657 C 458.617 275.471, 458.055 273.514, 458.035 272.309 C 457.967 268.088, 456.314 269.129, 455.162 274.118 M 419.280 287.750 C 412.055 301.628, 394 340.855, 394 342.676 C 394 347.474, 405.619 366.765, 407.398 364.921 C 407.621 364.689, 413.455 353.700, 420.363 340.500 C 432.520 317.268, 432.844 316.490, 430.470 316.184 C 426.469 315.670, 424.500 307.446, 424.500 291.250 C 424.500 283.962, 424.468 278, 424.428 278 C 424.389 278, 422.072 282.387, 419.280 287.750 M 463 278.378 C 463 278.585, 463.788 279.373, 464.750 280.128 C 466.336 281.371, 466.371 281.336, 465.128 279.750 C 463.821 278.084, 463 277.555, 463 278.378 M 523.306 279.786 C 524.238 280.815, 525 282.260, 525 282.995 C 525 283.731, 525.266 284.067, 525.591 283.742 C 526.593 282.741, 525.018 279.221, 523.268 278.549 C 521.756 277.969, 521.759 278.076, 523.306 279.786 M 477 279.882 C 477 280.432, 477.450 281.160, 478 281.500 C 478.550 281.840, 479 281.668, 479 281.118 C 479 280.568, 478.550 279.840, 478 279.500 C 477.450 279.160, 477 279.332, 477 279.882 M 573.232 282 C 573.232 283.925, 573.438 284.712, 573.689 283.750 C 573.941 282.788, 573.941 281.212, 573.689 280.250 C 573.438 279.288, 573.232 280.075, 573.232 282 M 436.089 282.135 C 434.535 283.803, 434.004 285.673, 434.015 289.439 C 434.033 295.341, 435.007 297.338, 437.620 296.835 C 440.320 296.315, 442.366 289.546, 441.323 284.581 C 440.327 279.838, 438.865 279.155, 436.089 282.135 M 507.545 283.954 L 503.684 287.908 507.409 292.454 C 509.458 294.954, 511.519 297, 511.989 297 C 512.887 297, 520.006 289.055, 519.991 288.070 C 519.978 287.198, 512.975 280, 512.140 280 C 511.736 280, 509.668 281.779, 507.545 283.954 M 583.015 281.971 C 580.623 286.441, 582.568 298, 585.712 298 C 587.255 298, 590 292.227, 590 288.982 C 590 286.183, 587.434 281.381, 585.552 280.658 C 584.646 280.311, 583.620 280.841, 583.015 281.971 M 474 286.937 C 474 287.451, 475.427 291.518, 477.172 295.975 C 479.470 301.847, 481.422 305.052, 484.261 307.616 C 486.415 309.563, 488.408 310.925, 488.690 310.644 C 488.971 310.362, 488.401 306.737, 487.423 302.588 C 485.702 295.287, 485.458 294.900, 479.822 290.524 C 476.620 288.037, 474 286.423, 474 286.937 M 543.757 291.023 C 537.613 295.766, 537.188 296.364, 536.111 301.773 C 535.484 304.923, 534.673 308.616, 534.308 309.981 L 533.646 312.462 536.573 310.556 C 540.685 307.879, 541.637 306.546, 545.900 297.500 C 549.939 288.931, 551.137 286, 550.600 286 C 550.415 286, 547.336 288.260, 543.757 291.023 M 418.778 295.340 C 417.711 297.577, 417.498 299.147, 418.134 300.090 C 418.935 301.280, 419.060 301.266, 418.933 300 C 418.694 297.608, 420.144 293.971, 421.102 294.563 C 421.583 294.861, 421.709 294.406, 421.382 293.552 C 420.595 291.501, 420.615 291.488, 418.778 295.340 M 595.308 307.775 C 593.731 314.411, 593.505 316.859, 594.367 318 C 595.302 319.238, 595.238 319.305, 594 318.383 C 592.650 317.377, 580 315.705, 580 316.532 C 580 316.720, 582.648 322.865, 585.884 330.187 C 589.120 337.509, 593.692 348.225, 596.046 354 C 598.399 359.775, 600.656 364.882, 601.061 365.349 C 603.439 368.088, 610.245 359.976, 614.479 349.359 L 616.130 345.219 606.992 322.370 C 601.966 309.803, 597.748 299.414, 597.618 299.285 C 597.489 299.155, 596.449 302.976, 595.308 307.775 M 415.143 302.143 C 414.438 303.271, 414.081 304.414, 414.350 304.683 C 414.618 304.952, 415.361 304.194, 416 303 C 416.639 301.806, 416.996 300.663, 416.793 300.460 C 416.590 300.257, 415.848 301.014, 415.143 302.143 M 505.649 301.528 C 505.971 302.368, 507.195 303.554, 508.368 304.163 C 510.329 305.183, 510.306 305.060, 508.076 302.636 C 505.287 299.604, 504.831 299.396, 505.649 301.528 M 514.405 305.155 C 513.962 305.870, 514.130 306.038, 514.845 305.595 C 515.480 305.203, 516 304.684, 516 304.441 C 516 303.607, 515.117 304.002, 514.405 305.155 M 406.459 319.625 C 402.906 327.119, 400 333.482, 400 333.765 C 400 334.049, 399.034 336.215, 397.853 338.579 C 396.028 342.233, 395.884 343.305, 396.888 345.729 C 398.095 348.643, 401.667 349.953, 401.667 347.481 C 401.667 346.727, 401.404 346.139, 401.083 346.174 C 397.230 346.589, 396.325 343.253, 398.957 338.342 C 400.081 336.245, 401.007 333.848, 401.015 333.015 C 401.029 331.671, 401.147 331.670, 402.057 333 C 402.969 334.333, 403.054 334.333, 402.819 333 C 402.415 330.702, 407.199 320.005, 408.320 320.698 C 408.865 321.035, 408.996 320.803, 408.612 320.182 C 407.865 318.972, 412.618 307.985, 414.417 306.765 C 415.144 306.272, 415.076 306.026, 414.209 306.015 C 413.499 306.007, 410.011 312.131, 406.459 319.625 M 423.710 309 C 423.998 310.100, 424.406 311, 424.617 311 C 424.827 311, 425 310.100, 425 309 C 425 307.900, 424.592 307, 424.094 307 C 423.595 307, 423.423 307.900, 423.710 309 M 598 308 C 598 308.733, 598.300 309.033, 598.667 308.667 C 599.033 308.300, 599.033 307.700, 598.667 307.333 C 598.300 306.967, 598 307.267, 598 308 M 459.513 312.500 C 459.841 314.150, 461.434 318.364, 463.055 321.863 C 466.596 329.512, 477.687 341.037, 486.082 345.793 L 491.664 348.955 501.385 347.072 C 511.005 345.209, 511.193 345.210, 519.665 347.207 L 528.225 349.225 535.363 345.602 C 539.288 343.608, 545.326 339.460, 548.779 336.383 C 553.922 331.801, 555.889 329.080, 559.650 321.349 C 564.616 311.141, 565.054 307.022, 560.150 316.649 C 553.862 328.994, 546.835 336.515, 535.563 342.964 C 529.317 346.538, 527.261 346.670, 519.500 344 C 512.151 341.472, 511.318 341.479, 500.873 344.171 L 492.246 346.393 486.373 342.947 C 477.136 337.526, 468.191 327.895, 463.203 318 C 460.846 313.325, 459.186 310.850, 459.513 312.500 M 475.962 315.115 C 480.217 318.961, 495.130 327, 498.010 327 C 498.834 327, 498.265 325.843, 496.572 324.075 C 494.026 321.417, 474.620 310.943, 472.422 311.041 C 471.915 311.064, 473.508 312.897, 475.962 315.115 M 423.158 314 C 423.158 315.375, 423.385 315.938, 423.662 315.250 C 423.940 314.563, 423.940 313.438, 423.662 312.750 C 423.385 312.063, 423.158 312.625, 423.158 314 M 425 313 C 425 313.733, 425.300 314.033, 425.667 313.667 C 426.033 313.300, 426.033 312.700, 425.667 312.333 C 425.300 311.967, 425 312.267, 425 313 M 540.444 316.048 C 532.363 319.624, 523.251 325.585, 524.284 326.618 C 524.839 327.172, 534.881 323.615, 539.548 321.211 C 542.840 319.515, 551.392 311.956, 549.946 312.020 C 549.701 312.031, 545.425 313.843, 540.444 316.048 M 600 312.796 C 600 314.659, 604.060 324.919, 605.035 325.522 C 605.533 325.830, 604.791 323.026, 603.386 319.291 C 600.750 312.287, 600 310.847, 600 312.796 M 427.144 319.750 C 426.053 322.300, 426.078 322.359, 427.484 320.559 C 428.318 319.491, 429 318.254, 429 317.809 C 429 316.289, 428.322 316.999, 427.144 319.750 M 584.114 318.500 C 584.090 319.050, 584.714 320.625, 585.500 322 C 586.637 323.990, 586.936 324.131, 586.965 322.691 C 586.988 321.514, 587.437 321.144, 588.250 321.633 C 589.110 322.149, 589.074 321.859, 588.137 320.703 C 587.387 319.778, 586.413 319.245, 585.972 319.517 C 585.531 319.790, 584.943 319.447, 584.664 318.756 C 584.386 318.065, 584.138 317.950, 584.114 318.500 M 590.333 318.667 C 590.700 319.033, 591.300 319.033, 591.667 318.667 C 592.033 318.300, 591.733 318, 591 318 C 590.267 318, 589.967 318.300, 590.333 318.667 M 423.204 324.750 C 423.317 325.163, 422.436 327.300, 421.248 329.500 C 419.667 332.428, 419.077 332.950, 419.044 331.450 C 419.020 330.322, 419.563 328.769, 420.250 327.998 C 421.313 326.806, 421.239 326.794, 419.750 327.921 C 418.021 329.229, 417.376 333.042, 418.665 334.332 C 419.031 334.698, 420.606 332.764, 422.165 330.034 C 425.292 324.560, 425.462 324, 424 324 C 423.450 324, 423.092 324.337, 423.204 324.750 M 417 327 C 417 327.733, 417.300 328.033, 417.667 327.667 C 418.033 327.300, 418.033 326.700, 417.667 326.333 C 417.300 325.967, 417 326.267, 417 327 M 588.465 328.750 C 589.338 330.538, 590.265 332, 590.526 332 C 591.520 332, 590.880 330.407, 588.918 328 L 586.880 325.500 588.465 328.750 M 591 327.882 C 591 328.432, 591.450 329.160, 592 329.500 C 592.550 329.840, 593 329.668, 593 329.118 C 593 328.568, 592.550 327.840, 592 327.500 C 591.450 327.160, 591 327.332, 591 327.882 M 606 327.865 C 606 329.479, 608.758 336, 609.441 336 C 609.739 336, 609.239 334.087, 608.329 331.750 C 606.445 326.909, 606 326.167, 606 327.865 M 604 329 C 604 329.733, 604.300 330.033, 604.667 329.667 C 605.033 329.300, 605.033 328.700, 604.667 328.333 C 604.300 327.967, 604 328.267, 604 329 M 416.232 335 C 416.919 336.100, 417.893 337, 418.396 337 C 418.898 337, 418.495 336.100, 417.500 335 C 416.505 333.900, 415.531 333, 415.337 333 C 415.142 333, 415.545 333.900, 416.232 335 M 591.042 333.838 C 591.065 334.202, 591.993 336.075, 593.103 338 C 595.070 341.409, 595.115 341.180, 593.493 336.008 C 592.764 333.684, 592.840 333.613, 594.606 334.960 C 596.076 336.081, 596.223 336.092, 595.260 335.012 C 593.952 333.543, 590.971 332.714, 591.042 333.838 M 609.410 338.558 C 611.344 339.972, 612.833 348.633, 610.941 347.464 C 610.129 346.962, 609.998 347.419, 610.500 349 C 611.031 350.674, 610.891 351.051, 609.953 350.471 C 609.158 349.980, 608.941 350.096, 609.367 350.784 C 609.738 351.385, 609.245 352.341, 608.271 352.908 C 607.257 353.498, 607.044 353.952, 607.773 353.970 C 608.711 353.992, 608.617 354.655, 607.414 356.491 C 606.516 357.862, 605.477 358.795, 605.105 358.565 C 604.733 358.335, 604.429 359.059, 604.429 360.174 C 604.429 361.971, 604.689 361.878, 606.735 359.350 C 608.003 357.783, 610.183 354.109, 611.579 351.188 C 614.054 346.009, 614.077 345.767, 612.487 341.604 C 611.530 339.098, 610.211 337.333, 609.295 337.333 C 607.944 337.333, 607.960 337.497, 609.410 338.558 M 415.961 339.547 C 414.930 340.790, 414.498 340.839, 413.773 339.797 C 413.168 338.929, 413.069 339.216, 413.475 340.666 C 413.809 341.857, 413.613 343.121, 413.041 343.475 C 412.468 343.829, 411.955 343.529, 411.900 342.809 C 411.723 340.482, 410.203 346.394, 410.100 349.809 C 410.033 352.039, 409.623 352.885, 408.845 352.405 C 408.115 351.953, 407.963 352.131, 408.432 352.889 C 408.839 353.548, 408.614 354.760, 407.931 355.583 C 406.860 356.874, 406.440 356.698, 404.852 354.289 C 403.841 352.755, 403.010 352.095, 403.007 352.821 C 403.003 353.548, 403.675 354.818, 404.500 355.643 C 406.840 357.983, 406.261 359.540, 403.845 357.405 L 401.690 355.500 403.494 358.301 C 404.494 359.856, 405.679 360.721, 406.154 360.246 C 407.172 359.228, 418.082 338, 417.587 338 C 417.399 338, 416.667 338.696, 415.961 339.547 M 598.333 339.667 C 598.700 340.033, 599.300 340.033, 599.667 339.667 C 600.033 339.300, 599.733 339, 599 339 C 598.267 339, 597.967 339.300, 598.333 339.667 M 595.665 341.432 C 595.363 342.219, 595.989 344.672, 597.058 346.883 C 598.126 349.094, 599 351.375, 599 351.952 C 599 352.528, 599.477 353, 600.059 353 C 600.641 353, 600.840 353.450, 600.500 354 C 600.160 354.550, 600.331 355, 600.879 355 C 601.427 355, 601.810 354.131, 601.730 353.069 C 601.650 352.007, 601.228 351.359, 600.792 351.628 C 600.357 351.898, 600 351.668, 600 351.118 C 600 350.568, 600.450 349.840, 601 349.500 C 602.162 348.782, 602.355 346.944, 601.250 347.118 C 598.534 347.547, 597.817 346.838, 598.352 344.250 C 598.665 342.738, 598.675 342.065, 598.375 342.756 C 597.614 344.508, 595.959 343.271, 596.651 341.468 C 596.960 340.661, 596.989 340, 596.714 340 C 596.439 340, 595.967 340.644, 595.665 341.432 M 609 341 C 609 341.733, 609.300 342.033, 609.667 341.667 C 610.033 341.300, 610.033 340.700, 609.667 340.333 C 609.300 339.967, 609 340.267, 609 341 M 601 343 C 601 343.733, 601.300 344.033, 601.667 343.667 C 602.033 343.300, 602.033 342.700, 601.667 342.333 C 601.300 341.967, 601 342.267, 601 343 M 556 352 C 551.868 360.218, 551.241 362.646, 554.815 356.589 C 557.280 352.411, 561.048 344, 560.455 344 C 560.217 344, 558.212 347.600, 556 352 M 411.459 346.067 C 411.096 346.653, 411.014 347.348, 411.276 347.610 C 411.538 347.872, 412.019 347.392, 412.345 346.543 C 413.021 344.781, 412.445 344.471, 411.459 346.067 M 462.082 345.772 C 461.984 347.290, 467.639 360, 468.413 360 C 469.053 360, 468.094 357.426, 464.687 350 C 463.299 346.975, 462.127 345.072, 462.082 345.772 M 599.333 345.667 C 599.700 346.033, 600.300 346.033, 600.667 345.667 C 601.033 345.300, 600.733 345, 600 345 C 599.267 345, 598.967 345.300, 599.333 345.667 M 608 348 C 608 348.733, 608.300 349.033, 608.667 348.667 C 609.033 348.300, 609.033 347.700, 608.667 347.333 C 608.300 346.967, 608 347.267, 608 348 M 599 349 C 599 349.733, 599.300 350.033, 599.667 349.667 C 600.033 349.300, 600.033 348.700, 599.667 348.333 C 599.300 347.967, 599 348.267, 599 349 M 399 350.750 C 399 351.227, 399.653 352.491, 400.450 353.559 C 401.849 355.432, 401.880 355.420, 401.330 353.234 C 400.761 350.977, 399 349.099, 399 350.750 M 468 351.025 C 468 353.290, 477.756 372.469, 479.891 374.402 C 481.036 375.438, 479.076 370.730, 475.292 363.354 C 467.953 349.047, 468 349.127, 468 351.025 M 511 358.500 C 511 363.500, 511.412 367, 512 367 C 512.588 367, 513 363.500, 513 358.500 C 513 353.500, 512.588 350, 512 350 C 511.412 350, 511 353.500, 511 358.500 M 551.193 353.750 C 549.580 356.032, 541.559 371.031, 540.096 374.500 C 539.864 375.050, 540.401 374.901, 541.288 374.168 C 542.796 372.924, 554.376 351, 553.526 351 C 553.311 351, 552.262 352.238, 551.193 353.750 M 405.500 353 C 405.840 353.550, 406.343 354, 406.618 354 C 406.893 354, 406.840 353.550, 406.500 353 C 406.160 352.450, 405.657 352, 405.382 352 C 405.107 352, 405.160 352.450, 405.500 353 M 601 357 C 601 357.733, 601.300 358.033, 601.667 357.667 C 602.033 357.300, 602.033 356.700, 601.667 356.333 C 601.300 355.967, 601 356.267, 601 357 M 325.661 369.740 C 325.325 370.284, 327.283 372.612, 330.012 374.913 C 332.742 377.215, 334.768 378.513, 334.516 377.799 C 334.263 377.084, 334.710 375.639, 335.508 374.586 C 336.855 372.811, 337.376 372.765, 342.730 373.957 C 352.614 376.158, 369.464 385.340, 382 395.355 C 397.813 407.989, 414.146 424.078, 417.816 430.636 C 418.323 431.541, 419.257 431.959, 419.893 431.566 C 421.326 430.680, 418.339 426.805, 406.653 414.392 C 387.894 394.464, 366.116 379.161, 346.795 372.331 C 339.026 369.584, 326.692 368.072, 325.661 369.740 M 511.162 384.750 C 511.313 396.668, 511.370 397.010, 512.031 390 C 513.116 378.495, 513.105 372, 512 372 C 511.377 372, 511.061 376.809, 511.162 384.750 M 625.993 377.165 C 625.371 379.549, 623.368 386.225, 621.542 392 C 619.716 397.775, 617.922 403.625, 617.555 405 C 616.647 408.407, 625.060 391.006, 628.049 383.296 C 630.433 377.146, 630.492 377.088, 634.698 376.796 C 640.459 376.394, 639.036 374.451, 632.312 373.536 L 627.123 372.829 625.993 377.165 M 582 378 C 582 378.733, 582.300 379.033, 582.667 378.667 C 583.033 378.300, 583.033 377.700, 582.667 377.333 C 582.300 376.967, 582 377.267, 582 378 M 336.500 381 C 336.840 381.550, 337.343 382, 337.618 382 C 337.893 382, 337.840 381.550, 337.500 381 C 337.160 380.450, 336.657 380, 336.382 380 C 336.107 380, 336.160 380.450, 336.500 381 M 424 381.417 C 424 382.288, 424.712 383, 425.583 383 C 427.349 383, 427.042 380.847, 425.188 380.229 C 424.534 380.011, 424 380.546, 424 381.417 M 430.838 381.284 C 432.004 382.707, 431.844 383.001, 429.598 383.565 C 427.642 384.056, 426.759 385.181, 425.937 388.233 C 425.255 390.765, 425.205 392.605, 425.802 393.202 C 426.399 393.799, 426.998 392.827, 427.420 390.577 C 427.895 388.042, 428.911 386.581, 430.918 385.542 C 432.474 384.738, 434.028 384.362, 434.373 384.707 C 434.718 385.051, 435 384.860, 435 384.282 C 435 383.703, 433.762 382.425, 432.250 381.440 C 429.954 379.946, 429.721 379.920, 430.838 381.284 M 413 381.378 C 413 381.585, 413.788 382.373, 414.750 383.128 C 416.336 384.371, 416.371 384.336, 415.128 382.750 C 413.821 381.084, 413 380.555, 413 381.378 M 437.226 386.579 C 438.176 387.570, 439.168 388.166, 439.431 387.903 C 439.694 387.640, 438.917 386.829, 437.705 386.100 C 435.598 384.835, 435.577 384.857, 437.226 386.579 M 341.500 387 C 341.840 387.550, 342.343 388, 342.618 388 C 342.893 388, 342.840 387.550, 342.500 387 C 342.160 386.450, 341.657 386, 341.382 386 C 341.107 386, 341.160 386.450, 341.500 387 M 443.255 390.982 C 444.770 392.188, 445.760 393.580, 445.453 394.076 C 445.147 394.571, 445.668 394.681, 446.612 394.319 C 447.901 393.824, 448.123 394.013, 447.504 395.080 C 447.050 395.861, 447.034 396.180, 447.467 395.790 C 447.900 395.399, 449.772 395.713, 451.627 396.489 C 457.984 399.145, 456.080 397.763, 443 390.229 C 440.776 388.948, 440.804 389.031, 443.255 390.982 M 578.405 392.155 C 577.962 392.870, 578.130 393.038, 578.845 392.595 C 579.480 392.203, 580 391.684, 580 391.441 C 580 390.607, 579.117 391.002, 578.405 392.155 M 348.500 395 C 348.840 395.550, 349.343 396, 349.618 396 C 349.893 396, 349.840 395.550, 349.500 395 C 349.160 394.450, 348.657 394, 348.382 394 C 348.107 394, 348.160 394.450, 348.500 395 M 571.405 395.155 C 570.962 395.870, 571.130 396.038, 571.845 395.595 C 572.480 395.203, 573 394.684, 573 394.441 C 573 393.607, 572.117 394.002, 571.405 395.155 M 575 394.839 C 575 395.301, 576.093 396.177, 577.428 396.785 C 580.686 398.270, 581.217 402.701, 578.533 405.993 L 576.500 408.486 578.984 406.493 C 582.111 403.983, 583.932 401.788, 583.953 400.500 C 583.962 399.950, 583.533 400.175, 583 401 C 582.237 402.181, 582.027 401.948, 582.015 399.905 C 582.007 398.478, 581.177 396.565, 580.171 395.655 C 578.251 393.917, 575 393.405, 575 394.839 M 568.405 398.155 C 567.962 398.870, 568.130 399.038, 568.845 398.595 C 569.480 398.203, 570 397.684, 570 397.441 C 570 396.607, 569.117 397.002, 568.405 398.155 M 644 400 C 644 400.733, 644.300 401.033, 644.667 400.667 C 645.033 400.300, 645.033 399.700, 644.667 399.333 C 644.300 398.967, 644 399.267, 644 400 M 460 401.393 C 460 401.609, 460.698 402.054, 461.552 402.382 C 462.442 402.723, 462.843 402.555, 462.493 401.989 C 461.906 401.038, 460 400.583, 460 401.393 M 308.701 407.647 C 304.962 410.169, 299.766 414.873, 297.156 418.099 C 292.424 423.947, 284 438.025, 284 440.085 C 284 441.430, 290.854 433.410, 299.982 421.382 C 303.788 416.367, 309.287 410.191, 312.201 407.656 C 318.967 401.774, 317.416 401.769, 308.701 407.647 M 441.500 404 C 441.840 404.550, 442.343 405, 442.618 405 C 442.893 405, 442.840 404.550, 442.500 404 C 442.160 403.450, 441.657 403, 441.382 403 C 441.107 403, 441.160 403.450, 441.500 404 M 652.052 409.250 C 652.923 412.352, 654.766 414.345, 660.390 418.268 C 661.783 419.240, 666.135 424.754, 670.060 430.520 C 677.653 441.674, 681.341 445.641, 676.489 437.435 C 674.884 434.721, 671.755 429.344, 669.536 425.488 C 663.731 415.401, 661.252 412.195, 656.719 408.911 C 651.603 405.205, 650.930 405.254, 652.052 409.250 M 468.333 407.667 C 468.700 408.033, 469.300 408.033, 469.667 407.667 C 470.033 407.300, 469.733 407, 469 407 C 468.267 407, 467.967 407.300, 468.333 407.667 M 450.733 409.124 C 451.412 409.808, 452.219 410.115, 452.526 409.807 C 452.834 409.499, 452.279 408.940, 451.293 408.564 C 449.868 408.022, 449.753 408.136, 450.733 409.124 M 474.507 409.011 C 474.843 409.555, 474.566 410, 473.892 410 C 473.218 410, 472.933 410.266, 473.258 410.592 C 473.584 410.917, 474.608 410.759, 475.534 410.241 C 477.098 409.365, 477.100 409.252, 475.558 408.660 C 474.581 408.286, 474.148 408.431, 474.507 409.011 M 616.079 408.668 C 616.036 409.311, 615.741 410.661, 615.424 411.668 C 614.877 413.409, 614.906 413.412, 615.995 411.712 C 616.626 410.729, 616.920 409.379, 616.650 408.712 C 616.295 407.837, 616.136 407.825, 616.079 408.668 M 361.613 412.183 C 361.902 412.650, 362.557 412.774, 363.069 412.457 C 364.377 411.649, 364.230 411.333, 362.544 411.333 C 361.743 411.333, 361.324 411.716, 361.613 412.183 M 476 412 C 476 412.733, 476.300 413.033, 476.667 412.667 C 477.033 412.300, 477.033 411.700, 476.667 411.333 C 476.300 410.967, 476 411.267, 476 412 M 539.584 417.537 C 534.681 420.542, 531.072 423, 531.565 423 C 532.057 423, 535.008 421.428, 538.122 419.506 C 543.661 416.087, 543.861 416.044, 547.392 417.519 C 550.394 418.774, 551 419.528, 551 422.013 C 551 423.796, 551.524 425, 552.299 425 C 554.235 425, 553.189 417.950, 550.880 415.426 C 549.836 414.285, 549.286 413.048, 549.658 412.676 C 551.646 410.688, 547.486 412.695, 539.584 417.537 M 480.178 413.869 C 478.649 414.838, 476.757 422.196, 477.799 423.120 C 478.185 423.462, 479.850 424.006, 481.500 424.330 C 484.461 424.910, 484.467 424.902, 482 423.709 C 480.010 422.747, 479.569 421.888, 479.837 419.500 C 480.022 417.850, 480.809 416.140, 481.587 415.700 C 483.072 414.860, 483.534 412.989, 482.250 413.015 C 481.837 413.024, 480.905 413.408, 480.178 413.869 M 483.563 414.696 C 483.227 415.571, 483.076 416.399, 483.226 416.537 C 484.002 417.247, 495 419.598, 495 419.054 C 495 418.704, 492.564 417.222, 489.587 415.762 C 484.870 413.449, 484.094 413.311, 483.563 414.696 M 568.029 413.961 C 567.220 414.473, 566.818 415.152, 567.136 415.470 C 567.455 415.788, 568.284 415.362, 568.980 414.524 C 570.423 412.786, 570.146 412.622, 568.029 413.961 M 485.333 415.667 C 485.700 416.033, 486.300 416.033, 486.667 415.667 C 487.033 415.300, 486.733 415, 486 415 C 485.267 415, 484.967 415.300, 485.333 415.667 M 366.500 419 C 366.840 419.550, 367.343 420, 367.618 420 C 367.893 420, 367.840 419.550, 367.500 419 C 367.160 418.450, 366.657 418, 366.382 418 C 366.107 418, 366.160 418.450, 366.500 419 M 496.500 420 C 496.160 420.550, 496.359 421, 496.941 421 C 497.523 421, 498 420.550, 498 420 C 498 419.450, 497.802 419, 497.559 419 C 497.316 419, 496.840 419.450, 496.500 420 M 386 420.378 C 386 420.585, 386.788 421.373, 387.750 422.128 C 389.336 423.371, 389.371 423.336, 388.128 421.750 C 386.821 420.084, 386 419.555, 386 420.378 M 368.500 422 C 368.840 422.550, 369.343 423, 369.618 423 C 369.893 423, 369.840 422.550, 369.500 422 C 369.160 421.450, 368.657 421, 368.382 421 C 368.107 421, 368.160 421.450, 368.500 422 M 502 422 C 502.825 422.533, 503.950 422.969, 504.500 422.969 C 505.050 422.969, 504.825 422.533, 504 422 C 503.175 421.467, 502.050 421.031, 501.500 421.031 C 500.950 421.031, 501.175 421.467, 502 422 M 372.970 424.944 C 373.543 426.014, 374.505 427.194, 375.109 427.567 C 375.713 427.941, 375.434 427.066, 374.489 425.623 C 372.487 422.568, 371.451 422.105, 372.970 424.944 M 609.138 426.033 C 608.127 428.934, 608.283 429.366, 611.233 431.834 C 612.986 433.300, 615.307 435.512, 616.391 436.750 C 617.474 437.988, 618.842 438.986, 619.430 438.968 C 620.019 438.951, 619.626 438.276, 618.559 437.468 C 617.491 436.661, 617.099 436, 617.686 436 C 619.038 436, 621.166 438.501, 620.435 439.232 C 619.895 439.772, 626.829 447.317, 630.273 449.935 C 631.835 451.123, 631.963 451.068, 631.353 449.477 C 630.876 448.235, 631.025 447.897, 631.830 448.395 C 634.169 449.841, 632.924 446.770, 629.975 443.821 C 627.365 441.211, 626.728 440.981, 625.331 442.140 C 623.895 443.332, 623.784 443.202, 624.347 440.992 C 624.696 439.621, 624.723 439.063, 624.407 439.750 C 623.470 441.791, 621.722 441.170, 622.290 438.999 C 622.578 437.898, 622.457 437.218, 622.020 437.487 C 621.584 437.757, 621.001 437.112, 620.724 436.053 C 620.373 434.709, 619.621 434.286, 618.229 434.650 C 616.857 435.009, 615.168 434.101, 612.794 431.728 C 609.975 428.908, 609.504 427.870, 610.197 425.997 C 610.662 424.739, 610.860 423.527, 610.637 423.304 C 610.414 423.081, 609.739 424.309, 609.138 426.033 M 508.813 424.683 C 509.534 424.972, 510.397 424.936, 510.729 424.604 C 511.061 424.272, 510.471 424.036, 509.417 424.079 C 508.252 424.127, 508.015 424.364, 508.813 424.683 M 411.500 426 C 411.840 426.550, 412.343 427, 412.618 427 C 412.893 427, 412.840 426.550, 412.500 426 C 412.160 425.450, 411.657 425, 411.382 425 C 411.107 425, 411.160 425.450, 411.500 426 M 590.543 426.250 C 589.695 428.936, 589.384 434, 590.066 434 C 590.462 434, 591.486 432.313, 592.342 430.250 C 594.175 425.830, 594.607 428.678, 592.844 433.556 C 591.348 437.691, 592.872 449.640, 594.842 449.225 C 595.561 449.074, 595.896 449.360, 595.586 449.861 C 594.966 450.864, 616.181 467.287, 623.737 471.652 C 626.356 473.166, 628.831 474.876, 629.235 475.452 C 629.719 476.142, 629.975 476.082, 629.985 475.276 C 629.993 474.602, 628.679 473.368, 627.063 472.533 C 623.213 470.542, 621.998 468.669, 625.395 469.960 C 627.380 470.715, 627.794 470.626, 627.375 469.534 C 626.591 467.491, 630 468.279, 631.638 470.520 C 632.387 471.544, 633 471.908, 633 471.328 C 633 470.748, 630.750 468.169, 628 465.597 C 625.250 463.024, 623 460.540, 623 460.076 C 623 459.146, 618.578 455.114, 609.231 447.522 C 605.860 444.784, 602.836 441.484, 602.511 440.189 C 601.378 435.675, 593.846 425, 591.794 425 C 591.323 425, 590.760 425.563, 590.543 426.250 M 519.860 426.668 C 518.463 427.040, 518.380 427.628, 519.300 430.626 C 520.133 433.340, 520.089 434.327, 519.106 434.934 C 518.134 435.535, 518.227 435.873, 519.498 436.361 C 522.210 437.402, 522.304 437.218, 521.694 432.063 C 521.208 427.956, 521.394 427.050, 522.805 426.679 C 523.982 426.369, 524.042 426.232, 523 426.232 C 522.175 426.232, 520.762 426.428, 519.860 426.668 M 612 427 C 611.099 427.582, 610.975 427.975, 611.691 427.985 C 612.346 427.993, 613.160 427.550, 613.500 427 C 614.267 425.758, 613.921 425.758, 612 427 M 373.500 429 C 373.840 429.550, 374.343 430, 374.618 430 C 374.893 430, 374.840 429.550, 374.500 429 C 374.160 428.450, 373.657 428, 373.382 428 C 373.107 428, 373.160 428.450, 373.500 429 M 579.254 435.980 C 574.718 440.325, 567.654 446.082, 563.555 448.773 C 553.099 455.637, 536.009 464.055, 531.227 464.696 C 522.233 465.903, 483.046 450.698, 461.500 437.641 C 454.712 433.528, 453.801 433.275, 454.694 435.750 C 456.770 441.505, 458.867 442.792, 479.267 450.828 C 503.994 460.569, 528.124 468.339, 533.500 468.291 C 538.165 468.249, 555.048 459.180, 571.500 447.877 C 586.006 437.912, 586.769 437.161, 587.398 432.250 C 587.697 429.913, 587.842 428.018, 587.721 428.039 C 587.599 428.061, 583.789 431.634, 579.254 435.980 M 443.630 430.250 C 445.671 433.660, 451.576 440, 452.712 440 C 454.597 440, 454.306 438.807, 451.480 434.944 C 448.558 430.952, 446.184 429, 444.250 429 C 443.423 429, 443.178 429.495, 443.630 430.250 M 438.071 434.427 C 435.168 437.422, 434.833 438.296, 435.410 441.373 C 435.974 444.380, 435.738 445.067, 433.785 446.095 C 430.523 447.811, 426.421 451.243, 419.170 458.321 C 413.029 464.316, 412.859 464.619, 413.464 468.500 C 414.413 474.589, 416.206 480, 417.275 480 C 418.198 480, 418.029 478.766, 416.519 474.500 C 415.958 472.914, 416.030 472.809, 416.866 473.995 C 418.558 476.392, 422.882 476.099, 427.352 473.283 C 433.624 469.333, 449.197 457.516, 451.787 454.742 L 454.073 452.293 451.695 445.740 C 449.514 439.733, 443.837 431, 442.112 431 C 441.716 431, 439.898 432.542, 438.071 434.427 M 440.405 433.155 C 439.962 433.870, 440.130 434.038, 440.845 433.595 C 441.998 432.883, 442.393 432, 441.559 432 C 441.316 432, 440.797 432.520, 440.405 433.155 M 525.333 434.667 C 525.700 435.033, 526.300 435.033, 526.667 434.667 C 527.033 434.300, 526.733 434, 526 434 C 525.267 434, 524.967 434.300, 525.333 434.667 M 641.500 435 C 641.840 435.550, 642.343 436, 642.618 436 C 642.893 436, 642.840 435.550, 642.500 435 C 642.160 434.450, 641.657 434, 641.382 434 C 641.107 434, 641.160 434.450, 641.500 435 M 644 437 C 644 437.733, 644.300 438.033, 644.667 437.667 C 645.033 437.300, 645.033 436.700, 644.667 436.333 C 644.300 435.967, 644 436.267, 644 437 M 410.405 438.155 C 409.962 438.870, 410.130 439.038, 410.845 438.595 C 411.480 438.203, 412 437.684, 412 437.441 C 412 436.607, 411.117 437.002, 410.405 438.155 M 446.500 439 C 446.840 439.550, 447.343 440, 447.618 440 C 447.893 440, 447.840 439.550, 447.500 439 C 447.160 438.450, 446.657 438, 446.382 438 C 446.107 438, 446.160 438.450, 446.500 439 M 406.405 441.250 L 404.500 443.500 406.750 441.595 C 408.864 439.805, 409.455 439, 408.655 439 C 408.465 439, 407.453 440.012, 406.405 441.250 M 582 444.658 C 573.109 452.050, 553.306 465.317, 544.680 469.661 C 538.296 472.876, 537.010 473.181, 532.036 472.656 C 521.382 471.532, 490.226 460.260, 467.012 449.131 C 460.143 445.838, 454.360 443.307, 454.160 443.507 C 453.960 443.707, 454.575 446.216, 455.528 449.083 L 457.259 454.296 454.880 456.092 L 452.500 457.889 457.500 460.053 C 460.250 461.243, 466.440 463.969, 471.256 466.111 C 481.078 470.478, 530.444 490.112, 536.261 491.965 C 539.867 493.113, 540.361 492.968, 548.261 488.435 C 552.792 485.835, 565.678 477.672, 576.896 470.296 L 597.293 456.884 593.646 453.150 C 590.705 450.137, 589.997 448.651, 589.985 445.458 C 589.959 438.887, 589.052 438.796, 582 444.658 M 625.553 442.915 C 625.231 443.436, 625.394 444.125, 625.915 444.447 C 626.436 444.769, 627.125 444.606, 627.447 444.085 C 627.769 443.564, 627.606 442.875, 627.085 442.553 C 626.564 442.231, 625.875 442.394, 625.553 442.915 M 402.405 444.155 C 401.962 444.870, 402.130 445.038, 402.845 444.595 C 403.480 444.203, 404 443.684, 404 443.441 C 404 442.607, 403.117 443.002, 402.405 444.155 M 386.500 447 C 386.840 447.550, 387.343 448, 387.618 448 C 387.893 448, 387.840 447.550, 387.500 447 C 387.160 446.450, 386.657 446, 386.382 446 C 386.107 446, 386.160 446.450, 386.500 447 M 399.333 446.667 C 399.700 447.033, 400.300 447.033, 400.667 446.667 C 401.033 446.300, 400.733 446, 400 446 C 399.267 446, 398.967 446.300, 399.333 446.667 M 396.405 449.155 C 395.962 449.870, 396.130 450.038, 396.845 449.595 C 397.480 449.203, 398 448.684, 398 448.441 C 398 447.607, 397.117 448.002, 396.405 449.155 M 389.584 451.359 C 390.405 453.497, 392.403 453.449, 394.128 451.250 C 395.371 449.664, 395.336 449.629, 393.750 450.872 C 392.334 451.983, 391.710 452.004, 390.477 450.981 C 389.204 449.924, 389.057 449.986, 389.584 451.359 M 294.564 465.707 C 294.022 467.132, 294.136 467.247, 295.124 466.267 C 295.808 465.588, 296.115 464.781, 295.807 464.474 C 295.499 464.166, 294.940 464.721, 294.564 465.707 M 268 468 C 268 468.733, 268.300 469.033, 268.667 468.667 C 269.033 468.300, 269.033 467.700, 268.667 467.333 C 268.300 466.967, 268 467.267, 268 468 M 656 468.393 C 656 470.231, 678.330 523.117, 686.551 540.750 C 688.923 545.837, 691.405 550, 692.067 550 C 694.408 550, 716 536.779, 716 535.346 C 716 534.338, 712.775 535.621, 705.504 539.521 C 695.010 545.150, 695.008 545.151, 694.132 542.826 C 693.651 541.547, 692.122 537.350, 690.735 533.500 C 684.681 516.696, 675.577 498.857, 660.686 474.620 C 656.831 468.345, 656 467.241, 656 468.393 M 613.500 470 C 613.840 470.550, 614.343 471, 614.618 471 C 614.893 471, 614.840 470.550, 614.500 470 C 614.160 469.450, 613.657 469, 613.382 469 C 613.107 469, 613.160 469.450, 613.500 470 M 643.500 476.553 C 638.550 480.635, 632.630 485.566, 630.344 487.512 C 628.058 489.457, 622.208 494.261, 617.344 498.187 C 612.480 502.113, 606.674 506.939, 604.442 508.913 C 602.211 510.886, 596.167 515.875, 591.012 520 C 585.856 524.125, 579.937 529, 577.857 530.832 C 575.638 532.788, 573.583 533.860, 572.883 533.428 C 572.161 532.982, 571.954 533.116, 572.357 533.769 C 573.141 535.037, 567.612 539.278, 566.554 538.220 C 566.158 537.824, 565.983 538.038, 566.167 538.695 C 566.600 540.248, 552.238 552.028, 550.653 551.420 C 549.987 551.165, 548.556 551.666, 547.471 552.533 C 545.576 554.050, 545.590 554.067, 547.836 552.974 C 552.013 550.942, 551.002 552.450, 544.784 557.524 C 541.430 560.261, 537.396 563.553, 535.820 564.841 C 534.243 566.128, 531.501 567.378, 529.726 567.618 C 526.677 568.031, 526.607 567.971, 528.441 566.527 C 531.022 564.496, 530.205 564.601, 525.750 566.872 C 523.731 567.902, 522.360 569.027, 522.706 569.372 C 523.051 569.718, 522.246 570.077, 520.917 570.171 C 519.587 570.265, 517.825 570.399, 517 570.468 C 515.031 570.634, 511.129 572.930, 512.750 572.970 C 513.438 572.986, 514 573.525, 514 574.167 C 514 574.808, 513.699 575.032, 513.331 574.664 C 512.963 574.297, 511.903 574.682, 510.976 575.522 C 509.175 577.152, 505.573 576.500, 506.660 574.741 C 507.030 574.142, 506.831 573.986, 506.198 574.378 C 505.587 574.755, 505.369 575.798, 505.714 576.696 C 506.101 577.706, 505.937 578.079, 505.283 577.675 C 503.937 576.843, 501.614 579.566, 502.477 580.963 C 502.835 581.541, 504.448 582.698, 506.063 583.533 C 507.679 584.368, 508.983 585.377, 508.962 585.776 C 508.941 586.174, 507.029 587.802, 504.712 589.393 C 502.079 591.201, 501.150 591.553, 502.235 590.331 C 503.903 588.451, 503.823 588.233, 500.157 584.653 C 497.584 582.141, 495.801 581.139, 494.672 581.572 C 493.753 581.925, 493 582.536, 493 582.930 C 493 583.724, 479.732 593, 478.597 593 C 478.204 593, 478.190 592.502, 478.566 591.893 C 479.037 591.131, 478.512 591.020, 476.883 591.537 C 474.688 592.234, 474.620 592.151, 475.953 590.394 C 476.743 589.352, 483.139 582.875, 490.166 576 L 502.943 563.500 501.699 551.501 L 500.455 539.502 490.978 532.275 C 485.765 528.301, 472.725 519.782, 462 513.344 C 433.058 495.973, 419.943 487.475, 420.131 486.213 C 420.189 485.821, 420.130 484.375, 420 483 C 419.777 480.640, 419.724 480.668, 419.063 483.500 C 418.678 485.150, 418.726 486.990, 419.171 487.590 C 419.615 488.189, 433.852 497.984, 450.809 509.356 C 482.231 530.429, 491.907 537.553, 495.146 542 C 496.563 543.945, 497.083 547.051, 497.491 556 C 497.780 562.325, 497.749 566.935, 497.422 566.244 C 497.096 565.553, 496.367 565.273, 495.803 565.622 C 495.238 565.971, 494.384 565.636, 493.904 564.878 C 493.225 563.807, 493.027 563.916, 493.015 565.367 C 493.004 566.738, 492.470 567.095, 491 566.710 C 489.900 566.423, 489 566.499, 489 566.879 C 489 567.260, 488.212 567.597, 487.250 567.628 C 486.288 567.659, 484.038 567.942, 482.250 568.255 C 480.319 568.594, 479 568.408, 479 567.796 C 479 567.230, 478.152 566.989, 477.115 567.260 C 474.866 567.848, 471.132 561.865, 471.464 558.208 C 471.578 556.947, 471.295 555.682, 470.833 555.397 C 469.838 554.782, 466 546.570, 466 545.055 C 466 544.475, 465.530 544, 464.956 544 C 464.382 544, 462.699 542.875, 461.217 541.500 C 459.734 540.125, 457.953 539, 457.260 539 C 456.567 539, 456 538.550, 456 538 C 456 537.450, 455.373 537, 454.607 537 C 453.841 537, 452.977 536.383, 452.688 535.629 C 452.398 534.874, 450.908 533.943, 449.375 533.558 C 447.843 533.174, 445.981 531.991, 445.238 530.929 C 444.495 529.868, 443.237 529, 442.443 529 C 441.649 529, 440.132 528.212, 439.072 527.250 C 435.639 524.135, 434.579 523.446, 429.500 521.023 C 426.750 519.711, 424.275 518.339, 424 517.974 C 423.476 517.278, 416.935 515.870, 413.500 515.714 C 412.400 515.664, 411.169 515.145, 410.765 514.561 C 410.354 513.966, 410.024 514.479, 410.015 515.727 C 410.001 517.792, 412.952 520.634, 422.038 527.308 C 423.404 528.311, 422.719 528.114, 420.500 526.867 C 418.300 525.630, 415.108 523.579, 413.406 522.309 C 409.278 519.229, 408.358 519.385, 407.036 523.391 C 405.743 527.309, 407.565 537.293, 409.124 534.833 C 409.809 533.753, 409.972 533.749, 409.985 534.809 C 409.993 535.542, 410.508 535.804, 411.155 535.405 C 411.820 534.993, 412.039 535.127, 411.673 535.720 C 411.323 536.286, 412.716 538.138, 414.768 539.835 C 424.649 548.005, 427.255 550, 428.043 550 C 428.513 550, 430.158 551.171, 431.698 552.603 C 433.239 554.034, 436.253 556.102, 438.396 557.198 C 440.538 558.293, 443.459 560.272, 444.886 561.595 C 446.312 562.918, 448.016 564, 448.672 564 C 449.328 564, 450.164 564.941, 450.529 566.091 C 450.975 567.498, 451.792 568.026, 453.022 567.705 C 454.277 567.376, 454.685 567.658, 454.321 568.605 C 454.031 569.363, 454.514 570.260, 455.396 570.599 C 457.203 571.292, 457.599 574, 455.893 574 C 455.284 574, 455.064 574.725, 455.404 575.611 C 455.847 576.764, 455.593 577.058, 454.511 576.643 C 453.680 576.324, 453 576.410, 453 576.834 C 453 577.557, 443.685 581.403, 441.500 581.582 C 439.442 581.750, 434.999 584.361, 434.985 585.411 C 434.976 586.010, 434.533 585.825, 434 585 C 433.239 583.822, 433.027 583.794, 433.015 584.872 C 433.002 586.030, 432.744 586.032, 431.364 584.887 C 430.243 583.956, 430.544 585.139, 432.320 588.645 C 434.233 592.420, 434.765 594.672, 434.349 597.234 L 433.786 600.706 431.545 598.603 C 430.313 597.446, 428.039 594.475, 426.494 592 C 423.587 587.346, 396.380 557, 395.114 557 C 394.721 557, 393.915 557.485, 393.322 558.078 C 392.552 558.848, 393.224 560.203, 395.680 562.828 C 397.569 564.847, 401.002 568.717, 403.308 571.427 C 405.613 574.137, 408.872 577.962, 410.550 579.927 C 416.703 587.137, 420.141 592, 419.084 592 C 418.488 592, 418 591.475, 418 590.833 C 418 590.192, 417.739 589.928, 417.419 590.248 C 417.099 590.567, 417.316 591.723, 417.901 592.816 C 418.938 594.753, 418.359 597.963, 415.974 603.500 C 413.686 608.810, 413.810 633.853, 416.117 632.428 C 416.603 632.127, 417.034 632.696, 417.077 633.691 C 417.157 635.583, 417.457 637.006, 418.566 640.750 C 419.068 642.442, 418.825 643, 417.587 643 C 416.164 643, 416.250 643.542, 418.220 646.992 C 420.448 650.893, 422.287 651.963, 423.471 650.047 C 423.795 649.522, 425.509 648.135, 427.280 646.963 C 429.353 645.592, 428.754 646.415, 425.599 649.274 L 420.698 653.715 415.771 646.349 C 411.202 639.519, 404.619 633.048, 403.439 634.228 C 403.161 634.506, 404.889 637.156, 407.280 640.117 C 409.671 643.078, 413.113 647.682, 414.930 650.349 C 417.887 654.691, 418.098 655.448, 416.952 657.589 C 415.855 659.640, 415.932 660.267, 417.491 661.990 C 419.890 664.641, 421.622 664.525, 425.661 661.445 C 427.504 660.039, 429.529 659.209, 430.160 659.599 C 430.807 659.999, 431.039 659.872, 430.690 659.308 C 430.094 658.343, 433.342 654.873, 437.500 652.034 C 438.600 651.283, 437.813 652.296, 435.750 654.284 C 432.183 657.722, 430.439 660.541, 433.398 658.085 C 436.951 655.136, 448.876 655.127, 449.857 658.071 C 450.060 658.680, 451.389 658.057, 452.860 656.664 C 454.312 655.290, 456.850 653.938, 458.500 653.659 C 473.571 651.113, 474.380 650.423, 484.860 631.193 C 488.249 624.974, 493.712 615.749, 497.001 610.693 C 500.289 605.637, 503.005 600.825, 503.035 600 C 503.083 598.693, 506.396 595.733, 522.882 582.263 C 524.742 580.743, 526.992 579.479, 527.882 579.453 C 528.772 579.428, 529.403 578.911, 529.284 578.306 C 529.091 577.321, 535.965 571.129, 553.206 556.757 C 559.104 551.841, 561.246 550.707, 558.890 553.750 C 557.762 555.206, 557.906 555.184, 559.744 553.616 C 560.959 552.580, 561.742 551.391, 561.484 550.974 C 560.757 549.798, 576.002 536.883, 577.226 537.639 C 577.822 538.008, 578.030 537.858, 577.690 537.308 C 576.875 535.989, 582.309 530.818, 584.105 531.202 C 584.872 531.366, 585.392 530.951, 585.260 530.280 C 585.029 529.105, 587.430 527.303, 589.500 527.099 C 590.050 527.044, 590.520 526.438, 590.545 525.750 C 590.570 525.063, 591.133 524.612, 591.795 524.750 C 592.458 524.887, 592.888 524.591, 592.750 524.091 C 592.360 522.671, 610.039 507.906, 611.240 508.648 C 611.828 509.012, 612.027 508.853, 611.682 508.295 C 611.338 507.737, 612.506 506.008, 614.278 504.453 C 628.453 492.010, 633.548 487.390, 633.847 486.708 C 634.038 486.273, 634.790 486.411, 635.519 487.015 C 636.548 487.870, 636.744 487.712, 636.398 486.307 C 636.075 484.990, 638.401 482.501, 644.977 477.131 C 649.940 473.078, 654 469.590, 654 469.381 C 654 468.231, 651.618 469.857, 643.500 476.553 M 346.674 479.250 C 332.468 494.924, 320.282 510.698, 302.606 536.292 C 297.625 543.505, 295.403 545.951, 294.172 545.578 C 293.252 545.300, 281.925 542.314, 269 538.943 C 256.075 535.572, 244.865 532.205, 244.089 531.461 C 242.877 530.297, 242.979 529.227, 244.811 523.859 C 245.985 520.423, 246.780 517.447, 246.580 517.246 C 245.962 516.629, 240 528.246, 240 530.067 C 240 533.311, 243.416 535.783, 250 537.303 C 253.575 538.129, 266.355 541.323, 278.399 544.402 C 290.443 547.481, 301.018 549.986, 301.899 549.970 C 304.003 549.930, 328.969 513.165, 348.566 481.250 C 352.027 475.613, 354.700 471, 354.505 471 C 354.310 471, 350.786 474.712, 346.674 479.250 M 632.710 476 C 632.998 477.100, 633.406 478, 633.617 478 C 633.827 478, 634 477.100, 634 476 C 634 474.900, 633.592 474, 633.094 474 C 632.595 474, 632.423 474.900, 632.710 476 M 419.667 476.667 C 419.300 477.033, 419.014 478.046, 419.030 478.917 C 419.055 480.217, 419.251 480.174, 420.122 478.675 C 421.199 476.823, 420.887 475.447, 419.667 476.667 M 631.136 479.250 C 631.024 481.506, 631.404 481.979, 633.250 481.884 C 634.844 481.802, 635.008 481.638, 633.811 481.323 C 632.883 481.078, 631.932 479.892, 631.698 478.689 C 631.348 476.887, 631.248 476.986, 631.136 479.250 M 417 482 C 417 482.733, 417.300 483.033, 417.667 482.667 C 418.033 482.300, 418.033 481.700, 417.667 481.333 C 417.300 480.967, 417 481.267, 417 482 M 261.921 487.220 C 260.589 490.091, 256.654 496.417, 253.174 501.277 C 248.004 508.500, 247.070 510.379, 248.059 511.571 C 249.078 512.799, 249.744 512.358, 252.290 508.764 C 253.952 506.419, 256.622 502.800, 258.225 500.723 C 259.827 498.646, 262.231 493.730, 263.569 489.798 C 266.342 481.644, 266.269 482, 265.171 482 C 264.715 482, 263.252 484.349, 261.921 487.220 M 426.500 488 C 426.840 488.550, 427.343 489, 427.618 489 C 427.893 489, 427.840 488.550, 427.500 488 C 427.160 487.450, 426.657 487, 426.382 487 C 426.107 487, 426.160 487.450, 426.500 488 M 626.465 503.250 C 619.862 509.988, 609.182 520.942, 602.730 527.593 L 591 539.685 591 551.475 C 591 561.921, 591.254 563.676, 593.230 566.882 C 597.312 573.506, 606.197 585.500, 607.021 585.500 C 607.468 585.500, 608.208 585.910, 608.667 586.410 C 609.151 586.939, 608.976 587.019, 608.250 586.601 C 607.563 586.206, 607 586.177, 607 586.537 C 607 587.850, 610.457 593, 611.338 593 C 611.837 593, 611.677 592.316, 610.983 591.479 C 610.288 590.643, 609.580 588.955, 609.408 587.729 C 609.236 586.503, 608.834 584.226, 608.514 582.670 C 608.178 581.036, 608.325 580.083, 608.861 580.414 C 609.372 580.730, 610.063 580.279, 610.395 579.412 C 611.293 577.073, 611.100 576.293, 610.039 577.971 C 607.937 581.295, 608.129 577.696, 610.622 567.046 C 612.982 556.961, 613.763 555.129, 618.045 549.637 C 620.677 546.262, 626.557 538.100, 631.111 531.500 L 639.392 519.500 639.822 505.250 C 640.063 497.258, 639.861 491, 639.361 491 C 638.871 491, 633.068 496.512, 626.465 503.250 M 540.732 496.750 C 540.519 497.163, 541.271 504.025, 542.402 512 C 544.771 528.706, 545.909 527.155, 543.868 510 C 543.116 503.675, 542.563 497.938, 542.639 497.250 C 542.789 495.898, 541.363 495.524, 540.732 496.750 M 624.405 499.155 C 623.962 499.870, 624.130 500.038, 624.845 499.595 C 625.480 499.203, 626 498.684, 626 498.441 C 626 497.607, 625.117 498.002, 624.405 499.155 M 702.531 504.500 C 703.595 511.115, 704.019 511.959, 707.071 513.537 C 708.682 514.370, 710 514.865, 710 514.637 C 710 514.408, 708.175 511.134, 705.944 507.361 C 701.972 500.643, 701.901 500.583, 702.531 504.500 M 613.924 508.750 L 611.500 511.500 614.250 509.076 C 615.763 507.742, 617 506.505, 617 506.326 C 617 505.541, 616.190 506.180, 613.924 508.750 M 250.029 522.961 C 249.220 523.473, 248.818 524.152, 249.136 524.470 C 249.455 524.788, 250.284 524.362, 250.980 523.524 C 252.423 521.786, 252.146 521.622, 250.029 522.961 M 637 525.864 C 637 526.340, 634.383 530.052, 631.185 534.114 C 616.925 552.226, 614.706 555.874, 612.909 564.153 C 610.987 573.008, 612.034 573.433, 615.646 565.267 C 618.290 559.287, 620.328 556.705, 621.541 557.798 C 621.970 558.184, 622.023 557.980, 621.660 557.345 C 621.297 556.710, 622.575 554.305, 624.500 552 C 626.425 549.696, 628 548.218, 628 548.717 C 628 549.215, 627.055 550.637, 625.899 551.878 C 624.744 553.118, 624.020 554.353, 624.290 554.624 C 625.109 555.442, 629.509 548.617, 629.202 547.003 C 628.948 545.668, 629.035 545.667, 629.977 547 C 630.906 548.316, 631.160 548.291, 632.040 546.799 C 632.592 545.864, 633.651 544.492, 634.393 543.750 C 637.384 540.759, 640.416 525, 638 525 C 637.450 525, 637 525.389, 637 525.864 M 276.571 530.571 C 274.286 532.857, 274.643 533.633, 277 531.500 C 278.100 530.505, 279 529.535, 279 529.345 C 279 528.602, 278.073 529.070, 276.571 530.571 M 425.500 530 C 425.840 530.550, 426.343 531, 426.618 531 C 426.893 531, 426.840 530.550, 426.500 530 C 426.160 529.450, 425.657 529, 425.382 529 C 425.107 529, 425.160 529.450, 425.500 530 M 428.500 532 C 428.840 532.550, 429.343 533, 429.618 533 C 429.893 533, 429.840 532.550, 429.500 532 C 429.160 531.450, 428.657 531, 428.382 531 C 428.107 531, 428.160 531.450, 428.500 532 M 431 533.378 C 431 533.585, 431.788 534.373, 432.750 535.128 C 434.336 536.371, 434.371 536.336, 433.128 534.750 C 431.821 533.084, 431 532.555, 431 533.378 M 563.405 540.155 C 562.962 540.870, 563.130 541.038, 563.845 540.595 C 564.998 539.883, 565.393 539, 564.559 539 C 564.316 539, 563.797 539.520, 563.405 540.155 M 442.722 542.050 C 443.944 543.337, 445.138 544.189, 445.374 543.944 C 445.611 543.700, 444.611 542.648, 443.152 541.606 L 440.500 539.712 442.722 542.050 M 450.600 547.805 C 455.382 551.244, 457 552.236, 457 551.729 C 457 551.136, 448.278 545, 447.436 545 C 447.031 545, 448.455 546.262, 450.600 547.805 M 460.734 555.162 C 463.764 558.462, 469.093 574, 467.195 574 C 466.323 574, 460.186 568.020, 457.447 564.500 C 455.969 562.602, 455.952 562.628, 457.113 565 C 458.590 568.016, 468.911 579, 470.269 579 C 470.799 579, 470.995 578.212, 470.704 577.250 C 470.413 576.288, 468.953 571.450, 467.460 566.500 C 464.549 556.849, 463.810 555.485, 460.582 553.810 C 458.593 552.777, 458.600 552.838, 460.734 555.162 M 495 563 C 495 563.550, 495.450 564, 496 564 C 496.550 564, 497 563.550, 497 563 C 497 562.450, 496.550 562, 496 562 C 495.450 562, 495 562.450, 495 563 M 532.405 565.155 C 531.962 565.870, 532.130 566.038, 532.845 565.595 C 533.998 564.883, 534.393 564, 533.559 564 C 533.316 564, 532.797 564.520, 532.405 565.155 M 488 570 C 488 570.733, 488.300 571.033, 488.667 570.667 C 489.033 570.300, 489.033 569.700, 488.667 569.333 C 488.300 568.967, 488 569.267, 488 570 M 524.405 570.155 C 523.962 570.870, 524.130 571.038, 524.845 570.595 C 525.998 569.883, 526.393 569, 525.559 569 C 525.316 569, 524.797 569.520, 524.405 570.155 M 526.405 571.146 C 524.513 573.276, 524.515 573.283, 526.694 572.140 C 529.125 570.865, 530.622 569, 529.214 569 C 528.717 569, 527.453 569.965, 526.405 571.146 M 507.500 572 C 507.160 572.550, 507.359 573, 507.941 573 C 508.523 573, 509 572.550, 509 572 C 509 571.450, 508.802 571, 508.559 571 C 508.316 571, 507.840 571.450, 507.500 572 M 517 573 C 516.099 573.582, 515.975 573.975, 516.691 573.985 C 517.346 573.993, 518.160 573.550, 518.500 573 C 519.267 571.758, 518.921 571.758, 517 573 M 549.275 580 C 549.252 584.675, 549.563 591.425, 549.964 595 L 550.695 601.500 550.742 595.500 C 550.767 592.200, 550.457 585.450, 550.053 580.500 L 549.317 571.500 549.275 580 M 508.333 575.667 C 508.700 576.033, 509.300 576.033, 509.667 575.667 C 510.033 575.300, 509.733 575, 509 575 C 508.267 575, 507.967 575.300, 508.333 575.667 M 517.872 577.750 C 516.629 579.336, 516.664 579.371, 518.250 578.128 C 519.916 576.821, 520.445 576, 519.622 576 C 519.415 576, 518.627 576.788, 517.872 577.750 M 630.216 580 C 629.152 582.475, 627.358 586.525, 626.230 589 C 622.329 597.555, 618 609.058, 618.035 610.776 C 618.055 611.724, 618.701 613.625, 619.470 615 C 620.862 617.487, 620.885 617.467, 623.869 610.917 C 625.652 607.004, 627.486 604.333, 628.390 604.333 C 629.227 604.333, 629.637 604.778, 629.302 605.321 C 628.944 605.900, 629.208 605.990, 629.940 605.537 C 630.626 605.113, 630.986 603.707, 630.739 602.413 C 630.491 601.119, 630.622 600.267, 631.030 600.519 C 631.438 600.771, 631.983 599.871, 632.241 598.519 C 632.500 597.167, 632.331 596.295, 631.867 596.582 C 631.403 596.869, 631.290 596.408, 631.616 595.558 C 631.943 594.707, 632.562 594.229, 632.993 594.496 C 633.424 594.762, 633.976 593.615, 634.221 591.947 C 634.549 589.710, 634.316 589.048, 633.333 589.426 C 631.684 590.058, 631.680 590.157, 633.500 585 C 635.334 579.803, 635.333 579.836, 633.576 577.441 C 632.229 575.606, 632.045 575.746, 630.216 580 M 503.405 580.155 C 502.962 580.870, 503.130 581.038, 503.845 580.595 C 504.998 579.883, 505.393 579, 504.559 579 C 504.316 579, 503.797 579.520, 503.405 580.155 M 592.129 585.516 C 590.850 587.383, 590.002 589.493, 590.244 590.205 C 590.486 590.917, 591.687 589.544, 592.912 587.153 C 595.655 581.800, 595.252 580.958, 592.129 585.516 M 623.524 583.925 C 623.162 585.066, 622.397 586, 621.826 586 C 621.254 586, 621.040 586.661, 621.349 587.468 C 621.659 588.275, 621.482 589.202, 620.956 589.527 C 620.430 589.852, 620 589.566, 620 588.892 C 620 588.218, 619.765 587.901, 619.479 588.188 C 619.192 588.475, 619.336 589.734, 619.799 590.986 C 620.565 593.058, 620.843 592.792, 622.890 588.034 C 624.127 585.158, 624.924 582.591, 624.661 582.328 C 624.398 582.064, 623.886 582.783, 623.524 583.925 M 364 584.011 C 364 584.567, 367.822 592.657, 372.494 601.988 C 380.313 617.606, 381.308 619.116, 385.022 621.011 L 389.056 623.069 385.847 617.285 C 378.991 604.930, 367.736 585.440, 366.770 584.250 C 365.548 582.745, 364 582.611, 364 584.011 M 520.405 586.155 C 519.962 586.870, 520.130 587.038, 520.845 586.595 C 521.998 585.883, 522.393 585, 521.559 585 C 521.316 585, 520.797 585.520, 520.405 586.155 M 612 590 C 612 590.733, 612.300 591.033, 612.667 590.667 C 613.033 590.300, 613.033 589.700, 612.667 589.333 C 612.300 588.967, 612 589.267, 612 590 M 616.385 593.929 C 616.362 597.878, 616.437 597.990, 617.645 595.814 C 618.351 594.541, 618.945 594.063, 618.965 594.750 C 618.984 595.438, 618.207 596.793, 617.239 597.761 C 616.270 598.730, 615.634 600.338, 615.826 601.334 C 616.090 602.706, 616.653 602.251, 618.150 599.458 C 619.315 597.285, 619.830 595.100, 619.404 594.136 C 619.007 593.236, 618.765 592.129, 618.866 591.676 C 618.967 591.222, 618.627 591.113, 618.110 591.432 C 617.594 591.751, 617 591.499, 616.790 590.871 C 616.581 590.244, 616.399 591.620, 616.385 593.929 M 420.500 594 C 420.840 594.550, 421.343 595, 421.618 595 C 421.893 595, 421.840 594.550, 421.500 594 C 421.160 593.450, 420.657 593, 420.382 593 C 420.107 593, 420.160 593.450, 420.500 594 M 612 595 C 612 595.733, 612.300 596.033, 612.667 595.667 C 613.033 595.300, 613.033 594.700, 612.667 594.333 C 612.300 593.967, 612 594.267, 612 595 M 614 597 C 614 597.733, 614.300 598.033, 614.667 597.667 C 615.033 597.300, 615.033 596.700, 614.667 596.333 C 614.300 595.967, 614 596.267, 614 597 M 231.548 599.406 C 240.344 603.237, 253.840 625.080, 262.055 648.781 C 263.824 653.885, 265.481 657.853, 265.735 657.598 C 266.333 657, 262.514 640.408, 259.843 632 C 255.528 618.413, 244.416 601.038, 238.788 599.076 C 237.090 598.484, 234.081 598.018, 232.101 598.039 L 228.500 598.078 231.548 599.406 M 632 603 C 632 603.733, 632.300 604.033, 632.667 603.667 C 633.033 603.300, 633.033 602.700, 632.667 602.333 C 632.300 601.967, 632 602.267, 632 603 M 710.564 609.018 C 707.050 624.467, 706.577 630.396, 707.873 642.751 C 709.931 662.367, 710.555 663.146, 711.277 647 C 711.633 639.025, 712.632 629.125, 713.497 625 C 715.418 615.838, 718.822 605.228, 720.094 604.442 C 721.956 603.291, 719.802 602, 716.021 602 L 712.160 602 710.564 609.018 M 627.079 606.583 C 627.127 607.748, 627.364 607.985, 627.683 607.188 C 627.972 606.466, 627.936 605.603, 627.604 605.271 C 627.272 604.939, 627.036 605.529, 627.079 606.583 M 259 619.309 C 259 622.056, 261.726 623.932, 268 625.504 C 274.938 627.242, 288.016 632.765, 289.235 634.471 C 289.639 635.037, 289.990 640.900, 290.015 647.500 C 290.042 654.540, 290.409 658.880, 290.902 658 C 291.763 656.467, 294.465 634.051, 293.843 633.609 C 293.654 633.475, 290.697 631.199, 287.270 628.551 C 282.388 624.778, 278.953 623.116, 271.393 620.868 C 260.534 617.640, 259 617.447, 259 619.309 M 551.374 629.500 C 551.376 635.550, 551.541 637.896, 551.740 634.713 C 551.939 631.531, 551.937 626.581, 551.736 623.713 C 551.535 620.846, 551.372 623.450, 551.374 629.500 M 696.378 628.841 C 691.414 632.437, 681.397 644.730, 681.817 646.710 C 682.488 649.870, 692.245 669.445, 692.639 668.420 C 692.867 667.826, 691.466 663.230, 689.527 658.207 C 687.587 653.185, 686 648.207, 686 647.147 C 686 646.024, 689.552 641.855, 694.500 637.172 C 702.474 629.624, 704.793 626, 701.650 626 C 700.908 626, 698.535 627.278, 696.378 628.841 M 264.284 629.298 C 264.558 630.011, 265.769 634.174, 266.975 638.548 C 271.611 655.361, 272.177 657, 273.355 657 C 274.023 657, 279.882 660.600, 286.376 665 C 297.283 672.390, 303.867 675.714, 298 670.869 C 296.625 669.733, 293.425 666.900, 290.889 664.573 L 286.278 660.342 286.671 649.062 C 287.075 637.451, 286.459 635.006, 283.128 634.994 C 282.232 634.990, 280.302 634.362, 278.837 633.598 C 276.040 632.139, 265.333 628, 264.355 628 C 264.042 628, 264.010 628.584, 264.284 629.298 M 266.500 631 C 266.840 631.550, 267.343 632, 267.618 632 C 267.893 632, 267.840 631.550, 267.500 631 C 267.160 630.450, 266.657 630, 266.382 630 C 266.107 630, 266.160 630.450, 266.500 631 M 269.543 631.931 C 268.878 633.007, 270.835 634.498, 271.733 633.600 C 272.063 633.270, 271.782 633, 271.108 633 C 270.434 633, 270.160 632.550, 270.500 632 C 270.840 631.450, 270.893 631, 270.618 631 C 270.343 631, 269.859 631.419, 269.543 631.931 M 427.699 634.801 C 428.777 637.869, 433.110 643.050, 434.091 642.444 C 434.619 642.117, 433.915 640.499, 432.526 638.848 C 431.137 637.197, 430 635.479, 430 635.030 C 430 634.581, 429.348 633.964, 428.551 633.658 C 427.524 633.264, 427.276 633.596, 427.699 634.801 M 695.391 640.589 C 691.601 644.241, 689.268 646.688, 690.206 646.028 C 692.351 644.520, 694.325 645.649, 693.703 648.028 C 693.264 649.707, 695.792 665.980, 696.639 666.927 C 696.849 667.162, 698.435 666.037, 700.163 664.427 C 701.891 662.817, 699.861 665.536, 695.653 670.468 C 688.685 678.633, 686.676 682, 688.771 682 C 689.195 682, 693.458 678.063, 698.246 673.250 C 704.597 666.865, 706.838 663.959, 706.536 662.500 C 706.308 661.400, 705.363 654.650, 704.435 647.500 C 703.506 640.350, 702.643 634.376, 702.515 634.225 C 702.387 634.073, 699.182 636.937, 695.391 640.589 M 275.500 636 C 275.840 636.550, 276.343 637, 276.618 637 C 276.893 637, 276.840 636.550, 276.500 636 C 276.160 635.450, 275.657 635, 275.382 635 C 275.107 635, 275.160 635.450, 275.500 636 M 697.323 640.696 C 694.490 641.248, 692.365 643.765, 693.649 645.049 C 694.268 645.668, 695.645 644.937, 697.494 643.007 C 699.078 641.353, 700.177 640.061, 699.937 640.136 C 699.697 640.211, 698.520 640.463, 697.323 640.696 M 421.872 648.750 C 420.629 650.336, 420.664 650.371, 422.250 649.128 C 423.916 647.821, 424.445 647, 423.622 647 C 423.415 647, 422.627 647.788, 421.872 648.750 M 441.507 648.989 C 441.157 649.555, 441.558 649.723, 442.448 649.382 C 444.180 648.717, 444.497 648, 443.059 648 C 442.541 648, 441.843 648.445, 441.507 648.989 M 691 653 C 691 653.733, 691.300 654.033, 691.667 653.667 C 692.033 653.300, 692.033 652.700, 691.667 652.333 C 691.300 651.967, 691 652.267, 691 653 M 449.721 655.714 C 449.992 656.421, 450.568 657, 451 657 C 451.432 657, 452.008 656.421, 452.279 655.714 C 452.567 654.965, 452.034 654.429, 451 654.429 C 449.966 654.429, 449.433 654.965, 449.721 655.714 M 275.767 671.750 C 279.215 688.367, 285.181 710.802, 291.190 729.750 C 295.553 743.505, 296.646 746, 298.314 746 C 300.186 746, 300.257 745.453, 299.761 734.973 C 299.271 724.634, 299.857 708.477, 301.549 685.750 C 302.143 677.756, 302.024 675.999, 300.887 675.993 C 300.124 675.989, 293.975 672.389, 287.222 667.993 C 280.469 663.597, 274.580 660, 274.136 660 C 273.692 660, 274.426 665.288, 275.767 671.750 M 616.994 662.250 C 616.990 662.938, 616.343 664.736, 615.555 666.247 C 614.253 668.742, 614.292 669.086, 615.983 669.991 C 620.609 672.467, 620.831 673.301, 620.513 686.979 L 620.210 700 622.546 700 C 623.831 700, 625.160 700.450, 625.500 701 C 625.840 701.550, 627.420 702, 629.011 702 C 631.295 702, 632.512 702.895, 634.792 706.250 C 639.448 713.101, 645 723.778, 645 725.879 C 645 726.948, 643.615 728.987, 641.923 730.411 C 640.034 732, 639.423 733, 640.340 733 C 641.161 733, 642.060 732.438, 642.338 731.750 C 642.726 730.789, 642.860 730.802, 642.921 731.809 C 642.964 732.529, 643.563 732.827, 644.250 732.472 C 644.938 732.117, 644.375 732.793, 643 733.973 L 640.500 736.120 643.629 734.597 C 646.485 733.207, 646.886 733.223, 648.245 734.787 C 649.064 735.729, 651.663 744.375, 654.021 754 C 656.379 763.625, 659.855 775.538, 661.745 780.473 C 663.635 785.408, 667.656 797.108, 670.680 806.473 C 673.704 815.838, 676.483 824.315, 676.856 825.312 C 677.261 826.394, 678.628 820.959, 680.251 811.812 C 682.903 796.860, 683.053 796.420, 686.631 793.101 C 689.736 790.222, 690.120 789.422, 689.148 787.865 C 688.516 786.854, 688 785.328, 688 784.474 C 688 783.619, 687.083 781.122, 685.961 778.924 C 684.229 775.529, 684.061 774.164, 684.846 769.848 C 685.642 765.465, 685.514 764.514, 683.910 762.910 C 682.887 761.887, 680.509 758.002, 678.624 754.275 C 676.740 750.549, 671.326 742.550, 666.594 736.500 C 648.259 713.060, 630.676 689.367, 629.488 686.500 C 628.804 684.850, 626.985 678.438, 625.445 672.250 C 622.704 661.234, 622.587 661, 619.823 661 C 618.235 661, 616.997 661.547, 616.994 662.250 M 696.181 677.718 L 685.862 687.936 690.546 699.718 C 696.655 715.082, 703.498 735.877, 705.038 743.750 C 706.138 749.373, 706.505 750, 708.697 750 C 710.559 750, 711.006 749.587, 710.590 748.250 C 710.291 747.288, 709.798 732.775, 709.496 716 C 709.042 690.833, 707.720 667.786, 706.718 667.551 C 706.598 667.523, 701.857 672.098, 696.181 677.718 M 524.472 671.859 C 519.584 674.831, 512.630 683.305, 510.745 688.585 C 508.820 693.976, 508.427 700, 510 700 C 510.550 700, 511 699.550, 511 699 C 511 698.450, 511.675 698, 512.500 698 C 513.479 698, 514 697.020, 514 695.179 C 514 690.185, 519.046 681.900, 524.227 678.387 C 526.827 676.624, 529.527 674.969, 530.227 674.708 C 531.149 674.365, 530.945 673.655, 529.488 672.133 C 527.516 670.074, 527.417 670.068, 524.472 671.859 M 564.954 673.086 C 563.712 675.407, 563.659 675.292, 566.684 676.865 C 569.383 678.268, 572.335 678.351, 571.500 677 C 570.776 675.829, 572.155 675.665, 573.594 676.750 C 574.141 677.163, 573.112 676.038, 571.309 674.250 C 567.470 670.446, 566.465 670.262, 564.954 673.086 M 519.604 679.169 C 519.888 679.628, 518.968 680.442, 517.560 680.977 C 516.152 681.512, 515 682.442, 515 683.043 C 515 683.644, 516.336 683.185, 517.970 682.022 C 521.603 679.435, 522.358 678.333, 520.500 678.333 C 519.723 678.333, 519.320 678.709, 519.604 679.169 M 514 685.909 C 515.281 686.814, 515.229 686.972, 513.643 686.985 C 512.378 686.995, 511.976 687.495, 512.382 688.552 C 512.723 689.442, 512.555 689.843, 511.989 689.493 C 511.445 689.157, 511 689.547, 511 690.359 C 511 691.172, 510.720 692.567, 510.377 693.459 C 509.974 694.509, 510.226 694.979, 511.090 694.791 C 511.825 694.631, 513.017 692.925, 513.739 691 C 515.640 685.932, 515.646 685.794, 514 685.299 C 512.667 684.898, 512.667 684.966, 514 685.909 M 580 688 C 580 688.733, 580.300 689.033, 580.667 688.667 C 581.033 688.300, 581.033 687.700, 580.667 687.333 C 580.300 686.967, 580 687.267, 580 688 M 581 691.500 C 581 693.312, 578.372 693.508, 577.662 691.750 C 577.385 691.063, 577.122 691.701, 577.079 693.168 C 576.974 696.713, 577.971 699.136, 579.217 698.366 C 579.770 698.024, 580.526 698.233, 580.896 698.832 C 581.266 699.430, 581.666 697.688, 581.784 694.960 C 581.903 692.232, 581.775 690, 581.500 690 C 581.225 690, 581 690.675, 581 691.500 M 383 694 C 381.901 694.710, 382.638 694.973, 385.750 694.985 C 388.087 694.993, 390 694.550, 390 694 C 390 692.724, 384.974 692.724, 383 694 M 513.211 702 C 513.278 703.925, 513.032 706.175, 512.665 707 C 511.855 708.817, 515.633 715.345, 517.004 714.498 C 517.580 714.141, 517.701 714.631, 517.301 715.698 C 516.724 717.238, 516.856 717.313, 518.207 716.215 C 519.508 715.158, 520.060 715.202, 521.323 716.465 C 522.167 717.309, 523.452 718.014, 524.179 718.032 C 524.905 718.049, 526.374 718.724, 527.441 719.532 C 528.509 720.339, 529.853 721, 530.428 721 C 531.003 721, 529.159 719.442, 526.331 717.537 C 520.475 713.593, 517.946 710.415, 515.091 703.411 C 513.107 698.545, 513.090 698.532, 513.211 702 M 513.624 706.539 C 512.659 709.053, 512.943 709.702, 514.122 707.675 C 514.706 706.671, 514.973 705.639, 514.715 705.382 C 514.458 705.124, 513.966 705.645, 513.624 706.539 M 569.250 714.668 C 566.362 717.666, 564 720.341, 564 720.614 C 564 721.484, 573.155 712.571, 574.132 710.750 C 575.443 708.305, 575.164 708.529, 569.250 714.668 M 514 710.378 C 514 710.585, 514.788 711.373, 515.750 712.128 C 517.336 713.371, 517.371 713.336, 516.128 711.750 C 514.821 710.084, 514 709.555, 514 710.378 M 590.334 715.250 C 589.833 715.938, 588.099 719.425, 586.482 723 C 584.865 726.575, 582.458 731.300, 581.135 733.500 C 577.608 739.364, 570.060 748, 568.461 748 C 567.700 748, 563.442 750.475, 559 753.500 C 554.558 756.525, 550.265 759, 549.461 759 C 548.340 759, 548 757.589, 548 752.941 C 548 748.911, 547.643 747.102, 546.935 747.540 C 546.350 747.902, 545.957 750.291, 546.063 752.849 C 546.169 755.407, 546.198 758.035, 546.128 758.689 C 545.938 760.451, 538.851 757.797, 529.481 752.458 C 525.179 750.006, 521.046 748, 520.297 748 C 515.797 748, 495.687 731.204, 485.667 719.078 C 482.203 714.885, 481.882 714.725, 479.506 715.997 C 478.128 716.734, 477 717.832, 477 718.437 C 477 721.640, 492.406 740.412, 503.919 751.240 C 509.719 756.693, 514.858 760.238, 524.570 765.484 C 539.872 773.749, 544.644 776, 546.860 776 C 548.947 776, 571.797 761.106, 574.621 757.904 C 581.159 750.494, 589.601 735.401, 594 723.260 C 595.839 718.183, 596.027 716.738, 595.008 715.510 C 593.485 713.674, 591.560 713.567, 590.334 715.250 M 330.597 715.927 L 323.695 716.500 321.927 722.974 C 320.955 726.535, 319.858 731.461, 319.489 733.920 L 318.819 738.391 329.778 728.206 C 335.806 722.604, 341.302 717.341, 341.991 716.510 C 343.384 714.832, 343.626 714.844, 330.597 715.927 M 416.405 717.155 C 415.962 717.870, 416.130 718.038, 416.845 717.595 C 417.998 716.883, 418.393 716, 417.559 716 C 417.316 716, 416.797 716.520, 416.405 717.155 M 519 717 C 519 717.733, 519.300 718.033, 519.667 717.667 C 520.033 717.300, 520.033 716.700, 519.667 716.333 C 519.300 715.967, 519 716.267, 519 717 M 624 718.378 C 624 718.585, 624.788 719.373, 625.750 720.128 C 627.336 721.371, 627.371 721.336, 626.128 719.750 C 624.821 718.084, 624 717.555, 624 718.378 M 522 719.490 C 522 720.175, 528.123 723.210, 528.580 722.753 C 528.797 722.536, 527.406 721.610, 525.487 720.695 C 523.569 719.781, 522 719.239, 522 719.490 M 569.500 720 C 569.840 720.550, 570.343 721, 570.618 721 C 570.893 721, 570.840 720.550, 570.500 720 C 570.160 719.450, 569.657 719, 569.382 719 C 569.107 719, 569.160 719.450, 569.500 720 M 412 724 C 411.411 725.100, 411.155 726, 411.430 726 C 411.705 726, 412.411 725.100, 413 724 C 413.589 722.900, 413.845 722, 413.570 722 C 413.295 722, 412.589 722.900, 412 724 M 364.001 724.750 C 364.001 725.163, 365.195 725.569, 366.654 725.654 C 368.552 725.764, 368.907 725.555, 367.903 724.919 C 366.181 723.829, 364 723.734, 364.001 724.750 M 618 730 C 618 730.733, 618.300 731.033, 618.667 730.667 C 619.033 730.300, 619.033 729.700, 618.667 729.333 C 618.300 728.967, 618 729.267, 618 730 M 362 731 C 362 731.733, 362.300 732.033, 362.667 731.667 C 363.033 731.300, 363.033 730.700, 362.667 730.333 C 362.300 729.967, 362 730.267, 362 731 M 361.733 734.124 C 362.412 734.808, 363.219 735.115, 363.526 734.807 C 363.834 734.499, 363.279 733.940, 362.293 733.564 C 360.868 733.022, 360.753 733.136, 361.733 734.124 M 404.405 735.155 C 403.962 735.870, 404.130 736.038, 404.845 735.595 C 405.998 734.883, 406.393 734, 405.559 734 C 405.316 734, 404.797 734.520, 404.405 735.155 M 393.333 735.667 C 393.700 736.033, 394.300 736.033, 394.667 735.667 C 395.033 735.300, 394.733 735, 394 735 C 393.267 735, 392.967 735.300, 393.333 735.667 M 341.500 751.164 C 321.335 769.794, 323.250 767.429, 325.227 771.253 C 326.150 773.039, 327.039 775.625, 327.203 777 C 327.406 778.711, 329.044 780.532, 332.395 782.771 C 335.088 784.571, 337.527 785.806, 337.817 785.516 C 339.037 784.297, 346.356 765.580, 350.142 754 C 352.390 747.125, 354.692 740.927, 355.257 740.226 C 355.823 739.525, 356.108 738.789, 355.893 738.591 C 355.677 738.393, 349.200 744.051, 341.500 751.164 M 377.333 740.667 C 377.700 741.033, 378.300 741.033, 378.667 740.667 C 379.033 740.300, 378.733 740, 378 740 C 377.267 740, 376.967 740.300, 377.333 740.667 M 488.735 749.598 C 488.331 750.002, 488 751.211, 488 752.283 C 488 753.741, 488.505 754.101, 490.001 753.710 C 491.121 753.417, 491.746 753.602, 491.420 754.130 C 491.099 754.649, 491.743 756.813, 492.851 758.938 C 493.958 761.063, 494.558 763.144, 494.182 763.561 C 493.807 763.979, 493.950 764.071, 494.500 763.765 C 495.758 763.067, 498.122 765.517, 497.190 766.554 C 496.810 766.976, 497.011 767.029, 497.636 766.671 C 498.262 766.314, 500.485 767.590, 502.577 769.507 L 506.381 772.991 508.690 770.821 C 511.062 768.593, 511.736 767.427, 510.050 768.469 C 509.022 769.104, 506.771 765.670, 507.535 764.631 C 507.791 764.284, 507.763 764.162, 507.473 764.360 C 506.642 764.928, 499 757.594, 499 756.228 C 499 755.553, 498.663 755.053, 498.250 755.118 C 495.734 755.516, 491.969 754.859, 492.436 754.104 C 493.172 752.912, 489.677 748.656, 488.735 749.598 M 586.590 755.250 C 583.419 758.688, 580.301 761.502, 579.662 761.505 C 579.023 761.507, 578.472 762.407, 578.438 763.505 C 578.404 764.602, 578.001 766.333, 577.543 767.351 C 577.001 768.553, 577.149 769.474, 577.965 769.978 C 580.195 771.356, 582.979 769.847, 584.631 766.365 C 586.230 762.995, 588 761.091, 588 762.741 C 588 763.213, 587.467 764.133, 586.817 764.783 C 586.166 765.434, 585.857 766.190, 586.131 766.464 C 586.866 767.200, 592.148 757.048, 591.541 756.066 C 590.942 755.096, 593.421 752.754, 594.210 753.543 C 594.499 753.833, 594.518 752.929, 594.251 751.535 C 593.985 750.141, 593.449 749, 593.061 749 C 592.673 749, 589.761 751.813, 586.590 755.250 M 288.448 755.145 C 281.612 759.494, 266.666 766.688, 260.294 768.696 C 257.382 769.614, 255.003 770.846, 255.006 771.433 C 255.015 773.219, 257.069 780.067, 260.165 788.634 L 263.105 796.768 271.546 793.454 C 286.414 787.617, 302 779.793, 302 778.166 C 302 776.171, 295.030 753.722, 294.108 752.748 C 293.717 752.335, 291.170 753.413, 288.448 755.145 M 394 755 C 394 755.733, 394.300 756.033, 394.667 755.667 C 395.033 755.300, 395.033 754.700, 394.667 754.333 C 394.300 753.967, 394 754.267, 394 755 M 716.462 764.250 C 717.517 781.610, 716.945 780.403, 725.269 782.816 C 729.246 783.969, 734.188 785.207, 736.250 785.567 L 740 786.223 740 775.676 C 740 762.408, 739.317 760.466, 734.322 759.544 C 732.220 759.156, 727.765 757.750, 724.422 756.419 C 721.078 755.089, 717.780 754, 717.091 754 C 716.130 754, 715.984 756.378, 716.462 764.250 M 721.750 759.749 C 720.788 759.968, 720 760.879, 720 761.773 C 720 762.976, 720.293 763.107, 721.122 762.278 C 721.739 761.661, 722.864 761.394, 723.622 761.685 C 724.380 761.976, 725 761.742, 725 761.166 C 725 759.761, 723.870 759.268, 721.750 759.749 M 288.029 760.961 C 287.220 761.473, 286.790 762.123, 287.073 762.406 C 287.847 763.181, 292 761.898, 292 760.883 C 292 759.736, 289.900 759.777, 288.029 760.961 M 472.740 764.894 C 470.121 766.431, 467.770 767.897, 467.514 768.153 C 467.258 768.409, 469.042 773.321, 471.478 779.070 C 475.525 788.618, 476.299 791.898, 480.434 817.011 C 484.510 841.772, 486.474 856.462, 491.528 900 C 492.390 907.425, 493.296 914.175, 493.541 915 C 493.786 915.825, 498.603 918.466, 504.244 920.870 C 532.651 932.973, 545.671 938.032, 547.332 937.610 C 548.339 937.354, 558.583 932.074, 570.096 925.878 C 590.027 915.149, 591.071 914.441, 591.941 911.055 C 593.525 904.885, 596.677 869.977, 599.485 827.500 C 600.981 804.869, 603.480 777.234, 604.646 770.440 C 605.113 767.717, 604.710 767.074, 600.994 764.615 C 598.696 763.094, 596.678 761.996, 596.508 762.175 C 596.338 762.354, 594.742 766.325, 592.960 771 C 588.635 782.350, 585.662 786.579, 577.966 792.325 C 572.675 796.276, 570.982 797.046, 568.626 796.575 C 566.334 796.117, 564.023 797.058, 557.276 801.195 C 551.408 804.794, 547.815 806.363, 545.589 806.300 C 543.822 806.250, 538.250 804.137, 533.208 801.604 C 525.678 797.823, 523.070 797, 518.609 797 C 513.841 797, 512.131 796.369, 504.588 791.824 C 496.186 786.762, 495.819 786.376, 487.924 774.324 C 483.484 767.546, 479.322 762.023, 478.676 762.050 C 478.029 762.078, 475.358 763.358, 472.740 764.894 M 579 763 C 579 763.733, 579.300 764.033, 579.667 763.667 C 580.033 763.300, 580.033 762.700, 579.667 762.333 C 579.300 761.967, 579 762.267, 579 763 M 737.340 766.645 C 737.925 769.200, 738.583 770.751, 738.803 770.091 C 739.387 768.338, 738.048 762, 737.093 762 C 736.645 762, 736.756 764.090, 737.340 766.645 M 257.887 770.820 C 256.791 771.282, 256.497 772.124, 256.969 773.446 C 257.629 775.296, 257.693 775.284, 258.238 773.196 C 258.554 771.988, 259.417 771.007, 260.156 771.015 C 261.275 771.028, 261.276 771.173, 260.165 771.877 C 259.430 772.343, 258.862 773.123, 258.903 773.612 C 258.943 774.100, 258.760 775.182, 258.495 776.015 C 258.231 776.848, 258.930 779.773, 260.048 782.515 C 261.214 785.375, 261.814 786.221, 261.455 784.500 C 260.284 778.893, 260.131 774, 261.126 774 C 261.672 774, 261.840 773.550, 261.500 773 C 261.160 772.450, 261.471 771.993, 262.191 771.985 C 263.142 771.974, 263.090 771.704, 262 771 C 260.293 769.897, 260.098 769.888, 257.887 770.820 M 572.658 773.675 C 572.296 774.037, 572 774.933, 572 775.667 C 572 777.156, 574.578 777.492, 575.430 776.113 C 576.111 775.012, 573.562 772.771, 572.658 773.675 M 737 774 C 737 774.733, 737.300 775.033, 737.667 774.667 C 738.033 774.300, 738.033 773.700, 737.667 773.333 C 737.300 772.967, 737 773.267, 737 774 M 511.500 775 C 511.160 775.550, 511.148 776.430, 511.473 776.956 C 512.296 778.287, 515 777.089, 515 775.393 C 515 773.794, 512.424 773.505, 511.500 775 M 259 777 C 259 777.733, 259.300 778.033, 259.667 777.667 C 260.033 777.300, 260.033 776.700, 259.667 776.333 C 259.300 775.967, 259 776.267, 259 777 M 655.459 777.067 C 655.096 777.653, 655.014 778.348, 655.276 778.610 C 655.538 778.872, 656.019 778.392, 656.345 777.543 C 657.021 775.781, 656.445 775.471, 655.459 777.067 M 353.500 778 C 353.840 778.550, 354.343 779, 354.618 779 C 354.893 779, 354.840 778.550, 354.500 778 C 354.160 777.450, 353.657 777, 353.382 777 C 353.107 777, 353.160 777.450, 353.500 778 M 738.272 781 C 738.272 783.475, 738.467 784.487, 738.706 783.250 C 738.944 782.013, 738.944 779.987, 738.706 778.750 C 738.467 777.513, 738.272 778.525, 738.272 781 M 657.031 778.500 C 657.031 779.050, 657.467 780.175, 658 781 C 658.533 781.825, 658.969 782.050, 658.969 781.500 C 658.969 780.950, 658.533 779.825, 658 779 C 657.467 778.175, 657.031 777.950, 657.031 778.500 M 365.500 786 C 365.840 786.550, 366.343 787, 366.618 787 C 366.893 787, 366.840 786.550, 366.500 786 C 366.160 785.450, 365.657 785, 365.382 785 C 365.107 785, 365.160 785.450, 365.500 786 M 546.234 791.250 C 546.374 794.413, 546.767 797, 547.108 797 C 548.070 797, 547.876 788.682, 546.874 787 C 546.295 786.028, 546.070 787.524, 546.234 791.250 M 262.490 789.500 C 262.895 790.600, 263.453 792.288, 263.730 793.250 C 264.007 794.212, 264.617 795, 265.085 795 C 266.130 795, 265.175 792.196, 263.211 789.500 L 261.754 787.500 262.490 789.500 M 420.300 789.250 C 419.440 790.594, 401.196 803, 400.080 803 C 398.110 803, 372 880.072, 372 885.886 C 372 887.194, 373.328 887.963, 377.076 888.828 C 385.521 890.778, 385.205 891.019, 388.316 880.248 C 394.052 860.388, 408.084 820.983, 415.290 804.500 C 419.695 794.424, 422.114 788, 421.505 788 C 421.282 788, 420.740 788.563, 420.300 789.250 M 661 790 C 661 790.733, 661.300 791.033, 661.667 790.667 C 662.033 790.300, 662.033 789.700, 661.667 789.333 C 661.300 788.967, 661 789.267, 661 790 M 270 792 C 269.099 792.582, 268.975 792.975, 269.691 792.985 C 270.346 792.993, 271.160 792.550, 271.500 792 C 272.267 790.758, 271.921 790.758, 270 792 M 267 793 C 267 793.733, 267.300 794.033, 267.667 793.667 C 268.033 793.300, 268.033 792.700, 267.667 792.333 C 267.300 791.967, 267 792.267, 267 793 M 339 794.261 C 339 796.454, 348.679 815.329, 349.293 814.335 C 349.886 813.375, 340.588 793, 339.556 793 C 339.250 793, 339 793.567, 339 794.261 M 663 796 C 663 796.733, 663.300 797.033, 663.667 796.667 C 664.033 796.300, 664.033 795.700, 663.667 795.333 C 663.300 794.967, 663 795.267, 663 796 M 354 798 C 354 798.733, 354.300 799.033, 354.667 798.667 C 355.033 798.300, 355.033 797.700, 354.667 797.333 C 354.300 796.967, 354 797.267, 354 798 M 493.451 799.427 L 490.401 801.831 497.149 839.165 C 500.861 859.699, 504.149 877.850, 504.456 879.500 C 504.850 881.615, 506.708 883.840, 510.757 887.043 C 518 892.772, 539.466 908.073, 543.678 910.509 L 546.857 912.347 550.595 909.495 C 553.962 906.927, 568.956 893.716, 579.572 883.964 C 584.122 879.785, 583.556 882.189, 588.027 848 C 589.142 839.475, 590.984 825.819, 592.121 817.653 L 594.188 802.805 591.407 799.903 C 588.010 796.357, 586.658 796.261, 585.201 799.459 C 584.218 801.617, 584.410 802.177, 586.771 804.035 C 590.104 806.656, 590.543 800.897, 582.508 859.921 C 581.129 870.053, 580 878.430, 580 878.537 C 580 878.767, 550.223 904.936, 547.898 906.749 C 546.547 907.803, 545.061 907.113, 538.398 902.341 C 516.853 886.906, 508 879.869, 508 878.176 C 508 876.339, 496.459 812.106, 495.480 808.500 C 495.077 807.012, 495.831 805.898, 498.427 804.150 C 501.794 801.882, 501.860 801.717, 500.343 799.400 C 498.378 796.402, 497.281 796.406, 493.451 799.427 M 699 797.381 C 699 797.590, 697.433 802.090, 695.518 807.381 C 693.603 812.671, 692.418 817, 692.885 817 C 693.578 817, 695.966 811.311, 700.756 798.250 C 701.008 797.563, 700.716 797, 700.107 797 C 699.498 797, 699 797.171, 699 797.381 M 639.220 803 C 650.444 836.073, 663 880.929, 663 887.954 C 663 890.290, 663.447 891, 664.918 891 C 668.665 891, 669.932 889.929, 669.462 887.160 C 665.488 863.759, 659.834 839.217, 654.680 823 C 652.600 816.455, 651.432 814.608, 645.504 808.500 C 641.768 804.650, 638.940 802.175, 639.220 803 M 389 815 C 389 815.733, 389.300 816.033, 389.667 815.667 C 390.033 815.300, 390.033 814.700, 389.667 814.333 C 389.300 813.967, 389 814.267, 389 815 M 387 820 C 387 820.733, 387.300 821.033, 387.667 820.667 C 388.033 820.300, 388.033 819.700, 387.667 819.333 C 387.300 818.967, 387 819.267, 387 820 M 362.079 822.583 C 362.127 823.748, 362.364 823.985, 362.683 823.188 C 362.972 822.466, 362.936 821.603, 362.604 821.271 C 362.272 820.939, 362.036 821.529, 362.079 822.583 M 334.500 826.189 L 332.500 828.259 334.619 827.165 C 335.784 826.563, 337.045 826.378, 337.421 826.755 C 337.798 827.131, 337.809 826.665, 337.446 825.720 C 337.083 824.774, 336.722 824.027, 336.643 824.059 C 336.564 824.092, 335.600 825.050, 334.500 826.189 M 363.079 826.583 C 363.127 827.748, 363.364 827.985, 363.683 827.188 C 363.972 826.466, 363.936 825.603, 363.604 825.271 C 363.272 824.939, 363.036 825.529, 363.079 826.583 M 338 828.378 C 338 828.585, 338.788 829.373, 339.750 830.128 C 341.336 831.371, 341.371 831.336, 340.128 829.750 C 338.821 828.084, 338 827.555, 338 828.378 M 673.086 829 C 673.055 829.825, 673.467 831.175, 674 832 C 675.181 833.828, 675.181 832.249, 674 829.500 C 673.433 828.181, 673.122 828.011, 673.086 829 M 732 828.867 C 732 829.758, 738.353 835, 739.433 835 C 741.125 835, 739.514 832.944, 736 830.619 C 733.800 829.163, 732 828.375, 732 828.867 M 661 830 C 661 830.733, 661.300 831.033, 661.667 830.667 C 662.033 830.300, 662.033 829.700, 661.667 829.333 C 661.300 828.967, 661 829.267, 661 830 M 306.235 831.980 C 297.838 835.791, 282.421 840.223, 277.189 840.329 C 272.555 840.424, 272.106 840.604, 273.667 841.746 C 274.885 842.636, 276.901 842.842, 279.978 842.390 C 287.750 841.250, 312 832.230, 312 830.480 C 312 829.634, 310.600 829.998, 306.235 831.980 M 364 832 C 364 832.733, 364.300 833.033, 364.667 832.667 C 365.033 832.300, 365.033 831.700, 364.667 831.333 C 364.300 830.967, 364 831.267, 364 832 M 675.232 837 C 675.232 838.925, 675.438 839.712, 675.689 838.750 C 675.941 837.788, 675.941 836.212, 675.689 835.250 C 675.438 834.288, 675.232 835.075, 675.232 837 M 345 840.941 C 345 841.459, 345.445 842.157, 345.989 842.493 C 346.555 842.843, 346.723 842.442, 346.382 841.552 C 345.717 839.820, 345 839.503, 345 840.941 M 366.079 841.583 C 366.127 842.748, 366.364 842.985, 366.683 842.188 C 366.972 841.466, 366.936 840.603, 366.604 840.271 C 366.272 839.939, 366.036 840.529, 366.079 841.583 M 333.334 842.429 C 333.636 843.215, 334.181 845.449, 334.546 847.393 C 334.911 849.338, 335.909 851.507, 336.765 852.214 C 338.128 853.340, 338.180 853.251, 337.184 851.500 C 336.558 850.400, 335.568 847.587, 334.984 845.250 C 334.401 842.913, 333.667 841, 333.354 841 C 333.042 841, 333.033 841.643, 333.334 842.429 M 367 847 C 367 847.733, 367.300 848.033, 367.667 847.667 C 368.033 847.300, 368.033 846.700, 367.667 846.333 C 367.300 845.967, 367 846.267, 367 847 M 349.405 850.155 C 348.962 850.870, 349.130 851.038, 349.845 850.595 C 350.998 849.883, 351.393 849, 350.559 849 C 350.316 849, 349.797 849.520, 349.405 850.155 M 339.333 851.667 C 339.700 852.033, 340.300 852.033, 340.667 851.667 C 341.033 851.300, 340.733 851, 340 851 C 339.267 851, 338.967 851.300, 339.333 851.667 M 342 852.378 C 342 852.585, 342.788 853.373, 343.750 854.128 C 345.336 855.371, 345.371 855.336, 344.128 853.750 C 342.821 852.084, 342 851.555, 342 852.378 M 356.762 852.707 C 358.006 852.946, 359.806 852.937, 360.762 852.687 C 361.718 852.437, 360.700 852.241, 358.500 852.252 C 356.300 852.263, 355.518 852.468, 356.762 852.707 M 363.333 852.667 C 363.700 853.033, 364.300 853.033, 364.667 852.667 C 365.033 852.300, 364.733 852, 364 852 C 363.267 852, 362.967 852.300, 363.333 852.667 M 345.507 865.989 C 345.157 866.555, 345.558 866.723, 346.448 866.382 C 348.180 865.717, 348.497 865, 347.059 865 C 346.541 865, 345.843 865.445, 345.507 865.989 M 670 867 C 670 867.733, 670.300 868.033, 670.667 867.667 C 671.033 867.300, 671.033 866.700, 670.667 866.333 C 670.300 865.967, 670 866.267, 670 867 M 341.333 878.667 C 341.700 879.033, 342.300 879.033, 342.667 878.667 C 343.033 878.300, 342.733 878, 342 878 C 341.267 878, 340.967 878.300, 341.333 878.667 M 349.333 881.667 C 349.700 882.033, 350.300 882.033, 350.667 881.667 C 351.033 881.300, 350.733 881, 350 881 C 349.267 881, 348.967 881.300, 349.333 881.667" stroke="none" fill="black" fill-rule="evenodd"/>
</svg>