<!-- Оптимизировано для шелкографии -->
          <!-- Рекомендации: одноцветная печать, плотность красок 100% -->
          <svg xmlns="http://www.w3.org/2000/svg" width="100%" height="100%" viewBox="0 0 1024 1024">
	<path d="M 451 71.646 C 419.199 73.746, 377 80.268, 377 83.083 C 377 83.591, 380.441 87.267, 384.648 91.253 C 400.915 106.668, 410.513 121.950, 419.975 147.500 C 426.282 164.531, 431.793 176.496, 437.060 184.587 L 441.022 190.674 438.037 197.259 C 435.110 203.714, 434.943 203.875, 429.539 205.446 C 422.966 207.357, 421.487 209.570, 420.024 219.692 C 418.489 230.305, 418.767 237.140, 420.843 239.839 C 422.629 242.159, 422.552 242.347, 410.768 264.524 L 398.894 286.871 400.974 295.686 C 403.678 307.141, 405.936 313, 407.648 313 C 408.405 313, 416.332 310.494, 425.262 307.431 C 445.227 300.584, 465.347 294.213, 468.296 293.805 C 470.352 293.520, 470.517 293.935, 470.749 300 C 470.986 306.202, 470.837 306.672, 467.485 310.250 C 465.554 312.312, 463.301 314, 462.480 314 C 458.431 314, 429 327.194, 429 329.009 C 429 329.427, 427.875 330.507, 426.501 331.407 C 424.021 333.033, 423.990 333.014, 422.381 328.993 C 419.505 321.805, 412.282 320.917, 400.315 326.280 C 389.527 331.115, 364.178 355.034, 350.642 373.150 C 349.142 375.158, 346.419 377.825, 344.592 379.077 C 338.043 383.565, 331.188 396.100, 327.589 410.169 C 326.276 415.301, 323.050 423.930, 320.419 429.344 C 316.360 437.699, 315.819 439.481, 316.843 441.121 C 317.864 442.756, 317.681 443.395, 315.651 445.276 C 312.780 447.937, 307.505 460.267, 308.324 462.402 C 309.648 465.853, 322.483 470.611, 333.250 471.641 C 336.962 471.996, 340 472.408, 340 472.556 C 340 472.704, 338.503 475.098, 336.674 477.876 C 334.844 480.654, 332.178 485.981, 330.748 489.713 C 323.926 507.522, 323 510.114, 323 511.396 C 323 514.009, 334.125 520, 338.978 520 C 343.424 520, 343.847 526.660, 340.294 540.714 L 338.723 546.927 336.227 544.964 C 332.705 542.193, 331.573 542.440, 325.174 547.378 C 315.545 554.808, 316.026 553.654, 312.315 578.262 C 310.471 590.493, 308.744 603.200, 308.477 606.500 C 308.210 609.800, 307.334 617, 306.529 622.500 C 304.266 637.978, 297.188 688.510, 295.956 698 C 295.208 703.753, 294.246 707.149, 292.980 708.507 C 291.690 709.890, 290.621 713.776, 289.542 721.007 C 288.680 726.778, 287.588 733.925, 287.115 736.888 C 286.279 742.127, 286.349 742.381, 289.669 746.055 L 293.082 749.833 291.628 756.167 C 290.245 762.193, 288.872 777.544, 287.432 803.115 C 286.896 812.611, 287.054 815.165, 288.297 817.115 C 289.133 818.427, 290.360 822.200, 291.023 825.500 C 292.773 834.206, 302.564 853.401, 309.708 862.133 C 322.894 878.247, 329.847 882.514, 332.306 876 C 333.254 873.490, 333.985 873, 336.785 873 C 342.132 873, 344 871.483, 344 867.140 C 344 864.827, 343.284 862.600, 342.163 861.425 C 340.379 859.556, 340.382 859.423, 342.278 856.848 L 344.231 854.196 341.551 849.271 C 340.077 846.562, 337.168 842.581, 335.088 840.423 C 330.586 835.755, 328.986 832.948, 329.040 829.816 C 329.079 827.588, 329.137 827.605, 330.584 830.274 C 331.412 831.799, 331.772 833.599, 331.384 834.274 C 330.996 834.948, 331.052 835.162, 331.509 834.748 C 331.965 834.334, 333.199 834.776, 334.253 835.729 C 335.435 836.798, 337.650 837.423, 340.041 837.360 C 342.171 837.304, 343.843 837.538, 343.757 837.879 C 343.671 838.221, 343.940 841.733, 344.354 845.684 C 345.205 853.795, 347.376 857.484, 351.879 858.473 C 354.408 859.029, 354.799 859.635, 355.308 863.800 C 355.624 866.385, 357.263 872.956, 358.951 878.403 C 360.638 883.850, 362.299 890.825, 362.642 893.903 C 362.985 896.981, 364.331 902.165, 365.633 905.422 C 368.578 912.792, 368.649 912.196, 364.572 914.391 C 356.765 918.596, 353.863 936.212, 357.801 955.500 C 359.708 964.842, 370.520 1003.711, 375.117 1017.750 L 377.163 1024 430.014 1024 C 479.482 1024, 482.899 1023.888, 483.391 1022.250 C 484.861 1017.356, 488 999.700, 487.996 996.343 C 487.994 994.175, 487.058 990.975, 485.849 989 C 482.168 982.991, 479.890 978.774, 480.201 978.544 C 481.297 977.735, 505.548 964.605, 510.100 962.356 L 515.699 959.589 516.350 941.634 C 516.707 931.759, 517 920.152, 517 915.840 L 517 908 521.765 908 L 526.531 908 528.242 912.819 C 529.184 915.470, 532.893 922.532, 536.484 928.512 C 540.870 935.814, 542.684 939.716, 542.007 940.393 C 539.086 943.314, 542.709 959.984, 549.600 975.329 C 553.630 984.302, 553.594 984.063, 552.599 995.500 C 551.910 1003.415, 551.949 1003.606, 556.289 1013.500 L 560.675 1023.500 620.443 1023.765 L 680.211 1024.030 679.856 1000.679 L 679.500 977.328 676.509 973.012 C 674.864 970.638, 671.601 967.094, 669.259 965.136 L 665 961.576 665 952.394 C 665 941.811, 663.334 924.008, 662.020 920.552 C 661.526 919.254, 660.208 917.340, 659.091 916.299 C 657.244 914.579, 657.124 913.681, 657.779 906.453 L 658.500 898.500 662.620 897.950 C 667.942 897.240, 669.535 896.133, 681.366 884.928 L 691.232 875.585 694.366 879.117 C 696.090 881.059, 704.700 891.155, 713.500 901.552 C 743.354 936.824, 744.508 938, 749.258 938 C 757.835 938, 767 927.953, 767 918.550 C 767 912.272, 767.686 913.258, 743.536 884.826 C 707.737 842.679, 711.015 846.922, 712.449 844.585 C 713.152 843.438, 714.517 839.575, 715.481 836 C 716.445 832.425, 718.120 828.251, 719.203 826.725 C 720.987 824.211, 721.116 822.845, 720.574 812.225 C 720.246 805.776, 720.319 792.933, 720.738 783.684 C 721.157 774.435, 721.136 765.886, 720.690 764.686 C 719.057 760.282, 720.877 753.293, 723.995 752.002 C 727.407 750.589, 727.599 749.899, 729.568 732.015 C 731.082 718.259, 731.072 717.907, 729.113 715.417 C 728.012 714.017, 727.303 712.339, 727.536 711.686 C 728.006 710.371, 735.381 658.398, 739.411 628 C 742.566 604.198, 744.621 586.577, 746.203 569.764 L 747.401 557.028 744.451 553.923 C 738.747 547.921, 723.950 536.785, 721.488 536.643 C 718.462 536.467, 718.109 535.597, 717.330 526.377 C 716.771 519.761, 716.895 518.989, 718.605 518.443 C 719.647 518.110, 723.313 516.698, 726.750 515.306 C 733.984 512.377, 734.053 512.143, 730.633 502.307 C 729.331 498.563, 727.462 493.025, 726.481 490 C 725.499 486.975, 723.189 481.413, 721.348 477.640 C 719.507 473.867, 718 470.662, 718 470.518 C 718 470.374, 719.913 469.961, 722.250 469.600 C 728.509 468.635, 741.633 464.118, 744.188 462.049 L 746.407 460.252 743.561 453.556 C 741.996 449.873, 739.637 445.271, 738.319 443.329 C 736.458 440.586, 736.180 439.488, 737.073 438.412 C 738.701 436.451, 737.671 433.348, 732.987 426.101 C 730.561 422.348, 728.517 417.706, 727.943 414.646 C 726.544 407.188, 722.113 392.120, 720.275 388.565 C 718.309 384.763, 683.450 349.326, 672.157 339.649 C 653.094 323.313, 649.268 320.790, 639.500 318.109 C 630.720 315.699, 621.574 318.786, 618.987 325.032 C 618.311 326.664, 617.630 328, 617.473 328 C 617.317 328, 610.589 324.809, 602.522 320.910 C 591.426 315.545, 587.238 313.975, 585.317 314.457 C 580.110 315.763, 572.014 312.982, 569.519 309.030 C 568.267 307.047, 565.615 304.316, 563.626 302.962 C 560.131 300.583, 556.213 294.453, 557.418 293.249 C 558.295 292.372, 575.728 297.413, 600.378 305.671 C 612.411 309.702, 622.884 313, 623.653 313 C 625.286 313, 626.099 311.036, 630.163 297.260 L 633.183 287.020 629.424 280.260 C 627.356 276.542, 620.364 264.694, 613.887 253.930 L 602.111 234.361 601.063 224.145 C 599.623 210.116, 597.091 205.858, 589.318 204.400 C 586.471 203.866, 585.509 202.756, 581.561 195.454 L 577.053 187.117 580.840 180.809 C 585.048 173.799, 589.472 163.708, 596.540 145 C 605.597 121.024, 613.359 108.582, 628.829 93.243 C 634.559 87.562, 638.976 82.642, 638.645 82.311 C 635.888 79.555, 590.053 72.743, 565.250 71.404 C 551.299 70.651, 551.293 70.656, 555.934 77.912 C 571.096 101.615, 574.020 123.876, 565.797 153 C 563.044 162.753, 562.756 162.965, 559.591 157.565 C 556.347 152.029, 554.281 150.006, 546.500 144.742 C 543.200 142.510, 539.258 139.215, 537.741 137.419 C 536.224 135.624, 533.642 133.861, 532.003 133.501 C 530.365 133.141, 528.149 131.733, 527.078 130.372 C 524.536 127.140, 520.212 125.983, 511.007 126.073 C 498.708 126.193, 493.231 127.313, 490.193 130.331 C 486.548 133.953, 479.364 139.952, 474.500 143.438 C 466.674 149.045, 462.733 153.571, 458.966 161.277 L 455.164 169.055 453.056 163.419 C 441.253 131.875, 442.697 108.465, 458.091 81.759 C 464.588 70.488, 464.763 70.738, 451 71.646 M 559.284 75.597 C 559.953 76.200, 567.250 77.245, 575.500 77.919 C 583.750 78.593, 597.025 80.011, 605 81.069 C 627.095 84.002, 628.670 84.151, 627 83.153 C 624.590 81.714, 615.766 79.898, 610.177 79.691 C 607.338 79.586, 605.012 79.226, 605.008 78.892 C 604.994 77.844, 587.322 75.812, 572.390 75.142 C 561.969 74.675, 558.400 74.799, 559.284 75.597 M 431.500 76.118 C 410.981 78.049, 383.842 82.919, 395.152 82.640 C 398.261 82.563, 400.554 82.093, 400.248 81.595 C 399.942 81.098, 400.243 81.032, 400.917 81.449 C 402.302 82.305, 422.042 80.116, 423.342 78.962 C 423.806 78.551, 425.831 78.432, 427.842 78.697 C 432.609 79.325, 453.585 77.343, 455.792 76.057 C 457.894 74.831, 444.816 74.864, 431.500 76.118 M 385.750 83.662 C 386.438 83.940, 387.563 83.940, 388.250 83.662 C 388.938 83.385, 388.375 83.158, 387 83.158 C 385.625 83.158, 385.063 83.385, 385.750 83.662 M 497.121 130.002 C 495.262 130.441, 493.373 131.397, 492.922 132.126 C 491.686 134.126, 485.998 155.174, 485.999 157.743 L 486 159.987 488.547 157.743 C 489.948 156.510, 495.103 152.967, 500.003 149.872 C 504.902 146.777, 508.594 143.903, 508.206 143.487 C 507.817 143.070, 508.512 143.256, 509.750 143.900 C 510.988 144.544, 512 145.306, 512 145.594 C 512 145.882, 511.438 145.827, 510.750 145.472 C 510.063 145.117, 510.612 145.730, 511.972 146.835 C 513.332 147.940, 514.778 148.637, 515.187 148.384 C 516.353 147.664, 523.414 152.717, 525.854 156.017 C 528.479 159.566, 529.844 159.849, 529.402 156.750 C 527.029 140.096, 524.795 131.126, 522.687 129.786 C 521.142 128.803, 501.496 128.969, 497.121 130.002 M 516 149.364 C 516 149.639, 517.350 150.825, 519 152 C 520.650 153.175, 522 153.911, 522 153.636 C 522 153.361, 520.650 152.175, 519 151 C 517.350 149.825, 516 149.089, 516 149.364 M 552.695 213.140 C 550.528 214.366, 549.194 217.624, 547.838 225 C 546.520 232.172, 543.917 234.662, 531.130 240.984 C 525.550 243.743, 520.722 246, 520.401 246 C 520.080 246, 517.185 247.847, 513.967 250.105 L 508.115 254.209 504.897 251.202 C 503.128 249.548, 499.839 247.301, 497.590 246.210 C 495.340 245.118, 489.511 242.302, 484.635 239.952 C 473.330 234.502, 470.400 232.031, 469.578 227.256 C 468.179 219.128, 467.798 218.098, 465.681 216.711 L 463.489 215.274 464.073 223.222 C 464.456 228.434, 465.146 231.500, 466.078 232.130 C 466.860 232.657, 473.350 236.054, 480.500 239.677 C 491.382 245.192, 498.325 249.394, 506.479 255.401 C 507.285 255.995, 509.201 255.271, 512.101 253.278 C 514.520 251.615, 523.250 246.748, 531.500 242.463 C 555.087 230.213, 553.698 231.406, 554.514 222.698 C 555.391 213.331, 555.096 211.781, 552.695 213.140 M 551.564 229.707 C 551.022 231.132, 551.136 231.247, 552.124 230.267 C 552.808 229.588, 553.115 228.781, 552.807 228.474 C 552.499 228.166, 551.940 228.721, 551.564 229.707 M 553.200 238.200 C 552.540 238.860, 552 239.903, 552 240.518 C 552 248.307, 545.421 257.766, 535.931 263.624 C 529.749 267.439, 527.752 270, 530.960 270 C 532.003 270, 533.452 269.432, 534.179 268.737 C 534.905 268.042, 536.850 266.610, 538.500 265.553 C 548.038 259.447, 553.302 251.742, 554.595 241.996 C 555.295 236.721, 555.129 236.271, 553.200 238.200 M 464 239.642 C 464 246.125, 468.376 255.535, 473.845 260.812 C 482.923 269.571, 489 272.853, 489 268.997 C 489 268.510, 485.585 265.542, 481.412 262.401 C 472.793 255.914, 469.847 251.964, 467.500 243.750 C 465.951 238.325, 464 236.035, 464 239.642 M 544 238.699 C 540.128 240.094, 520.887 250.090, 515.798 253.348 C 508.581 257.970, 506.859 257.923, 499.500 252.899 C 491.934 247.734, 474.204 238.756, 473.017 239.490 C 470.300 241.169, 476.135 250.798, 482.184 254.616 C 494.787 262.572, 499.810 264.200, 509.770 263.556 C 527.690 262.398, 543.837 252.351, 546.425 240.750 C 547.043 237.976, 546.733 237.713, 544 238.699 M 502.929 266.976 C 500.964 268.015, 498.714 269.639, 497.929 270.587 C 496.586 272.205, 496.682 272.216, 499.500 270.764 C 503.359 268.776, 514.796 268.663, 518.483 270.576 C 523.374 273.113, 522.638 272.037, 517.046 268.474 C 510.895 264.556, 508.074 264.256, 502.929 266.976 M 645.250 333.312 C 641.813 334.433, 639 335.915, 639 336.605 C 639 337.567, 639.760 337.618, 642.250 336.826 C 644.038 336.257, 648.553 335.029, 652.285 334.098 C 656.017 333.166, 658.754 332.088, 658.368 331.702 C 657.181 330.515, 651.801 331.175, 645.250 333.312 M 654.191 337.946 C 642.382 341.322, 640.273 342.681, 639.590 347.358 C 639.257 349.636, 639.190 352.525, 639.440 353.777 C 639.732 355.236, 639.509 355.814, 638.818 355.388 C 638.183 354.995, 637.948 355.293, 638.245 356.111 C 638.523 356.875, 639.256 357.387, 639.875 357.250 C 640.494 357.113, 641 357.402, 641 357.893 C 641 360.223, 644.691 359.717, 650.335 356.613 C 657.666 352.581, 661.864 351.169, 671.184 349.599 L 678.147 348.426 670.824 342.231 C 662.687 335.348, 662.999 335.428, 654.191 337.946 M 376.091 348.517 C 372.414 352.506, 372.124 353.195, 373.069 355.682 C 375.043 360.874, 375.843 361.215, 380.254 358.747 C 384.983 356.101, 387.034 353.294, 387.955 348.209 L 388.627 344.500 384.393 344.302 C 380.560 344.123, 379.773 344.522, 376.091 348.517 M 528.834 361.395 C 522.050 364.911, 511.550 369.940, 505.500 372.572 L 494.500 377.357 479.500 377.136 C 461.953 376.877, 461.468 376.674, 449.914 364.771 C 442.098 356.719, 441.373 356.546, 432.028 360.485 C 418.907 366.015, 415.688 369.126, 405.760 385.878 C 396.875 400.870, 393.795 410.701, 396.092 416.742 C 396.640 418.184, 396.577 419, 395.916 419 C 395.347 419, 395.165 419.457, 395.510 420.016 C 395.856 420.575, 396.557 420.774, 397.069 420.457 C 397.581 420.141, 398 420.400, 398 421.033 C 398 421.666, 398.900 423.329, 400 424.727 C 401.100 426.126, 402 428.279, 402 429.512 C 402 430.746, 402.761 432.373, 403.692 433.128 C 404.656 433.909, 405.079 433.992, 404.676 433.319 C 404.286 432.670, 404.425 431.856, 404.984 431.510 C 405.543 431.165, 405.993 430.346, 405.985 429.691 C 405.975 428.975, 405.582 429.099, 405 430 C 404.418 430.901, 404.025 431.025, 404.015 430.309 C 404.007 429.654, 404.396 428.873, 404.879 428.575 C 405.363 428.276, 406.016 427.012, 406.330 425.766 C 406.861 423.658, 406.805 423.627, 405.540 425.319 C 404.232 427.066, 404.154 427.060, 403.555 425.174 C 402.983 423.373, 405.241 415.917, 407.100 413.467 C 407.532 412.899, 408.375 411.145, 408.974 409.568 C 409.975 406.935, 409.926 406.816, 408.368 408.101 C 406.819 409.380, 406.777 409.304, 407.883 407.229 C 408.548 405.980, 408.777 404.448, 408.392 403.825 C 408.006 403.201, 408.098 402.902, 408.595 403.160 C 409.093 403.418, 410.496 402.587, 411.714 401.315 C 412.932 400.042, 413.457 399, 412.881 399 C 412.305 399, 412.040 398.438, 412.292 397.750 C 412.544 397.063, 413.208 396.596, 413.768 396.714 C 415.082 396.991, 416.098 393.179, 414.906 392.442 C 414.408 392.134, 413.964 392.696, 413.921 393.691 C 413.878 394.686, 413.621 394.954, 413.350 394.288 C 413.080 393.621, 413.327 392.271, 413.899 391.288 C 414.471 390.304, 414.953 390.063, 414.970 390.750 C 415.012 392.513, 416.669 392.306, 417.382 390.448 C 417.771 389.434, 417.575 389.144, 416.819 389.612 C 416.045 390.090, 415.872 389.775, 416.299 388.664 C 416.650 387.749, 416.501 387, 415.969 387 C 414.073 387, 414.947 378.204, 417.226 374.341 C 421.832 366.535, 431 360.912, 433.515 364.352 C 434.166 365.241, 435.047 365.638, 435.473 365.234 C 435.900 364.831, 435.937 365.512, 435.557 366.750 C 435.139 368.110, 435.287 369, 435.933 369 C 436.520 369, 437 368.167, 437 367.149 C 437 364.342, 439.070 359, 440.157 359 C 440.685 359, 440.847 359.439, 440.515 359.976 C 439.161 362.166, 436.962 384.827, 437.570 390.323 C 438.113 395.239, 438.773 396.706, 441.805 399.738 C 446.053 403.986, 462.774 415, 464.975 415 C 468.712 415, 504.635 401.020, 515 395.531 C 518.422 393.719, 524.517 385.597, 533.899 370.345 C 538.825 362.337, 542.498 357.392, 543.651 357.213 C 545.350 356.950, 545.362 357.012, 543.792 357.990 C 542.756 358.634, 542.331 359.698, 542.711 360.690 C 543.125 361.767, 542.949 362.087, 542.199 361.623 C 541.489 361.184, 540.807 361.971, 540.391 363.709 C 540.024 365.244, 539.224 367.149, 538.612 367.942 C 537.765 369.041, 537.797 369.205, 538.750 368.633 C 539.647 368.094, 540 368.793, 540 371.108 C 540 375.242, 540.710 374.551, 541.139 370 C 541.745 363.564, 551.218 359.662, 556.779 363.558 C 558.003 364.415, 559.565 364.793, 560.252 364.398 C 560.938 364.003, 561.162 364.052, 560.748 364.509 C 560.334 364.965, 560.703 366.119, 561.567 367.074 C 563.516 369.227, 566.409 378.371, 564.833 377.397 C 564.195 377.003, 563.928 377.284, 564.191 378.074 C 564.439 378.818, 563.598 380.395, 562.321 381.578 C 561.045 382.761, 560 384.192, 560 384.758 C 560 385.323, 559.325 386.045, 558.500 386.362 C 557.675 386.678, 557 386.501, 557 385.969 C 557 385.436, 557.525 385, 558.167 385 C 558.808 385, 559.126 384.793, 558.873 384.540 C 558.167 383.834, 554 385.125, 554 386.049 C 554 386.498, 554.900 387.151, 556 387.500 C 557.100 387.849, 558 388.570, 558 389.103 C 558 389.692, 557.218 389.652, 556 389 C 554.064 387.964, 554.006 388.212, 554.199 396.715 L 554.397 405.500 554.743 398.250 C 555.032 392.179, 555.365 391.013, 556.794 391.079 C 557.836 391.127, 558.014 391.354, 557.250 391.662 C 556.563 391.940, 556.032 393.367, 556.070 394.833 C 556.133 397.222, 556.230 397.292, 557 395.500 C 557.832 393.563, 557.862 393.569, 557.930 395.667 C 557.968 396.858, 557.522 397.993, 556.938 398.187 C 556.208 398.431, 556.173 400.096, 556.827 403.521 C 557.656 407.868, 557.791 408.067, 557.888 405.083 C 557.950 403.204, 558.243 401.910, 558.541 402.207 C 559.306 402.973, 557.869 416.037, 557.073 415.545 C 556.713 415.323, 556.605 416.745, 556.834 418.707 C 557.143 421.354, 556.933 422.076, 556.016 421.510 C 555.076 420.929, 554.943 421.706, 555.461 424.768 C 556.048 428.246, 555.831 429.005, 553.848 430.394 C 550.509 432.732, 552.679 432.362, 556.632 429.918 C 560.105 427.772, 561.147 426.346, 558.500 427.362 C 557.675 427.678, 557 427.501, 557 426.969 C 557 426.436, 557.702 426, 558.559 426 C 559.416 426, 559.835 425.543, 559.490 424.984 C 559.144 424.425, 558.448 424.223, 557.942 424.536 C 557.437 424.848, 557.299 424.385, 557.636 423.507 C 558.152 422.162, 558.493 422.273, 559.793 424.205 C 560.642 425.467, 561.456 426.658, 561.602 426.850 C 561.748 427.043, 562.395 426.874, 563.040 426.475 C 563.912 425.936, 563.865 425.501, 562.857 424.781 C 561.846 424.058, 561.973 423.965, 563.355 424.414 C 565.396 425.078, 575.265 419.576, 578.551 415.942 C 582.133 411.981, 580.629 380.985, 576.464 372.931 C 573.669 367.525, 556.785 358.564, 543.834 355.612 C 541.785 355.145, 538.314 356.483, 528.834 361.395 M 547.250 367.639 C 542.938 369.460, 548.579 378.917, 554 378.953 C 559.250 378.988, 560.815 375.510, 557.662 370.815 C 555.468 367.548, 550.820 366.130, 547.250 367.639 M 422.383 372.321 C 420.288 374.812, 419.049 380, 420.550 380 C 423.453 380, 430.132 373.710, 430.598 370.536 C 430.969 368.002, 424.909 369.319, 422.383 372.321 M 435.079 373.583 C 435.127 374.748, 435.364 374.985, 435.683 374.188 C 435.972 373.466, 435.936 372.603, 435.604 372.271 C 435.272 371.939, 435.036 372.529, 435.079 373.583 M 433.564 376.293 C 433.940 377.279, 434.499 377.834, 434.807 377.526 C 435.115 377.219, 434.808 376.412, 434.124 375.733 C 433.136 374.753, 433.022 374.868, 433.564 376.293 M 434.079 384.583 C 434.127 385.748, 434.364 385.985, 434.683 385.188 C 434.972 384.466, 434.936 383.603, 434.604 383.271 C 434.272 382.939, 434.036 383.529, 434.079 384.583 M 698.042 384.450 C 695.211 387.861, 698.426 395.989, 704.358 400.418 C 709.088 403.949, 714.873 398.754, 712.420 393.177 C 712.015 392.255, 711.718 391.270, 711.761 390.990 C 711.805 390.709, 710.620 388.985, 709.129 387.158 C 705.939 383.249, 700.201 381.848, 698.042 384.450 M 416 385.378 C 416 385.585, 416.675 386.315, 417.500 387 C 418.729 388.020, 419 387.951, 419 386.622 C 419 385.730, 418.325 385, 417.500 385 C 416.675 385, 416 385.170, 416 385.378 M 549 386 C 550.958 387.266, 552.282 387.266, 551.500 386 C 551.160 385.450, 550.121 385.007, 549.191 385.015 C 547.734 385.029, 547.707 385.165, 549 386 M 550.500 389 C 550.840 389.550, 551.316 390, 551.559 390 C 551.802 390, 552 389.550, 552 389 C 552 388.450, 551.523 388, 550.941 388 C 550.359 388, 550.160 388.450, 550.500 389 M 410.713 394.012 C 411.131 395.609, 410.961 396.094, 410.158 395.597 C 409.521 395.204, 409 395.332, 409 395.882 C 409 396.432, 409.418 397.140, 409.928 397.456 C 411.273 398.286, 412.394 393.994, 411.155 392.755 C 410.431 392.031, 410.296 392.415, 410.713 394.012 M 334.590 398.066 C 333.696 400.302, 333.223 402.552, 333.541 403.066 C 333.858 403.580, 333.641 404, 333.059 404 C 332.477 404, 332 404.505, 332 405.122 C 332 405.919, 332.419 405.897, 333.441 405.049 C 334.233 404.392, 334.628 403.193, 334.318 402.386 C 334.008 401.579, 334.147 400.990, 334.627 401.078 C 336.738 401.463, 337.148 400.881, 335.872 399.308 C 335.091 398.344, 335.008 397.921, 335.681 398.324 C 336.330 398.714, 337.187 398.506, 337.585 397.862 C 338.059 397.095, 337.874 396.960, 337.047 397.471 C 336.119 398.044, 335.964 397.688, 336.460 396.125 C 337.633 392.430, 336.286 393.828, 334.590 398.066 M 416.123 397.629 C 415.464 399.075, 415.167 400.500, 415.463 400.796 C 415.758 401.091, 416 400.782, 416 400.108 C 416 399.434, 416.337 399.090, 416.750 399.345 C 417.163 399.600, 417.565 398.726, 417.644 397.404 C 417.827 394.352, 417.601 394.385, 416.123 397.629 M 718.926 399.250 C 718.885 399.387, 718.647 400.616, 718.397 401.981 C 717.957 404.382, 717.990 404.398, 719.439 402.481 C 721.201 400.150, 721.386 399, 720 399 C 719.450 399, 718.967 399.113, 718.926 399.250 M 558.374 416.467 C 558.065 417.274, 558.004 418.511, 558.240 419.217 C 558.476 419.923, 558.906 419.262, 559.196 417.750 C 559.762 414.797, 559.295 414.068, 558.374 416.467 M 553 425.718 C 553 426.333, 552.688 427.661, 552.306 428.668 C 551.636 430.438, 551.674 430.438, 553.442 428.686 C 554.807 427.332, 554.983 426.583, 554.136 425.736 C 553.309 424.909, 553 424.904, 553 425.718 M 548.985 427.691 C 548.972 429.225, 548.822 429.272, 548 428 C 547.220 426.793, 547.028 426.951, 547.015 428.809 C 547.007 430.097, 547.442 430.845, 548 430.500 C 548.550 430.160, 549 430.359, 549 430.941 C 549 431.523, 549.450 432, 550 432 C 550.550 432, 551 430.902, 551 429.559 C 551 428.216, 550.550 426.840, 550 426.500 C 549.450 426.160, 548.993 426.696, 548.985 427.691 M 407.158 429 C 407.158 430.375, 407.385 430.938, 407.662 430.250 C 407.940 429.563, 407.940 428.438, 407.662 427.750 C 407.385 427.063, 407.158 427.625, 407.158 429 M 413.333 441.597 C 413.333 442.534, 413.705 442.659, 414.509 441.993 C 415.155 441.456, 415.868 441.126, 416.092 441.259 C 416.316 441.391, 416.374 441.299, 416.221 441.054 C 415.530 439.951, 413.333 440.364, 413.333 441.597 M 418.566 441.577 C 416.226 443.916, 416.986 446.500, 420.014 446.500 C 422.094 446.500, 422.500 446.023, 422.500 443.583 C 422.500 440.109, 420.867 439.276, 418.566 441.577 M 513.667 440.667 C 512.673 441.661, 512.861 446.796, 513.916 447.448 C 515.563 448.466, 520 446.115, 520 444.225 C 520 440.999, 515.732 438.601, 513.667 440.667 M 728.459 445.067 C 728.096 445.653, 728.014 446.348, 728.276 446.610 C 728.538 446.872, 729.019 446.392, 729.345 445.543 C 730.021 443.781, 729.445 443.471, 728.459 445.067 M 316.667 447.667 C 316.300 448.033, 316 448.798, 316 449.367 C 316 449.993, 316.466 449.934, 317.183 449.217 C 317.834 448.566, 318.134 447.801, 317.850 447.517 C 317.566 447.233, 317.033 447.300, 316.667 447.667 M 319 448.167 C 319 448.625, 319.423 449, 319.941 449 C 320.459 449, 321.114 448.625, 321.397 448.167 C 321.680 447.708, 321.257 447.333, 320.456 447.333 C 319.655 447.333, 319 447.708, 319 448.167 M 724.813 447.683 C 725.534 447.972, 726.397 447.936, 726.729 447.604 C 727.061 447.272, 726.471 447.036, 725.417 447.079 C 724.252 447.127, 724.015 447.364, 724.813 447.683 M 645.957 454.090 C 644.784 456.290, 644.817 456.380, 646.336 455.128 C 648.430 453.400, 648.520 454.337, 646.459 456.398 C 644.560 458.297, 648.192 468.247, 650.465 467.375 C 651.747 466.883, 652.979 468.828, 653.673 472.439 C 654.188 475.122, 654.835 475.565, 656.217 474.183 C 656.925 473.475, 656.987 473, 656.373 473 C 655.791 473, 655.546 471.640, 655.808 469.858 C 656.149 467.532, 655.946 466.915, 655.027 467.483 C 654.120 468.044, 653.947 467.610, 654.384 465.875 C 654.712 464.569, 654.722 464.065, 654.405 464.756 C 653.438 466.866, 652.109 465.131, 652.603 462.404 C 652.892 460.813, 652.680 460.080, 652.046 460.472 C 651.460 460.833, 651.257 460.495, 651.569 459.681 C 651.869 458.898, 651.497 457.637, 650.743 456.879 C 649.988 456.121, 648.891 454.641, 648.306 453.590 C 647.290 451.766, 647.184 451.789, 645.957 454.090 M 364.260 459.485 C 363.478 460.373, 363.386 461.120, 364.010 461.506 C 364.554 461.843, 365 461.641, 365 461.059 C 365 460.477, 365.506 460, 366.125 460 C 366.843 460, 367.032 461.092, 366.646 463.020 C 366.146 465.519, 366.274 465.823, 367.387 464.784 C 368.379 463.857, 368.479 462.803, 367.768 460.764 C 366.689 457.669, 366.060 457.440, 364.260 459.485 M 650.079 463.583 C 650.127 464.748, 650.364 464.985, 650.683 464.188 C 650.972 463.466, 650.936 462.603, 650.604 462.271 C 650.272 461.939, 650.036 462.529, 650.079 463.583 M 430.392 465.420 C 429.633 467.399, 432.422 478.335, 434.621 482 L 436.121 484.500 435.598 481.500 C 434.426 474.778, 432.099 464.766, 431.590 464.257 C 431.292 463.958, 430.752 464.482, 430.392 465.420 M 483.472 473.038 C 479.771 478.009, 477.002 482.336, 477.320 482.653 C 478.011 483.344, 481.427 479.576, 487.206 471.750 C 489.541 468.587, 491.827 466, 492.285 466 C 492.743 466, 492.840 465.550, 492.500 465 C 491.298 463.055, 490.131 464.094, 483.472 473.038 M 361.624 467.539 C 360.659 470.053, 360.943 470.702, 362.122 468.675 C 362.706 467.671, 362.973 466.639, 362.715 466.382 C 362.458 466.124, 361.966 466.645, 361.624 467.539 M 364.667 467.667 C 363.711 468.622, 363.845 470, 364.893 470 C 365.384 470, 366.045 469.325, 366.362 468.500 C 366.947 466.976, 365.881 466.452, 364.667 467.667 M 650 470 C 650 470.550, 650.450 471, 651 471 C 651.550 471, 652 470.550, 652 470 C 652 469.450, 651.550 469, 651 469 C 650.450 469, 650 469.450, 650 470 M 359.459 472.067 C 359.096 472.653, 359.014 473.348, 359.276 473.610 C 359.538 473.872, 360.019 473.392, 360.345 472.543 C 361.021 470.781, 360.445 470.471, 359.459 472.067 M 361.031 473.500 C 361.031 474.050, 361.467 475.175, 362 476 C 362.533 476.825, 362.969 477.050, 362.969 476.500 C 362.969 475.950, 362.533 474.825, 362 474 C 361.467 473.175, 361.031 472.950, 361.031 473.500 M 354.459 482.067 C 354.096 482.653, 354.014 483.348, 354.276 483.610 C 354.538 483.872, 355.019 483.392, 355.345 482.543 C 356.021 480.781, 355.445 480.471, 354.459 482.067 M 663.013 492.029 C 664.841 493.185, 666 493.256, 666 492.213 C 666 491.780, 664.993 491.350, 663.763 491.257 C 662.004 491.125, 661.844 491.290, 663.013 492.029 M 540 503 C 538.793 503.780, 538.951 503.972, 540.809 503.985 C 542.097 503.993, 542.845 503.558, 542.500 503 C 541.757 501.798, 541.861 501.798, 540 503 M 407.486 504.023 C 405.850 506.669, 410.351 526.950, 412.752 527.751 C 415.189 528.563, 415.241 522.732, 412.881 513.224 C 410.627 504.140, 409.062 501.472, 407.486 504.023 M 518.078 511.456 C 513.149 521.830, 512.406 524.580, 514.011 526.513 C 516.657 529.701, 518.494 528.110, 523.274 518.487 C 528.663 507.639, 528.832 506.696, 525.777 504.557 C 522.485 502.251, 522.426 502.304, 518.078 511.456 M 716.103 507.493 C 706.190 510.098, 706.920 511.662, 717.290 510.039 C 728.168 508.336, 729 508.083, 729 506.481 C 729 504.556, 726.542 504.749, 716.103 507.493 M 326.631 506.702 C 325.376 507.958, 326.058 508.825, 329.149 509.902 C 333.254 511.333, 333.490 511.295, 331.955 509.445 C 330.233 507.371, 327.415 505.919, 326.631 506.702 M 494.750 530.689 C 493.788 530.941, 493 531.518, 493 531.972 C 493 532.881, 480.281 550.899, 478.508 552.500 C 477.900 553.050, 476.809 554.400, 476.084 555.500 C 475.359 556.600, 477.296 554.800, 480.387 551.500 C 487.041 544.398, 498.477 529.950, 497.314 530.116 C 496.866 530.180, 495.712 530.438, 494.750 530.689 M 424 532.784 C 424 533.435, 425.837 538.138, 428.081 543.234 C 430.326 548.330, 432.403 553.288, 432.698 554.250 C 432.992 555.212, 433.591 556, 434.028 556 C 434.466 556, 433.253 552.288, 431.333 547.750 C 429.413 543.212, 427.366 538.150, 426.785 536.500 C 425.577 533.075, 424 530.970, 424 532.784 M 720.313 542.250 C 717.782 545.048, 708.864 558.392, 706.647 562.700 C 703.459 568.894, 705.156 570.018, 708.976 564.243 C 715.039 555.075, 723.451 544.695, 725.185 544.241 C 726.972 543.774, 726.984 543.639, 725.385 541.873 C 723.225 539.486, 722.784 539.519, 720.313 542.250 M 640.647 554.186 C 640.291 559.203, 640 567.452, 640 572.517 C 640 577.583, 639.561 584.044, 639.024 586.875 C 638.272 590.836, 638.407 593.427, 639.607 598.111 C 641.570 605.775, 640.989 608.042, 636.215 611.351 C 632.889 613.656, 631.392 614, 624.696 614 C 620.463 614, 616.996 614.337, 616.992 614.750 C 616.987 615.163, 617.770 618.571, 618.733 622.325 C 620.352 628.646, 620.360 629.219, 618.836 630.072 C 617.320 630.920, 617.341 631.391, 619.095 636.007 C 621.392 642.052, 621.546 647.302, 619.477 649.019 C 618.116 650.149, 618.123 650.538, 619.541 652.703 C 620.414 654.035, 623.874 659.934, 627.230 665.812 C 630.587 671.691, 634.749 678.096, 636.480 680.047 C 644.513 689.099, 662.924 723.587, 663.100 729.911 C 663.286 736.606, 664.789 739.152, 664.900 732.960 C 664.955 729.913, 665.675 724.829, 666.500 721.661 C 668.137 715.377, 668.492 695.304, 667.087 688.500 C 666.632 686.300, 664.868 679.227, 663.166 672.781 C 659.687 659.602, 653.500 629.534, 652.443 620.662 C 651.773 615.041, 651.861 614.720, 654.800 612.035 C 657.796 609.299, 657.847 609.091, 657.526 601.043 C 657.253 594.217, 656.825 592.443, 654.977 590.475 C 653.027 588.400, 652.839 587.447, 653.434 582.683 C 654.037 577.853, 653.822 576.826, 651.480 573.377 C 649.304 570.170, 648.955 568.792, 649.463 565.404 C 649.926 562.309, 649.683 560.981, 648.465 559.971 C 646.146 558.047, 643 551.500, 643 548.599 C 643 547.234, 642.616 545.881, 642.147 545.591 C 641.679 545.301, 641.004 549.169, 640.647 554.186 M 327.679 548.750 C 326.765 550.312, 327.188 562.313, 328.107 560.901 C 328.895 559.691, 329.156 548, 328.395 548 C 328.243 548, 327.920 548.337, 327.679 548.750 M 322.872 552.750 C 321.629 554.336, 321.664 554.371, 323.250 553.128 C 324.916 551.821, 325.445 551, 324.622 551 C 324.415 551, 323.627 551.788, 322.872 552.750 M 318.986 557.537 C 318.456 558.932, 316.900 567.369, 315.530 576.287 C 314.160 585.204, 312.769 594.048, 312.438 595.940 C 311.913 598.948, 312.030 599.220, 313.370 598.108 C 314.359 597.287, 314.800 595.534, 314.613 593.168 C 314.453 591.151, 314.889 587.250, 315.580 584.500 C 316.272 581.750, 316.818 578.355, 316.794 576.955 C 316.737 573.662, 319.003 560.162, 320.102 557.250 C 320.569 556.013, 320.725 555, 320.450 555 C 320.175 555, 319.516 556.142, 318.986 557.537 M 403.667 573.239 C 400.191 580.587, 400.249 581.043, 404.500 579.739 C 407.671 578.765, 407.993 578.328, 407.930 575.082 C 407.783 567.629, 406.569 567.104, 403.667 573.239 M 741.272 582 C 741.272 584.475, 741.467 585.487, 741.706 584.250 C 741.944 583.013, 741.944 580.987, 741.706 579.750 C 741.467 578.513, 741.272 579.525, 741.272 582 M 722.252 582.500 C 722.263 584.700, 722.468 585.482, 722.707 584.238 C 722.946 582.994, 722.937 581.194, 722.687 580.238 C 722.437 579.282, 722.241 580.300, 722.252 582.500 M 403.861 582.886 C 392.772 588.510, 380.887 597.416, 387.008 595.514 C 391.644 594.073, 402 588.688, 402 587.719 C 402 587.189, 401.212 587.373, 400.250 588.128 C 398.666 589.370, 398.630 589.335, 399.863 587.761 C 400.613 586.805, 401.526 586.207, 401.892 586.433 C 402.258 586.660, 404.340 585.305, 406.518 583.422 C 411.315 579.277, 411.072 579.228, 403.861 582.886 M 512.798 581.613 C 515.597 586.867, 523.279 591.746, 534.250 595.240 C 538.202 596.498, 539 596.522, 539 595.382 C 539 592.607, 521.212 582.109, 517.750 582.841 C 517.337 582.929, 517 582.523, 517 581.941 C 517 581.359, 516.530 581.172, 515.956 581.527 C 515.382 581.882, 514.183 581.571, 513.292 580.836 C 511.848 579.645, 511.794 579.729, 512.798 581.613 M 517 585.357 C 517 585.616, 519.250 587.213, 522 588.905 C 524.750 590.597, 527 591.648, 526.999 591.241 C 526.998 590.833, 524.748 589.237, 521.999 587.692 C 519.250 586.148, 517 585.097, 517 585.357 M 739.353 588.800 C 739.814 591.268, 739.659 591.913, 738.735 591.358 C 738.050 590.946, 738.168 591.444, 739 592.476 C 740.412 594.227, 740.519 594.143, 740.823 591.041 C 741 589.228, 740.603 587.240, 739.941 586.623 C 739.010 585.756, 738.876 586.252, 739.353 588.800 M 720.829 591 C 720.619 593.200, 720.797 595, 721.224 595 C 721.651 595, 722 593.200, 722 591 C 722 588.800, 721.822 587, 721.605 587 C 721.388 587, 721.038 588.800, 720.829 591 M 737.460 597.327 C 736.791 599.489, 736.831 601.581, 737.586 603.892 C 738.641 607.125, 738.722 607.172, 739.333 604.892 C 740.226 601.552, 740.157 595.215, 739.221 594.636 C 738.792 594.371, 737.999 595.582, 737.460 597.327 M 738.079 599.583 C 738.127 600.748, 738.364 600.985, 738.683 600.188 C 738.972 599.466, 738.936 598.603, 738.604 598.271 C 738.272 597.939, 738.036 598.529, 738.079 599.583 M 422.590 608.650 C 420.760 613.099, 420.755 613.348, 422.468 614.600 C 425.121 616.540, 429.382 608.465, 427.137 605.750 C 425.070 603.250, 424.720 603.474, 422.590 608.650 M 425.980 608.524 C 425.284 609.362, 424.909 610.242, 425.145 610.479 C 425.382 610.715, 426.125 610.030, 426.796 608.955 C 428.248 606.630, 427.764 606.375, 425.980 608.524 M 445.362 609.500 C 444.390 612.031, 445.815 614.165, 448.246 613.820 C 451.811 613.314, 452.075 608, 448.535 608 C 447.106 608, 445.678 608.675, 445.362 609.500 M 688.603 635.167 C 688.886 635.625, 689.541 636, 690.059 636 C 690.577 636, 691 635.625, 691 635.167 C 691 634.708, 690.345 634.333, 689.544 634.333 C 688.743 634.333, 688.320 634.708, 688.603 635.167 M 383.540 639.936 C 382.818 641.104, 384.517 648.917, 385.763 650.163 C 386.325 650.725, 387.234 650.386, 388.092 649.292 C 389.354 647.686, 389.330 647.633, 387.867 648.776 C 386.513 649.833, 386.128 649.776, 385.617 648.444 C 384.669 645.974, 384.885 642.811, 385.956 643.473 C 386.482 643.798, 386.659 644.725, 386.349 645.532 C 385.791 646.988, 387.100 647.566, 388.281 646.385 C 389.262 645.405, 385.894 640.948, 384.721 641.673 C 384.058 642.082, 383.900 641.704, 384.299 640.664 C 384.985 638.875, 384.489 638.399, 383.540 639.936 M 423.307 641.750 C 423.270 644.195, 427.840 651.844, 430.043 653.023 C 432.465 654.319, 432.680 654.277, 433.417 652.355 C 434.146 650.456, 431.231 646.739, 429.737 647.663 C 429.189 648.001, 428.960 647.653, 429.228 646.889 C 429.825 645.185, 426.341 640, 424.599 640 C 423.903 640, 423.321 640.788, 423.307 641.750 M 306.572 643.750 C 306.109 645.914, 303 668.467, 303 669.655 C 303 669.810, 303.633 669.694, 304.407 669.397 C 305.332 669.042, 306.200 665.888, 306.943 660.179 C 307.564 655.405, 308.216 650.501, 308.391 649.280 C 308.567 648.059, 308.326 647.298, 307.856 647.589 C 306.835 648.220, 306.702 646.631, 307.692 645.641 C 308.791 644.542, 309.082 641, 308.073 641 C 307.570 641, 306.895 642.237, 306.572 643.750 M 718.168 647.250 C 717.152 651.890, 714 673.006, 714 675.174 C 714 675.628, 714.838 676, 715.863 676 C 717.827 676, 717.717 676.481, 721.053 653.278 C 722.207 645.257, 721.958 642, 720.191 642 C 719.711 642, 718.801 644.362, 718.168 647.250 M 531.405 646.250 L 529.500 648.500 531.750 646.595 C 533.864 644.805, 534.455 644, 533.655 644 C 533.465 644, 532.453 645.013, 531.405 646.250 M 725.968 654.866 C 725.305 659.615, 724.141 666.340, 723.382 669.812 C 721.617 677.876, 721.523 677.287, 724.888 679.275 L 727.776 680.981 728.453 676.462 C 728.826 673.976, 729.319 668.500, 729.548 664.291 C 729.777 660.083, 730.343 656.384, 730.805 656.070 C 732.434 654.966, 730.932 647.215, 728.990 646.708 C 727.400 646.292, 727.022 647.311, 725.968 654.866 M 427 647.870 C 427 649.245, 429.897 652.003, 431.321 651.985 C 432.012 651.976, 431.879 651.568, 431 651 C 429.765 650.202, 429.750 650.028, 430.917 650.015 C 432.272 650.001, 431.545 648.516, 430.167 648.485 C 429.800 648.476, 428.938 648.112, 428.250 647.676 C 427.558 647.236, 427 647.323, 427 647.870 M 377.673 655.809 C 375.621 659.829, 369.971 669.729, 365.118 677.809 C 348.440 705.582, 340.575 724.859, 340.901 737.166 C 341.048 742.684, 340.753 744.062, 339.193 745.166 C 337.754 746.184, 337.145 748.316, 336.619 754.172 C 335.945 761.691, 335.995 761.934, 339.158 766.422 C 342.557 771.243, 344 772.107, 344 769.318 C 344 765.103, 351.698 734.958, 356.466 720.500 C 361.871 704.112, 374.398 674.418, 380.622 663.241 C 382.539 659.799, 383.786 656.464, 383.394 655.829 C 383.002 655.194, 382.394 653.285, 382.043 651.587 C 381.419 648.564, 381.329 648.651, 377.673 655.809 M 535.405 651.250 L 533.500 653.500 535.750 651.595 C 537.864 649.805, 538.455 649, 537.655 649 C 537.465 649, 536.453 650.013, 535.405 651.250 M 564.382 656.867 C 562.625 658.919, 557 671.717, 557 673.662 C 557 677.380, 559.042 674.922, 561.954 667.700 C 563.772 663.190, 565.539 659.194, 565.880 658.819 C 566.221 658.445, 570.775 657.866, 576 657.534 L 585.500 656.930 590 662.619 C 592.475 665.748, 596.034 669.926, 597.909 671.904 C 599.785 673.882, 601.235 675.697, 601.132 675.937 C 601.029 676.178, 601.609 676.472, 602.420 676.591 C 603.277 676.717, 602.174 674.649, 599.786 671.654 C 597.526 668.819, 593.653 663.913, 591.178 660.750 L 586.679 655 576.330 655 C 567.464 655, 565.751 655.268, 564.382 656.867 M 378.954 674.788 C 373.375 685.701, 371.550 689.783, 372.824 688.500 C 374.347 686.967, 384.353 667.019, 383.850 666.517 C 383.607 666.274, 381.404 669.996, 378.954 674.788 M 550 674.383 C 550 674.594, 550.901 675.002, 552.001 675.290 C 553.102 675.578, 553.751 675.405, 553.442 674.907 C 552.904 674.036, 550 673.594, 550 674.383 M 402.543 676.931 C 402.226 677.443, 402.350 678.098, 402.817 678.387 C 403.284 678.676, 403.667 678.257, 403.667 677.456 C 403.667 675.770, 403.351 675.623, 402.543 676.931 M 557.500 680 C 558.495 681.100, 559.535 682, 559.810 682 C 560.085 682, 559.495 681.100, 558.500 680 C 557.505 678.900, 556.465 678, 556.190 678 C 555.915 678, 556.505 678.900, 557.500 680 M 632.872 683.750 C 631.658 685.298, 631.683 685.357, 633.092 684.259 C 633.968 683.576, 635.052 683.351, 635.502 683.759 C 635.952 684.166, 635.997 683.938, 635.601 683.250 C 634.672 681.634, 634.508 681.664, 632.872 683.750 M 398.935 686.658 C 397.682 690.415, 397.252 692.657, 397.083 696.309 C 397.038 697.304, 396.577 697.857, 396.061 697.537 C 395.544 697.218, 395.176 697.754, 395.243 698.728 C 395.311 699.703, 395.022 701.849, 394.602 703.498 C 393.075 709.486, 395.049 705.125, 398.465 694.963 C 400.455 689.041, 401.585 684.185, 401.088 683.688 C 400.592 683.192, 399.664 684.471, 398.935 686.658 M 633.603 685.833 C 633.320 686.292, 633.723 686.667, 634.500 686.667 C 635.277 686.667, 635.680 686.292, 635.397 685.833 C 635.114 685.375, 634.710 685, 634.500 685 C 634.290 685, 633.886 685.375, 633.603 685.833 M 644.262 702.772 L 642.025 704.500 644.006 707.500 C 645.095 709.150, 645.990 710.024, 645.993 709.441 C 645.997 708.859, 645.381 707.536, 644.624 706.501 C 643.417 704.850, 643.509 704.401, 645.374 702.843 C 648.108 700.558, 647.204 700.501, 644.262 702.772 M 295.832 709.674 C 294.576 710.006, 293.758 712.510, 292.522 719.808 C 291.619 725.138, 290.654 730.625, 290.378 732 L 289.877 734.500 292.579 731.837 C 294.821 729.627, 295.571 727.457, 296.985 719.087 C 297.923 713.539, 298.422 709.052, 298.095 709.116 C 297.768 709.180, 296.749 709.431, 295.832 709.674 M 709.056 720.948 C 707.720 731.426, 707.980 734, 710.370 734 C 712.942 734, 714.455 711.720, 711.917 711.226 C 710.622 710.974, 710.101 712.745, 709.056 720.948 M 716.655 717.250 C 714.278 734.918, 714.597 738.295, 718.791 739.814 C 720.281 740.354, 722.326 741.130, 723.337 741.538 C 724.775 742.120, 725.106 741.871, 724.862 740.390 C 724.690 739.351, 724.912 737.923, 725.354 737.217 C 726.577 735.268, 726.951 719.777, 725.827 717.677 C 725.032 716.191, 719.450 713, 717.646 713 C 717.415 713, 716.970 714.913, 716.655 717.250 M 648 715.941 C 648 716.459, 648.445 717.157, 648.989 717.493 C 649.555 717.843, 649.723 717.442, 649.382 716.552 C 648.717 714.820, 648 714.503, 648 715.941 M 654.459 719.067 C 654.096 719.653, 654.070 720.403, 654.400 720.733 C 654.730 721.063, 655.012 720.696, 655.026 719.917 C 655.041 719.138, 655.904 720.300, 656.945 722.500 C 659.226 727.320, 659.608 726.700, 657.487 721.622 C 655.862 717.733, 655.481 717.412, 654.459 719.067 M 334 771.880 C 334 772.575, 334.675 773.818, 335.500 774.643 C 337.417 776.560, 337.395 775.106, 335.468 772.559 C 334.644 771.469, 334 771.172, 334 771.880 M 669 844.691 C 669 847.253, 669.068 847.290, 670.411 845.452 C 671.846 843.490, 671.643 842, 669.941 842 C 669.423 842, 669 843.211, 669 844.691 M 370.500 915.188 C 368.850 915.795, 366.600 916.943, 365.500 917.739 C 363.596 919.116, 363.619 919.145, 366 918.343 C 372.587 916.123, 383.493 919.355, 391.313 925.845 C 392.296 926.661, 392.996 926.630, 393.970 925.726 C 395.022 924.752, 395.142 924.768, 394.554 925.804 C 393.745 927.231, 398.083 931.527, 401.140 932.326 C 406.116 933.628, 392.251 921.249, 384.500 917.470 C 378.230 914.413, 374.332 913.777, 370.500 915.188 M 599.500 916.871 C 592.431 918.720, 582.610 924.760, 576.646 930.925 C 571.804 935.929, 574.191 936.270, 580.002 931.404 C 591.812 921.513, 607.090 917.555, 619.083 921.280 C 622.804 922.436, 623.667 922.457, 623.667 921.394 C 623.667 918.065, 606.918 914.931, 599.500 916.871 M 628.119 923.356 C 626.317 925.528, 625.642 930.661, 627.045 931.528 C 627.982 932.107, 628.124 931.578, 627.615 929.399 C 627.111 927.235, 627.203 926.880, 627.980 928 C 628.553 928.825, 628.816 931.300, 628.566 933.500 C 628.142 937.214, 628.206 937.142, 629.459 932.500 C 631.660 924.343, 631.006 919.878, 628.119 923.356 M 360.136 926.040 C 359.553 927.712, 358.787 932.549, 358.435 936.790 C 357.860 943.698, 357.944 944.292, 359.249 942.500 C 360.507 940.773, 362.603 923, 361.549 923 C 361.355 923, 360.719 924.368, 360.136 926.040 M 398.641 939.085 C 396.088 941.332, 394 943.632, 394 944.196 C 394 944.760, 394.885 944.159, 395.967 942.861 C 397.048 941.562, 397.948 940.803, 397.967 941.173 C 397.985 941.543, 399.360 940.486, 401.022 938.824 C 402.851 936.995, 404.647 936.034, 405.574 936.390 C 406.446 936.725, 406.841 936.552, 406.493 935.989 C 405.365 934.164, 403.311 934.974, 398.641 939.085 M 570.126 938.348 C 568.735 940.025, 569.543 942.667, 571.448 942.667 C 572.197 942.667, 572.580 942.069, 572.300 941.339 C 572.020 940.609, 571.275 940.300, 570.645 940.652 C 569.878 941.082, 569.896 940.865, 570.701 939.996 C 571.668 938.951, 572.941 939.698, 577.230 943.829 C 582.579 948.981, 588.907 954.028, 589.944 953.968 C 590.250 953.951, 589.611 953.265, 588.525 952.444 C 587.439 951.622, 584.061 948.599, 581.019 945.725 C 571.698 936.921, 571.450 936.752, 570.126 938.348 M 574 945.711 C 574 946.285, 574.788 947.373, 575.750 948.128 C 577.369 949.397, 577.390 949.350, 576.033 947.500 C 575.226 946.400, 574.439 945.313, 574.283 945.083 C 574.127 944.854, 574 945.137, 574 945.711 M 671 974.393 C 671 974.609, 671.698 975.054, 672.552 975.382 C 673.442 975.723, 673.843 975.555, 673.493 974.989 C 672.906 974.038, 671 973.583, 671 974.393 M 660.897 984.870 C 660.170 986.512, 659.226 987.640, 658.799 987.376 C 658.372 987.112, 658.311 987.648, 658.664 988.567 C 659.162 989.865, 659.718 989.391, 661.149 986.449 C 662.163 984.364, 662.818 982.485, 662.605 982.272 C 662.393 982.059, 661.624 983.229, 660.897 984.870" stroke="#000000" stroke-width="0.5" fill="#000000" fill-rule="evenodd"/>
</svg>