<!-- Оптимизировано для шелкографии -->
          <!-- Рекомендации: одноцветная печать, плотность красок 100% -->
          <svg xmlns="http://www.w3.org/2000/svg" width="100%" height="100%" viewBox="0 0 1024 1024">
	<path d="M 297 88.664 C 292.039 90.639, 289.136 95.933, 285.067 110.425 C 272.844 153.953, 273.186 207.781, 285.922 245.306 C 288.607 253.216, 288.810 254.659, 287.919 259.478 C 287.374 262.429, 286.831 271.516, 286.714 279.672 L 286.500 294.500 290.357 302.110 C 292.479 306.296, 297.498 314.171, 301.510 319.610 L 308.805 329.500 305.152 330.530 L 301.500 331.559 300.966 346.030 C 300.437 360.360, 300.397 360.563, 296.819 367 C 287.629 383.531, 281.536 405.725, 282.268 420 C 283.058 435.399, 291.222 457.464, 302.803 475.500 C 307.235 482.402, 307.704 483.589, 306.220 484.150 C 305.274 484.507, 297.300 487.115, 288.500 489.945 C 272.517 495.086, 259.596 500.575, 248.750 506.830 C 241.211 511.179, 241.387 511.843, 249.052 507.974 C 263.404 500.729, 286.824 492.452, 305.453 488.042 L 310.406 486.869 320.030 497.032 C 325.324 502.622, 329.170 507.352, 328.577 507.544 C 311.412 513.093, 286.427 522.761, 287.215 523.548 C 287.390 523.723, 293.394 521.667, 300.558 518.980 C 307.722 516.293, 317.703 512.912, 322.739 511.468 L 331.894 508.842 339.697 515.173 C 343.989 518.656, 348.768 522.421, 350.318 523.540 L 353.136 525.575 343.818 529.935 C 333.553 534.737, 315.914 544.805, 312 548.096 C 309.701 550.028, 309.813 550.015, 313.392 547.930 C 326.565 540.253, 335.568 535.577, 345.146 531.437 L 356.010 526.741 359.755 529.214 C 366.599 533.733, 379.910 541, 381.344 541 C 382.514 541, 393.663 545.612, 394.858 546.590 C 395.456 547.079, 391.146 565.748, 387.492 578.500 C 381.264 600.233, 374.580 619.116, 357.224 664 C 351.163 679.675, 345.893 693.980, 345.514 695.790 C 345.134 697.599, 340.399 708.436, 334.991 719.871 C 315.726 760.606, 309.611 787.005, 312.037 818.965 C 314.830 855.751, 332.318 892.277, 355.785 910.335 C 358.978 912.792, 362.849 916.618, 364.387 918.837 C 367.788 923.745, 380.001 930.459, 387.500 931.542 C 390.250 931.940, 394.603 933.320, 397.173 934.610 C 404.338 938.206, 414.023 939.463, 424.088 938.103 C 428.715 937.477, 437.855 936.267, 444.400 935.412 C 458.695 933.547, 465.320 931.231, 471.220 926.038 C 475.827 921.983, 481.285 912.864, 482.475 907.236 L 483.165 903.973 515.722 904.236 L 548.280 904.500 549.475 908.500 C 554.457 925.170, 564.985 932.743, 587 935.492 C 618.167 939.384, 625.393 939.273, 633 934.782 C 634.925 933.646, 639.425 932.140, 643 931.436 C 651.395 929.783, 659.950 925.935, 664.717 921.668 C 666.798 919.806, 670.300 917.707, 672.500 917.003 C 688.063 912.030, 705.109 898.162, 715.616 881.925 C 735.468 851.247, 740.245 803.303, 727.464 763 C 720.078 739.708, 714.549 729.408, 687.474 688.500 C 664.018 653.059, 658.823 643.442, 647.501 614.500 C 638.166 590.636, 624.693 547.741, 626.165 546.571 C 626.349 546.424, 629.763 544.819, 633.750 543.004 C 637.737 541.189, 641 539.369, 641 538.960 C 641 538.551, 642.022 537.960, 643.272 537.647 C 644.522 537.333, 649.142 534.891, 653.539 532.221 C 659.719 528.467, 662.097 527.518, 664.017 528.039 C 666.813 528.798, 689.593 540.244, 698 545.114 C 701.025 546.867, 702.825 547.609, 702 546.764 C 699.821 544.532, 683.866 535.210, 673.388 530.047 L 664.350 525.594 672.364 519.547 C 676.772 516.221, 682.764 511.321, 685.680 508.658 L 690.982 503.815 699.241 505.472 C 711.068 507.844, 729.746 512.348, 742.445 515.890 C 748.465 517.569, 753.573 518.760, 753.796 518.537 C 754.499 517.834, 731.349 510.952, 711.788 506.049 C 693.053 501.353, 692.983 501.325, 695.097 499.417 C 696.264 498.362, 699.458 494.688, 702.194 491.252 C 706.580 485.744, 707.484 485.075, 709.834 485.600 C 730.001 490.110, 741.920 493.834, 757.250 500.417 C 759.313 501.302, 761 501.765, 761 501.445 C 761 499.311, 728.920 486.837, 715.750 483.849 C 712.587 483.132, 710 482.249, 710 481.887 C 710 481.524, 711.761 478.589, 713.914 475.364 C 716.067 472.139, 719.818 465.450, 722.249 460.500 C 738.747 426.915, 739.211 409.685, 724.499 376.908 L 719 364.657 719 347.970 L 719 331.283 711.250 330.003 C 706.987 329.299, 703.130 328.393, 702.678 327.989 C 702.225 327.586, 703.904 324.740, 706.409 321.665 C 720.520 304.341, 724.674 293.319, 723.135 277.290 C 720.790 252.865, 720.788 252.613, 722.840 247.403 C 736.779 212.015, 736.862 147.925, 723.023 104.733 C 716.028 82.901, 708.493 82.922, 679 104.857 C 653.164 124.073, 611.813 163.082, 586.618 192.007 C 580.633 198.878, 575.182 205.097, 574.505 205.827 C 573.141 207.298, 562.452 206.062, 540 201.839 C 521.279 198.318, 493.927 198.695, 470.965 202.790 C 461.321 204.510, 449.798 206.220, 445.359 206.590 L 437.288 207.264 434.300 203.882 C 373.348 134.894, 311.416 82.922, 297 88.664 M 299.276 100.851 C 295.422 103.867, 292.421 113.547, 288.380 136 C 280.901 177.557, 284.775 221.242, 298.640 251.689 L 301.003 256.878 297.860 266.189 C 293.133 280.197, 293.232 289.026, 298.229 299.033 C 302.031 306.648, 314.342 324, 315.942 324 C 316.428 324, 318.056 320.738, 319.561 316.750 C 321.065 312.762, 323.335 307.415, 324.606 304.867 L 326.915 300.233 324.872 298.385 C 318.770 292.862, 309 275.851, 309 270.748 C 309 269.092, 309.422 268.143, 310 268.500 C 311.764 269.590, 311.095 267.496, 306.612 257.896 C 295.018 233.069, 290.559 211.202, 290.524 179 C 290.482 139.705, 296.415 115, 305.893 115 C 316.727 115, 356.899 157.950, 372.028 185.709 C 373.290 188.024, 374.695 189.689, 375.150 189.407 C 375.605 189.126, 375.731 189.536, 375.431 190.319 C 374.875 191.769, 377.387 195, 379.071 195 C 379.582 195, 380 196.098, 380 197.441 C 380 200.915, 381.978 201.733, 382.100 198.309 C 382.199 195.512, 382.202 195.511, 382.892 197.990 C 383.364 199.685, 383.830 200.084, 384.352 199.240 C 384.773 198.558, 384.812 197.505, 384.438 196.900 C 383.948 196.107, 384.314 196.097, 385.748 196.865 C 386.842 197.451, 388.093 197.608, 388.528 197.215 C 388.963 196.822, 389.071 197.197, 388.767 198.050 C 388.371 199.164, 388.871 199.600, 390.544 199.600 C 391.824 199.600, 392.644 199.233, 392.366 198.784 C 392.089 198.335, 391.385 198.262, 390.801 198.623 C 390.187 199.002, 389.948 198.694, 390.233 197.889 C 390.837 196.186, 388.340 191, 386.915 191 C 386.347 191, 386.125 190.606, 386.423 190.125 C 386.720 189.644, 385.622 187.398, 383.982 185.134 C 380.837 180.793, 380.501 180, 381.803 180 C 383.484 180, 408.605 215.359, 412.857 223.710 C 415.848 229.585, 415.692 236.385, 412.425 242.601 C 407.590 251.801, 408.579 251.455, 386.032 251.840 L 366.118 252.179 367.087 254.728 C 368.306 257.934, 368.321 257.921, 360.865 259.962 L 354.660 261.660 356.927 263.927 L 359.193 266.193 355.847 269.043 C 354.006 270.611, 350.137 272.870, 347.250 274.063 C 341.332 276.508, 340.936 277.194, 344.500 278.818 C 348.231 280.518, 347.608 282.222, 341.024 288.317 C 335.181 293.727, 335.103 293.868, 337.505 294.675 L 339.961 295.500 334.560 305 C 329.440 314.005, 324.354 325.687, 325.190 326.523 C 325.402 326.735, 330.508 326.153, 336.538 325.230 C 356.379 322.191, 402.515 322.809, 421.936 326.374 C 430.425 327.932, 439.332 329.797, 441.728 330.519 L 446.085 331.830 444.292 329.002 C 443.307 327.447, 438.595 320.403, 433.823 313.348 C 429.050 306.294, 425.305 300.361, 425.501 300.166 C 426.865 298.802, 443.753 300.180, 446 301.839 C 452.143 306.372, 453.204 309.485, 452.837 321.889 L 452.500 333.278 461.175 336.504 C 465.946 338.278, 474.738 342.040, 480.714 344.865 L 491.579 350 510.539 349.956 C 531.457 349.908, 529.393 350.349, 549 341.726 C 555.875 338.702, 563.525 335.542, 566 334.703 L 570.500 333.179 570.139 321.223 L 569.778 309.266 574.218 304.633 L 578.657 300 587.829 300 C 592.873 300, 597 300.262, 597 300.583 C 597 300.903, 593.022 307.090, 588.160 314.333 C 575.252 333.557, 575.457 332.001, 586.190 329.295 C 609.318 323.465, 648.625 321.203, 673 324.299 C 679.325 325.103, 684.657 325.619, 684.850 325.447 C 685.735 324.654, 682.265 316.572, 676.891 306.913 C 670.056 294.628, 670.263 295.402, 673.592 294.566 L 676.184 293.916 672.306 291.107 C 670.173 289.562, 667.183 286.818, 665.661 285.009 L 662.894 281.720 665.529 278.970 C 668.398 275.975, 668.326 275.852, 662.619 274.011 C 660.485 273.322, 657.025 271.210, 654.930 269.318 L 651.122 265.878 653.270 263.730 L 655.419 261.581 649.032 260.008 C 642.236 258.334, 641.217 257.332, 642.970 254.055 C 644.059 252.020, 643.903 251.999, 627.285 251.942 C 604.243 251.863, 603.315 251.649, 599.758 245.596 C 593.722 235.322, 594.455 228.406, 603.002 215 C 613.163 199.059, 627.726 179.393, 628.670 180.336 C 628.915 180.582, 627.740 183.018, 626.058 185.752 C 624.376 188.485, 623 191.033, 623 191.414 C 623 191.795, 621.875 193.762, 620.500 195.785 C 617.812 199.741, 617.018 202.651, 619.502 199.441 C 620.982 197.530, 620.994 197.531, 620.315 199.500 C 619.702 201.279, 619.813 201.348, 621.325 200.117 C 622.626 199.059, 622.759 198.414, 621.890 197.367 C 621.057 196.364, 621.054 196, 621.878 196 C 622.495 196, 623 196.477, 623 197.059 C 623 197.641, 623.563 197.780, 624.250 197.367 C 625.187 196.804, 625.175 197.017, 624.201 198.219 C 622.748 200.013, 624.185 201.622, 626.155 200.405 C 626.870 199.962, 627.038 200.130, 626.595 200.845 C 625.649 202.376, 623.295 202.319, 622.662 200.750 C 622.361 200.003, 622.126 200.205, 622.079 201.250 C 621.985 203.336, 625.890 203.670, 627.925 201.750 C 628.994 200.741, 629.162 200.789, 628.796 202 C 628.546 202.825, 627.253 204.056, 625.921 204.735 C 623.508 205.967, 623.507 205.971, 625.750 205.985 C 626.987 205.993, 628 206.436, 628 206.969 C 628 207.501, 627.437 207.721, 626.748 207.457 C 626.059 207.193, 624.862 207.994, 624.087 209.238 C 622.797 211.310, 622.818 211.385, 624.339 210.128 C 625.253 209.373, 626 209.032, 626 209.371 C 626 210.157, 634.351 203.845, 639.250 199.356 C 641.312 197.466, 643 196.218, 643 196.582 C 643 196.947, 643.675 196.685, 644.500 196 C 645.325 195.315, 645.964 194.248, 645.921 193.628 C 645.868 192.863, 645.686 192.884, 645.356 193.694 C 645.089 194.350, 644.293 194.666, 643.587 194.395 C 641.998 193.785, 631.728 201.751, 632.498 202.997 C 633.154 204.059, 629.119 206.452, 628.208 205.541 C 627.867 205.200, 628.487 204.686, 629.586 204.398 C 631.559 203.882, 632.753 200, 630.938 200 C 630.422 200, 630 199.550, 630 199 C 630 198.450, 630.705 198, 631.567 198 C 632.714 198, 632.965 197.396, 632.502 195.750 C 632.078 194.241, 632.170 193.933, 632.783 194.813 C 633.777 196.242, 640 191.882, 640 189.756 C 640 189.170, 639.100 189.505, 638 190.500 C 635.146 193.082, 635.500 191.715, 639.643 184.151 C 648.987 167.089, 659.157 153.720, 675.367 137.190 C 703.291 108.717, 709.602 108.104, 715.135 133.332 C 721.331 161.582, 721.579 188.896, 715.899 217.500 C 712.595 234.140, 709.854 241.985, 698.385 267.627 C 698.107 268.246, 699.145 269.089, 700.690 269.500 C 702.236 269.911, 702.938 270.454, 702.250 270.707 C 701.563 270.960, 701 271.614, 701 272.161 C 701 274.737, 693.560 288.160, 688.999 293.814 C 685.332 298.359, 684.079 300.674, 684.525 302.078 C 684.865 303.151, 685.631 303.728, 686.227 303.360 C 686.831 302.986, 687.024 303.152, 686.663 303.736 C 686.308 304.311, 687.911 308.940, 690.226 314.022 L 694.434 323.262 697.806 319.381 C 704.194 312.029, 712.972 297.904, 714.571 292.405 C 716.558 285.568, 715.960 279.918, 711.862 266.819 L 708.833 257.137 712.484 247.904 C 718.998 231.433, 721.804 219.983, 724.101 200.505 C 725.914 185.129, 724.714 154.842, 721.584 137 C 716.302 106.888, 712.061 97.513, 704.572 99.393 C 700.165 100.499, 675.154 118.250, 662 129.608 C 639.452 149.077, 613.805 173.875, 614.708 175.336 C 615.038 175.871, 614.855 176.028, 614.299 175.685 C 613.222 175.019, 597.329 191.832, 597.750 193.193 C 597.888 193.637, 597.649 193.888, 597.220 193.750 C 596.790 193.613, 592.670 197.775, 588.063 203 C 574.971 217.849, 561.102 232.435, 560.576 231.909 C 560.313 231.646, 562.069 228.302, 564.478 224.478 C 566.888 220.654, 568.778 217.446, 568.680 217.349 C 568.581 217.251, 560.175 215.529, 550 213.521 C 518.806 207.367, 498.099 207.495, 464.277 214.050 C 455.904 215.672, 447.467 217, 445.527 217 C 441.548 217, 441.192 218.015, 443.824 221.846 C 444.828 223.306, 446.697 226.300, 447.979 228.500 L 450.309 232.500 444.545 227 C 441.375 223.975, 436.531 218.800, 433.780 215.500 C 423.604 203.292, 407.804 187.003, 406.762 187.647 C 406.100 188.056, 405.985 187.833, 406.462 187.062 C 408.288 184.108, 352.325 131.824, 328.500 114.224 C 311.039 101.326, 303.234 97.754, 299.276 100.851 M 659.500 169.178 C 648.236 178.751, 643.783 183, 645.014 183 C 645.941 183, 645.910 183.432, 644.890 184.750 C 643.786 186.175, 643.950 186.146, 645.767 184.595 C 646.995 183.547, 648 182.101, 648 181.380 C 648 180.660, 649.013 179.535, 650.250 178.880 C 653.496 177.163, 659.954 171.511, 663.279 167.477 C 667.025 162.934, 666.647 163.103, 659.500 169.178 M 347.574 168.655 C 349.815 170.770, 352.515 173.218, 353.574 174.096 C 354.633 174.973, 360.113 180.468, 365.750 186.306 C 371.387 192.143, 376 196.407, 376 195.780 C 376 195.153, 373.913 192.696, 371.361 190.320 C 368.810 187.944, 367.103 186, 367.569 186 C 369.211 186, 359.405 176.728, 351.500 170.805 C 345.946 166.643, 344.746 165.986, 347.574 168.655 M 665.044 182.486 C 663.144 183.172, 661.427 184.218, 661.230 184.811 C 661.032 185.403, 660.260 185.653, 659.514 185.367 C 658.251 184.882, 654.137 186.500, 653 187.927 C 652.725 188.273, 651.375 189.075, 650 189.710 L 647.500 190.865 650.191 190.932 C 651.671 190.970, 653.139 190.585, 653.452 190.077 C 653.766 189.569, 655.255 188.874, 656.761 188.532 C 659.987 187.800, 672.195 180.976, 670 181.132 C 669.175 181.191, 666.945 181.800, 665.044 182.486 M 350.978 187.178 C 355.641 189.555, 360.061 192.063, 360.800 192.750 C 361.538 193.438, 362.545 194, 363.037 194 C 363.528 194, 365.634 195.452, 367.715 197.226 C 370.238 199.377, 370.833 199.654, 369.500 198.057 C 367.693 195.893, 367.674 195.725, 369.302 196.319 C 370.405 196.722, 370.861 196.584, 370.477 195.962 C 370.131 195.404, 369.321 195.030, 368.675 195.131 C 366.777 195.429, 363.962 193.871, 364.583 192.866 C 365.191 191.882, 350.005 184.474, 345.301 183.460 C 343.760 183.128, 346.315 184.801, 350.978 187.178 M 364 183.378 C 364 183.585, 364.788 184.373, 365.750 185.128 C 367.336 186.371, 367.371 186.336, 366.128 184.750 C 364.821 183.084, 364 182.555, 364 183.378 M 640.872 186.750 C 639.629 188.336, 639.664 188.371, 641.250 187.128 C 642.212 186.373, 643 185.585, 643 185.378 C 643 184.555, 642.179 185.084, 640.872 186.750 M 625 189.941 C 625 190.459, 625.445 191.157, 625.989 191.493 C 626.555 191.843, 626.723 191.442, 626.382 190.552 C 625.717 188.820, 625 188.503, 625 189.941 M 387.565 194.895 C 387.260 195.388, 387.661 196.040, 388.455 196.344 C 389.418 196.714, 389.713 196.416, 389.342 195.449 C 388.697 193.769, 388.331 193.655, 387.565 194.895 M 377.330 197.336 C 379.462 202.632, 379.454 202.564, 377.820 201.238 C 376.541 200.200, 376.020 200.288, 374.883 201.738 C 373.601 203.371, 373.642 203.390, 375.437 202 C 377.192 200.641, 377.314 200.661, 376.737 202.203 C 375.895 204.450, 381.891 209.794, 383.086 207.861 C 383.516 207.165, 383.646 206.237, 383.375 205.798 C 383.104 205.359, 383.359 205, 383.941 205 C 384.523 205, 385.064 205.563, 385.142 206.250 C 385.220 206.938, 385.572 205.700, 385.924 203.500 C 386.718 198.542, 386.647 198.433, 383.883 200.370 C 381.488 202.047, 379 201.062, 379 198.437 C 379 197.711, 378.474 196.793, 377.830 196.395 C 377.039 195.906, 376.877 196.210, 377.330 197.336 M 379.367 203.250 C 379.667 205.227, 381.018 207, 382.226 207 C 382.835 207, 383.049 206.716, 382.702 206.369 C 382.355 206.021, 382.570 204.784, 383.181 203.619 C 384.287 201.508, 384.283 201.507, 382.102 203.444 C 380.252 205.087, 380.014 205.126, 380.564 203.694 C 380.921 202.762, 380.756 202, 380.195 202 C 379.635 202, 379.262 202.563, 379.367 203.250 M 341 204.385 C 342.925 205.121, 347.720 207.344, 351.656 209.327 C 356.631 211.832, 358.749 212.493, 358.602 211.494 C 358.486 210.704, 358.006 209.707, 357.535 209.279 C 357.065 208.851, 357.039 209.121, 357.479 209.880 C 358.029 210.829, 357.845 211.102, 356.889 210.755 C 356.125 210.477, 355.613 209.744, 355.750 209.125 C 355.887 208.506, 355.523 208, 354.941 208 C 354.359 208, 354.160 207.550, 354.500 207 C 354.849 206.435, 354.032 206, 352.624 206 C 351.252 206, 349.088 205.613, 347.815 205.140 C 346.542 204.667, 343.700 204.003, 341.500 203.664 L 337.500 203.048 341 204.385 M 618.081 204.849 C 617.486 205.960, 617.003 207.461, 617.006 208.184 C 617.010 208.908, 617.693 208.196, 618.524 206.601 C 619.355 205.007, 619.839 203.506, 619.599 203.266 C 619.359 203.025, 618.676 203.738, 618.081 204.849 M 666 203.724 C 664.625 203.972, 662.531 205.074, 661.347 206.171 C 659.272 208.095, 659.150 208.100, 658.021 206.334 C 657.149 204.969, 656.976 204.916, 657.346 206.128 C 657.620 207.024, 657.316 208.327, 656.672 209.025 C 655.325 210.483, 655.184 210.527, 665 206.480 C 673.639 202.918, 673.862 202.304, 666 203.724 M 392.764 204.685 C 392.524 205.133, 392.895 207.300, 393.587 209.500 C 394.311 211.800, 394.879 212.629, 394.923 211.450 C 394.965 210.322, 395.461 208.939, 396.024 208.376 C 396.722 207.678, 396.435 206.799, 395.123 205.611 C 394.065 204.653, 393.003 204.237, 392.764 204.685 M 393.707 206.989 C 393.993 208.083, 394.648 208.718, 395.162 208.400 C 395.714 208.059, 395.617 207.244, 394.926 206.411 C 393.349 204.510, 393.091 204.632, 393.707 206.989 M 384.750 208.685 C 385.438 208.950, 386 209.606, 386 210.142 C 386 210.679, 385.480 210.797, 384.845 210.405 C 384.112 209.951, 383.963 210.131, 384.437 210.898 C 385.391 212.441, 387.259 211.841, 387.544 209.900 C 387.676 208.999, 386.918 208.367, 385.632 208.306 C 384.459 208.250, 384.063 208.420, 384.750 208.685 M 389.459 209.067 C 389.096 209.653, 389.063 210.396, 389.384 210.718 C 389.706 211.039, 389.188 211.938, 388.234 212.716 C 386.627 214.026, 386.641 214.060, 388.427 213.176 C 389.487 212.651, 390.425 211.272, 390.510 210.111 C 390.684 207.750, 390.429 207.497, 389.459 209.067 M 364.500 210 C 364.840 210.550, 365.568 211, 366.118 211 C 366.668 211, 366.840 210.550, 366.500 210 C 366.160 209.450, 365.432 209, 364.882 209 C 364.332 209, 364.160 209.450, 364.500 210 M 397.032 211.250 C 397.014 212.213, 397.498 213, 398.107 213 C 398.716 213, 398.946 213.698, 398.618 214.552 C 398.277 215.442, 398.445 215.843, 399.011 215.493 C 400.365 214.656, 400.254 213.718, 398.532 211.441 C 397.203 209.685, 397.061 209.667, 397.032 211.250 M 614.158 212 C 614.158 213.375, 614.385 213.938, 614.662 213.250 C 614.940 212.563, 614.940 211.438, 614.662 210.750 C 614.385 210.063, 614.158 210.625, 614.158 212 M 370.441 212.445 C 371.509 213.300, 372.821 214, 373.358 214 C 374.628 214, 374.061 213.538, 371 212.080 C 368.643 210.958, 368.611 210.978, 370.441 212.445 M 391.564 212.707 C 391.022 214.132, 391.136 214.247, 392.124 213.267 C 392.808 212.588, 393.115 211.781, 392.807 211.474 C 392.499 211.166, 391.940 211.721, 391.564 212.707 M 618.564 213.293 C 618.940 214.279, 619.499 214.834, 619.807 214.526 C 620.115 214.219, 619.808 213.412, 619.124 212.733 C 618.136 211.753, 618.022 211.868, 618.564 213.293 M 610.408 215.632 C 610.029 217.209, 609.096 219.738, 608.334 221.250 C 607.572 222.762, 607.342 224, 607.822 224 C 608.801 224, 612.288 213.954, 611.561 213.228 C 611.306 212.973, 610.787 214.055, 610.408 215.632 M 621.583 214.643 C 620.665 217.037, 621.381 217.221, 622.796 214.955 C 623.468 213.880, 623.611 213, 623.115 213 C 622.620 213, 621.930 213.739, 621.583 214.643 M 396.079 215.583 C 396.127 216.748, 396.364 216.985, 396.683 216.188 C 396.972 215.466, 396.936 214.603, 396.604 214.271 C 396.272 213.939, 396.036 214.529, 396.079 215.583 M 616.534 216.177 C 617.080 219.012, 618.574 220.499, 619.451 219.080 C 619.822 218.478, 619.452 217.727, 618.627 217.410 C 617.801 217.094, 617.371 216.197, 617.670 215.417 C 617.969 214.638, 617.742 214, 617.164 214 C 616.587 214, 616.303 214.979, 616.534 216.177 M 391.571 216.571 C 389.286 218.857, 389.643 219.633, 392 217.500 C 393.100 216.505, 394 215.535, 394 215.345 C 394 214.602, 393.073 215.070, 391.571 216.571 M 630.500 216 C 630.160 216.550, 630.246 217.007, 630.691 217.015 C 631.136 217.024, 630.825 217.508, 630 218.091 C 628.827 218.921, 628.808 219.069, 629.913 218.772 C 630.690 218.563, 631.437 217.628, 631.574 216.696 C 631.854 214.788, 631.422 214.508, 630.500 216 M 398 218.167 C 398 218.808, 398.296 219.037, 398.658 218.675 C 399.020 218.313, 399.930 218.527, 400.681 219.150 C 401.760 220.045, 401.914 219.939, 401.416 218.641 C 400.699 216.772, 398 216.397, 398 218.167 M 353.264 219.718 C 354.784 219.947, 357.034 219.941, 358.264 219.704 C 359.494 219.467, 358.250 219.279, 355.500 219.286 C 352.750 219.294, 351.744 219.488, 353.264 219.718 M 361.733 220.124 C 362.412 220.808, 363.219 221.115, 363.526 220.807 C 363.834 220.499, 363.279 219.940, 362.293 219.564 C 360.868 219.022, 360.753 219.136, 361.733 220.124 M 383.453 220.880 C 383.584 221.771, 383.873 222.356, 384.095 222.180 C 384.318 222.004, 385.763 222.340, 387.307 222.927 C 390.838 224.269, 389.933 222.612, 386.088 220.694 C 383.511 219.408, 383.240 219.427, 383.453 220.880 M 392 220.186 C 392 221.049, 392.675 222.315, 393.500 223 C 395.408 224.584, 395.389 223.098, 393.468 220.559 C 392.293 219.005, 392 218.931, 392 220.186 M 650.813 219.683 C 651.534 219.972, 652.397 219.936, 652.729 219.604 C 653.061 219.272, 652.471 219.036, 651.417 219.079 C 650.252 219.127, 650.015 219.364, 650.813 219.683 M 659.500 220 C 659.840 220.550, 660.316 221, 660.559 221 C 660.802 221, 661 220.550, 661 220 C 661 219.450, 660.523 219, 659.941 219 C 659.359 219, 659.160 219.450, 659.500 220 M 364.507 221.989 C 364.157 222.555, 364.558 222.723, 365.448 222.382 C 367.180 221.717, 367.497 221, 366.059 221 C 365.541 221, 364.843 221.445, 364.507 221.989 M 617.079 222.583 C 617.127 223.748, 617.364 223.985, 617.683 223.188 C 617.972 222.466, 617.936 221.603, 617.604 221.271 C 617.272 220.939, 617.036 221.529, 617.079 222.583 M 621.200 222.200 C 620.540 222.860, 620.016 224.097, 620.035 224.950 C 620.059 225.989, 620.489 225.747, 621.337 224.219 C 622.034 222.964, 622.990 222.289, 623.462 222.719 C 623.934 223.148, 623.997 222.938, 623.601 222.250 C 622.719 220.717, 622.684 220.716, 621.200 222.200 M 360.507 222.989 C 360.157 223.555, 360.558 223.723, 361.448 223.382 C 363.180 222.717, 363.497 222, 362.059 222 C 361.541 222, 360.843 222.445, 360.507 222.989 M 356.274 225.605 C 357.385 226.924, 357.793 228.419, 357.365 229.605 C 356.475 232.072, 357.383 231.180, 359 228 C 359.699 226.625, 359.909 225.838, 359.467 226.252 C 359.024 226.666, 357.726 226.216, 356.581 225.252 C 354.526 223.522, 354.522 223.526, 356.274 225.605 M 648.446 226.087 C 648.077 226.685, 648.179 227.579, 648.673 228.073 C 649.204 228.604, 649.571 228.160, 649.571 226.986 C 649.571 224.713, 649.386 224.566, 648.446 226.087 M 354.564 227.293 C 354.940 228.279, 355.499 228.834, 355.807 228.526 C 356.115 228.219, 355.808 227.412, 355.124 226.733 C 354.136 225.753, 354.022 225.868, 354.564 227.293 M 653.603 226.833 C 653.320 227.292, 653.723 227.667, 654.500 227.667 C 655.277 227.667, 655.680 227.292, 655.397 226.833 C 655.114 226.375, 654.710 226, 654.500 226 C 654.290 226, 653.886 226.375, 653.603 226.833 M 651.872 230.750 C 650.629 232.336, 650.664 232.371, 652.250 231.128 C 653.916 229.821, 654.445 229, 653.622 229 C 653.415 229, 652.627 229.787, 651.872 230.750 M 359.613 233.183 C 359.902 233.650, 360.557 233.774, 361.069 233.457 C 362.377 232.649, 362.230 232.333, 360.544 232.333 C 359.743 232.333, 359.324 232.716, 359.613 233.183 M 405.195 235.500 C 405.215 237.150, 405.439 237.704, 405.693 236.731 C 405.947 235.758, 405.930 234.408, 405.656 233.731 C 405.382 233.054, 405.175 233.850, 405.195 235.500 M 479.505 241.156 C 472.880 262.081, 471.703 275.175, 475.026 291 C 477.358 302.108, 481.876 318.122, 483.028 319.365 C 483.744 320.137, 483.156 233.995, 482.440 233.156 C 482.278 232.967, 480.957 236.567, 479.505 241.156 M 508.391 244.250 C 505.777 260.172, 505.782 296.777, 508.400 313 C 510.797 327.849, 511.494 329.005, 512.876 320.415 C 516.545 297.608, 517.168 270.021, 514.478 249.483 C 511.786 228.924, 511.016 228.262, 508.391 244.250 M 539.255 276.629 C 539.184 300.634, 539.479 319.875, 539.911 319.387 C 542.138 316.870, 550 281.779, 550 274.356 C 550 267.108, 542.484 236.287, 540.095 233.742 C 539.704 233.325, 539.326 252.624, 539.255 276.629 M 362 234.378 C 362 234.585, 362.788 235.373, 363.750 236.128 C 365.336 237.371, 365.371 237.336, 364.128 235.750 C 362.821 234.084, 362 233.555, 362 234.378 M 405.079 241.583 C 405.127 242.748, 405.364 242.985, 405.683 242.188 C 405.972 241.466, 405.936 240.603, 405.604 240.271 C 405.272 239.939, 405.036 240.529, 405.079 241.583 M 604 246 C 604 247.100, 604.408 248, 604.906 248 C 605.405 248, 605.577 247.100, 605.290 246 C 605.002 244.900, 604.594 244, 604.383 244 C 604.173 244, 604 244.900, 604 246 M 624.750 244.662 C 625.438 244.940, 626.563 244.940, 627.250 244.662 C 627.938 244.385, 627.375 244.158, 626 244.158 C 624.625 244.158, 624.063 244.385, 624.750 244.662 M 394.500 247 C 394.160 247.550, 394.610 248, 395.500 248 C 396.390 248, 396.840 247.550, 396.500 247 C 396.160 246.450, 395.710 246, 395.500 246 C 395.290 246, 394.840 246.450, 394.500 247 M 618.813 246.683 C 619.534 246.972, 620.397 246.936, 620.729 246.604 C 621.061 246.272, 620.471 246.036, 619.417 246.079 C 618.252 246.127, 618.015 246.364, 618.813 246.683 M 609.250 247.716 C 610.763 247.945, 613.237 247.945, 614.750 247.716 C 616.263 247.487, 615.025 247.300, 612 247.300 C 608.975 247.300, 607.737 247.487, 609.250 247.716 M 631.385 347.952 C 616.337 356.584, 612.654 370.984, 625.500 370.963 C 632.617 370.951, 639.084 367.228, 649.231 357.300 C 659.047 347.697, 658.019 344.994, 644.559 345.009 C 637.484 345.018, 635.876 345.377, 631.385 347.952 M 360.781 348.052 C 351.815 352.787, 353.930 362.991, 363.385 360.618 C 367.134 359.677, 374 352.555, 374 349.607 C 374 345.497, 367.147 344.691, 360.781 348.052 M 397 350.276 C 381.302 355.647, 365.668 369.555, 367.430 376.579 C 370.099 387.211, 399.438 374.277, 412.750 356.599 C 415.500 352.947, 415.516 352.516, 413 350 C 410.361 347.361, 405.262 347.449, 397 350.276 M 594.676 353.452 C 581.714 358.074, 557.364 381.644, 558.186 388.773 C 559.110 396.796, 574.391 388.635, 591.314 371.080 C 605.625 356.235, 606.993 349.059, 594.676 353.452 M 303.062 375.250 C 298.744 384.473, 295.116 394.354, 293.658 400.862 C 293.164 403.066, 293.342 403.175, 296.314 402.493 C 304.833 400.537, 314.112 399.984, 309.244 401.722 C 308.553 401.969, 308.287 402.695, 308.654 403.335 C 309.021 403.976, 308.951 404.165, 308.500 403.756 C 308.049 403.348, 305.373 405.148, 302.553 407.756 C 299.734 410.365, 296.063 413.668, 294.396 415.095 C 291.884 417.246, 291.434 418.277, 291.766 421.121 C 292.206 424.888, 292.511 425.090, 317.500 438.188 C 327.858 443.617, 328.279 443.954, 324.708 443.976 C 318.864 444.013, 306.094 441.132, 300.129 438.431 C 297.175 437.094, 294.612 436, 294.433 436 C 294.254 436, 294.930 438.389, 295.934 441.309 C 301.181 456.558, 316.580 482.540, 319.819 481.607 C 322.401 480.863, 337.571 478.293, 346.500 477.087 C 358.113 475.518, 385.855 473.899, 397.863 474.089 C 405.712 474.213, 408.437 473.919, 409.097 472.877 C 411.078 469.749, 409.929 469.304, 398.250 468.674 C 391.044 468.285, 383.599 467.212, 379 465.900 C 374.875 464.723, 370.375 463.791, 369 463.829 C 367.625 463.867, 361.272 464.200, 354.883 464.570 C 341.076 465.368, 327.638 462.546, 315.917 456.387 C 304.055 450.154, 304.137 448.872, 316.222 451.608 C 321.875 452.887, 331.225 454.661, 337 455.549 C 342.775 456.437, 349.975 457.754, 353 458.477 C 364.454 461.214, 364.920 461.219, 360 458.563 C 350.140 453.239, 338.296 438.874, 332.738 425.500 C 329.466 417.624, 325.022 403.483, 320.954 388 C 316.805 372.210, 315.725 369.652, 312.117 367.083 C 308.048 364.186, 308.384 363.882, 303.062 375.250 M 706.523 367.620 C 705.622 368.521, 705.131 369.898, 705.431 370.681 C 705.731 371.464, 705.597 371.869, 705.132 371.582 C 704.667 371.294, 703.288 374.984, 702.066 379.780 C 689.607 428.699, 682.304 443.829, 665.922 454.671 C 663.742 456.113, 662.155 457.489, 662.395 457.728 C 662.809 458.142, 673.864 456.268, 696.896 451.881 C 702.614 450.791, 708.689 449.200, 710.396 448.344 L 713.500 446.789 711.500 448.831 C 706.596 453.838, 690.908 460.827, 680 462.863 C 666.752 465.336, 653.040 465.362, 654.555 462.911 C 655.303 461.701, 655.273 461.707, 649.454 463.919 C 643.740 466.091, 634.162 467.575, 619.379 468.580 C 609.997 469.218, 609.295 469.411, 609.767 471.219 C 610.481 473.949, 609.892 473.878, 636.500 474.404 C 657.867 474.827, 676.008 476.419, 696.164 479.642 L 699.890 480.238 705.325 471.869 C 713.565 459.182, 723.413 438.079, 721.831 436.498 C 721.626 436.292, 717.850 437.401, 713.441 438.962 C 705.738 441.688, 690.359 444.692, 689.337 443.670 C 689.066 443.400, 692.817 441.170, 697.672 438.716 C 702.528 436.262, 708.075 433.366, 710 432.280 C 725.419 423.588, 724.914 423.973, 725.589 420.375 C 725.947 418.468, 726.074 416.794, 725.870 416.656 C 725.667 416.518, 722.406 413.952, 718.625 410.953 C 714.844 407.954, 711.244 405.650, 710.625 405.833 C 710.006 406.017, 709.842 405.825, 710.259 405.408 C 710.677 404.990, 710.036 403.602, 708.835 402.324 C 706.108 399.422, 707.148 399.325, 717.500 401.517 C 721.349 402.333, 724.599 403, 724.722 403 C 726.160 403, 710.990 367.730, 709.030 366.519 C 708.552 366.223, 707.424 366.719, 706.523 367.620 M 432.389 367.980 C 426.240 370.464, 430.850 379.258, 437.436 377.606 C 441.988 376.463, 441.987 370.226, 437.434 368.152 C 436.043 367.518, 434.815 367.029, 434.703 367.063 C 434.591 367.098, 433.550 367.511, 432.389 367.980 M 501.415 379.421 C 499.719 380.160, 497.404 381.943, 496.271 383.383 C 493.745 386.594, 486.001 410.543, 485.997 415.154 C 485.996 416.994, 484.912 422.550, 483.589 427.500 C 482.266 432.450, 480.664 439.200, 480.030 442.500 C 478.041 452.844, 477.918 453.329, 476.885 454.933 C 475.592 456.942, 476.620 444.130, 478.055 440.355 C 479.456 436.671, 479.870 428.038, 478.682 427.303 C 478.126 426.960, 478.005 427.198, 478.405 427.845 C 478.797 428.480, 478.738 429, 478.275 429 C 477.485 429, 473.357 435.211, 473.791 435.745 C 473.901 435.880, 472.611 437.310, 470.925 438.921 C 469.238 440.533, 467.778 442.205, 467.679 442.636 C 467.398 443.865, 459.962 450.352, 455 453.697 C 445.336 460.212, 430.077 466.068, 418.704 467.627 C 415.502 468.066, 413.432 468.973, 412.457 470.364 C 409.822 474.126, 410.627 474.674, 419.750 475.326 C 428.393 475.943, 439.746 478.588, 438.614 479.720 C 438.293 480.041, 431.897 479.729, 424.401 479.027 C 408.800 477.567, 409.040 477.467, 409.015 485.388 L 409 490.275 417.487 489.586 C 426.646 488.843, 438.643 489.757, 437.304 491.096 C 436.851 491.549, 430.502 492.333, 423.194 492.839 C 415.887 493.345, 409.631 494.036, 409.293 494.374 C 408.955 494.712, 409.281 497.503, 410.018 500.577 C 411.276 505.818, 411.518 506.131, 413.929 505.618 C 421.774 503.950, 440.006 501.673, 440.618 502.285 C 441.857 503.524, 440.653 503.923, 427.924 506.499 C 421.091 507.882, 414.902 509.235, 414.172 509.505 C 413.262 509.842, 414.365 511.810, 417.672 515.749 C 430.797 531.383, 448.712 537.982, 470.420 535.180 C 490.334 532.609, 506.123 519.277, 507.669 503.728 L 508.188 498.500 504.047 496 C 501.770 494.625, 498.590 491.454, 496.980 488.954 C 494.993 485.867, 492.686 483.805, 489.789 482.527 C 475.908 476.403, 469.596 460.406, 478.979 455.132 C 490.889 448.438, 528.552 448.063, 541.027 454.514 L 543.720 455.906 541.975 446.703 C 541.016 441.641, 538.829 431.506, 537.115 424.180 C 535.402 416.854, 534 409.793, 534 408.489 C 534 407.186, 532.869 402.830, 531.487 398.810 C 530.105 394.789, 528.474 389.925, 527.864 388 C 526.437 383.501, 524.295 381.061, 520.282 379.362 C 516.197 377.633, 505.445 377.667, 501.415 379.421 M 542.602 431.172 C 542.845 434.102, 543.463 439.200, 543.975 442.500 C 546.859 461.094, 547.179 464.588, 546.220 467.017 C 544.252 472.003, 537.178 479.735, 532.523 481.989 C 529.467 483.468, 526.529 486.077, 523.879 489.663 C 521.672 492.652, 518.321 495.833, 516.433 496.733 C 512.487 498.615, 512.489 498.607, 514.544 506.540 C 519.441 525.445, 539.599 537.385, 563.500 535.537 C 577.609 534.446, 586.722 531.143, 595 524.119 C 598.408 521.228, 598.448 521.110, 596.519 519.669 C 594.615 518.246, 594.638 518.208, 597.116 518.682 C 599.212 519.083, 600.283 518.431, 602.847 515.193 C 604.581 513.004, 606 510.806, 606 510.310 C 606 509.814, 600.263 508.159, 593.250 506.633 C 586.237 505.107, 580.072 503.440, 579.550 502.929 C 577.921 501.336, 586.587 501.878, 597.142 504.029 C 602.617 505.145, 607.514 505.800, 608.023 505.486 C 609.660 504.474, 612.125 494.696, 610.929 493.956 C 610.338 493.591, 604.378 492.982, 597.685 492.604 C 590.992 492.226, 585.126 491.526, 584.649 491.049 C 583.304 489.704, 596.124 488.683, 604.505 489.468 L 612 490.171 612 487.210 C 612 485.582, 611.709 482.793, 611.353 481.013 L 610.705 477.775 605.103 478.353 C 590.459 479.863, 582.542 480.193, 583.500 479.253 C 584.868 477.911, 592.089 476.298, 600.500 475.455 C 609.207 474.583, 609.317 474.514, 607.518 471.035 C 606.376 468.826, 605.081 468.021, 601.772 467.463 C 579.059 463.632, 559.879 451.743, 547.704 433.947 L 542.160 425.843 542.602 431.172 M 492.500 458.469 C 490.300 459.295, 488.275 460.028, 488 460.100 C 487.725 460.171, 489.300 460.602, 491.500 461.057 C 497.674 462.334, 525.202 462.174, 529.032 460.839 L 532.362 459.678 529.931 458.695 C 525.569 456.930, 497.061 456.758, 492.500 458.469 M 373 478.685 C 357.244 479.861, 323.197 483.826, 322.149 484.607 C 321.341 485.209, 327.609 492.290, 333.629 497.576 L 340.104 503.260 347.302 501.139 C 360.730 497.180, 394.374 491, 402.493 491 C 405.144 491, 406.015 490.573, 406.060 489.250 C 406.092 488.288, 406.471 485.363, 406.901 482.750 L 407.683 478 392.591 478.175 C 384.291 478.271, 375.475 478.501, 373 478.685 M 613.386 480.843 C 613.724 482.579, 614.251 485.304, 614.557 486.898 C 615.171 490.094, 617.038 490.952, 623.500 491.007 C 628.658 491.051, 653.902 494.371, 669.966 497.119 L 682.490 499.261 689.244 491.880 C 692.958 487.821, 695.998 484.225, 695.999 483.890 C 696.002 482.390, 658.965 479.002, 635.136 478.323 L 612.772 477.685 613.386 480.843 M 386 496.508 C 378.575 497.830, 365.884 500.382, 357.797 502.179 C 340.656 505.988, 340.814 505.229, 355.121 515.029 L 363.947 521.074 368.224 519.165 C 373.588 516.771, 382.268 514.002, 396.987 509.990 C 403.305 508.268, 408.541 506.778, 408.622 506.680 C 408.704 506.581, 408.227 503.800, 407.562 500.500 C 406.069 493.089, 405.645 493.011, 386 496.508 M 614 495.874 C 614 496.905, 613.316 499.686, 612.481 502.054 C 610.623 507.320, 609.976 506.869, 625.354 511.048 C 632.035 512.863, 641.206 515.800, 645.737 517.573 L 653.973 520.799 661.237 515.738 C 669.940 509.673, 678.238 502.905, 677.669 502.336 C 676.463 501.130, 624.791 494, 617.256 494 C 614.739 494, 614 494.426, 614 495.874 M 401.800 511.967 C 389.240 515.317, 368.959 522.376, 369.264 523.291 C 369.756 524.769, 391.537 535.439, 404.163 540.387 C 422.956 547.753, 451.309 555.149, 461.646 555.383 C 464.477 555.448, 466.588 555.837, 466.337 556.250 C 466.087 556.663, 466.440 557, 467.121 557 C 467.803 557, 471.154 558.820, 474.568 561.044 C 497.613 576.059, 524.830 576.055, 546.948 561.035 C 550.477 558.639, 554.720 556.639, 556.819 556.382 C 570.926 554.658, 597.806 547.085, 617.028 539.419 C 628.877 534.693, 631.131 534.091, 633.620 534.981 C 636.139 535.883, 636.281 535.841, 634.750 534.646 C 632.323 532.751, 632.071 532.999, 641.500 528 C 646.169 525.525, 649.991 523.263, 649.994 522.974 C 650.003 522.192, 617.370 511.859, 613.071 511.283 C 609.844 510.850, 609.132 511.149, 607.514 513.618 C 596.755 530.040, 573.068 541.790, 552.765 540.778 C 541.807 540.231, 533.738 537.706, 524.170 531.827 C 520.502 529.573, 516.039 526.846, 514.253 525.767 L 511.006 523.806 502.958 528.525 C 498.531 531.120, 495.168 533.501, 495.484 533.817 C 495.799 534.133, 494.132 534.943, 491.779 535.618 C 489.425 536.293, 484.360 537.780, 480.522 538.923 C 458.435 545.498, 426.099 533.895, 413.713 514.951 C 411.946 512.248, 410.050 510.068, 409.500 510.108 C 408.950 510.148, 405.485 510.985, 401.800 511.967 M 410.507 524.989 C 410.157 525.555, 410.558 525.723, 411.448 525.382 C 413.180 524.717, 413.497 524, 412.059 524 C 411.541 524, 410.843 524.445, 410.507 524.989 M 612.443 552.360 C 606.772 555.582, 573.991 581.176, 574.493 581.989 C 574.724 582.362, 574.360 582.667, 573.686 582.667 C 572.163 582.667, 547.427 601.056, 547.694 601.989 C 547.801 602.362, 547.351 602.685, 546.694 602.708 C 546.037 602.731, 541.770 605.274, 537.211 608.358 C 522.731 618.155, 509.346 619.698, 496 613.107 C 488.192 609.252, 451.961 584.179, 428.257 566.228 C 413.092 554.743, 405.547 549.894, 404.698 551.088 C 404.537 551.314, 402.704 558.375, 400.625 566.777 C 394.792 590.344, 384.829 619.724, 367.484 664.500 C 354.056 699.166, 352.740 707.618, 356.946 732.151 C 359.854 749.112, 386.137 831.386, 398.467 862.128 C 399.015 863.492, 401.499 863.843, 413.810 864.291 C 442.565 865.338, 463.512 875.352, 471.701 891.966 C 473.866 896.358, 473.903 899.381, 471.744 895.492 C 461.642 877.294, 429.032 866.310, 395.830 869.922 C 377.478 871.919, 371.698 874.933, 366.223 885.362 C 361.790 893.804, 362.852 910.318, 368.033 913.520 C 368.731 913.952, 368.828 913.223, 368.325 911.334 C 366.714 905.288, 368.465 891.993, 370.871 892.003 C 371.217 892.004, 371.528 896.166, 371.562 901.253 C 371.658 915.436, 375.142 921.162, 385.648 924.407 C 387.779 925.065, 387.775 925.019, 385.229 918.785 C 380.052 906.108, 382.452 890.702, 390.924 882.230 C 394.642 878.512, 402.803 873.469, 403.681 874.347 C 404.005 874.672, 402.923 875.711, 401.276 876.656 C 390.476 882.855, 385.972 908.336, 393.520 920.540 C 398.823 929.114, 408.404 932.134, 425.282 930.553 C 435.115 929.631, 435.647 929.210, 432.885 924.530 C 429.815 919.326, 429.047 906.785, 431.418 900.576 C 433.207 895.891, 441.777 887, 444.504 887 C 445.720 887, 445.407 887.882, 443.171 890.750 C 439.153 895.903, 437.993 900.012, 438.044 908.899 C 438.091 917.161, 440.448 925.683, 443.145 927.344 C 448.031 930.354, 472.255 920.712, 470.605 916.414 C 470.285 915.579, 470.449 915.159, 470.969 915.481 C 473.356 916.956, 477.969 902.795, 477.988 893.934 C 478.008 884.844, 477.134 880.880, 459.387 809.500 C 455.831 795.200, 451.593 777.650, 449.969 770.500 L 447.017 757.500 434.450 744.500 C 427.539 737.350, 421.460 731.613, 420.942 731.750 C 420.424 731.888, 420.112 731.628, 420.250 731.172 C 420.387 730.717, 416.337 725.677, 411.250 719.971 C 400.697 708.136, 399.775 706.208, 407.250 711.599 C 410.137 713.682, 415.409 717.427, 418.964 719.920 C 422.519 722.413, 429.214 727.276, 433.842 730.727 C 438.470 734.177, 442.606 737, 443.033 737 C 443.460 737, 444.997 734.975, 446.447 732.500 C 449.228 727.754, 451 726.738, 451 729.889 C 451 730.928, 453.051 740.265, 455.557 750.639 C 460.572 771.396, 465.120 790.291, 475.984 835.500 C 479.949 852, 483.355 866.048, 483.553 866.718 C 484.254 869.089, 499.576 873.909, 513 875.981 C 520.543 877.146, 542.950 877.319, 544.669 876.226 C 545.312 875.817, 547.204 868.961, 548.874 860.991 C 550.543 853.021, 555.318 830.975, 559.483 812 C 563.648 793.025, 567.687 774.575, 568.457 771 C 569.228 767.425, 571.270 757.975, 572.995 750 C 574.720 742.025, 576.386 733.813, 576.698 731.750 C 577.421 726.955, 577.967 727.033, 581.893 732.500 C 583.670 734.975, 585.302 737, 585.519 737 C 586.725 737, 604.455 722.595, 604.225 721.801 C 604.074 721.279, 604.360 721.104, 604.860 721.413 C 605.360 721.723, 609.953 718.838, 615.067 715.003 C 624.839 707.675, 626.568 706.990, 623.139 711.805 C 621.995 713.412, 621.383 715.085, 621.780 715.523 C 622.176 715.962, 621.968 716.016, 621.318 715.644 C 620.669 715.271, 619.544 715.807, 618.818 716.834 C 617.616 718.537, 610.338 726.883, 600.764 737.536 C 598.709 739.823, 597.359 742.060, 597.764 742.507 C 598.169 742.955, 598.011 743.043, 597.414 742.703 C 596.817 742.363, 593.053 745.459, 589.051 749.582 L 581.775 757.080 579.807 766.290 C 578.724 771.356, 573.338 795.750, 567.836 820.500 C 553.724 883.988, 554.028 882.393, 554.013 893.135 C 553.990 909.901, 558.909 918.993, 570.915 924.381 C 577.966 927.546, 586.284 928.839, 588.382 927.098 C 591.105 924.838, 593.330 913.648, 592.747 905.144 C 592.168 896.692, 591.223 894.073, 587.191 889.750 C 583.607 885.908, 586.457 886.100, 591.937 890.069 C 601.227 896.799, 604.052 911.425, 598.302 923.027 L 595.353 928.976 598.927 929.656 C 600.892 930.030, 607.450 930.373, 613.500 930.418 C 630.502 930.545, 637.188 926.236, 640.589 912.960 C 644.010 899.607, 640.405 886.047, 631.304 878.036 C 625.955 873.328, 626.727 872.799, 633.054 876.838 C 639.082 880.686, 643.471 885.386, 646.185 890.899 C 649.566 897.765, 649.415 910.224, 645.848 918.750 C 642.984 925.594, 643.235 925.941, 648.945 923.028 C 656.248 919.302, 658.842 913.768, 659.971 899.500 C 660.554 892.125, 660.697 891.720, 661.802 894.315 C 663.271 897.768, 663.376 909.881, 661.968 913.584 C 661.043 916.016, 661.103 916.159, 662.541 914.966 C 669.233 909.413, 670.322 896.078, 664.957 885.388 C 658.650 872.822, 649.991 869.629, 622.500 869.735 C 590.764 869.857, 574.175 876.182, 560.171 893.500 L 556.936 897.500 558.393 893.808 C 565.613 875.508, 589.644 864, 620.638 864 L 630.923 864 639.398 837.750 C 669.095 745.771, 673.432 727.538, 671.006 704.867 C 669.809 693.683, 668.737 690.454, 656.948 662.500 C 635.501 611.648, 624.314 581.301, 618.979 559.500 C 617.767 554.550, 616.698 550.409, 616.603 550.298 C 616.507 550.187, 614.635 551.115, 612.443 552.360 M 676.011 688.050 C 676.017 688.298, 676.664 690.615, 677.448 693.200 C 685.327 719.164, 679.784 746.491, 645.567 850.365 C 640.191 866.687, 640.441 865, 643.395 865 C 650.296 865, 659.458 869.137, 664.687 874.616 C 672.123 882.405, 674.379 888.842, 673.672 900.250 C 673.374 905.063, 673.448 909, 673.836 909 C 674.224 909, 677.907 907.015, 682.021 904.589 C 727.690 877.654, 739.898 802.684, 708.741 740.500 C 701.810 726.669, 675.943 685.215, 676.011 688.050 M 342.835 724.742 C 335.684 737.510, 325.446 766.420, 322.381 782.500 C 314.971 821.372, 328.911 872.887, 353.315 896.821 L 357.721 901.143 358.213 894.321 C 359.277 879.554, 369.596 868.114, 384.250 865.457 C 388.938 864.607, 388.994 865.319, 382.886 848 C 362.520 790.248, 349.883 749.513, 347.853 735.069 C 347.268 730.906, 346.499 725.809, 346.145 723.742 L 345.500 719.985 342.835 724.742" stroke="#000000" stroke-width="0.5" fill="#000000" fill-rule="evenodd"/>
</svg>