<!-- Оптимизировано для шелкографии -->
          <!-- Рекомендации: одноцветная печать, плотность красок 100% -->
          <svg xmlns="http://www.w3.org/2000/svg" width="100%" height="100%" viewBox="0 0 1024 1024">
	<path d="M 0 512.001 L 0 1024.002 512.250 1023.751 L 1024.500 1023.500 1024.751 511.750 L 1025.002 0 512.501 0 L 0 0 0 512.001 M 0.496 512.500 C 0.496 794.100, 0.610 909.151, 0.750 768.168 C 0.890 627.186, 0.890 396.786, 0.750 256.168 C 0.610 115.551, 0.496 230.900, 0.496 512.500 M 618.414 206.327 C 615.617 208.072, 609.588 211.750, 605.015 214.500 C 597.649 218.929, 596.449 220.071, 594.499 224.500 C 589.556 235.726, 590.130 236.075, 599.186 227.347 C 603.759 222.939, 611.325 215.664, 616 211.181 C 620.675 206.698, 624.275 203.058, 624 203.092 C 623.725 203.125, 621.212 204.581, 618.414 206.327 M 400 211.988 C 418.222 229.723, 424.164 235.087, 423.640 233.329 C 423.340 232.323, 422.785 230.150, 422.407 228.500 C 420.793 221.459, 418.177 219.311, 394 205.177 C 392.625 204.373, 395.325 207.438, 400 211.988 M 500.500 209.984 C 494.450 210.268, 488.938 210.864, 488.250 211.309 C 485.448 213.123, 487.461 253.906, 490.592 258.750 C 492.025 260.968, 492.323 260.997, 511.273 260.792 L 530.500 260.585 511.330 260.042 C 500.787 259.744, 491.915 259.252, 491.613 258.950 C 490.404 257.734, 488.901 238.837, 489.191 228.500 L 489.500 217.500 511 217.500 L 532.500 217.500 532.454 235.500 C 532.428 245.400, 532.082 255.061, 531.685 256.969 C 531.118 259.692, 531.224 260.176, 532.178 259.222 C 534.013 257.387, 534.822 248.394, 534.916 228.811 L 535 211.123 530.750 210.606 C 523.217 209.690, 511.773 209.455, 500.500 209.984 M 447.521 213.612 C 441.559 215.054, 437.967 217, 441.269 217 C 442.398 217, 442.762 217.565, 442.393 218.750 C 441.885 220.385, 441.923 220.384, 442.986 218.729 C 443.611 217.755, 444.525 217.207, 445.017 217.511 C 446.245 218.270, 452.193 215.680, 453.872 213.655 C 455.477 211.720, 455.349 211.720, 447.521 213.612 M 568.023 214.424 C 570.031 216.390, 571.801 216.931, 577.380 217.287 C 582.323 217.602, 583.755 217.442, 582.465 216.720 C 580.983 215.891, 567.644 212.075, 566.023 212.017 C 565.760 212.008, 566.660 213.091, 568.023 214.424 M 541.500 237.931 C 541.500 264.834, 542.573 270.012, 543.068 245.500 C 543.474 225.396, 543.162 213, 542.250 213.001 C 541.837 213.001, 541.500 224.219, 541.500 237.931 M 481.024 230.500 C 480.700 239.356, 480.967 254.099, 481.541 259 C 481.702 260.375, 481.871 261.837, 481.917 262.250 C 481.962 262.663, 482.477 263, 483.059 263 C 483.661 263, 483.777 262.460, 483.328 261.750 C 482.894 261.063, 482.272 251.725, 481.946 241 C 481.540 227.625, 481.251 224.327, 481.024 230.500 M 261.579 268.655 C 260.848 270.561, 260.848 279.832, 261.579 282.556 C 261.883 283.686, 263.423 285.099, 265.001 285.694 C 268.241 286.917, 269 286.021, 269 280.977 C 269 277.304, 269.860 276.846, 274.403 278.101 C 279.642 279.547, 281.122 278.619, 277.139 276.385 C 275.290 275.348, 271.163 272.845, 267.968 270.823 C 263.263 267.845, 262.048 267.433, 261.579 268.655 M 750.144 268.326 C 749.539 269.056, 744.998 271.846, 740.054 274.526 C 735.110 277.206, 731.182 279.516, 731.326 279.659 C 731.469 279.802, 734.416 279.259, 737.876 278.452 C 745.275 276.726, 746 277.003, 746 281.559 C 746 284.550, 746.323 285, 748.465 285 C 751.892 285, 753 282.328, 753 274.066 C 753 267.104, 752.310 265.717, 750.144 268.326 M 482.565 272.578 C 480.620 274.523, 478.700 278, 479.571 278 C 479.924 278, 481.097 276.875, 482.179 275.500 L 484.145 273 510.927 273 L 537.708 273 540.354 275.452 C 543.508 278.375, 543.837 277.334, 540.927 273.635 L 538.855 271 511.499 271 C 487.915 271, 483.925 271.218, 482.565 272.578 M 543.326 282.803 C 543.155 286.461, 543.162 286.469, 544.050 283.524 C 544.544 281.887, 544.622 280.224, 544.224 279.827 C 543.826 279.431, 543.422 280.770, 543.326 282.803 M 488.750 281.080 C 487.346 281.898, 487.014 283.424, 487.071 288.800 C 487.189 299.895, 488.608 313.008, 489.823 314.223 C 490.679 315.079, 490.719 314.507, 489.983 311.939 C 489.442 310.055, 489 303.014, 489 296.292 C 489 285.232, 489.184 283.972, 490.934 283.035 C 492.073 282.426, 500.693 282, 511.899 282 C 530.482 282, 530.957 282.052, 532.107 284.200 C 533.804 287.371, 532.471 312.189, 530.387 316.219 C 529.533 317.870, 529.325 318.917, 529.925 318.547 C 532.662 316.855, 533.783 311.865, 534.464 298.349 C 535.471 278.346, 537.516 279.993, 511.715 280.030 C 499.174 280.048, 489.784 280.478, 488.750 281.080 M 364.023 287.878 C 353.235 293.831, 349.281 298.047, 347.378 305.629 C 346.272 310.036, 349.134 308.199, 362.952 295.636 C 380.258 279.901, 380.405 278.838, 364.023 287.878 M 637 282.300 C 637 283.164, 662.273 305.533, 664.739 306.852 C 667.214 308.176, 667.254 308.144, 666.583 305.352 C 664.825 298.029, 660.890 293.837, 650.611 288.336 C 640.977 283.181, 637 281.417, 637 282.300 M 494.321 288.605 C 493.982 289.488, 493.973 295.532, 494.300 302.035 L 494.894 313.860 499.635 321.680 C 502.242 325.981, 505.641 331.501, 507.187 333.946 C 510.454 339.109, 511.033 342.097, 508.336 339.872 C 506.816 338.618, 506.784 338.710, 507.973 340.940 L 509.274 343.380 510.934 341.330 C 511.847 340.202, 515.804 333.704, 519.728 326.890 L 526.861 314.500 527.009 302 C 527.091 295.125, 527.123 288.938, 527.079 288.250 C 526.946 286.143, 495.134 286.488, 494.321 288.605 M 406.056 331.209 C 405.797 334.504, 423.061 365.684, 426.228 367.641 C 427.469 368.408, 410.714 336.404, 408.157 333.125 C 407.032 331.681, 406.086 330.819, 406.056 331.209 M 607.835 333.750 C 605.093 336.721, 588.750 367.768, 589.217 369.121 C 589.783 370.761, 600.034 353.954, 605.380 342.620 C 608.395 336.229, 610.752 331, 610.618 331 C 610.484 331, 609.232 332.238, 607.835 333.750 M 419 339.587 C 419 339.974, 421.565 345.062, 424.700 350.895 C 434.695 369.490, 434.998 370.332, 437.285 385.831 C 439.757 402.576, 440.166 402.029, 441.898 379.657 C 443.115 363.950, 443.338 364.799, 435.416 355 C 430.417 348.816, 419 338.097, 419 339.587 M 591.600 343.548 C 588.529 346.050, 583.313 351.648, 580.008 355.989 C 573.040 365.143, 572.961 365.661, 575.537 385.305 C 577.282 398.607, 578.832 404.148, 578.937 397.458 C 579.238 378.233, 582.964 365.573, 594.009 346.250 C 596.288 342.262, 597.935 339, 597.668 339 C 597.401 339, 594.671 341.047, 591.600 343.548 M 597.079 374.809 C 597.036 375.529, 596.561 375.847, 596.024 375.515 C 594.847 374.787, 590.313 383.657, 588.493 390.250 C 586.814 396.328, 587.139 396.226, 591.685 389.250 C 595.768 382.984, 598.399 376.546, 597.640 374.682 C 597.302 373.855, 597.134 373.893, 597.079 374.809 M 421.752 376.210 C 421.180 377.879, 423.888 384.189, 427.860 390.446 C 431.583 396.309, 432.043 394.344, 429.011 385.531 C 426.924 379.465, 422.557 373.858, 421.752 376.210 M 710 387.378 C 710 387.585, 710.788 388.373, 711.750 389.128 C 713.336 390.371, 713.371 390.336, 712.128 388.750 C 710.821 387.084, 710 386.555, 710 387.378 M 295 393.935 C 287.139 399.320, 279.236 407.903, 280.748 409.414 C 282.384 411.050, 284.314 409.511, 286.142 405.112 C 287.646 401.493, 289.384 399.421, 292.837 397.128 C 297.557 393.994, 304.919 388.029, 304 388.083 C 303.725 388.100, 299.675 390.733, 295 393.935 M 716 391.918 C 717.375 393.103, 720.525 395.489, 723 397.220 C 728.354 400.965, 728.698 401.407, 730.039 406.250 C 730.941 409.510, 734 411.712, 734 409.102 C 734 404.697, 727.275 397.950, 716.500 391.546 L 713.500 389.763 716 391.918 M 185.270 404.603 C 185.960 405.293, 211.177 405.157, 211.874 404.459 C 212.127 404.206, 206.108 404, 198.500 404 C 190.892 404, 184.938 404.271, 185.270 404.603 M 379.701 406.138 C 376.107 411.825, 377.341 417.467, 382.712 419.915 C 390.947 423.667, 396.543 415.051, 390.935 407.258 C 388.443 403.795, 381.611 403.114, 379.701 406.138 M 809.083 404.396 C 809.990 405.258, 830.773 405.769, 835 405.033 C 838.192 404.478, 835.018 404.214, 824.083 404.125 C 815.604 404.056, 808.854 404.178, 809.083 404.396 M 631.655 406.829 C 629.569 409.133, 629.533 412.391, 631.571 414.429 C 633.630 416.487, 634.589 416.411, 637 414 C 639.407 411.593, 639.501 410.160, 637.443 407.223 C 635.551 404.521, 633.848 404.406, 631.655 406.829 M 505.814 409.520 C 505.480 409.853, 505.537 411.336, 505.941 412.813 C 506.606 415.251, 507.106 415.494, 511.315 415.439 C 516.643 415.368, 516.687 415.342, 517.152 412 C 517.483 409.621, 517.233 409.486, 511.960 409.206 C 508.913 409.045, 506.147 409.186, 505.814 409.520 M 414.896 418.104 C 410.900 422.100, 415.218 431, 421.151 431 C 427.976 431, 428.271 421.966, 421.580 417.885 C 417.720 415.532, 417.460 415.540, 414.896 418.104 M 592.838 421.890 C 584.137 428.478, 583.727 429.645, 588.323 434.750 C 594.864 442.016, 609.190 429.448, 604.812 420.286 C 602.769 416.009, 600.142 416.362, 592.838 421.890 M 622.158 428 C 622.158 429.375, 622.385 429.938, 622.662 429.250 C 622.940 428.563, 622.940 427.438, 622.662 426.750 C 622.385 426.063, 622.158 426.625, 622.158 428 M 315 435.097 C 309.775 438.407, 305.166 441.445, 304.758 441.849 C 303.625 442.971, 312.591 477.883, 317.082 489.841 C 321.282 501.021, 328.508 513.681, 332.468 516.796 C 335.239 518.976, 343.147 522.413, 366.500 531.589 C 375.850 535.263, 385.075 539.051, 387 540.006 C 392.858 542.914, 395.083 543.380, 394.381 541.552 C 393.575 539.451, 384.002 534.206, 370.500 528.468 C 340.768 515.833, 326.553 502.561, 317.013 478.529 C 314.257 471.585, 308 448.352, 308 445.060 C 308 444.049, 311.400 441.051, 316.397 437.657 C 331.464 427.422, 330.347 425.376, 315 435.097 M 697.076 433.404 C 698.243 435.382, 699.540 437, 699.959 437 C 701.818 437, 712 444.582, 711.997 445.964 C 711.986 453.157, 701.417 482.886, 695.409 492.625 C 686.004 507.871, 677.596 514.151, 645.795 529.679 C 630.352 537.219, 625.826 540.159, 627.335 541.669 C 627.546 541.879, 631.269 540.492, 635.609 538.587 C 639.949 536.682, 651.150 531.893, 660.500 527.945 C 686.586 516.931, 685.591 517.583, 692.686 506.834 C 699.818 496.031, 701.749 491.845, 705.847 478.312 C 709.217 467.179, 715.302 442.932, 714.819 442.557 C 713.685 441.677, 701.839 433.972, 698.727 432.090 L 694.955 429.809 697.076 433.404 M 381 435.691 C 381 438.253, 381.068 438.290, 382.411 436.452 C 383.846 434.490, 383.643 433, 381.941 433 C 381.423 433, 381 434.211, 381 435.691 M 633.587 434.313 C 632.184 435.339, 632.016 435.892, 632.936 436.460 C 634.381 437.353, 636.396 435.689, 635.851 434.053 C 635.591 433.273, 634.901 433.352, 633.587 434.313 M 386.269 437.693 C 387.242 437.947, 388.592 437.930, 389.269 437.656 C 389.946 437.382, 389.150 437.175, 387.500 437.195 C 385.850 437.215, 385.296 437.439, 386.269 437.693 M 636.981 438.523 C 635.924 439.796, 635.986 439.943, 637.359 439.416 C 638.261 439.069, 639 438.384, 639 437.893 C 639 436.607, 638.421 436.788, 636.981 438.523 M 315.223 440.557 C 312.411 442.526, 312.437 444.522, 315.422 456.291 C 319.356 471.801, 330.844 494.476, 337.613 500.094 C 340.588 502.563, 339.811 500.194, 335.967 495.079 C 326.909 483.024, 319.404 465.896, 316.005 449.524 C 315.005 444.708, 315.068 443.545, 316.442 441.449 C 318.324 438.576, 318.190 438.478, 315.223 440.557 M 388.756 441.664 C 389.447 441.943, 389.751 442.594, 389.432 443.110 C 389.113 443.627, 389.222 443.985, 389.676 443.906 C 391.878 443.524, 393 444.163, 393 445.800 C 393 446.790, 393.431 448.031, 393.958 448.558 C 394.561 449.161, 394.567 450.070, 393.974 451.008 C 393.173 452.274, 393.028 452.235, 393.015 450.750 C 393.006 449.725, 392.275 449.033, 391.250 449.079 C 390.205 449.126, 390.003 449.361, 390.750 449.662 C 392.559 450.392, 392.284 452.735, 390.250 453.920 C 389.288 454.481, 388.907 454.953, 389.405 454.970 C 389.903 454.986, 389.536 455.855, 388.590 456.901 C 387.434 458.178, 387.227 459.022, 387.960 459.475 C 388.566 459.850, 388.928 459.562, 388.775 458.824 C 388.496 457.479, 390.463 457.322, 394.750 458.347 C 396.292 458.716, 397 458.431, 397 457.443 C 397 455.828, 397.598 455.753, 400.500 457 C 402.411 457.821, 402.415 457.863, 400.583 457.930 C 399.529 457.968, 398.933 458.266, 399.258 458.591 C 399.583 458.917, 400.783 458.886, 401.924 458.524 C 403.595 457.994, 403.803 457.501, 402.994 455.989 C 402.131 454.377, 402.307 454.171, 404.245 454.528 C 406.464 454.937, 406.460 454.910, 404 452.885 C 402.625 451.753, 402.132 451.160, 402.905 451.568 C 403.809 452.045, 404.064 451.913, 403.622 451.198 C 402.584 449.518, 399.794 450.994, 400.445 452.879 C 400.828 453.988, 400.508 453.869, 399.432 452.500 C 398.567 451.400, 397.441 450.613, 396.929 450.750 C 395.346 451.176, 395.909 449.249, 397.552 448.618 C 398.406 448.291, 398.848 448.437, 398.536 448.942 C 398.223 449.448, 398.422 450.143, 398.977 450.486 C 399.569 450.852, 399.902 450.086, 399.782 448.633 C 399.607 446.521, 399.295 446.307, 397.661 447.181 C 395.376 448.404, 393.656 446.567, 394.085 443.362 C 394.226 442.308, 391.635 441.026, 389.500 441.094 C 388.400 441.129, 388.065 441.386, 388.756 441.664 M 619.624 442.539 C 618.659 445.053, 618.943 445.702, 620.122 443.675 C 620.706 442.671, 620.973 441.639, 620.715 441.382 C 620.458 441.124, 619.966 441.645, 619.624 442.539 M 704 444.246 C 704 454.725, 692.976 483.276, 684.500 494.750 C 679.033 502.150, 680.039 503.119, 685.909 496.108 C 697.322 482.478, 711.034 444.309, 705.250 442.273 C 704.474 442, 704 442.748, 704 444.246 M 389.079 446.583 C 389.127 447.748, 389.364 447.985, 389.683 447.188 C 389.972 446.466, 389.936 445.603, 389.604 445.271 C 389.272 444.939, 389.036 445.529, 389.079 446.583 M 423 446.893 C 423 447.384, 423.675 448.045, 424.500 448.362 C 425.414 448.712, 426 448.363, 426 447.469 C 426 446.661, 425.325 446, 424.500 446 C 423.675 446, 423 446.402, 423 446.893 M 591.015 447.191 C 591.007 448.121, 591.450 449.160, 592 449.500 C 593.266 450.282, 593.266 448.958, 592 447 C 591.165 445.707, 591.029 445.734, 591.015 447.191 M 617.564 447.707 C 617.022 449.132, 617.136 449.247, 618.124 448.267 C 618.808 447.588, 619.115 446.781, 618.807 446.474 C 618.499 446.166, 617.940 446.721, 617.564 447.707 M 619.607 448.581 C 619.273 449.451, 619.652 451.093, 620.449 452.231 L 621.898 454.300 621.742 452.219 C 621.655 451.075, 621.180 450.389, 620.685 450.695 C 620.186 451.003, 620.086 450.305, 620.460 449.125 C 621.238 446.675, 620.516 446.214, 619.607 448.581 M 408.035 449.934 C 406.619 452.580, 406.737 453.325, 408.333 451.833 C 409.067 451.148, 409.667 450.006, 409.667 449.294 C 409.667 447.507, 409.246 447.672, 408.035 449.934 M 609.638 449.500 C 609.955 450.325, 609.730 451, 609.138 451 C 608.547 451, 608.322 451.675, 608.638 452.500 C 609.449 454.611, 611.059 454.379, 610.374 452.250 C 609.926 450.856, 610.016 450.788, 610.819 451.918 C 611.524 452.911, 611.386 454.007, 610.359 455.576 C 608.357 458.630, 610.331 459.702, 613.138 457.086 C 614.329 455.977, 615.654 455.286, 616.082 455.551 C 616.511 455.816, 617.187 455.506, 617.585 454.862 C 618.070 454.077, 617.872 453.961, 616.985 454.510 C 616.023 455.104, 615.835 454.872, 616.299 453.664 C 616.650 452.749, 616.534 452, 616.042 452 C 615.550 452, 614.971 452.788, 614.756 453.750 C 614.459 455.084, 613.824 454.609, 612.084 451.750 C 609.731 447.883, 608.629 446.868, 609.638 449.500 M 624.628 452.282 C 622.990 453.481, 623.010 453.575, 624.937 453.720 C 626.137 453.811, 627 453.274, 627 452.438 C 627 450.679, 626.836 450.669, 624.628 452.282 M 395 453.167 C 395 453.808, 395.296 454.037, 395.658 453.675 C 396.020 453.313, 396.930 453.527, 397.681 454.150 C 398.760 455.045, 398.914 454.939, 398.416 453.641 C 397.699 451.772, 395 451.397, 395 453.167 M 382.500 455 C 383.495 456.100, 384.535 457, 384.810 457 C 385.085 457, 384.495 456.100, 383.500 455 C 382.505 453.900, 381.465 453, 381.190 453 C 380.915 453, 381.505 453.900, 382.500 455 M 636.009 454.489 C 635.329 455.308, 634.305 455.688, 633.732 455.334 C 633.108 454.949, 632.993 455.179, 633.445 455.911 C 634.102 456.974, 638 454.778, 638 453.345 C 638 452.602, 637.189 453.068, 636.009 454.489 M 391 455 C 391 455.550, 391.675 456, 392.500 456 C 393.325 456, 394 455.550, 394 455 C 394 454.450, 393.325 454, 392.500 454 C 391.675 454, 391 454.450, 391 455 M 393.733 462.124 C 394.412 462.808, 395.219 463.115, 395.526 462.807 C 395.834 462.499, 395.279 461.940, 394.293 461.564 C 392.868 461.022, 392.753 461.136, 393.733 462.124 M 624 462 C 623.099 462.582, 622.975 462.975, 623.691 462.985 C 624.346 462.993, 625.160 462.550, 625.500 462 C 626.267 460.758, 625.921 460.758, 624 462 M 402.813 464.683 C 403.534 464.972, 404.397 464.936, 404.729 464.604 C 405.061 464.272, 404.471 464.036, 403.417 464.079 C 402.252 464.127, 402.015 464.364, 402.813 464.683 M 407.762 465.707 C 409.006 465.946, 410.806 465.937, 411.762 465.687 C 412.718 465.437, 411.700 465.241, 409.500 465.252 C 407.300 465.263, 406.518 465.468, 407.762 465.707 M 608.269 465.693 C 609.242 465.947, 610.592 465.930, 611.269 465.656 C 611.946 465.382, 611.150 465.175, 609.500 465.195 C 607.850 465.215, 607.296 465.439, 608.269 465.693 M 433.278 494.250 C 432.746 494.938, 432.010 496.400, 431.642 497.500 C 431.102 499.115, 431.357 499.019, 432.965 497 C 434.817 494.674, 435.511 493, 434.622 493 C 434.415 493, 433.810 493.563, 433.278 494.250 M 586 493.885 C 586 494.437, 587.149 496.151, 588.553 497.694 L 591.106 500.500 589.560 497.313 C 587.961 494.016, 586 492.128, 586 493.885 M 480.750 544.689 C 479.788 544.941, 479 546.062, 479 547.180 C 479 548.708, 479.435 549.046, 480.750 548.537 C 488.434 545.564, 496.009 548.505, 499.189 555.694 C 501.025 559.846, 501.163 561.117, 500.247 565.483 C 499.146 570.733, 500.176 573.890, 502.045 570.992 C 510.914 557.236, 497.262 540.374, 480.750 544.689 M 529.500 545.167 C 520.728 550.019, 516.885 560.002, 520.479 568.604 C 522.616 573.719, 524.071 571.975, 523.358 565.152 C 522.186 553.934, 530.859 544.739, 539.625 547.909 C 542.645 549.001, 543.389 548.993, 544.105 547.859 C 546.180 544.571, 534.478 542.414, 529.500 545.167 M 346.079 582.583 C 346.127 583.748, 346.364 583.985, 346.683 583.188 C 346.972 582.466, 346.936 581.603, 346.604 581.271 C 346.272 580.939, 346.036 581.529, 346.079 582.583 M 491 730.557 C 491 730.864, 491.503 733.114, 492.119 735.557 L 493.237 740 512 740 L 530.763 740 531.881 735.557 C 532.497 733.114, 533 730.864, 533 730.557 C 533 730.251, 523.550 730, 512 730 C 500.450 730, 491 730.251, 491 730.557 M 404 745.855 C 404 749.385, 411.429 756.730, 421.754 763.409 C 429.305 768.294, 453.250 780.523, 457.210 781.516 C 459.265 782.032, 460.520 784.399, 465.458 797.062 C 470.669 810.428, 473.182 815.626, 471.710 810 C 471.083 807.602, 472.518 807.302, 473.417 809.643 C 473.763 810.547, 474.279 811.055, 474.562 810.771 C 475.060 810.273, 464.670 781.580, 463.218 779.443 C 462.823 778.862, 455.525 774.975, 447 770.805 C 430.170 762.574, 415.911 753.689, 409.036 747.149 C 403.850 742.215, 404 742.254, 404 745.855 M 613.667 748.392 C 605.156 756.124, 572.445 774.820, 563.194 777.239 C 562.046 777.539, 560.385 780.378, 558.593 785.104 C 551.832 802.933, 548.970 811.304, 549.467 811.800 C 549.760 812.093, 550.053 811.696, 550.118 810.917 C 550.183 810.137, 550.532 810.850, 550.893 812.500 C 551.471 815.140, 552.327 813.532, 558.025 799.099 C 564.153 783.577, 564.688 782.621, 568 781.240 C 594.059 770.382, 620 752.822, 620 746.040 C 620 742.308, 620.613 742.081, 613.667 748.392 M 488 800.032 C 488 800.600, 488.634 802.583, 489.410 804.438 C 490.795 807.755, 490.954 807.825, 498.652 808.546 C 507.680 809.392, 531.873 808.528, 533.081 807.317 C 533.529 806.868, 534.600 804.813, 535.461 802.750 L 537.027 799 512.513 799 C 496.329 799, 488 799.351, 488 800.032" stroke="#000000" stroke-width="0.5" fill="#000000" fill-rule="evenodd"/>
</svg>