<!-- Оптимизировано для DTF печати -->
          <!-- Рекомендации: полноцветная печать, высокое разрешение -->
          <svg xmlns="http://www.w3.org/2000/svg" width="100%" height="100%" viewBox="0 0 1024 1024">
	<path d="M 706 88.945 C 683.805 95.631, 617.622 154.524, 575.362 205.194 C 573.387 207.562, 572.855 207.694, 568.362 206.930 C 565.688 206.475, 558.100 205.182, 551.500 204.056 C 515.039 197.835, 500.100 197.739, 468.586 203.522 C 461.389 204.843, 452.350 206.194, 448.500 206.524 C 444.650 206.853, 440.559 207.311, 439.410 207.541 C 437.754 207.871, 434.846 205.110, 425.410 194.243 C 395.451 159.742, 346.882 114.910, 321.919 98.713 C 309.736 90.809, 305.737 89, 300.441 89 C 293.790 89, 290.837 92.486, 287.004 104.862 C 279.790 128.158, 276.571 150.637, 276.531 178 C 276.492 205.289, 279.568 226.379, 286.458 246.058 C 288.960 253.203, 289.020 253.874, 287.951 262.864 C 287.339 268.015, 286.762 277.046, 286.669 282.933 L 286.500 293.637 290.702 302.068 C 293.013 306.706, 298.075 314.703, 301.952 319.840 C 305.828 324.977, 309 329.344, 309 329.545 C 309 329.745, 307.425 330.205, 305.500 330.566 L 302 331.223 302 343.994 L 302 356.765 296.061 369.133 C 287.293 387.389, 282.027 405.170, 282.032 416.500 C 282.039 432.209, 291.613 458.337, 304.288 477.238 L 308.806 483.975 304.653 485.037 C 288.023 489.287, 265.951 497.692, 253.250 504.611 C 248.712 507.082, 245 509.312, 245 509.565 C 245 509.818, 248.054 508.487, 251.788 506.607 C 265.307 499.799, 291.651 490.547, 304.986 487.923 L 310.852 486.769 317.176 493.634 C 320.654 497.410, 325.035 501.949, 326.912 503.719 C 329.375 506.044, 329.931 507.076, 328.912 507.432 C 309.366 514.268, 297.804 518.611, 295 520.171 C 291.111 522.334, 291.945 522.100, 303.500 517.789 C 312.955 514.261, 329.716 509, 331.500 509 C 332.190 509, 335.866 511.587, 339.667 514.750 C 343.469 517.913, 348.110 521.662, 349.980 523.082 L 353.380 525.664 342.440 530.887 C 332.684 535.545, 316 544.744, 316 545.465 C 316 545.617, 324.382 541.524, 334.627 536.370 C 344.871 531.217, 354.076 527, 355.082 527 C 356.088 527, 358.619 528.161, 360.706 529.580 C 367.983 534.528, 381.065 541.188, 382.278 540.563 C 382.950 540.216, 385.138 538.931, 387.139 537.707 L 390.779 535.481 379.389 529.551 C 373.125 526.290, 368 523.351, 368 523.021 C 368 521.696, 405.376 510.012, 409.646 510.003 C 410.276 510.001, 412.173 512.137, 413.861 514.750 C 419.972 524.206, 430.054 531.209, 445.081 536.436 C 458.893 541.241, 466.758 541.879, 478.256 539.129 C 487.705 536.869, 491.433 535.211, 502.367 528.407 C 506.262 525.983, 510.167 524, 511.045 524 C 511.924 524, 516.886 526.721, 522.071 530.047 C 534.476 538.001, 542.485 540.525, 555 540.422 C 562.919 540.356, 566.108 539.805, 574.167 537.106 C 589.711 531.902, 599.334 525.169, 606.112 514.756 C 609.853 509.009, 608.216 508.870, 634.250 517.156 C 642.913 519.913, 650 522.492, 650 522.886 C 650 523.772, 635.664 532, 634.120 532 C 631.570 532, 633.312 533.804, 637.968 535.985 L 642.936 538.312 652.399 532.587 L 661.862 526.862 670.181 530.499 C 678.114 533.967, 686.467 538.282, 695.750 543.707 C 698.087 545.072, 700 545.966, 700 545.692 C 700 544.880, 682.185 534.534, 672.848 529.924 L 664.197 525.652 673.345 518.576 C 678.376 514.684, 684.182 509.813, 686.246 507.750 C 688.311 505.688, 690.903 504, 692.007 504 C 694.707 504, 718.794 509.352, 732.871 513.080 C 739.125 514.736, 744.415 515.919, 744.625 515.708 C 745.109 515.224, 719.069 507.901, 704.500 504.424 C 698.450 502.980, 693.374 501.681, 693.221 501.537 C 693.067 501.393, 695.219 498.851, 698.002 495.887 C 700.786 492.924, 703.821 489.262, 704.747 487.750 C 705.673 486.238, 706.969 485, 707.627 485 C 713.061 485, 745.874 494.815, 753.330 498.671 C 754.901 499.483, 756.378 499.956, 756.612 499.722 C 757.113 499.221, 743.412 492.860, 735.795 490.057 C 732.883 488.986, 726.225 486.942, 721 485.516 C 715.775 484.090, 710.962 482.738, 710.304 482.513 C 709.552 482.256, 710.797 479.585, 713.656 475.322 C 719.690 466.324, 727.034 450.829, 731.110 438.500 C 734.146 429.317, 734.415 427.479, 734.405 416 C 734.395 404.635, 734.111 402.674, 731.277 394.405 C 729.563 389.403, 726.056 380.853, 723.485 375.405 L 718.809 365.500 718.654 348.500 L 718.500 331.500 710.250 330.096 C 705.712 329.324, 702 328.339, 702 327.906 C 702 327.473, 704.221 324.222, 706.935 320.681 C 714.450 310.876, 718.956 303.428, 721.157 297.172 C 722.962 292.043, 723.088 289.983, 722.474 275.637 C 722.101 266.912, 721.448 258.561, 721.023 257.080 C 720.471 255.154, 721.089 251.877, 723.191 245.593 C 734.696 211.198, 736.313 164.930, 727.474 123.066 C 723.203 102.838, 718.259 90.779, 713.700 89.472 C 709.492 88.266, 708.485 88.197, 706 88.945 M 298.776 100.750 C 294.672 105.430, 291.949 113.986, 288.512 133 C 280.598 176.772, 283.538 217.111, 296.925 248.444 C 300.888 257.718, 300.974 258.150, 299.458 261.081 C 296.939 265.953, 293.998 278.848, 294.024 284.910 C 294.039 288.402, 294.907 292.590, 296.338 296.068 C 298.804 302.062, 307.079 314.578, 312.950 321.194 L 316.575 325.278 319.437 317.889 C 321.011 313.825, 323.383 308.326, 324.707 305.670 L 327.115 300.840 324.307 297.316 C 316.818 287.916, 310.846 277.646, 309.439 271.750 C 308.843 269.249, 309.036 269, 311.583 269 C 314.041 269, 314.180 268.848, 312.721 267.750 C 310.353 265.967, 303.862 251.379, 299.689 238.458 C 294.814 223.364, 292.309 210.220, 290.962 192.672 C 288.730 163.574, 294.315 123.750, 301.586 116.919 C 303.762 114.875, 304.324 114.781, 307.924 115.859 C 321.067 119.797, 358.256 160.372, 371.451 185.171 C 375.854 193.446, 375.939 194.610, 371.765 189.478 C 366.533 183.044, 357.502 174.915, 342.500 163.137 C 341.400 162.273, 348.938 170.129, 359.250 180.593 C 369.563 191.058, 378 199.923, 378 200.295 C 378 200.666, 375.637 199.180, 372.750 196.992 C 366.244 192.064, 351.935 184.845, 342.036 181.497 C 332.624 178.314, 333.935 179.681, 345.857 185.484 C 364.634 194.623, 383.544 208.939, 389.880 218.813 C 393.935 225.132, 393.814 225.795, 389.250 222.279 C 379.546 214.802, 370.634 210.334, 358.539 206.880 C 349.858 204.402, 336 202.019, 336 203.005 C 336 203.405, 339.885 205.148, 344.632 206.878 C 351.593 209.414, 367 218.095, 367 219.482 C 367 219.662, 365.313 219.642, 363.250 219.437 C 361.188 219.232, 356.720 218.871, 353.322 218.634 L 347.143 218.203 350.176 223.131 C 357.823 235.559, 378.748 246.541, 398.768 248.634 C 404.243 249.206, 405.044 249.063, 405.728 247.390 C 407.010 244.253, 406.397 233.739, 404.474 225.894 C 402.609 218.284, 392.015 196.242, 386.067 187.597 C 380.374 179.323, 383.406 181.645, 390.182 190.749 C 408.185 214.939, 415 226.487, 415 232.807 C 415 237.510, 409.751 248.498, 406.667 250.249 C 405.240 251.060, 399.378 251.512, 389.500 251.572 C 367.193 251.709, 365.711 251.816, 366.297 253.250 C 366.578 253.938, 367.088 255.193, 367.430 256.040 C 368.077 257.641, 365.040 259.115, 358.250 260.497 C 354.499 261.261, 354.248 262.010, 356.930 264.437 C 358.822 266.149, 358.796 266.240, 355.571 269.072 C 353.761 270.661, 349.740 272.933, 346.635 274.121 C 342.185 275.824, 341.221 276.561, 342.085 277.602 C 342.687 278.328, 344.040 279.195, 345.090 279.529 C 346.141 279.862, 347 280.520, 347 280.991 C 347 282.447, 341.763 288.159, 337.786 291.040 C 334.010 293.775, 334.007 293.785, 336.500 294.411 C 337.875 294.756, 339 295.440, 339 295.931 C 339 296.422, 337.129 300.070, 334.841 304.037 C 329.375 313.519, 323.800 326.415, 324.992 326.823 C 325.512 327, 331.464 326.409, 338.219 325.508 C 355.577 323.192, 383.931 322.459, 399.571 323.922 C 412.529 325.133, 436.950 329.183, 442.412 331.026 C 444.014 331.567, 445.545 331.789, 445.814 331.519 C 446.084 331.250, 444.609 328.660, 442.538 325.765 C 437.427 318.622, 426 301.184, 426 300.529 C 426 299.517, 441.921 300.007, 444.203 301.090 C 445.466 301.690, 448.004 304.038, 449.842 306.310 L 453.184 310.439 452.487 320.185 C 452.103 325.546, 451.724 330.648, 451.645 331.523 C 451.542 332.648, 454.138 334.135, 460.500 336.597 C 465.450 338.512, 474.450 342.424, 480.500 345.289 L 491.500 350.500 511 350.500 L 530.500 350.500 540.512 345.774 C 546.019 343.174, 555.025 339.349, 560.526 337.274 C 566.027 335.198, 570.695 333.158, 570.900 332.741 C 571.104 332.323, 570.953 327.220, 570.563 321.400 C 569.867 311.019, 569.905 310.745, 572.530 306.956 C 576.738 300.884, 578.779 300, 588.587 300 L 597.244 300 595.647 302.250 C 594.769 303.488, 592.671 306.750, 590.985 309.500 C 589.299 312.250, 585.281 318.325, 582.054 323 C 578.828 327.675, 576.318 331.634, 576.475 331.798 C 576.633 331.961, 581.203 330.977, 586.631 329.611 C 610.526 323.596, 643.758 321.518, 670.431 324.373 C 678.643 325.252, 685.545 325.789, 685.767 325.566 C 686.361 324.972, 678.648 308.829, 674.539 302.065 C 672.593 298.860, 671 295.960, 671 295.619 C 671 295.279, 672.125 295, 673.500 295 C 676.911 295, 676.630 293.938, 672.469 291.105 C 670.535 289.787, 667.552 287.115, 665.842 285.167 L 662.732 281.625 665.366 279.525 C 666.815 278.370, 668 277.109, 668 276.722 C 668 276.336, 665.188 274.733, 661.750 273.161 C 658.313 271.589, 654.643 269.334, 653.595 268.151 C 651.735 266.051, 651.734 265.951, 653.555 263.939 C 655.152 262.175, 655.210 261.745, 653.960 260.954 C 653.157 260.446, 651.825 260.021, 651 260.010 C 650.175 259.998, 647.776 259.510, 645.670 258.925 C 641.787 257.847, 641.800 257.882, 643.656 253.372 C 643.988 252.565, 638.689 252.126, 625.083 251.834 C 602.958 251.358, 602.017 251.009, 598.281 241.907 C 594.104 231.731, 595.480 226.699, 607.284 209 C 613.415 199.806, 628.032 180, 628.686 180 C 629.171 180, 626.038 185.458, 622.947 190 C 619.866 194.526, 609.329 216.372, 607.030 223 C 605.370 227.784, 604.739 232.008, 604.638 239 L 604.500 248.500 611 248.216 C 620.390 247.805, 628.247 245.613, 638.663 240.499 C 648.313 235.760, 658.268 227.249, 661.523 220.955 L 663.165 217.780 655.832 218.443 C 651.800 218.807, 647.150 219.326, 645.500 219.597 L 642.500 220.090 645.500 217.490 C 648.657 214.753, 666.845 205.579, 671.358 204.446 C 675.740 203.346, 674.329 202.211, 669.250 202.751 C 654.193 204.352, 636.199 211.114, 624.185 219.688 L 617.692 224.321 620.096 219.911 C 625.816 209.417, 641.376 197.099, 662.303 186.499 C 677.825 178.636, 678.823 176.903, 664.864 182.050 C 654.220 185.975, 646.078 190.311, 638.189 196.256 C 628.982 203.195, 632.360 199.119, 653.231 178.109 C 663.279 167.993, 669.475 161.155, 667 162.913 C 658.904 168.661, 645.631 180.487, 641.271 185.835 C 636.447 191.753, 636.077 191.732, 639.145 185.710 C 653.264 158.001, 693.194 115, 704.805 115 C 708.489 115, 711.856 120.812, 714.364 131.500 C 720.957 159.598, 720.574 197.987, 713.417 226.500 C 710.857 236.702, 703.662 255.897, 699.361 264 L 696.973 268.500 699.075 268.831 C 700.812 269.105, 701.060 269.625, 700.507 271.831 C 699.262 276.794, 693.305 287.781, 688.639 293.719 C 686.088 296.967, 683.996 300.046, 683.990 300.562 C 683.985 301.078, 686.321 306.574, 689.182 312.775 L 694.384 324.051 696.725 321.275 C 701.635 315.454, 709.307 304.262, 712.336 298.500 C 715.190 293.073, 715.484 291.688, 715.409 284 C 715.343 277.205, 714.697 273.686, 712.189 266.455 L 709.050 257.409 713.563 246.169 C 721.743 225.797, 725.291 205.293, 725.271 178.500 C 725.248 147.658, 719.031 111.874, 711.972 101.961 C 707.361 95.485, 698.914 99.650, 670.500 122.409 C 642.124 145.138, 620.011 166.724, 584.852 206.014 C 569.707 222.938, 559.836 233.089, 561.528 230 C 561.979 229.175, 564.047 225.915, 566.123 222.756 C 569.793 217.172, 569.837 217, 567.699 216.553 C 539.367 210.638, 532.877 209.730, 515.444 209.246 C 496.180 208.710, 483.229 209.751, 467 213.139 C 461.775 214.230, 453.900 215.606, 449.500 216.196 C 445.100 216.787, 441.347 217.400, 441.160 217.558 C 440.974 217.716, 442.583 220.468, 444.736 223.673 C 446.890 226.878, 449.001 230.175, 449.429 231 C 450.767 233.583, 438.100 220.181, 423 203.038 C 389.535 165.046, 346.287 125.112, 319.504 107.474 C 306.559 98.949, 301.729 97.382, 298.776 100.750 M 480.276 240 C 474.531 256.791, 472.241 272.458, 473.975 283.112 C 475.642 293.359, 482.750 321.119, 483.370 319.803 C 483.448 319.636, 483.285 300.150, 483.006 276.500 L 482.500 233.500 480.276 240 M 509.139 241.750 C 505.641 263.972, 505.490 286.229, 508.673 310.495 C 510.803 326.739, 511.377 327.831, 512.806 318.355 C 516.556 293.482, 516.848 265.340, 513.568 245 C 512.725 239.775, 512.028 235.162, 512.018 234.750 C 512.008 234.338, 511.631 234, 511.179 234 C 510.728 234, 509.810 237.488, 509.139 241.750 M 539.478 276.992 C 539.467 300.578, 539.569 319.764, 539.706 319.627 C 540.227 319.106, 544.851 302.196, 546.303 295.500 C 549.962 278.632, 550.251 274.700, 548.520 265.334 C 546.778 255.906, 541.336 235.961, 540.189 234.804 C 539.810 234.421, 539.490 253.406, 539.478 276.992 M 349 328.069 C 336.653 329.409, 314.026 332.952, 310.250 334.136 L 307 335.155 307 347.629 L 307 360.102 310.750 361.647 C 318.538 364.855, 318.854 365.504, 326.999 395 C 335.035 424.103, 340.147 434.998, 350.917 445.980 C 363.149 458.453, 376.128 463.726, 397.027 464.712 C 410.807 465.362, 422.310 463.975, 432.783 460.399 C 460.113 451.067, 473.394 435.594, 485.847 398.578 C 488.608 390.370, 491.732 382.495, 492.788 381.078 C 496.017 376.745, 500.615 374.724, 508.362 374.232 C 516.634 373.706, 522.621 375.052, 526.216 378.245 C 529.574 381.228, 530.226 382.610, 535.617 398.202 C 547.278 431.921, 558.708 446.901, 580.609 457.164 C 596.196 464.468, 617.477 466.895, 636.391 463.524 C 657.441 459.773, 673.149 447.881, 682.533 428.590 C 688.591 416.136, 698.953 380.927, 697.599 377.397 C 697.282 376.571, 697.373 376.113, 697.802 376.378 C 698.230 376.642, 699.331 374.746, 700.249 372.163 C 701.166 369.580, 702.808 366.510, 703.898 365.340 C 704.988 364.170, 705.569 362.868, 705.190 362.446 C 704.810 362.024, 705.015 361.974, 705.644 362.333 C 706.273 362.693, 708.410 362.309, 710.394 361.480 L 714 359.973 714 347.525 L 714 335.077 710.250 334.082 C 708.188 333.534, 698.175 331.833, 688 330.302 C 671.226 327.777, 667.027 327.522, 643 327.562 C 614.379 327.609, 608.525 328.250, 583.866 334.038 C 569.269 337.463, 561.687 340.141, 546.804 347.127 C 530.893 354.596, 517.590 356.400, 496.500 353.948 C 489.349 353.117, 485.754 352.059, 479.005 348.801 C 459.550 339.411, 439.869 333.431, 415.144 329.397 C 403.661 327.523, 361.777 326.683, 349 328.069 M 360.027 340.192 C 355.917 340.706, 350.067 342.023, 347.027 343.118 C 343.987 344.213, 340.957 345.159, 340.294 345.221 C 339.631 345.283, 339.320 345.708, 339.603 346.167 C 339.886 346.625, 339.341 347, 338.392 347 C 337.443 347, 336.953 347.287, 337.304 347.637 C 337.654 347.988, 337.123 349.450, 336.123 350.887 C 335.124 352.324, 333.787 355.030, 333.153 356.899 C 331.396 362.079, 331.775 376.767, 333.956 388.017 C 341.715 428.043, 356.006 447.505, 382.720 454.428 C 401.167 459.208, 428.920 456.104, 443 447.686 C 458.644 438.333, 473.038 416.545, 477.052 396.141 C 477.707 392.813, 478.056 385.907, 477.829 380.795 C 477.476 372.865, 476.985 370.713, 474.489 366.141 C 469.476 356.958, 461.467 351.392, 446.423 346.637 C 436.081 343.368, 425.784 341.280, 413.789 340.020 C 402.104 338.792, 370.413 338.894, 360.027 340.192 M 610 339.695 C 608.075 339.902, 601.100 340.967, 594.500 342.063 C 556.377 348.392, 541.582 361.684, 543.291 388.068 C 544.789 411.179, 559.774 436.437, 578.606 447.589 C 594.092 456.761, 617.568 459.213, 639.839 453.984 C 659.235 449.430, 672.012 436.012, 680.796 410.970 C 684.759 399.673, 687.973 383.820, 688.691 372.024 C 690.332 345.098, 679.429 338.779, 632 339.168 C 621.825 339.252, 611.925 339.489, 610 339.695 M 638.086 345.113 C 632.973 346.084, 628.034 349.125, 622.802 354.521 C 618.036 359.436, 616.386 363.353, 617.613 366.841 C 620.816 375.950, 636.136 371.250, 650.246 356.830 C 656.580 350.356, 657.812 346.404, 653.750 345.584 C 648.484 344.520, 642.203 344.331, 638.086 345.113 M 360.367 347.918 C 354.376 351.571, 352.489 356.323, 355.829 359.345 C 359.642 362.796, 366.360 360.771, 371.852 354.516 C 375.447 350.421, 375.601 349.744, 373.429 347.571 C 371.247 345.389, 364.207 345.576, 360.367 347.918 M 396.870 349.908 C 393.774 350.899, 388.599 353.318, 385.370 355.285 C 378.461 359.495, 368.167 369.485, 367.339 372.786 C 367.019 374.059, 367.557 377.642, 368.534 380.749 C 369.810 384.804, 369.985 386.505, 369.155 386.782 C 368.520 386.993, 368 388.056, 368 389.142 C 368 391.988, 369.730 390.506, 370.500 387 C 371.283 383.435, 372.600 382.423, 374.455 383.962 C 375.480 384.813, 376.008 384.796, 376.565 383.894 C 377.037 383.131, 376.886 382.952, 376.155 383.405 C 375.520 383.797, 375 383.641, 375 383.059 C 375 381.570, 371.274 381.734, 370.662 383.250 C 370.361 383.997, 370.126 383.795, 370.079 382.750 C 370.018 381.390, 370.810 381, 373.634 381 C 379.597 381, 385.044 378.943, 393.500 373.497 C 403.433 367.099, 412.326 359.040, 414.053 354.873 C 415.257 351.965, 415.179 351.563, 413.070 349.856 C 410.165 347.503, 404.330 347.522, 396.870 349.908 M 592.241 354.445 C 584.179 358.234, 578.366 362.602, 569.470 371.559 C 560.313 380.777, 556.467 387.135, 558.147 390.274 C 560.986 395.579, 574.828 388.086, 589.742 373.172 C 599.468 363.446, 603.291 358.088, 602.830 354.830 C 602.366 351.554, 598.678 351.420, 592.241 354.445 M 302.257 376.250 C 295.131 392.164, 291.463 404.522, 294.171 403.493 C 294.902 403.214, 298.869 402.347, 302.988 401.564 L 310.475 400.142 304.988 405.343 C 301.969 408.204, 297.498 412.180, 295.051 414.178 C 290.716 417.717, 290.626 417.908, 291.551 421.588 C 292.466 425.230, 293.123 425.699, 310 434.771 C 327.377 444.111, 327.461 444.173, 322 443.546 C 314.764 442.716, 304.579 440.173, 299.108 437.830 C 296.693 436.796, 294.592 436.075, 294.439 436.228 C 293.851 436.816, 298.885 449.842, 302.465 457 C 306.168 464.401, 316.308 480.454, 317.903 481.440 C 318.355 481.719, 322.536 481.283, 327.195 480.469 C 347.349 476.951, 359.012 475.878, 383.201 475.316 L 408.902 474.719 409.891 471.881 C 410.435 470.321, 410.545 468.837, 410.136 468.584 C 409.726 468.331, 404.810 468.107, 399.211 468.087 C 378.156 468.013, 361.495 461.606, 348.430 448.560 C 336.832 436.979, 330.909 423.843, 321.572 389 C 317.130 372.425, 316.331 370.388, 313.090 367.383 C 308.681 363.294, 307.698 364.099, 302.257 376.250 M 705.498 368.363 C 704.646 369.663, 701.906 378.775, 699.408 388.613 C 691.807 418.553, 686.248 432.466, 677.565 443.280 C 673.555 448.274, 665.758 454.847, 659.380 458.610 C 657.197 459.898, 700.062 451.889, 707.500 449.619 C 711.998 448.247, 712.299 448.248, 710.500 449.629 C 706.761 452.500, 693.525 458.760, 686.500 460.980 C 677.831 463.720, 657.281 465.072, 655.993 462.988 C 655.350 461.948, 653.822 462.117, 648.345 463.834 C 639.001 466.762, 630.311 467.983, 618.750 467.992 C 609.790 467.999, 609 468.156, 609 469.929 C 609 474.499, 610.293 474.724, 639.699 475.285 C 660.560 475.683, 670.988 476.337, 681.471 477.907 C 689.155 479.058, 696.445 480, 697.671 480 C 701.793 480, 714.185 460.097, 720.024 444.098 C 721.649 439.644, 722.543 436, 722.011 436 C 721.478 436, 717.583 437.161, 713.355 438.580 C 709.128 440, 702.256 441.757, 698.084 442.486 C 690.633 443.787, 687.873 443.728, 691.607 442.347 C 695.140 441.040, 724.496 424.650, 725.235 423.572 C 725.639 422.982, 725.976 421.109, 725.985 419.410 C 725.996 417.028, 725.221 415.766, 722.604 413.903 C 719.492 411.689, 708 401.238, 708 400.623 C 708 400.333, 715.352 401.394, 721.250 402.536 C 723.313 402.935, 725 403.005, 725 402.690 C 725 398.320, 710.328 366, 708.344 366 C 707.630 366, 706.349 367.063, 705.498 368.363 M 430.655 368.829 C 428.463 371.251, 428.568 373.159, 431.039 375.811 C 433.278 378.214, 437.583 378.647, 440.073 376.718 C 442.423 374.899, 440.685 369.211, 437.396 367.960 C 433.796 366.592, 432.532 366.755, 430.655 368.829 M 443.500 375 C 443.840 375.550, 444.343 376, 444.618 376 C 444.893 376, 444.840 375.550, 444.500 375 C 444.160 374.450, 443.657 374, 443.382 374 C 443.107 374, 443.160 374.450, 443.500 375 M 448.405 378.155 C 447.962 378.870, 448.130 379.038, 448.845 378.595 C 449.480 378.203, 450 377.684, 450 377.441 C 450 376.607, 449.117 377.002, 448.405 378.155 M 504.304 378.155 C 497.162 379.757, 494.856 382.925, 490.220 397.500 C 476.558 440.455, 456.079 460.553, 419.073 467.324 C 413.204 468.398, 412.531 468.782, 411.320 471.750 L 409.994 475 414.747 475.035 C 420.939 475.080, 434.315 477.480, 436.663 478.966 C 438.137 479.900, 437.414 480.015, 433 479.552 C 429.975 479.234, 423.337 478.687, 418.250 478.336 L 409 477.698 409 480.724 C 409 482.388, 408.719 485.156, 408.375 486.875 L 407.750 490 422.375 490 C 430.457 490, 437 490.406, 437 490.907 C 437 491.406, 430.691 492.139, 422.979 492.536 C 415.268 492.933, 408.807 493.538, 408.623 493.879 C 408.439 494.221, 408.909 497.223, 409.669 500.551 L 411.050 506.601 419.275 504.951 C 430.249 502.748, 441 501.713, 441 502.859 C 441 503.362, 434.860 504.940, 427.355 506.365 C 419.850 507.791, 413.486 509.181, 413.213 509.454 C 412.470 510.196, 421.210 520.498, 425.921 524.434 C 435.762 532.656, 449.282 536.505, 465.500 535.703 C 487.368 534.621, 502.979 523.823, 507.411 506.714 C 509.191 499.840, 508.877 498.715, 504.450 496.103 C 502.596 495.009, 499.465 491.868, 497.494 489.124 C 495.249 486, 492.280 483.346, 489.552 482.025 C 480.063 477.432, 472.575 465.878, 474.983 459.544 C 478.485 450.334, 516.180 446.681, 536.836 453.550 C 546.007 456.599, 547.687 458.523, 546.537 464.653 C 545.554 469.892, 538.412 478.539, 532.519 481.624 C 529.644 483.130, 526.275 485.845, 525.033 487.657 C 521.845 492.310, 517.902 496.082, 515.118 497.143 C 512.932 497.976, 512.788 498.441, 513.370 502.776 C 515.403 517.918, 528.637 530.909, 545.720 534.529 C 558.968 537.336, 576.013 535.561, 586.413 530.291 C 591.795 527.564, 602.398 517.479, 605.207 512.415 L 606.913 509.339 594.249 506.662 C 582.198 504.115, 576.523 501.961, 582.050 502.031 C 584.279 502.060, 603.622 505.258, 606.859 506.133 C 608.218 506.500, 610.062 502.548, 611.424 496.346 L 612.101 493.263 599.872 492.533 C 581.776 491.453, 580.923 490.138, 598.269 490.063 L 613.038 490 612.577 487.750 C 612.323 486.512, 611.844 483.813, 611.512 481.750 C 610.806 477.360, 611.158 477.415, 594.590 479.083 C 588.673 479.678, 583.603 479.936, 583.322 479.656 C 582.472 478.806, 589.978 477.065, 599.500 475.903 C 604.450 475.300, 608.673 474.639, 608.885 474.435 C 609.096 474.231, 608.740 472.786, 608.093 471.224 C 607.025 468.645, 606.021 468.179, 597.208 466.169 C 585.237 463.437, 577.902 460.474, 569.396 454.932 C 552.149 443.695, 541.294 427.387, 531.499 397.998 C 526.235 382.201, 524.383 379.677, 516.883 378.068 C 511.197 376.849, 510.094 376.857, 504.304 378.155 M 386.638 379.500 C 386.322 380.325, 386.499 381, 387.031 381 C 387.564 381, 388 380.325, 388 379.500 C 388 378.675, 387.823 378, 387.607 378 C 387.391 378, 386.955 378.675, 386.638 379.500 M 450.064 379.423 C 449.255 380.397, 449.226 381.022, 449.968 381.480 C 450.553 381.842, 450.714 382.670, 450.324 383.319 C 449.935 383.969, 450.397 383.867, 451.350 383.092 C 452.664 382.026, 453.366 381.966, 454.242 382.842 C 455.637 384.237, 457 384.349, 457 383.068 C 457 382.556, 455.701 381.211, 454.112 380.080 C 451.672 378.342, 451.045 378.241, 450.064 379.423 M 444.079 380.583 C 444.127 381.748, 444.364 381.985, 444.683 381.188 C 444.972 380.466, 444.936 379.603, 444.604 379.271 C 444.272 378.939, 444.036 379.529, 444.079 380.583 M 450.553 379.915 C 450.231 380.436, 450.394 381.125, 450.915 381.447 C 451.436 381.769, 452.125 381.606, 452.447 381.085 C 452.769 380.564, 452.606 379.875, 452.085 379.553 C 451.564 379.231, 450.875 379.394, 450.553 379.915 M 384.391 382.215 C 385.276 383.708, 386.032 387.083, 386.070 389.715 C 386.109 392.347, 386.568 395.400, 387.091 396.500 C 387.919 398.243, 387.976 398.179, 387.534 396 C 387.255 394.625, 387.021 391.412, 387.014 388.861 C 387.004 385.569, 386.388 383.536, 384.891 381.861 L 382.783 379.500 384.391 382.215 M 441 381 C 441 381.733, 441.300 382.033, 441.667 381.667 C 442.033 381.300, 442.033 380.700, 441.667 380.333 C 441.300 379.967, 441 380.267, 441 381 M 454.500 382 C 454.840 382.550, 455.343 383, 455.618 383 C 455.893 383, 455.840 382.550, 455.500 382 C 455.160 381.450, 454.657 381, 454.382 381 C 454.107 381, 454.160 381.450, 454.500 382 M 379.750 382.662 C 380.438 382.940, 381.563 382.940, 382.250 382.662 C 382.938 382.385, 382.375 382.158, 381 382.158 C 379.625 382.158, 379.063 382.385, 379.750 382.662 M 458.248 392.726 C 458.164 397.801, 457.608 402.863, 457.013 403.976 C 456.372 405.174, 456.320 406, 456.885 406 C 458.690 406, 460.367 392.185, 459.193 387 C 458.585 384.317, 458.365 385.654, 458.248 392.726 M 441.937 392 C 441.651 396.125, 441.710 400.120, 442.070 400.878 C 443.227 403.319, 443.512 400.689, 442.979 392.500 L 442.459 384.500 441.937 392 M 375 391 C 375 391.733, 375.300 392.033, 375.667 391.667 C 376.033 391.300, 376.033 390.700, 375.667 390.333 C 375.300 389.967, 375 390.267, 375 391 M 456 391 C 456 391.733, 456.300 392.033, 456.667 391.667 C 457.033 391.300, 457.033 390.700, 456.667 390.333 C 456.300 389.967, 456 390.267, 456 391 M 369.180 394.500 C 369.205 398.329, 370.428 402.784, 371.099 401.490 C 371.382 400.945, 371.061 398.475, 370.387 396 C 369.368 392.261, 369.164 392.007, 369.180 394.500 M 373.015 397.583 C 373.024 398.637, 373.487 400.175, 374.046 401 C 374.787 402.095, 374.880 401.691, 374.390 399.500 C 373.567 395.823, 372.995 395.025, 373.015 397.583 M 445 398.941 C 445 399.459, 445.445 400.157, 445.989 400.493 C 446.555 400.843, 446.723 400.442, 446.382 399.552 C 445.717 397.820, 445 397.503, 445 398.941 M 456 399 C 456 399.733, 456.300 400.033, 456.667 399.667 C 457.033 399.300, 457.033 398.700, 456.667 398.333 C 456.300 397.967, 456 398.267, 456 399 M 438.777 406.750 C 437.846 409.363, 435.457 414.197, 433.468 417.494 C 430.313 422.724, 430.180 423.179, 432.426 421.069 C 433.842 419.739, 435 418.055, 435 417.326 C 435 416.597, 435.477 416, 436.059 416 C 436.641 416, 436.862 415.586, 436.550 415.081 C 436.237 414.575, 436.685 413.458, 437.545 412.598 C 438.405 411.738, 439.267 410.239, 439.460 409.267 C 439.654 408.295, 440.128 406.262, 440.515 404.750 C 441.625 400.402, 440.632 401.545, 438.777 406.750 M 371 404 C 371 404.733, 371.300 405.033, 371.667 404.667 C 372.033 404.300, 372.033 403.700, 371.667 403.333 C 371.300 402.967, 371 403.267, 371 404 M 388.583 405 C 389.324 407.785, 389.797 408.536, 390.418 407.915 C 390.648 407.685, 390.179 406.373, 389.376 404.998 L 387.917 402.500 388.583 405 M 372.522 406.317 C 371.383 408.946, 373.348 410.500, 375.092 408.350 C 375.867 407.397, 375.972 406.933, 375.326 407.320 C 374.638 407.733, 373.977 407.294, 373.730 406.262 C 373.334 404.602, 373.264 404.605, 372.522 406.317 M 449 409 C 449 409.733, 449.300 410.033, 449.667 409.667 C 450.033 409.300, 450.033 408.700, 449.667 408.333 C 449.300 407.967, 449 408.267, 449 409 M 452.333 408.667 C 452.700 409.033, 453.300 409.033, 453.667 408.667 C 454.033 408.300, 453.733 408, 453 408 C 452.267 408, 451.967 408.300, 452.333 408.667 M 456 409 C 456 409.733, 456.300 410.033, 456.667 409.667 C 457.033 409.300, 457.033 408.700, 456.667 408.333 C 456.300 407.967, 456 408.267, 456 409 M 389 409.621 C 389 409.928, 389.998 410.987, 391.218 411.975 C 393.115 413.512, 393.242 414.004, 392.095 415.385 C 391.328 416.309, 391.200 417, 391.794 417 C 392.366 417, 393.101 416.438, 393.428 415.750 C 393.755 415.063, 393.817 415.577, 393.567 416.894 C 393.221 418.712, 393.391 419.009, 394.274 418.126 C 395.156 417.244, 394.992 416.141, 393.592 413.541 C 391.989 410.564, 389 408.013, 389 409.621 M 375.750 412.830 C 376.988 413.925, 378 415.146, 378 415.543 C 378 416.282, 381.955 420, 382.742 420 C 383.614 420, 377.659 413.464, 375.608 412.170 C 373.734 410.987, 373.749 411.060, 375.750 412.830 M 454.250 411.662 C 453.563 411.940, 452.986 413.142, 452.968 414.333 C 452.951 415.525, 452.316 417.319, 451.557 418.320 C 450.223 420.079, 450.142 420.079, 449.106 418.320 C 448.246 416.860, 448.154 417.142, 448.642 419.748 C 449.422 423.922, 447.516 426.634, 445.117 424.762 C 443.675 423.637, 443.651 423.692, 444.893 425.275 C 446.126 426.846, 446.472 426.880, 447.893 425.577 C 448.777 424.767, 450.558 421.943, 451.851 419.302 C 453.144 416.661, 454.610 413.712, 455.109 412.750 C 455.609 411.788, 455.901 411.036, 455.758 411.079 C 455.616 411.122, 454.938 411.385, 454.250 411.662 M 387.500 414 C 387.840 414.550, 388.343 415, 388.618 415 C 388.893 415, 388.840 414.550, 388.500 414 C 388.160 413.450, 387.657 413, 387.382 413 C 387.107 413, 387.160 413.450, 387.500 414 M 438.794 414.250 C 438.563 414.938, 438.687 416.850, 439.070 418.500 C 439.685 421.152, 439.760 421.007, 439.719 417.250 C 439.670 412.786, 439.486 412.190, 438.794 414.250 M 450.079 415.583 C 450.127 416.748, 450.364 416.985, 450.683 416.188 C 450.972 415.466, 450.936 414.603, 450.604 414.271 C 450.272 413.939, 450.036 414.529, 450.079 415.583 M 382.500 417 C 382.840 417.550, 383.343 418, 383.618 418 C 383.893 418, 383.840 417.550, 383.500 417 C 383.160 416.450, 382.657 416, 382.382 416 C 382.107 416, 382.160 416.450, 382.500 417 M 395.556 418.910 C 395.247 419.410, 395.268 420.535, 395.604 421.410 C 395.975 422.377, 395.682 423.012, 394.857 423.030 C 394.042 423.049, 394.278 423.512, 395.447 424.190 C 396.918 425.043, 397.491 425.026, 397.794 424.118 C 398.099 423.203, 398.570 423.224, 399.772 424.208 C 401.013 425.224, 400.969 424.915, 399.565 422.759 C 398.584 421.251, 397.304 420.312, 396.721 420.673 C 396.058 421.082, 395.900 420.704, 396.299 419.664 C 396.980 417.890, 396.492 417.395, 395.556 418.910 M 435.328 420.585 C 434.701 421.913, 434.488 423, 434.854 423 C 435.937 423, 438.025 419.134, 437.213 418.632 C 436.803 418.378, 435.954 419.257, 435.328 420.585 M 384 421 C 384 421.550, 384.477 422, 385.059 422 C 385.641 422, 385.840 421.550, 385.500 421 C 385.160 420.450, 384.684 420, 384.441 420 C 384.198 420, 384 420.450, 384 421 M 396.564 422.707 C 396.022 424.132, 396.136 424.247, 397.124 423.267 C 397.808 422.588, 398.115 421.781, 397.807 421.474 C 397.499 421.166, 396.940 421.721, 396.564 422.707 M 387.333 424.667 C 387.700 425.033, 388.300 425.033, 388.667 424.667 C 389.033 424.300, 388.733 424, 388 424 C 387.267 424, 386.967 424.300, 387.333 424.667 M 427.405 426.250 L 425.500 428.500 427.750 426.595 C 429.864 424.805, 430.455 424, 429.655 424 C 429.465 424, 428.453 425.012, 427.405 426.250 M 440.603 424.833 C 440.320 425.292, 440.723 425.667, 441.500 425.667 C 442.277 425.667, 442.680 425.292, 442.397 424.833 C 442.114 424.375, 441.710 424, 441.500 424 C 441.290 424, 440.886 424.375, 440.603 424.833 M 392.813 425.683 C 393.534 425.972, 394.397 425.936, 394.729 425.604 C 395.061 425.272, 394.471 425.036, 393.417 425.079 C 392.252 425.127, 392.015 425.364, 392.813 425.683 M 429.872 426.750 C 428.629 428.336, 428.664 428.371, 430.250 427.128 C 431.212 426.373, 432 425.585, 432 425.378 C 432 424.555, 431.179 425.084, 429.872 426.750 M 400.500 427 C 400.840 427.550, 401.343 428, 401.618 428 C 401.893 428, 401.840 427.550, 401.500 427 C 401.160 426.450, 400.657 426, 400.382 426 C 400.107 426, 400.160 426.450, 400.500 427 M 396.813 427.683 C 397.534 427.972, 398.397 427.936, 398.729 427.604 C 399.061 427.272, 398.471 427.036, 397.417 427.079 C 396.252 427.127, 396.015 427.364, 396.813 427.683 M 441.872 428.250 C 443.445 430.255, 445 430.545, 445 428.833 C 445 428.192, 444.704 427.963, 444.342 428.325 C 443.980 428.687, 442.968 428.424, 442.092 427.741 C 440.683 426.643, 440.658 426.702, 441.872 428.250 M 403.540 428.935 C 403.223 429.449, 400.834 429.679, 398.231 429.447 L 393.500 429.024 398.500 431.972 C 407.665 437.377, 418.543 440.629, 424.500 439.745 C 426.707 439.417, 426.178 439.229, 422.500 439.034 C 419.750 438.888, 418.353 438.550, 419.395 438.283 C 420.901 437.897, 421.006 437.622, 419.907 436.942 C 418.820 436.270, 419.271 435.287, 422.012 432.355 L 425.500 428.622 422.056 431.409 C 415.738 436.524, 412.846 436.703, 408.399 432.257 C 407.433 431.290, 406.161 430.480, 405.571 430.455 C 404.982 430.430, 404.613 429.867, 404.750 429.205 C 405.047 427.773, 404.354 427.618, 403.540 428.935 M 430.446 429.087 C 430.077 429.685, 430.179 430.579, 430.673 431.073 C 431.204 431.604, 431.571 431.160, 431.571 429.986 C 431.571 427.713, 431.386 427.566, 430.446 429.087 M 440 429.378 C 440 429.585, 440.788 430.373, 441.750 431.128 C 443.336 432.371, 443.371 432.336, 442.128 430.750 C 440.821 429.084, 440 428.555, 440 429.378 M 400 431 C 400 431.733, 400.300 432.033, 400.667 431.667 C 401.033 431.300, 401.033 430.700, 400.667 430.333 C 400.300 429.967, 400 430.267, 400 431 M 403 431.226 C 403 432.084, 403.739 433.069, 404.641 433.416 C 406.070 433.964, 406.107 433.816, 404.924 432.273 C 404.177 431.298, 403.439 430.313, 403.283 430.083 C 403.127 429.854, 403 430.369, 403 431.226 M 427.496 432.007 C 427.153 432.561, 427.577 433.236, 428.437 433.507 C 429.296 433.778, 430.698 434.220, 431.552 434.489 C 432.415 434.760, 432.833 434.538, 432.493 433.989 C 432.157 433.445, 430.982 433, 429.882 433 C 428.782 433, 428.160 432.550, 428.500 432 C 428.840 431.450, 428.893 431, 428.618 431 C 428.343 431, 427.838 431.453, 427.496 432.007 M 437 432.455 C 437 433.227, 439.976 433.847, 440.399 433.164 C 440.653 432.752, 439.993 432.350, 438.931 432.270 C 437.869 432.190, 437 432.273, 437 432.455 M 423.500 434 C 423.840 434.550, 424.343 435, 424.618 435 C 424.893 435, 424.840 434.550, 424.500 434 C 424.160 433.450, 423.657 433, 423.382 433 C 423.107 433, 423.160 433.450, 423.500 434 M 434.797 433.854 C 435.821 434.503, 435.736 434.974, 434.394 436.088 C 433.458 436.865, 432.424 437.444, 432.096 437.375 C 431.768 437.306, 430.600 437.615, 429.500 438.061 L 427.500 438.873 429.500 438.933 C 430.600 438.966, 433.038 438.055, 434.918 436.909 C 437.590 435.280, 438.026 434.630, 436.918 433.928 C 436.138 433.434, 435.050 433.031, 434.500 433.031 C 433.950 433.031, 434.084 433.401, 434.797 433.854 M 421.500 436 C 421.840 436.550, 422.316 437, 422.559 437 C 422.802 437, 423 436.550, 423 436 C 423 435.450, 422.523 435, 421.941 435 C 421.359 435, 421.160 435.450, 421.500 436 M 427.813 435.683 C 428.534 435.972, 429.397 435.936, 429.729 435.604 C 430.061 435.272, 429.471 435.036, 428.417 435.079 C 427.252 435.127, 427.015 435.364, 427.813 435.683 M 411.333 436.667 C 411.700 437.033, 412.300 437.033, 412.667 436.667 C 413.033 436.300, 412.733 436, 412 436 C 411.267 436, 410.967 436.300, 411.333 436.667 M 415.333 436.667 C 415.700 437.033, 416.300 437.033, 416.667 436.667 C 417.033 436.300, 416.733 436, 416 436 C 415.267 436, 414.967 436.300, 415.333 436.667 M 308.500 451.539 C 314.470 456.619, 331.942 462.782, 345.281 464.512 C 350.969 465.249, 366 464.093, 366 462.918 C 366 461.456, 362.552 460.680, 324.013 453.467 C 316.045 451.975, 308.845 450.549, 308.013 450.296 C 307.049 450.003, 307.226 450.454, 308.500 451.539 M 490.280 458.784 C 487.958 459.750, 485.483 461.149, 484.780 461.893 C 483.713 463.019, 483.848 463.067, 485.585 462.175 C 486.967 461.467, 490.511 461.379, 496.085 461.917 C 500.713 462.363, 502.925 462.821, 501 462.934 L 497.500 463.141 501.500 464.648 C 506.716 466.613, 517.575 465.980, 521.378 463.488 C 523.271 462.247, 526.175 461.653, 530.651 461.591 L 537.168 461.500 532.834 459.510 C 529.133 457.810, 526.016 457.483, 511.500 457.273 C 497.170 457.066, 493.837 457.303, 490.280 458.784 M 481.079 465.583 C 481.127 466.748, 481.364 466.985, 481.683 466.188 C 481.972 465.466, 481.936 464.603, 481.604 464.271 C 481.272 463.939, 481.036 464.529, 481.079 465.583 M 482.500 469 C 482.840 469.550, 483.343 470, 483.618 470 C 483.893 470, 483.840 469.550, 483.500 469 C 483.160 468.450, 482.657 468, 482.382 468 C 482.107 468, 482.160 468.450, 482.500 469 M 524.333 468.667 C 524.700 469.033, 525.300 469.033, 525.667 468.667 C 526.033 468.300, 525.733 468, 525 468 C 524.267 468, 523.967 468.300, 524.333 468.667 M 535 471.500 C 534.293 472.352, 533.940 473.273, 534.215 473.548 C 534.490 473.823, 535.293 473.352, 536 472.500 C 536.707 471.648, 537.060 470.727, 536.785 470.452 C 536.510 470.177, 535.707 470.648, 535 471.500 M 484 471.378 C 484 471.585, 484.788 472.373, 485.750 473.128 C 487.336 474.371, 487.371 474.336, 486.128 472.750 C 484.821 471.084, 484 470.555, 484 471.378 M 377.500 478.037 C 349.695 479.907, 322.001 483.602, 321.999 485.444 C 321.998 486.025, 326.047 490.418, 330.996 495.207 L 339.995 503.913 343.970 502.511 C 353.480 499.155, 395.937 491, 403.895 491 C 406.779 491, 406.828 490.907, 407.201 484.750 C 407.409 481.313, 407.533 478.397, 407.477 478.270 C 407.110 477.452, 388.365 477.307, 377.500 478.037 M 613.738 477.692 C 612.769 477.945, 612.261 478.613, 612.609 479.177 C 612.958 479.741, 613.526 482.519, 613.872 485.351 L 614.500 490.500 618.500 490.758 C 625.861 491.233, 662.382 496.036, 672.532 497.864 L 682.565 499.671 689.743 491.604 L 696.921 483.536 689.736 482.326 C 669.429 478.904, 620.522 475.922, 613.738 477.692 M 502 483.941 C 502 484.459, 502.445 485.157, 502.989 485.493 C 503.555 485.843, 503.723 485.442, 503.382 484.552 C 502.717 482.820, 502 482.503, 502 483.941 M 513.500 488 C 513.840 488.550, 514.343 489, 514.618 489 C 514.893 489, 514.840 488.550, 514.500 488 C 514.160 487.450, 513.657 487, 513.382 487 C 513.107 487, 513.160 487.450, 513.500 488 M 389.500 495.580 C 364.432 499.970, 343 504.786, 343 506.029 C 343 506.601, 361.262 519.963, 363.230 520.830 C 363.641 521.011, 367.734 519.741, 372.325 518.009 C 376.916 516.276, 386.934 513.143, 394.586 511.047 C 403.947 508.483, 408.484 506.788, 408.452 505.868 C 408.425 505.116, 408.030 502.137, 407.573 499.250 L 406.742 494 402.121 494.090 C 399.580 494.139, 393.900 494.810, 389.500 495.580 M 612.660 499.999 C 611.743 503.298, 610.972 506.303, 610.948 506.675 C 610.924 507.048, 616.263 508.818, 622.814 510.608 C 629.365 512.399, 639.011 515.470, 644.250 517.432 C 649.490 519.394, 654.045 521, 654.372 521 C 655.028 521, 670.617 509.217, 675.705 504.875 L 678.911 502.139 676.205 501.582 C 662.317 498.721, 626.678 494, 618.971 494 L 614.328 494 612.660 499.999 M 746.333 516.667 C 746.700 517.033, 747.300 517.033, 747.667 516.667 C 748.033 516.300, 747.733 516, 747 516 C 746.267 516, 745.967 516.300, 746.333 516.667 M 749.333 517.667 C 749.700 518.033, 750.300 518.033, 750.667 517.667 C 751.033 517.300, 750.733 517, 750 517 C 749.267 517, 748.967 517.300, 749.333 517.667 M 289.333 522.667 C 289.700 523.033, 290.300 523.033, 290.667 522.667 C 291.033 522.300, 290.733 522, 290 522 C 289.267 522, 288.967 522.300, 289.333 522.667 M 621.500 538.103 C 610.035 543.173, 587.802 550.203, 573 553.437 C 552.996 557.809, 551.585 558.228, 547.500 561.008 C 536.881 568.236, 522.698 573, 511.798 573 C 499.325 573, 485.021 568.337, 472.909 560.321 C 470.189 558.521, 464.527 556.900, 452.328 554.430 C 431.875 550.289, 418.114 546.344, 403.281 540.369 L 392.062 535.850 387.863 538.353 L 383.665 540.857 389.332 543.637 C 392.450 545.166, 395 547.003, 395 547.719 C 395 550.341, 390.836 567.830, 387.315 580 C 382.373 597.078, 370.239 631.284, 358.086 662.396 C 352.523 676.639, 347.242 690.800, 346.351 693.864 C 345.460 696.928, 341.367 706.650, 337.255 715.468 C 326.068 739.459, 323.369 745.994, 319.570 758.290 C 313.400 778.260, 312.525 784.297, 312.512 807 C 312.498 830.207, 314.104 840.205, 320.699 858 C 329.441 881.585, 344.264 902.761, 358.250 911.643 C 360.312 912.953, 362 914.388, 362 914.833 C 362 915.277, 363.627 917.541, 365.616 919.864 C 370.041 925.034, 379.139 929.778, 387.358 931.201 C 390.736 931.786, 395.750 933.440, 398.500 934.877 C 403.111 937.286, 404.472 937.489, 416 937.495 C 429.448 937.500, 452.685 934.742, 460 932.271 C 470.189 928.830, 477.173 921.458, 481.378 909.705 L 483.598 903.500 505.049 903.166 C 516.847 902.982, 531.515 903.136, 537.643 903.508 L 548.787 904.184 549.372 907.108 C 551.424 917.368, 560.615 928.225, 570.298 931.827 C 577.237 934.409, 608.856 938.297, 619.282 937.851 C 625.796 937.573, 628.549 936.948, 632.560 934.840 C 635.343 933.377, 639.843 931.860, 642.560 931.469 C 648.992 930.543, 661.934 924.657, 664.551 921.467 C 665.716 920.046, 669.603 917.879, 673.551 916.449 C 703.572 905.576, 726.733 873.632, 732.543 835.084 C 734.417 822.654, 734.390 799.167, 732.488 786.544 C 727.933 756.327, 717.664 733.542, 690.553 693.500 C 667.869 659.997, 659.716 645.390, 649.138 619.297 C 639.422 595.329, 626 553.698, 626 547.527 C 626 546.837, 628.813 545.027, 632.250 543.503 C 641.832 539.256, 641.984 538.961, 635.962 536.303 C 633.092 535.036, 630.689 534.027, 630.622 534.061 C 630.555 534.095, 626.450 535.913, 621.500 538.103 M 313.405 547.155 C 312.962 547.870, 313.130 548.038, 313.845 547.595 C 314.998 546.883, 315.393 546, 314.559 546 C 314.316 546, 313.797 546.520, 313.405 547.155 M 701.500 547 C 701.840 547.550, 702.343 548, 702.618 548 C 702.893 548, 702.840 547.550, 702.500 547 C 702.160 546.450, 701.657 546, 701.382 546 C 701.107 546, 701.160 546.450, 701.500 547 M 403.064 556.250 C 398.831 578.373, 384.812 619.924, 362.411 676.743 C 356.037 692.909, 355 697.716, 355 711.079 C 355 724.419, 356.714 735.772, 361.102 751.500 C 364.916 765.171, 383.865 822.528, 392.322 846 L 398.627 863.500 412.064 864.105 C 442.769 865.487, 464.972 876.415, 471.787 893.500 L 472.984 896.500 471.255 894 C 464.622 884.405, 453.847 877.097, 440.465 873.116 C 420.489 867.173, 386.702 867.882, 375.443 874.481 C 370.539 877.355, 365.666 883.945, 363.993 889.965 C 361.764 897.989, 363.334 908.030, 367.555 912.748 L 370.016 915.500 369.008 912.685 C 367.538 908.579, 367.834 897.914, 369.500 895 C 370.841 892.653, 370.931 892.934, 370.965 899.568 C 371.005 907.570, 373.034 915.502, 376.009 919.284 C 377.885 921.670, 386.496 925.838, 387.491 924.842 C 387.737 924.597, 386.837 921.719, 385.493 918.448 C 381.784 909.427, 381.972 898.376, 385.970 890.375 C 388.985 884.342, 392.156 880.749, 397.412 877.408 L 400.325 875.557 396.760 880.228 C 390.565 888.343, 387.885 900.558, 389.899 911.500 C 391.384 919.567, 395.143 924.794, 402.006 928.333 C 407.372 931.100, 407.805 931.157, 420.556 930.762 C 427.736 930.540, 434.086 930.065, 434.666 929.706 C 435.350 929.283, 434.844 927.283, 433.226 924.013 C 429.553 916.592, 429.071 907.031, 432.023 900.169 C 434.018 895.530, 440.879 888, 443.110 888 C 443.522 888, 442.746 889.991, 441.386 892.425 C 437.962 898.552, 436.647 907.541, 438.047 915.260 C 439.018 920.613, 442.305 929, 443.432 929 C 443.648 929, 447.292 928.336, 451.531 927.525 C 469.053 924.173, 476.946 914.766, 477.810 896.205 C 478.338 884.855, 478.234 884.316, 465.824 834 C 460.329 811.725, 453.885 785.235, 451.502 775.134 L 447.171 756.768 432.206 741.634 C 416.703 725.955, 402.480 710.186, 403.196 709.470 C 403.422 709.244, 412.133 715.334, 422.554 723.002 C 432.974 730.671, 442.057 736.958, 442.737 736.973 C 443.418 736.988, 445.158 735.125, 446.605 732.834 C 448.538 729.771, 449.432 729.043, 449.979 730.084 C 450.389 730.863, 452.634 739.600, 454.968 749.500 C 457.303 759.400, 464.285 788.425, 470.484 814 C 476.684 839.575, 482.165 862.300, 482.664 864.500 C 483.522 868.282, 483.914 868.622, 489.858 870.746 C 501.980 875.076, 515.522 877.309, 530.208 877.400 C 539.332 877.456, 544.302 877.098, 545.069 876.331 C 545.703 875.697, 547.076 870.975, 548.119 865.839 C 549.162 860.702, 551.800 848.625, 553.982 839 C 559.200 815.981, 572.487 754.491, 575.142 741.079 C 576.293 735.261, 577.579 730.126, 577.998 729.670 C 578.417 729.213, 580.230 730.886, 582.027 733.388 C 583.871 735.956, 585.774 737.651, 586.397 737.280 C 587.004 736.918, 590.425 734.294, 594 731.449 C 606.446 721.541, 623.400 709.067, 623.832 709.498 C 624.443 710.110, 608.923 728.009, 593.916 744 C 584.423 754.114, 581.066 758.378, 580.530 761 C 578.939 768.779, 560.683 851.521, 557.462 865.556 C 551.577 891.191, 551.879 904.816, 558.554 914.903 C 562.985 921.599, 572.652 926.925, 583.257 928.516 L 588.011 929.229 590.095 924.518 C 594.874 913.714, 594.379 899.015, 588.974 891.226 L 586.008 886.953 588.754 888.391 C 600.128 894.349, 604.271 909.582, 598.078 922.673 C 594.501 930.234, 594.208 930.035, 610 930.729 C 623.442 931.319, 628.491 930.264, 633.572 925.803 C 639.970 920.185, 641.455 915.997, 641.479 903.500 C 641.503 890.718, 639.851 886.096, 632.687 878.909 L 628.500 874.708 631.810 876.410 C 640.831 881.052, 647.634 891.049, 648.682 901.208 C 649.273 906.932, 647.460 915.065, 643.992 922.250 C 642.996 924.313, 642.394 926, 642.653 926 C 642.912 926, 645.583 924.837, 648.588 923.415 C 656.360 919.738, 659.189 914.101, 659.835 901 C 660.272 892.133, 660.390 891.700, 661.606 894.500 C 663.286 898.365, 663.284 908.460, 661.602 913.167 C 660.360 916.646, 660.388 916.774, 662.151 915.674 C 665.718 913.446, 668.415 906.058, 668.421 898.500 C 668.430 884.351, 660.874 874.496, 647.722 871.505 C 632.582 868.062, 605.294 868.605, 591.045 872.633 C 578.124 876.286, 564.476 885.493, 560.348 893.343 C 559.525 894.907, 558.629 895.963, 558.357 895.690 C 557.415 894.748, 561.880 887.326, 566.183 882.681 C 577.173 870.819, 597.926 864.012, 623.129 864.003 C 631.748 864, 630.615 865.105, 634.919 852.500 C 638.300 842.596, 654.482 791.579, 659.342 775.500 C 672.900 730.640, 674.980 708.895, 667.668 688.455 C 665.003 681.004, 654.934 656.366, 650.522 646.500 C 639.691 622.279, 625.089 582, 619.906 562.049 C 618.270 555.751, 616.763 550.430, 616.559 550.225 C 615.657 549.324, 609.125 553.821, 591.920 567.186 C 565.420 587.771, 540.934 605.912, 533.754 610.280 C 518.706 619.432, 506.209 619.237, 490.271 609.602 C 479.953 603.365, 454.476 585.397, 432.875 569.122 C 420.394 559.719, 406.272 550, 405.091 550 C 404.634 550, 403.722 552.813, 403.064 556.250 M 675.560 687 C 678.512 696.928, 679.159 701.103, 679.669 713.500 C 680.328 729.508, 679.415 735.870, 672.865 760.906 C 669.035 775.548, 653.726 824.898, 644.557 852.159 L 640.300 864.818 644.861 865.502 C 657.056 867.331, 666.115 873.640, 670.595 883.426 C 673.623 890.040, 674.406 895.938, 673.229 903.250 C 672.645 906.873, 672.655 909, 673.255 909 C 676.101 909, 688.989 900.859, 695.099 895.202 C 715.141 876.646, 726.006 847.416, 725.996 812.074 C 725.986 777.212, 717.521 751.663, 693.328 713.472 C 676.981 687.666, 674.786 684.396, 675.560 687 M 340.718 728.750 C 320.103 772.189, 315.373 806.171, 324.816 843 C 330.023 863.307, 340.822 884.050, 352.669 896.500 L 357.427 901.500 358.110 894.966 C 358.942 887.005, 360.942 881.997, 365.521 876.409 C 370.014 870.926, 374.151 868.429, 382.082 866.414 C 385.612 865.517, 388.614 864.681, 388.753 864.555 C 388.892 864.430, 386.718 857.842, 383.923 849.914 C 358.451 777.679, 347.432 740.585, 346.892 725.250 C 346.771 721.813, 346.373 719, 346.009 719 C 345.644 719, 343.263 723.388, 340.718 728.750" stroke="none" fill="black" fill-rule="evenodd"/>
</svg>