<!-- Оптимизировано для шелкографии -->
          <!-- Рекомендации: одноцветная печать, плотность красок 100% -->
          <svg xmlns="http://www.w3.org/2000/svg" width="100%" height="100%" viewBox="0 0 1024 1024">
	<path d="M 404.634 133.700 C 404.364 133.969, 406.207 137.185, 408.728 140.845 C 418.129 154.489, 422.398 165.291, 437.993 214.887 L 443.145 231.273 441.168 238.887 C 440.080 243.074, 438.894 247.815, 438.533 249.422 C 438.171 251.029, 436.367 253.729, 434.522 255.422 C 429.848 259.713, 401.433 314.554, 392.990 335.581 L 389.745 343.661 393.901 352.530 L 398.057 361.398 395.778 363.500 C 394.525 364.657, 389.449 369.489, 384.499 374.239 L 375.497 382.875 369.999 379.365 C 352.959 368.486, 332.187 362.416, 325.021 366.222 C 320.508 368.618, 316.562 378.461, 313.036 396.113 C 311.990 401.352, 311.546 401.980, 306.377 405.540 C 294.312 413.850, 285.902 426.026, 275.671 450 C 266.643 471.155, 256.975 490.224, 251.203 498.261 C 244.176 508.046, 243 510.164, 243 513.038 C 243 514.231, 241.381 518.288, 239.403 522.053 L 235.806 528.899 237.444 533.832 C 239.363 539.609, 240.834 541.047, 247.250 543.413 C 252.860 545.483, 252.917 545.788, 248.920 552.285 C 245.866 557.248, 245.853 557.327, 247.438 561.396 C 250.213 568.519, 254.420 575.411, 256.679 576.532 C 258.273 577.323, 258.604 578, 257.912 579.057 C 257.392 579.850, 257.072 581.916, 257.200 583.647 C 257.380 586.090, 256.689 587.488, 254.111 589.896 C 250.585 593.190, 250.558 593.426, 252.544 604 L 253.201 607.500 248.408 602.119 C 241.547 594.415, 230.920 591.223, 226.582 595.561 C 222.328 599.815, 220.028 617.578, 220.050 646 C 220.071 672.339, 220.669 676.150, 226.964 690.011 C 234.598 706.820, 241.531 723.693, 247.096 739 C 249.795 746.425, 252.725 753.775, 253.608 755.334 C 255.151 758.059, 255.112 758.274, 252.606 760.889 C 249.064 764.586, 249.238 766.236, 255.098 784.560 C 260.077 800.132, 261.970 804, 264.610 804 C 265.325 804, 266.121 805.462, 266.380 807.250 C 266.944 811.144, 269 833.094, 269 835.221 C 269 836.045, 255.978 848.760, 240.062 863.477 C 209.686 891.564, 210 891.219, 210 896.492 C 210 900.019, 216.102 908.914, 219.926 910.961 C 225.550 913.970, 227.010 913.168, 244.500 897.456 C 249.450 893.009, 260.837 882.933, 269.805 875.065 L 286.109 860.760 294.004 864.880 C 298.346 867.146, 303.224 869, 304.844 869 C 306.464 869, 310.715 869.904, 314.291 871.008 C 317.867 872.113, 321.457 872.762, 322.268 872.451 C 323.083 872.138, 324.003 872.567, 324.327 873.411 C 325.961 877.667, 352.527 887.962, 372 891.884 C 390.010 895.511, 391.832 895.573, 392.965 892.592 L 393.950 890 422.916 890 C 439.265 890, 452.127 889.603, 452.445 889.089 C 453.278 887.740, 455.621 874.693, 458.458 855.598 C 459.840 846.303, 461.114 838.553, 461.290 838.376 C 462.205 837.462, 483.103 893.306, 486.409 905.500 C 490.310 919.888, 489.855 919.239, 498.645 922.956 C 517.186 930.797, 541.945 940.769, 544.395 941.384 C 546.938 942.023, 582.993 924.656, 591.225 918.829 C 594.595 916.443, 595.563 912.990, 598.025 894.559 C 599.077 886.692, 600.999 876.935, 602.298 872.878 C 603.597 868.820, 605.970 860.888, 607.573 855.250 C 609.176 849.612, 610.781 845, 611.140 845 C 611.499 845, 612.343 848.874, 613.016 853.609 C 613.688 858.344, 615.210 868.357, 616.398 875.859 L 618.559 889.500 637.676 889.771 L 656.794 890.042 657.416 892.521 C 657.986 894.794, 658.508 895, 663.696 895 C 671.376 895, 685.618 888.372, 686.633 884.325 C 687.190 882.108, 685.145 863.794, 683.348 854.893 C 682.889 852.619, 683.215 852.207, 685.897 851.671 C 690.018 850.846, 691.258 849.194, 696.510 837.533 C 702.776 823.619, 703.258 823.286, 706.537 830.593 C 711.825 842.379, 712.391 845.561, 710.058 850.380 C 708.926 852.718, 708 856.034, 708 857.748 C 708 860.036, 707.442 861.042, 705.901 861.531 C 703.743 862.216, 699 871.401, 699 874.896 C 699 876.924, 705.922 882, 708.689 882 C 709.642 882, 713.085 880.987, 716.340 879.750 C 723.176 877.152, 725.926 873.939, 736.543 856.150 C 743.338 844.766, 744.828 838.285, 741.906 832.825 C 741.305 831.701, 740.401 824.868, 739.896 817.641 C 739.392 810.413, 738.603 801.865, 738.143 798.645 C 737.314 792.846, 737.333 792.780, 740.073 791.825 C 743.957 790.471, 744.136 789.465, 743.371 773.270 L 742.689 758.842 738.968 754.338 C 734.113 748.463, 733.545 741.334, 734.528 698.568 C 735.337 663.395, 734.596 654.311, 728.373 623.103 C 723.552 598.925, 723.590 599, 716.124 599 C 710.897 599, 709.891 599.323, 708.127 601.566 L 706.108 604.132 704.054 600.106 C 702.924 597.892, 702 594.969, 702 593.612 C 702 592.150, 700.947 590.317, 699.416 589.113 C 696.660 586.944, 696.866 585.723, 700.476 582.856 C 701.614 581.952, 704.074 577.734, 705.942 573.482 C 709.681 564.974, 709.732 565.726, 704.621 553.839 L 703.048 550.178 708.274 546.912 C 719.505 539.893, 720.716 536.945, 716.598 526.652 C 715.169 523.081, 714 518.957, 714 517.488 C 714 516.019, 711.592 510.602, 708.650 505.452 C 704.276 497.795, 700.168 488.192, 697.416 479.188 C 697.098 478.148, 696.553 478.200, 694.785 479.438 C 691.530 481.718, 689.491 481.360, 688.022 478.250 C 678.263 457.584, 678.052 456.128, 684.511 453.996 L 687.862 452.890 685.431 448.050 C 684.094 445.388, 683 442.881, 683 442.479 C 683 442.077, 680.264 436.292, 676.920 429.624 C 670.182 416.189, 666.190 411.416, 655.671 404.214 L 648.842 399.539 649.481 395.278 C 650.017 391.703, 649.526 389.688, 646.430 382.759 C 641.414 371.532, 641.204 371.348, 632.510 370.533 C 625.770 369.901, 624.752 370.059, 620.814 372.337 C 618.441 373.709, 612.531 376.058, 607.681 377.556 L 598.861 380.279 595.185 378.343 C 593.129 377.260, 589.853 374.004, 587.750 370.954 C 585.682 367.954, 582.983 364.422, 581.751 363.105 L 579.511 360.710 581.907 361.471 C 583.225 361.889, 588.090 363.972, 592.719 366.101 C 604.944 371.722, 607.864 370.150, 616.107 353.516 L 620.115 345.428 612.932 327.464 C 608.981 317.584, 604.005 305.725, 601.874 301.110 C 599.743 296.496, 598 291.182, 598 289.302 C 598 284.268, 594.052 265.849, 592.428 263.305 C 591.378 261.661, 589.865 261.034, 586.389 260.805 L 581.752 260.500 578.917 252.500 L 576.081 244.500 578.923 237 C 580.485 232.875, 586.549 214.875, 592.398 197 C 604.545 159.878, 607.266 153.791, 619.465 136.466 C 621.199 134.002, 619.183 133.711, 612.322 135.434 C 603.195 137.727, 578.335 139.332, 562.750 138.635 C 555.737 138.322, 550 138.326, 550 138.645 C 550 138.964, 552.071 141.981, 554.602 145.348 C 567.069 161.933, 570.964 182.370, 566.399 207.245 C 564.595 217.075, 564.142 217.206, 560.041 209.080 C 556.136 201.345, 543.774 191.871, 530.653 186.558 C 525.619 184.520, 521.019 182.236, 520.431 181.482 C 518.838 179.441, 503.539 179.227, 501.235 181.214 C 500.281 182.037, 495.675 183.947, 491 185.459 C 478.762 189.417, 471.927 193.371, 464.609 200.724 L 458.169 207.197 457.365 201.348 C 454.379 179.615, 459.324 158.891, 471.027 144.085 C 473.212 141.320, 475 138.933, 475 138.779 C 475 138.626, 465.662 138.441, 454.250 138.369 C 433.390 138.236, 421.346 137.193, 410.812 134.606 C 407.684 133.838, 404.903 133.430, 404.634 133.700 M 411 138.398 C 411 138.617, 412.875 141.879, 415.167 145.648 C 421.858 156.650, 425.431 165.419, 433.525 190.704 C 447.646 234.817, 455.370 255.826, 457.392 255.615 C 458.001 255.552, 458.702 255.950, 458.948 256.500 C 459.469 257.661, 467.660 263, 468.921 263 C 469.389 263, 471.436 264.688, 473.470 266.750 L 477.168 270.500 472.096 260.940 C 459.931 238.008, 451.586 200.310, 453.986 179.127 C 455.515 165.625, 461.084 151.021, 467.284 144.254 C 470.125 141.152, 469.754 141.060, 459 142.192 C 447.007 143.454, 432.079 142.609, 420.551 140.014 C 410.632 137.782, 411 137.844, 411 138.398 M 605 140.103 C 593.846 142.579, 577.817 143.438, 566 142.193 C 560.775 141.642, 556.342 141.344, 556.149 141.530 C 555.956 141.716, 556.923 143.361, 558.299 145.184 C 570.439 161.283, 573.966 184.248, 568.527 211.785 C 564.519 232.074, 558.206 250.672, 551.330 262.449 C 548.428 267.419, 548.217 268.115, 550.148 266.342 C 552.972 263.752, 564.947 257.849, 566.027 258.516 C 566.447 258.776, 567.021 258.429, 567.304 257.744 C 573.919 241.704, 579.638 225.795, 587.879 200.500 C 598.604 167.583, 604.208 153.832, 610.889 144.045 C 613.159 140.720, 614.674 138.049, 614.258 138.108 C 613.841 138.168, 609.675 139.066, 605 140.103 M 522 186.689 C 522 186.975, 522.957 192, 524.127 197.855 C 526.302 208.739, 526.364 240.298, 524.236 253 L 523.482 257.500 519.069 257.500 C 515.141 257.500, 514.577 257.792, 513.941 260.150 C 513.300 262.526, 514.020 263.523, 520.893 269.779 L 528.559 276.757 529.892 284.259 C 531.213 291.694, 531.201 291.801, 528.555 296.315 C 527.087 298.821, 523.999 302.532, 521.693 304.563 C 519.387 306.594, 516.600 309.842, 515.500 311.782 C 513.368 315.541, 509.549 317.697, 508.377 315.801 C 507.964 315.133, 508.146 314.972, 508.834 315.397 C 509.602 315.872, 509.756 315.529, 509.305 314.352 C 508.888 313.266, 508.480 313.059, 508.231 313.807 C 508.010 314.470, 507.418 314.758, 506.915 314.447 C 504.952 313.234, 506.129 315.983, 508.250 317.566 C 509.567 318.550, 509.814 319.016, 508.844 318.690 C 507.901 318.374, 506.435 318.967, 505.439 320.067 C 504.477 321.130, 504.040 322, 504.467 322 C 504.895 322, 504.744 322.603, 504.132 323.341 C 503.267 324.383, 503.893 325.383, 506.951 327.841 C 511.960 331.866, 511.442 331.962, 519.577 325.511 C 523.385 322.492, 528.188 318.886, 530.250 317.498 C 533.420 315.365, 535.861 312.732, 533.069 314.457 C 530.990 315.742, 531.181 312.629, 533.983 299.579 C 537.780 281.893, 541.025 272.369, 545.441 265.949 C 548.392 261.660, 548.999 259.897, 548.992 255.638 C 548.973 243.657, 543.636 207.387, 541.541 205 C 540.817 204.175, 538.868 200.800, 537.210 197.500 C 534.443 191.990, 533.698 191.282, 528.098 188.834 C 524.744 187.368, 522 186.403, 522 186.689 M 547.018 200.628 C 547.042 201.785, 555 208.368, 555 207.231 C 555 206.386, 552.474 203.900, 548.750 201.080 C 547.788 200.351, 547.008 200.148, 547.018 200.628 M 462.786 207.760 C 460.498 210.201, 459.572 215.822, 460.935 219 C 461.052 219.275, 462.237 216.384, 463.567 212.576 C 466.366 204.564, 466.280 204.033, 462.786 207.760 M 478.652 207.675 C 476.416 215.369, 473.562 254.643, 474.964 258.431 C 475.371 259.533, 476.033 252.661, 476.436 243.150 C 476.838 233.644, 477.775 221.516, 478.517 216.200 C 479.789 207.092, 479.845 203.570, 478.652 207.675 M 556.036 211.559 C 556.197 215.831, 559.852 227, 561.088 227 C 563.627 227, 562.909 222.091, 559.555 216.521 C 557.600 213.274, 556.016 211.041, 556.036 211.559 M 443.043 246.500 C 442.980 247.050, 442.310 250.089, 441.554 253.254 C 440.797 256.418, 440.543 258.782, 440.989 258.507 C 442.126 257.804, 444.294 248.327, 443.672 246.779 C 443.389 246.075, 443.106 245.950, 443.043 246.500 M 554.459 259.067 C 554.096 259.653, 554.014 260.348, 554.276 260.610 C 554.538 260.872, 555.019 260.392, 555.345 259.543 C 556.021 257.781, 555.445 257.471, 554.459 259.067 M 431 264.929 C 431 265.440, 434.994 266.002, 439.875 266.179 C 446.667 266.425, 448.638 266.207, 448.268 265.250 C 447.694 263.762, 431 263.451, 431 264.929 M 574.986 267.250 C 574.979 268.488, 574.693 270.625, 574.350 272 C 573.919 273.731, 574.051 274.192, 574.779 273.500 C 575.358 272.950, 575.981 271.375, 576.165 270 C 576.480 267.648, 576.900 267.482, 583.250 267.204 C 592.445 266.802, 591.832 265, 582.500 265 C 575.393 265, 574.999 265.118, 574.986 267.250 M 417.641 291.750 C 408.614 309.810, 394 341.347, 394 342.766 C 394 345.146, 401.932 360.587, 404.294 362.807 L 406.716 365.082 408.206 362.791 C 411.440 357.818, 430.192 320.859, 429.721 320.387 C 428.821 319.488, 425.258 325.365, 415.958 343.087 C 410.933 352.664, 406.701 360.623, 406.554 360.774 C 404.778 362.591, 396 347.899, 396 343.111 C 396 339.847, 413.068 303.505, 420.475 291 C 423.367 286.117, 425.744 279, 424.482 279 C 424.225 279, 421.147 284.738, 417.641 291.750 M 436.402 282.109 C 434.153 284.593, 433.670 294.057, 435.756 294.752 C 436.447 294.982, 436.758 295.582, 436.447 296.085 C 436.136 296.588, 436.333 297, 436.884 297 C 439.035 297, 441 292.416, 441 287.400 C 441 281.053, 439.215 279, 436.402 282.109 M 507.187 284.307 L 503.982 287.613 507.205 291.807 C 511.168 296.963, 512.633 297.033, 516.642 292.258 L 519.784 288.515 516.808 284.758 C 513.151 280.141, 511.309 280.054, 507.187 284.307 M 582.650 285.788 C 581.907 290.435, 583.583 297, 585.512 297 C 587.501 297, 589 293.777, 589 289.500 C 589 281.770, 583.780 278.718, 582.650 285.788 M 561 285.107 C 561 285.716, 560.339 285.960, 559.532 285.651 C 558.725 285.341, 557.752 285.630, 557.372 286.294 C 556.991 286.957, 557.036 287.178, 557.471 286.785 C 557.907 286.392, 559.011 286.470, 559.924 286.960 C 561.193 287.639, 561.620 287.394, 561.731 285.924 C 561.810 284.866, 561.679 284, 561.438 284 C 561.197 284, 561 284.498, 561 285.107 M 564.564 287.707 C 564.022 289.132, 564.136 289.247, 565.124 288.267 C 565.808 287.588, 566.115 286.781, 565.807 286.474 C 565.499 286.166, 564.940 286.721, 564.564 287.707 M 544.726 290.960 C 542.100 293.099, 539.547 294.996, 539.052 295.175 C 538.151 295.500, 533.949 311, 534.761 311 C 536.491 311, 541.047 306.328, 543.222 302.324 C 545.623 297.903, 550.289 286.952, 549.735 287.036 C 549.606 287.055, 547.352 288.821, 544.726 290.960 M 552.573 290.528 C 550.956 292.997, 551.173 295, 553.059 295 C 553.577 295, 554 294.523, 554 293.941 C 554 293.359, 553.555 293.157, 553.011 293.493 C 552.420 293.858, 552.293 293.400, 552.695 292.352 C 553.112 291.266, 553.520 291.059, 553.769 291.807 C 554.221 293.163, 556 292.426, 556 290.882 C 556 290.332, 555.474 290.207, 554.830 290.605 C 554.043 291.091, 553.869 290.783, 554.299 289.664 C 555.226 287.248, 554.477 287.623, 552.573 290.528 M 557.018 288.500 C 556.878 289.050, 556.823 289.856, 556.895 290.291 C 556.968 290.725, 556.555 291.963, 555.978 293.041 C 555.242 294.417, 555.247 295, 555.996 295 C 557.458 295, 558.248 292.619, 557.715 289.823 C 557.472 288.545, 557.158 287.950, 557.018 288.500 M 560.079 291.583 C 560.127 292.748, 560.364 292.985, 560.683 292.188 C 560.972 291.466, 560.936 290.603, 560.604 290.271 C 560.272 289.939, 560.036 290.529, 560.079 291.583 M 558.882 294.750 C 558.816 295.163, 558.834 295.891, 558.921 296.368 C 559.008 296.846, 557.902 296.941, 556.465 296.580 C 554.229 296.019, 554.043 296.132, 555.175 297.360 C 556.625 298.932, 562.455 296.545, 561.387 294.817 C 560.754 293.793, 559.040 293.747, 558.882 294.750 M 549.413 296.500 C 549.016 297.600, 548.503 298.950, 548.272 299.500 C 548.041 300.050, 548.501 299.708, 549.294 298.739 C 551.003 296.652, 553.796 298.875, 552.394 301.206 C 551.851 302.109, 552.147 302.069, 553.371 301.075 C 554.916 299.821, 554.943 299.548, 553.595 298.793 C 552.753 298.322, 551.630 297.163, 551.099 296.218 C 550.212 294.639, 550.076 294.661, 549.413 296.500 M 478 296.941 C 478 297.459, 478.445 298.157, 478.989 298.493 C 479.555 298.843, 479.723 298.442, 479.382 297.552 C 478.717 295.820, 478 295.503, 478 296.941 M 548 302.437 C 549.355 304.187, 549.338 304.314, 547.833 303.750 C 546.817 303.370, 545.938 303.720, 545.583 304.645 C 544.692 306.967, 544.814 307.042, 547.500 305.818 C 550.459 304.470, 550.602 303.717, 548.250 301.872 C 546.631 300.602, 546.612 300.645, 548 302.437 M 598.585 305 C 598.959 306.375, 602.580 315.746, 606.632 325.824 C 610.685 335.902, 614 344.839, 614 345.684 C 614 347.995, 608.144 358.516, 605.448 361.049 L 603.081 363.272 602.104 360.886 C 594.118 341.395, 583.492 318.068, 581.935 316.610 C 579.584 314.409, 581.806 320.491, 591.395 342.500 C 596.666 354.600, 601.146 364.950, 601.350 365.500 C 602.231 367.882, 607.815 361.666, 611.776 353.892 L 616.052 345.500 608.074 325.748 C 600.313 306.530, 597.075 299.451, 598.585 305 M 476.563 315.087 C 479.438 318.109, 497.607 327.726, 498.588 326.746 C 499.618 325.715, 492.215 320.581, 483.625 316.369 C 473.012 311.165, 472.794 311.126, 476.563 315.087 M 537.481 317.908 C 531.978 320.608, 526.624 323.758, 525.584 324.908 L 523.691 326.998 529.388 325.038 C 536.700 322.523, 544.290 318.385, 547.123 315.369 C 550.317 311.969, 548.741 312.384, 537.481 317.908 M 560.513 316.624 C 556.313 326.675, 546.153 337.333, 534.313 344.107 L 528.899 347.204 520.375 344.547 C 511.322 341.724, 507.218 341.889, 497.116 345.484 C 493.744 346.684, 493.096 346.559, 487.516 343.635 C 478.957 339.151, 469.011 329.411, 464.659 321.252 C 460.443 313.347, 459.731 314.527, 463.750 322.760 C 467.121 329.666, 478.717 341.439, 486.112 345.465 L 491.414 348.350 501.957 346.653 C 512.107 345.018, 512.777 345.026, 519.936 346.861 C 528.262 348.994, 529.989 348.706, 538.347 343.789 C 549.387 337.294, 556.804 328.908, 560.936 318.250 C 563.220 312.358, 562.865 310.995, 560.513 316.624 M 505.325 321.658 C 505.687 322.020, 505.424 323.032, 504.741 323.908 C 503.645 325.314, 503.703 325.341, 505.239 324.137 C 506.803 322.910, 506.825 321, 505.274 321 C 504.940 321, 504.963 321.296, 505.325 321.658 M 512.158 354 C 512.158 355.375, 512.385 355.938, 512.662 355.250 C 512.940 354.563, 512.940 353.438, 512.662 352.750 C 512.385 352.063, 512.158 352.625, 512.158 354 M 470.032 355.341 C 469.989 356.489, 479.162 374.171, 479.582 373.751 C 479.767 373.566, 477.701 369.160, 474.990 363.958 C 472.280 358.756, 470.049 354.879, 470.032 355.341 M 544.773 366.273 C 542.738 370.196, 541.219 373.552, 541.398 373.731 C 541.576 373.910, 543.402 370.860, 545.455 366.955 C 547.507 363.049, 549.026 359.692, 548.830 359.496 C 548.633 359.300, 546.808 362.349, 544.773 366.273 M 327.248 369.826 C 324.887 371.325, 331.360 376.413, 333.898 375.054 C 335.054 374.436, 336 373.524, 336 373.028 C 336 371.640, 342.790 372.970, 350 375.771 C 370.011 383.544, 394.092 402.016, 414.829 425.500 C 417.743 428.800, 419.983 430.927, 419.806 430.226 C 418.578 425.363, 387.106 395.256, 375 387.362 C 355.687 374.769, 332.736 366.341, 327.248 369.826 M 625.430 380.285 C 624.477 384.174, 622.865 389.633, 621.849 392.414 C 620.832 395.196, 620.019 397.928, 620.042 398.486 C 620.115 400.266, 623.825 392.774, 627.121 384.188 L 630.312 375.877 634.156 376.526 C 636.712 376.958, 638 376.801, 638 376.057 C 638 374.724, 636.866 374.321, 631.332 373.688 L 627.163 373.212 625.430 380.285 M 511.286 378.500 C 511.294 381.250, 511.488 382.256, 511.718 380.736 C 511.947 379.216, 511.941 376.966, 511.704 375.736 C 511.467 374.506, 511.279 375.750, 511.286 378.500 M 427 386.059 C 427 386.641, 427.450 386.840, 428 386.500 C 428.550 386.160, 429 385.684, 429 385.441 C 429 385.198, 428.550 385, 428 385 C 427.450 385, 427 385.477, 427 386.059 M 511.232 393 C 511.232 394.925, 511.438 395.712, 511.689 394.750 C 511.941 393.788, 511.941 392.212, 511.689 391.250 C 511.438 390.288, 511.232 391.075, 511.232 393 M 577 395.713 C 577.825 396.019, 579.175 396.771, 580 397.384 C 581.303 398.354, 581.320 398.271, 580.128 396.750 C 579.373 395.788, 578.023 395.036, 577.128 395.079 C 575.766 395.145, 575.745 395.249, 577 395.713 M 310.482 406.633 C 301.474 412.588, 292.220 423.422, 287.106 434 L 284.931 438.500 290.072 433 C 292.900 429.975, 297.026 425.025, 299.240 422 C 301.455 418.975, 306.006 413.688, 309.354 410.250 C 316.124 403.300, 316.280 402.799, 310.482 406.633 M 652.321 408.064 C 652.679 409.404, 652.979 411.058, 652.986 411.740 C 652.994 412.422, 655.362 414.555, 658.250 416.481 C 661.804 418.851, 665.114 422.382, 668.496 427.411 C 671.245 431.497, 673.606 434.727, 673.745 434.588 C 673.884 434.450, 672.024 430.773, 669.614 426.418 C 664.956 418.005, 659.507 411.209, 654.639 407.743 L 651.670 405.629 652.321 408.064 M 479.584 415.641 C 479.057 417.014, 479.204 417.076, 480.477 416.019 C 482.212 414.579, 482.393 414, 481.107 414 C 480.616 414, 479.931 414.739, 479.584 415.641 M 549.292 416.771 C 550.174 417.744, 551.340 419.657, 551.884 421.021 C 552.744 423.177, 552.881 423.236, 552.937 421.473 C 553.011 419.105, 550.380 415, 548.788 415 C 548.180 415, 548.405 415.791, 549.292 416.771 M 591.250 426.141 C 590.563 426.834, 590.037 428.998, 590.082 430.950 L 590.163 434.500 591.632 431.133 C 593.400 427.081, 593.179 424.199, 591.250 426.141 M 446.694 434 C 450.197 438.693, 453 440.418, 453 437.882 C 453 436.417, 445.567 429, 444.098 429 C 443.473 429, 444.641 431.250, 446.694 434 M 583.500 432.279 C 581.850 434.357, 576.785 439.054, 572.244 442.716 C 566.864 447.055, 564.407 449.633, 565.190 450.118 C 566.729 451.068, 567.982 450.368, 577.901 443.013 C 586.693 436.495, 587.321 435.672, 586.825 431.334 L 586.500 428.500 583.500 432.279 M 441 431.313 C 441 431.485, 442.462 432.948, 444.250 434.563 L 447.500 437.500 444.563 434.250 C 441.825 431.221, 441 430.540, 441 431.313 M 455 434.981 C 455 437.846, 458.654 441.959, 462.908 443.884 C 469.431 446.835, 482.871 452, 484.026 452 C 486.162 452, 484.815 450.166, 481.750 448.901 C 478.375 447.509, 462.554 438.722, 457.750 435.573 C 455.924 434.376, 455 434.177, 455 434.981 M 601.667 444.667 C 601.300 445.033, 601.009 446.496, 601.021 447.917 C 601.054 451.906, 619.429 464.999, 621.745 462.683 C 623.767 460.661, 623.183 459.928, 612.310 450.843 C 604.220 444.084, 602.973 443.360, 601.667 444.667 M 432.074 447.844 C 421.020 455.314, 414.876 462.569, 417.979 464.487 C 419.614 465.498, 427.309 462.785, 430.531 460.061 C 432.198 458.653, 435.250 456.375, 437.312 455 C 440.114 453.132, 440.931 451.994, 440.545 450.500 C 440.260 449.400, 440.021 447.809, 440.014 446.964 C 439.993 444.661, 436.154 445.087, 432.074 447.844 M 278.209 450.250 C 276.346 452.500, 268 470.313, 268 472.041 C 268 474.011, 278.965 479.334, 281.232 478.465 C 282.790 477.867, 295 458.224, 295 456.315 C 295 454.978, 283.528 449, 280.963 449 C 280.018 449, 278.779 449.563, 278.209 450.250 M 536.647 473.762 C 536.272 474.369, 536.819 478.700, 537.863 483.385 C 538.907 488.071, 539.594 492.155, 539.389 492.461 C 539.184 492.767, 539.511 492.605, 540.115 492.102 C 540.910 491.440, 540.872 489.164, 539.977 483.844 C 538.488 474.985, 537.583 472.247, 536.647 473.762 M 635.872 483.750 C 634.629 485.336, 634.664 485.371, 636.250 484.128 C 637.916 482.821, 638.445 482, 637.622 482 C 637.415 482, 636.627 482.788, 635.872 483.750 M 261.259 489.276 C 259.477 492.723, 255.764 498.538, 253.009 502.197 C 248.494 508.194, 246.558 512.713, 248.880 511.833 C 250.929 511.058, 261.127 496.170, 262.123 492.500 C 262.721 490.300, 263.849 487.262, 264.631 485.750 C 265.412 484.238, 265.702 483.002, 265.276 483.004 C 264.849 483.006, 263.042 485.828, 261.259 489.276 M 631.405 487.112 C 630.357 488.274, 625.450 492.497, 620.500 496.497 C 615.550 500.497, 602.950 510.824, 592.500 519.446 C 570.017 537.997, 524.797 574.264, 510.104 585.529 C 504.387 589.913, 498.312 594.675, 496.604 596.111 C 494.897 597.548, 489.861 601.178, 485.413 604.179 L 477.327 609.635 476.028 606.702 C 474.621 603.522, 467.785 598.207, 462.684 596.326 C 453.623 592.985, 441.297 595.744, 433.750 602.802 L 431 605.374 431 602.878 C 431 599.512, 425.186 590.074, 418.216 582.126 C 405.338 567.442, 396.595 558.482, 394.849 558.180 C 392.583 557.789, 392.444 559.294, 394.583 561.069 C 397.423 563.426, 417.582 587.366, 421.256 592.745 C 425.777 599.363, 426.380 602.199, 425.420 612.330 C 424.182 625.404, 424.760 631.310, 427.376 632.314 C 428.521 632.754, 428.679 631.395, 428.260 624.674 C 427.823 617.641, 428.063 615.839, 429.980 611.762 C 435.969 599.030, 451.617 593.338, 463.601 599.532 C 469.436 602.548, 476.678 609.963, 474.876 611.076 C 473.060 612.199, 471.607 611.268, 470.193 608.073 C 467.481 601.947, 453.989 598.311, 445.705 601.475 C 431.222 607.006, 427.564 624.106, 438.355 635.830 L 440.500 638.161 437.500 640.326 C 435.850 641.517, 431.800 644.765, 428.500 647.544 C 425.200 650.323, 421.995 652.904, 421.377 653.279 C 420.702 653.689, 418.638 651.476, 416.204 647.731 C 412.120 641.447, 404 632.722, 404 634.617 C 404 635.180, 405.496 637.409, 407.325 639.570 C 415.293 648.986, 418.995 655.576, 417.281 657.290 C 415.828 658.743, 415.838 659.104, 417.401 661.490 C 419.736 665.054, 421.370 664.371, 433.330 654.834 C 439.349 650.034, 443.872 647.118, 444.866 647.396 C 454.698 650.149, 463.413 648.132, 470.946 641.359 C 476.664 636.218, 478.878 631.935, 480.030 623.790 C 481.113 616.127, 479.874 617.401, 513 589.884 C 538.216 568.937, 552.326 557.021, 557.500 552.303 C 558.600 551.300, 566.025 544.920, 574 538.126 C 617.790 500.817, 635.555 485.067, 633.905 485.018 C 633.578 485.008, 632.453 485.951, 631.405 487.112 M 422 489.243 C 422.825 490.077, 436.100 499.199, 451.500 509.514 C 482.374 530.195, 493.438 538.207, 495.514 541.390 C 496.271 542.551, 497.390 548.438, 498.002 554.473 C 499.378 568.053, 500.522 569.964, 499.516 557 C 499.110 551.775, 498.643 545.475, 498.479 543 C 498.228 539.209, 497.580 537.980, 494.367 535.201 C 489.078 530.626, 470.484 518.332, 458.500 511.488 C 449.879 506.564, 433.478 496.365, 423.500 489.723 C 421.850 488.625, 421.175 488.409, 422 489.243 M 614.405 515.811 C 602.802 527.740, 592.759 538.540, 592.086 539.812 C 591.185 541.517, 591.072 545.196, 591.659 553.812 L 592.455 565.500 593.105 553.271 C 593.866 538.962, 590.761 543.758, 618.695 513.750 C 628.807 502.887, 636.725 494.027, 636.290 494.061 C 635.856 494.094, 626.007 503.881, 614.405 515.811 M 669.079 499.583 C 669.127 500.748, 669.364 500.985, 669.683 500.188 C 669.972 499.466, 669.936 498.603, 669.604 498.271 C 669.272 497.939, 669.036 498.529, 669.079 499.583 M 675.013 513.753 C 683.425 534.414, 690.832 549.514, 692.479 549.363 C 694.468 549.181, 713.543 538.256, 715.057 536.432 C 717.033 534.051, 715.115 534.766, 705.233 540.093 C 700.037 542.894, 695.444 544.806, 695.026 544.343 C 694.608 543.879, 692.122 537.875, 689.502 531 C 683.605 515.532, 677.983 504.410, 676.925 506.121 C 676.504 506.802, 675.447 507.464, 674.575 507.592 C 673.704 507.720, 673.182 507.514, 673.417 507.134 C 673.652 506.755, 672.984 505.332, 671.934 503.972 C 670.867 502.591, 672.225 506.907, 675.013 513.753 M 703.658 507.073 C 704.032 508.958, 705.049 511.048, 705.919 511.718 C 708.877 513.997, 709.030 513.009, 706.378 508.750 C 702.871 503.119, 702.875 503.122, 703.658 507.073 M 327.784 506.760 C 327.177 507.492, 326.084 507.862, 325.356 507.583 C 323.890 507.021, 316.624 516.217, 305.153 533.154 C 301.184 539.013, 297.300 544.336, 296.522 544.982 C 295.105 546.158, 292.371 545.532, 253.500 535.132 C 242.219 532.114, 241.321 530.954, 244.457 523.450 C 246.799 517.843, 245.845 518.400, 242.493 524.597 C 238.254 532.433, 239.625 534.708, 250 537.051 C 254.125 537.983, 266.275 540.986, 277 543.724 C 287.725 546.462, 297.958 548.982, 299.739 549.324 C 302.974 549.945, 302.996 549.920, 314.204 533.465 C 332.003 507.332, 333.132 505.429, 330.833 505.429 C 329.764 505.429, 328.392 506.028, 327.784 506.760 M 407.244 523.938 L 406.216 527.985 414.358 533.696 C 418.836 536.837, 430.145 544.544, 439.489 550.823 C 448.834 557.102, 457.131 563.198, 457.927 564.369 C 460.019 567.446, 466.154 573.179, 466.734 572.599 C 467.418 571.915, 463.268 558.860, 461.744 556.903 C 459.833 554.448, 412.939 521.682, 409.386 520.318 C 408.764 520.079, 407.816 521.682, 407.244 523.938 M 635.326 529.239 C 634.202 530.483, 629.171 537.070, 624.145 543.879 C 615.350 555.794, 613.896 558.766, 612.592 567.500 C 612.027 571.282, 612.157 571.154, 614.982 565.147 C 616.707 561.479, 622.047 553.930, 627.616 547.286 C 636.806 536.320, 639.772 530.867, 638.056 528.091 C 637.604 527.360, 636.669 527.753, 635.326 529.239 M 629.421 582.750 C 619.539 604.997, 617.789 610.324, 619.328 613.477 L 620.803 616.500 623.515 610.500 C 627.527 601.624, 634.558 580.661, 634.181 578.701 C 633.582 575.593, 632.003 576.936, 629.421 582.750 M 365 585.010 C 365 585.631, 368.690 593.492, 373.200 602.479 C 380.107 616.245, 381.903 619.060, 384.596 620.345 L 387.793 621.869 383.284 613.684 C 380.804 609.183, 377.309 603.025, 375.516 600 C 373.723 596.975, 371.069 592.386, 369.617 589.802 C 366.912 584.989, 365 583.005, 365 585.010 M 591.459 587.067 C 591.096 587.653, 591.014 588.348, 591.276 588.610 C 591.538 588.872, 592.019 588.392, 592.345 587.543 C 593.021 585.781, 592.445 585.471, 591.459 587.067 M 232.500 599.498 C 240.143 603.673, 251.475 620.857, 259.020 639.711 C 262.275 647.845, 264.952 654.111, 264.969 653.636 C 265.135 649.016, 259.054 629.788, 254.484 620.482 C 247.144 605.534, 241.369 599.154, 234.500 598.405 L 229.500 597.860 232.500 599.498 M 712.162 603.750 C 709.447 608.983, 707.824 624.635, 708.531 638.774 C 708.924 646.646, 709.399 652.935, 709.585 652.748 C 709.772 652.562, 710.403 647.336, 710.987 641.135 C 712.182 628.462, 715.096 614.833, 718.025 608.211 C 719.102 605.775, 719.736 603.382, 719.433 602.891 C 718.439 601.283, 713.117 601.911, 712.162 603.750 M 268.115 621.750 C 270.689 623.639, 277.467 626.996, 282.851 629.049 C 284.694 629.751, 287.774 631.393, 289.695 632.697 C 295.229 636.453, 293.093 633.560, 286.636 628.555 C 282.982 625.723, 278.326 623.255, 274.281 622.005 C 266.312 619.544, 265.037 619.491, 268.115 621.750 M 475.500 621.987 C 474.400 623.209, 473.613 624.388, 473.750 624.605 C 474.889 626.404, 473.252 629.889, 469.250 634.186 C 463.999 639.824, 459.887 642, 454.482 642 C 450.831 642, 445 644.384, 445 645.876 C 445 647.385, 457.177 647.102, 462.061 645.480 C 470.571 642.653, 478.633 631.178, 477.825 623.041 L 477.500 619.763 475.500 621.987 M 699.354 627.047 C 696.772 628.024, 690.533 634.111, 688.902 637.246 L 687.729 639.500 690.227 637.204 C 691.602 635.942, 693.125 635.041, 693.613 635.202 C 694.909 635.631, 702.954 629.709, 702.979 628.309 C 703.010 626.558, 701.779 626.129, 699.354 627.047 M 710.078 627.500 C 709.994 628.050, 709.731 630.300, 709.494 632.500 L 709.064 636.500 710.086 633.151 C 710.649 631.309, 710.911 629.059, 710.670 628.151 C 710.429 627.243, 710.163 626.950, 710.078 627.500 M 267.479 635.035 C 267.177 635.523, 267.894 639.652, 269.073 644.211 C 270.252 648.770, 271.445 653.513, 271.725 654.750 C 272.004 655.987, 272.884 657, 273.681 657 C 274.477 657, 279.937 660.297, 285.814 664.328 C 299.946 674.019, 300.734 674.294, 292.750 666.750 C 289.038 663.243, 286 659.848, 286 659.207 C 286 657.816, 281.157 643.186, 279.937 640.892 C 278.160 637.551, 268.678 633.094, 267.479 635.035 M 699.394 642 C 694.065 648.007, 693.729 649.219, 695.078 657.582 C 695.741 661.694, 696.605 665.256, 696.998 665.499 C 697.740 665.957, 706.027 659.983, 705.965 659.036 C 705.946 658.741, 705.158 654, 704.215 648.500 L 702.500 638.500 699.394 642 M 274 661.559 C 274 662.416, 274.457 662.835, 275.016 662.490 C 275.575 662.144, 275.774 661.443, 275.457 660.931 C 274.600 659.544, 274 659.802, 274 661.559 M 616.330 665.057 C 615.310 668.879, 615.394 669.144, 618.273 671.194 L 621.282 673.337 620.679 683.233 C 620.347 688.676, 620.323 694.338, 620.625 695.815 C 621.219 698.718, 626.358 702, 630.311 702 C 634.008 702, 647.171 724.884, 644.987 727.515 C 643.763 728.991, 645.234 733, 647 733 C 648.658 733, 650.220 737.151, 653.564 750.447 C 659.041 772.221, 659.608 774.122, 664.794 788.050 C 667.549 795.448, 671.430 806.870, 673.419 813.434 C 675.408 819.998, 677.164 825.497, 677.321 825.654 C 677.478 825.812, 678.649 819.766, 679.922 812.220 C 682.466 797.140, 682.967 795.741, 687.035 792.317 C 690.131 789.712, 689.932 787.685, 685.791 779.628 C 684.193 776.521, 683.932 774.699, 684.469 770.402 C 685.054 765.723, 684.835 764.634, 682.742 761.774 C 681.423 759.973, 679.030 755.885, 677.423 752.690 C 675.815 749.494, 667.377 737.794, 658.670 726.690 C 630.745 691.073, 629.478 689.070, 625.853 674.796 C 624.136 668.033, 622.679 662.451, 622.616 662.391 C 622.552 662.331, 621.352 662.007, 619.948 661.671 C 617.645 661.121, 617.293 661.450, 616.330 665.057 M 702.245 663.750 C 699.020 666.606, 688 679.970, 688 681.026 C 688 681.562, 688.347 682, 688.772 682 C 690.344 682, 706 665.396, 706 663.729 C 706 661.526, 704.749 661.533, 702.245 663.750 M 275.459 664.067 C 275.096 664.653, 275.014 665.348, 275.276 665.610 C 275.538 665.872, 276.019 665.392, 276.345 664.543 C 277.021 662.781, 276.445 662.471, 275.459 664.067 M 523.208 673.142 C 521.398 674.301, 520.131 675.464, 520.393 675.727 C 520.656 675.989, 521.900 675.483, 523.158 674.602 C 524.416 673.721, 526.271 673, 527.282 673 C 528.292 673, 528.840 672.550, 528.500 672 C 527.633 670.598, 526.951 670.745, 523.208 673.142 M 565.066 673.421 C 563.998 674.708, 564.210 675.138, 566.402 676.138 C 569.830 677.699, 570.915 676.471, 568.362 673.918 C 566.563 672.119, 566.193 672.063, 565.066 673.421 M 383 694 C 381.903 694.709, 382.658 694.973, 385.809 694.985 C 388.430 694.994, 389.876 694.608, 389.500 694 C 388.716 692.731, 384.963 692.731, 383 694 M 509.079 697.307 C 509.122 698.513, 509.385 698.938, 509.662 698.250 C 509.940 697.563, 511.104 697, 512.250 697 C 514.773 697, 514.088 696.095, 511.135 695.526 C 509.463 695.204, 509.017 695.591, 509.079 697.307 M 578 696.441 C 578 697.298, 578.450 698, 579 698 C 579.550 698, 580 697.577, 580 697.059 C 580 696.541, 579.550 695.840, 579 695.500 C 578.450 695.160, 578 695.584, 578 696.441 M 332.349 715.742 L 324.198 716.078 322.176 723.789 C 317.928 739.991, 317.624 739.652, 327.655 729.906 C 332.520 725.179, 338.075 719.894, 340 718.161 C 341.925 716.427, 342.825 715.099, 342 715.208 C 341.175 715.318, 336.832 715.558, 332.349 715.742 M 481.333 716.456 C 481.333 717.257, 481.716 717.676, 482.183 717.387 C 482.650 717.098, 482.774 716.443, 482.457 715.931 C 481.649 714.623, 481.333 714.770, 481.333 716.456 M 477.980 717.524 C 477.284 718.362, 476.909 719.242, 477.145 719.479 C 477.382 719.715, 478.125 719.030, 478.796 717.955 C 480.248 715.630, 479.764 715.375, 477.980 717.524 M 589.459 731.067 C 589.096 731.653, 589.014 732.348, 589.276 732.610 C 589.538 732.872, 590.019 732.392, 590.345 731.543 C 591.021 729.781, 590.445 729.471, 589.459 731.067 M 346.480 746.849 C 342.091 751.095, 335.199 757.540, 331.165 761.170 L 323.830 767.771 325.415 770.836 C 326.287 772.521, 327 775.058, 327 776.472 C 327 779.021, 335.073 785.476, 337.323 784.726 C 338.844 784.219, 355.551 740.368, 354.625 739.314 C 354.535 739.211, 350.870 742.602, 346.480 746.849 M 571.872 745.750 C 570.629 747.336, 570.664 747.371, 572.250 746.128 C 573.916 744.821, 574.445 744, 573.622 744 C 573.415 744, 572.627 744.788, 571.872 745.750 M 520 748.802 C 520 749.334, 521.143 750.519, 522.541 751.435 C 527.517 754.695, 542.150 762.913, 544.059 763.519 C 545.693 764.037, 546 765.073, 546 770.067 C 546 773.356, 546.446 776, 547 776 C 547.550 776, 548.003 773.413, 548.006 770.250 L 548.011 764.500 556.756 758.016 C 561.565 754.450, 566.850 750.850, 568.500 750.016 C 571.402 748.549, 571.424 748.489, 569.152 748.168 C 567.827 747.980, 565.866 748.688, 564.652 749.792 C 560.201 753.838, 551.371 758.960, 547.905 759.507 C 544.889 759.983, 542.475 759.142, 532.905 754.287 C 518.877 747.169, 520 747.646, 520 748.802 M 488.667 750.667 C 487.516 751.817, 487.938 753, 489.500 753 C 490.325 753, 491 752.325, 491 751.500 C 491 749.938, 489.817 749.516, 488.667 750.667 M 591.150 750.950 C 591.370 751.610, 591.876 752.116, 592.275 752.075 C 593.471 751.951, 593.239 750.580, 591.950 750.150 C 591.290 749.930, 590.930 750.290, 591.150 750.950 M 288 755.733 C 284.758 757.688, 283.989 758.544, 285.250 758.796 C 286.212 758.989, 287 759.579, 287 760.109 C 287 760.683, 287.816 760.633, 289.030 759.984 C 291.418 758.706, 292.793 761.284, 295.526 772.163 C 297.512 780.071, 298.195 781.246, 300.330 780.427 C 302.520 779.587, 302.474 779.134, 299.086 768 C 293.903 750.966, 294.609 751.747, 288 755.733 M 584.350 758.712 C 578.451 765.726, 576.856 769, 579.339 769 C 582.619 769, 590.654 757.991, 589.231 755.448 C 588.546 754.225, 587.582 754.869, 584.350 758.712 M 716.700 754.750 C 716.081 755.859, 717.663 778.645, 718.446 779.913 C 720.303 782.917, 721.664 780.885, 720.901 776.250 C 720.471 773.638, 720.092 768.913, 720.060 765.750 C 719.999 759.863, 720.206 759.591, 724.671 759.718 C 726.998 759.784, 724.677 756.892, 721.257 755.463 C 717.187 753.762, 717.246 753.771, 716.700 754.750 M 494.107 756.371 C 492.362 758.474, 493.792 760.763, 500.693 766.914 C 505.813 771.478, 506.575 771.854, 507.935 770.493 C 509.296 769.133, 508.714 768.232, 502.404 761.921 C 496.363 755.880, 495.174 755.085, 494.107 756.371 M 511.543 774.931 C 510.803 776.128, 512.684 777.313, 514.016 776.490 C 515.135 775.799, 514.400 774, 513 774 C 512.515 774, 511.859 774.419, 511.543 774.931 M 573 775 C 573 775.550, 573.450 776, 574 776 C 574.550 776, 575 775.550, 575 775 C 575 774.450, 574.550 774, 574 774 C 573.450 774, 573 774.450, 573 775 M 294.557 781.582 C 293.491 782.362, 293.041 782.993, 293.559 782.985 C 294.941 782.962, 297.520 781.186, 296.969 780.636 C 296.710 780.376, 295.624 780.802, 294.557 781.582 M 339.051 794.750 C 339.153 796.262, 348.900 814.459, 348.949 813.230 C 348.977 812.532, 346.970 807.919, 344.490 802.980 C 340.421 794.877, 338.904 792.583, 339.051 794.750 M 696.237 806.481 C 694.457 811.189, 693.017 815.594, 693.037 816.271 C 693.057 816.947, 694.645 813.487, 696.564 808.582 C 698.484 803.677, 699.924 799.272, 699.764 798.793 C 699.604 798.313, 698.017 801.773, 696.237 806.481 M 546.019 857.500 C 546.051 888.588, 546.429 907, 547.035 907 C 547.642 907, 548 888.624, 548 857.500 C 548 824.625, 547.659 808, 546.983 808 C 546.307 808, 545.984 824.590, 546.019 857.500 M 734.500 831.469 C 736.150 832.821, 737.950 833.928, 738.500 833.928 C 739.050 833.928, 738.150 832.821, 736.500 831.469 C 734.850 830.117, 733.050 829.010, 732.500 829.010 C 731.950 829.010, 732.850 830.117, 734.500 831.469 M 303.871 833.080 C 294.514 837.140, 279.455 841.294, 275.956 840.780 C 274.330 840.542, 273 840.718, 273 841.173 C 273 842.036, 275.739 842.366, 280 842.016 C 285.871 841.534, 309.210 833.088, 310.518 830.972 C 310.848 830.437, 310.979 830.046, 310.809 830.102 C 310.639 830.158, 307.517 831.498, 303.871 833.080" stroke="#000000" stroke-width="0.5" fill="#000000" fill-rule="evenodd"/>
</svg>