<!-- Оптимизировано для DTF печати -->
          <!-- Рекомендации: полноцветная печать, высокое разрешение -->
          <svg xmlns="http://www.w3.org/2000/svg" width="100%" height="100%" viewBox="0 0 1024 1024">
	<path d="M 305.725 174.752 C 299.461 181.673, 299.650 205.917, 306.163 230.971 C 313.743 260.130, 313.430 258.030, 313.252 278.500 C 313.073 299.132, 313.918 305.100, 318.594 316.241 C 321.774 323.819, 328.301 335.238, 332.152 339.963 C 333.705 341.867, 334.643 343.725, 334.237 344.091 C 333.832 344.457, 330.026 345.256, 325.779 345.868 C 309.795 348.169, 286.597 354.768, 270.250 361.664 C 259.570 366.169, 263.399 365.921, 274.909 361.362 C 292.353 354.452, 316.104 348.247, 332 346.447 C 336.777 345.907, 337.655 346.082, 338.676 347.780 C 339.773 349.605, 339.240 349.918, 330.676 352.477 C 314.796 357.221, 287.107 369.059, 274.210 376.617 C 265.358 381.805, 271.051 379.764, 285.069 372.725 C 293.006 368.739, 300.850 364.953, 302.500 364.312 C 304.150 363.670, 308.200 362.035, 311.500 360.677 C 314.800 359.319, 322.639 356.586, 328.920 354.603 C 339.537 351.251, 340.466 351.112, 342.140 352.627 C 343.837 354.163, 343.241 354.657, 331.720 361.263 C 321.700 367.008, 304.074 378.686, 302 380.953 C 301.725 381.254, 299.250 383.286, 296.500 385.468 C 289.510 391.016, 279 401.123, 279 402.296 C 279 402.835, 282.712 399.726, 287.250 395.388 C 294.625 388.336, 304.916 380.058, 314.994 373.069 C 321.282 368.709, 343.418 356, 344.725 356 C 345.426 356, 346 356.413, 346 356.918 C 346 358.637, 352.724 362, 356.160 362 C 358.896 362, 360.469 362.903, 363.995 366.495 C 369.513 372.117, 375.490 374.498, 384.088 374.499 C 389.784 374.500, 391.385 374.059, 395.910 371.247 C 398.788 369.458, 403.988 367.001, 407.466 365.787 C 412.966 363.867, 414.011 363.764, 415.491 364.992 C 417.018 366.260, 416.544 366.587, 410.857 368.191 C 407.372 369.174, 403.392 370.813, 402.011 371.834 C 395.744 376.467, 392.661 377.429, 384 377.454 C 373.622 377.483, 368.857 375.469, 361.025 367.743 C 358.006 364.765, 356.023 363.364, 356.436 364.500 C 361.293 377.871, 361.500 400.334, 357.039 430 C 352.608 459.471, 351.896 482.120, 354.936 496.832 C 357.542 509.443, 362.606 522.379, 369.209 533.295 C 377.361 546.771, 382.742 558.209, 385.358 567.620 C 389.571 582.775, 389.304 582.901, 382.442 569 C 378.777 561.575, 373.411 551.450, 370.518 546.500 C 367.626 541.550, 364.068 535.138, 362.613 532.250 C 361.157 529.362, 359.755 527, 359.498 527 C 359.240 527, 359.983 529.362, 361.149 532.250 C 369.724 553.491, 375.801 571.752, 382.366 596 C 391.322 629.082, 391.561 630.612, 402.172 722.500 C 402.871 728.550, 403.455 743.625, 403.471 756 C 403.498 777.093, 403.354 778.904, 401.168 784.961 C 398.421 792.574, 394.324 797.655, 388.470 800.709 C 382.176 803.993, 378.241 808.448, 376.523 814.236 C 374.575 820.794, 374.597 825.461, 376.603 831.350 C 378.438 836.733, 381.304 838.694, 389.149 839.935 C 393.384 840.604, 394.020 840.495, 393.519 839.189 C 390.398 831.055, 391.142 822.026, 395.554 814.497 C 397.491 811.192, 399.472 809.449, 403.400 807.590 C 411.646 803.690, 415.459 797.049, 421.383 776.270 C 431.285 741.537, 437.989 686.987, 436.653 652 C 435.535 622.703, 430.946 603.665, 418.936 578.500 C 414.792 569.818, 412.095 565.029, 402.600 549.500 C 400.878 546.683, 400.960 546.713, 403.947 550 C 410.515 557.228, 418.699 568.850, 422.881 576.888 C 428.733 588.137, 434.758 606.173, 437.098 619.453 C 442.126 647.981, 439.987 696.078, 431.406 747.440 C 424.963 786.011, 420.749 797.112, 407.321 810.893 C 400.495 817.898, 398.590 823.360, 399.214 834.139 C 399.644 841.569, 399.559 841.995, 397.750 841.421 C 396.108 840.899, 395.978 841.091, 396.860 842.738 C 397.427 843.797, 398.478 845.131, 399.195 845.701 C 403.946 849.477, 427.456 850.752, 437.124 847.759 C 443.933 845.650, 450.262 839.790, 453.602 832.500 C 454.862 829.750, 457.511 820.182, 459.489 811.237 C 464.078 790.485, 466.498 782.277, 480.781 739.039 L 492.495 703.578 493.299 708.539 C 499.123 744.497, 504.544 757.734, 523.753 782.900 L 527.242 787.471 524.871 788.073 C 523.567 788.404, 518.225 788.772, 513 788.891 C 498.295 789.225, 492.030 791.088, 486.872 796.661 C 483.377 800.438, 482.440 802.447, 481.068 809.120 C 479.465 816.914, 481.523 822.203, 487.117 824.672 C 490.428 826.132, 491.134 826.985, 491.636 830.128 C 493.013 838.735, 499.699 843.924, 509.500 843.990 C 512.250 844.008, 524.009 843.482, 535.632 842.820 C 552.448 841.862, 562.761 841.881, 586.132 842.912 C 633.808 845.017, 658.041 845.372, 665.481 844.077 C 683.954 840.860, 696.733 831.713, 704.008 816.500 C 708.487 807.136, 709.653 801.908, 711.004 785.131 L 712 772.762 720.882 751.131 C 730.581 727.508, 733.944 717.352, 737.033 702.346 C 742.434 676.110, 741.241 647.867, 733.408 616.500 C 729.907 602.483, 724.369 585.011, 720.253 575 C 718.330 570.325, 715.911 564.356, 714.877 561.735 C 708.668 546.002, 690.389 513.111, 679.178 497.500 C 666.317 479.591, 647.370 460.345, 629.180 446.713 C 607.392 430.384, 597.275 425.290, 556 409.869 C 515.787 394.844, 503.189 385.786, 490.565 362.819 C 483.231 349.478, 478.096 330.895, 477.934 317.119 L 477.868 311.500 476.427 316.858 C 472.506 331.433, 463.911 345.862, 454.913 352.974 L 449.982 356.872 445.364 355.299 L 440.747 353.726 444.047 352.338 C 445.861 351.575, 450.756 347.474, 454.923 343.224 C 468.753 329.122, 478.240 305.625, 479.644 282 C 479.969 276.525, 481.177 269.322, 482.494 265 C 487.524 248.496, 488.480 242.199, 488.490 225.500 C 488.501 207.386, 486.933 198.961, 481.915 190.174 C 479.268 185.541, 478.605 185, 475.570 185 C 469.405 185, 455.424 198.305, 442.648 216.328 C 438.949 221.546, 435.173 226.103, 434.257 226.455 C 430.615 227.853, 417.248 228.218, 411.974 227.064 C 408.963 226.406, 398.400 225.520, 388.500 225.095 C 374.232 224.484, 369.774 223.951, 367 222.525 C 362.177 220.046, 346.849 206.644, 332.548 192.403 C 313.028 172.963, 309.465 170.619, 305.725 174.752 M 309 178 C 309.825 178.533, 310.950 178.969, 311.500 178.969 C 312.050 178.969, 311.825 178.533, 311 178 C 310.175 177.467, 309.050 177.031, 308.500 177.031 C 307.950 177.031, 308.175 177.467, 309 178 M 305.252 184.500 C 305.263 186.700, 305.468 187.482, 305.707 186.238 C 305.946 184.994, 305.937 183.194, 305.687 182.238 C 305.437 181.282, 305.241 182.300, 305.252 184.500 M 315 182.378 C 315 182.585, 315.788 183.373, 316.750 184.128 C 318.336 185.371, 318.371 185.336, 317.128 183.750 C 315.821 182.084, 315 181.555, 315 182.378 M 319.606 188.152 C 320.648 189.611, 321.700 190.611, 321.944 190.374 C 322.189 190.138, 321.337 188.944, 320.050 187.722 L 317.712 185.500 319.606 188.152 M 475.497 189.995 C 475.835 190.542, 477.099 191.497, 478.306 192.118 L 480.500 193.247 478.292 191.123 C 475.987 188.907, 474.438 188.282, 475.497 189.995 M 469.507 191.989 C 469.157 192.555, 469.558 192.723, 470.448 192.382 C 472.180 191.717, 472.497 191, 471.059 191 C 470.541 191, 469.843 191.445, 469.507 191.989 M 322.531 192.950 C 322.208 193.472, 322.969 194.397, 324.222 195.005 C 326.261 195.994, 326.318 195.963, 324.766 194.706 C 323.812 193.934, 323.324 193.009, 323.682 192.651 C 324.040 192.293, 324.060 192, 323.726 192 C 323.391 192, 322.854 192.427, 322.531 192.950 M 465.405 196.250 L 463.500 198.500 465.750 196.595 C 467.864 194.805, 468.455 194, 467.655 194 C 467.465 194, 466.453 195.012, 465.405 196.250 M 480.031 194.500 C 480.031 195.050, 480.467 196.175, 481 197 C 481.533 197.825, 481.969 198.050, 481.969 197.500 C 481.969 196.950, 481.533 195.825, 481 195 C 480.467 194.175, 480.031 193.950, 480.031 194.500 M 327.500 199 C 327.840 199.550, 328.343 200, 328.618 200 C 328.893 200, 328.840 199.550, 328.500 199 C 328.160 198.450, 327.657 198, 327.382 198 C 327.107 198, 327.160 198.450, 327.500 199 M 482.170 201 C 482.186 201.825, 482.560 203.625, 483 205 C 483.644 207.010, 483.806 207.108, 483.830 205.500 C 483.846 204.400, 483.473 202.600, 483 201.500 C 482.473 200.275, 482.152 200.081, 482.170 201 M 305.195 204.500 C 305.215 206.150, 305.439 206.704, 305.693 205.731 C 305.947 204.758, 305.930 203.408, 305.656 202.731 C 305.382 202.054, 305.175 202.850, 305.195 204.500 M 330.500 203 C 330.840 203.550, 331.343 204, 331.618 204 C 331.893 204, 331.840 203.550, 331.500 203 C 331.160 202.450, 330.657 202, 330.382 202 C 330.107 202, 330.160 202.450, 330.500 203 M 332 205.378 C 332 205.585, 332.788 206.373, 333.750 207.128 C 335.336 208.371, 335.371 208.336, 334.128 206.750 C 332.821 205.084, 332 204.555, 332 205.378 M 484.232 211 C 484.232 212.925, 484.438 213.713, 484.689 212.750 C 484.941 211.787, 484.941 210.213, 484.689 209.250 C 484.438 208.287, 484.232 209.075, 484.232 211 M 451.405 214.155 C 450.962 214.870, 451.130 215.038, 451.845 214.595 C 452.998 213.883, 453.393 213, 452.559 213 C 452.316 213, 451.797 213.520, 451.405 214.155 M 485.286 219.500 C 485.294 222.250, 485.488 223.256, 485.718 221.736 C 485.947 220.216, 485.941 217.966, 485.704 216.736 C 485.467 215.506, 485.279 216.750, 485.286 219.500 M 332.266 220.181 C 334.887 222.556, 338.805 226.525, 340.973 229 C 343.141 231.475, 344.934 232.935, 344.957 232.244 C 345.019 230.430, 334.719 219.823, 330.815 217.681 C 327.940 216.103, 328.133 216.435, 332.266 220.181 M 459.400 218.842 C 454.114 222.695, 449.152 227.874, 447.273 231.500 C 446.418 233.150, 444.389 236.444, 442.763 238.820 C 441.137 241.196, 440.027 243.360, 440.296 243.629 C 440.565 243.898, 442.883 240.750, 445.449 236.634 C 449.748 229.737, 453.146 226.083, 462.080 218.750 C 466.493 215.128, 464.397 215.201, 459.400 218.842 M 311 224 C 311 224.733, 311.300 225.033, 311.667 224.667 C 312.033 224.300, 312.033 223.700, 311.667 223.333 C 311.300 222.967, 311 223.267, 311 224 M 327 227.799 C 327 228.239, 328.576 229.168, 330.501 229.864 C 334.821 231.426, 350 242.557, 350 244.163 C 350 244.806, 350.230 245.104, 350.511 244.823 C 350.942 244.391, 350.008 241.112, 347.460 234.107 C 347.181 233.341, 346.702 232.965, 346.395 233.271 C 346.089 233.578, 346.354 234.792, 346.984 235.970 C 349.106 239.935, 347.405 240.392, 344.089 236.748 C 342.280 234.759, 338.024 231.753, 334.633 230.066 C 328.141 226.838, 327 226.499, 327 227.799 M 457.263 232.458 C 452.082 234.870, 442.979 243.105, 443.022 245.342 C 443.034 245.979, 444.967 244.396, 447.317 241.824 C 449.803 239.104, 454.499 235.655, 458.545 233.579 C 466.360 229.569, 465.356 228.690, 457.263 232.458 M 318.500 240 C 318.840 240.550, 319.343 241, 319.618 241 C 319.893 241, 319.840 240.550, 319.500 240 C 319.160 239.450, 318.657 239, 318.382 239 C 318.107 239, 318.160 239.450, 318.500 240 M 337.405 242.155 C 336.962 242.870, 337.130 243.038, 337.845 242.595 C 338.480 242.203, 339 241.684, 339 241.441 C 339 240.607, 338.117 241.002, 337.405 242.155 M 322 244.206 C 322 244.488, 323.301 247.298, 324.892 250.451 L 327.784 256.185 328.948 252.657 C 329.589 250.717, 330.650 248.950, 331.306 248.731 C 331.963 248.512, 331.043 248.333, 329.262 248.333 C 327.120 248.333, 325.343 247.548, 324.012 246.014 C 322.905 244.738, 322 243.924, 322 244.206 M 446 249.763 C 446 250.508, 446.485 250.818, 447.078 250.452 C 447.671 250.085, 449.359 249.411, 450.828 248.954 C 453.240 248.203, 453.135 248.137, 449.750 248.266 C 447.333 248.358, 446 248.890, 446 249.763 M 458.500 253.108 C 456.300 255.241, 454.950 256.982, 455.500 256.978 C 457.160 256.965, 464.417 250.374, 463.423 249.782 C 462.915 249.479, 460.700 250.976, 458.500 253.108 M 462.615 258.465 C 460.568 261.589, 460.574 261.659, 463.156 264.842 C 464.342 266.304, 465.048 266.756, 464.725 265.848 C 464.402 264.939, 464.430 263.903, 464.788 263.545 C 465.694 262.639, 465.840 256, 464.954 256 C 464.556 256, 463.503 257.109, 462.615 258.465 M 466.872 264.750 C 465.629 266.336, 465.664 266.371, 467.250 265.128 C 468.916 263.821, 469.445 263, 468.622 263 C 468.415 263, 467.627 263.788, 466.872 264.750 M 332.821 280.828 C 327.812 282.618, 324.759 284.804, 329 283.564 C 339.337 280.542, 349.643 282.643, 356.086 289.086 C 361.909 294.909, 366.686 305.316, 367.177 313.250 C 367.545 319.205, 369.001 317.598, 368.989 311.250 C 368.970 300.998, 365.515 292.505, 358.952 286.575 C 350.791 279.202, 342.481 277.375, 332.821 280.828 M 419 284.737 C 415.739 285.343, 407.603 291.342, 404.467 295.454 C 401.507 299.335, 398.352 308.123, 397.554 314.712 C 397.045 318.917, 397.119 319.196, 398.164 317 C 407.451 297.482, 410.219 293.705, 417.771 290.247 C 424.998 286.939, 435.058 287.289, 442.798 291.120 C 447.010 293.204, 447.724 293.353, 446.376 291.863 C 445.450 290.840, 441.989 288.652, 438.686 287.001 C 432.737 284.028, 426.607 283.323, 419 284.737 M 326.428 292.168 C 327.755 302.175, 332.608 310.010, 339.384 313.087 C 343.649 315.024, 353.173 315.510, 358 314.038 C 360.185 313.371, 360.276 313.180, 358.719 312.519 C 357.740 312.103, 355.688 312.012, 354.161 312.318 C 349.878 313.174, 343.181 311.254, 338.349 307.784 C 333.680 304.431, 329.630 297.469, 328.441 290.750 C 327.402 284.879, 325.627 286.129, 326.428 292.168 M 333.250 287.662 C 331.703 288.286, 331.665 291.272, 333.138 296.500 C 334.049 299.733, 334.397 300.131, 334.957 298.573 C 335.623 296.723, 335.679 296.720, 336.359 298.493 C 336.773 299.571, 336.570 300.648, 335.872 301.079 C 334.057 302.201, 340.560 307.662, 345.861 309.468 C 348.324 310.308, 350.541 310.792, 350.788 310.546 C 351.034 310.299, 350.038 309.797, 348.574 309.429 C 347.087 309.056, 346.152 308.263, 346.456 307.631 C 346.754 307.009, 347.276 305.712, 347.616 304.750 C 347.955 303.788, 348.576 303, 348.995 303 C 349.414 303, 350.332 301.612, 351.035 299.916 C 351.737 298.220, 353.445 296.401, 354.829 295.875 C 357.178 294.982, 357.235 294.806, 355.680 293.252 C 353.684 291.255, 352.688 292.102, 351.070 297.170 C 350.425 299.189, 349.246 301.381, 348.449 302.042 C 347.652 302.704, 347 303.865, 347 304.622 C 347 305.380, 346.170 306, 345.155 306 C 342.155 306, 340 302.728, 340 298.171 C 340 294.123, 338.861 292.799, 337.405 295.155 C 336.965 295.866, 337.130 296.038, 337.834 295.603 C 338.578 295.143, 338.766 295.447, 338.372 296.474 C 337.943 297.590, 337.408 297.754, 336.541 297.034 C 335.867 296.475, 335.081 296.252, 334.794 296.539 C 334.507 296.827, 333.999 295.384, 333.667 293.333 C 332.959 288.974, 333.602 287.568, 334.560 291.382 C 334.921 292.822, 335.604 294, 336.077 294 C 336.550 294, 336.800 293.438, 336.633 292.750 C 336.465 292.063, 336.517 291.837, 336.747 292.250 C 337.610 293.793, 340.971 292.924, 342.068 290.873 C 342.956 289.214, 342.909 288.557, 341.853 287.888 C 340.402 286.968, 335.302 286.834, 333.250 287.662 M 337.405 289.155 C 336.962 289.870, 337.130 290.038, 337.845 289.595 C 338.998 288.883, 339.393 288, 338.559 288 C 338.316 288, 337.797 288.520, 337.405 289.155 M 429 294.435 C 429 294.674, 429.439 296.024, 429.975 297.435 C 430.667 299.254, 431.685 300, 433.475 300 C 436.247 300, 436.660 298.453, 434.608 295.750 C 433.463 294.242, 429 293.196, 429 294.435 M 439.333 295.667 C 439.700 296.033, 440.300 296.033, 440.667 295.667 C 441.033 295.300, 440.733 295, 440 295 C 439.267 295, 438.967 295.300, 439.333 295.667 M 415.125 298.548 L 412.097 301.097 414.099 303.099 C 415.434 304.434, 415.903 305.836, 415.503 307.301 C 414.980 309.223, 415.043 309.279, 416.006 307.742 C 416.612 306.775, 416.852 305.569, 416.538 305.061 C 416.224 304.554, 416.425 303.856, 416.984 303.510 C 417.543 303.165, 418 303.547, 418 304.359 C 418 305.172, 418.301 306.622, 418.670 307.582 C 419.163 308.866, 418.990 309.112, 418.015 308.510 C 417.136 307.966, 416.930 308.077, 417.402 308.842 C 419.627 312.441, 418.279 315.451, 415.429 313.250 C 414.895 312.837, 415.305 313.288, 416.340 314.250 C 419.880 317.542, 430.840 315.928, 434.999 311.502 C 436.291 310.126, 436.928 309, 436.415 309 C 435.901 309, 434.919 309.900, 434.232 311 C 433.280 312.524, 431.900 313, 428.433 313 C 425.930 313, 424.090 313.337, 424.344 313.750 C 424.597 314.163, 423.386 314.579, 421.653 314.675 C 418.635 314.843, 418.606 314.809, 420.963 313.879 C 424.395 312.525, 424.371 312.647, 422.070 308.137 C 420.931 305.905, 420 302.262, 420 300.040 C 420 295.322, 419.237 295.089, 415.125 298.548 M 445.028 302.442 C 439.780 313.437, 431.186 318.873, 421.072 317.596 C 413.925 316.693, 404.283 316.037, 406.500 316.603 C 407.600 316.885, 410.785 318.010, 413.577 319.103 C 427.348 324.497, 440.728 319.096, 447.132 305.558 C 448.709 302.226, 449.999 298.712, 449.999 297.750 C 450.001 294.277, 448.043 296.125, 445.028 302.442 M 440.624 298.539 C 439.659 301.053, 439.943 301.702, 441.122 299.675 C 441.706 298.671, 441.973 297.639, 441.715 297.382 C 441.458 297.124, 440.966 297.645, 440.624 298.539 M 353 301 C 353 301.733, 353.300 302.033, 353.667 301.667 C 354.033 301.300, 354.033 300.700, 353.667 300.333 C 353.300 299.967, 353 300.267, 353 301 M 415.333 301.500 C 415.333 302.196, 416.125 302.518, 417.167 302.246 C 418.175 301.982, 419 301.647, 419 301.500 C 419 301.353, 418.175 301.018, 417.167 300.754 C 416.125 300.482, 415.333 300.804, 415.333 301.500 M 439.731 303.920 C 439.296 305.583, 439.426 305.974, 440.168 305.232 C 440.750 304.650, 441.028 303.585, 440.788 302.863 C 440.538 302.114, 440.085 302.568, 439.731 303.920 M 411.158 305 C 411.158 306.375, 411.385 306.938, 411.662 306.250 C 411.940 305.563, 411.940 304.438, 411.662 303.750 C 411.385 303.063, 411.158 303.625, 411.158 305 M 355.405 305.155 C 354.962 305.870, 355.130 306.038, 355.845 305.595 C 356.480 305.203, 357 304.684, 357 304.441 C 357 303.607, 356.117 304.002, 355.405 305.155 M 355.924 307.750 L 353.500 310.500 356.250 308.076 C 357.762 306.742, 359 305.505, 359 305.326 C 359 304.541, 358.190 305.180, 355.924 307.750 M 419.333 308 C 419.333 310.350, 419.559 310.753, 420.216 309.578 C 420.727 308.665, 420.727 307.335, 420.216 306.422 C 419.559 305.247, 419.333 305.650, 419.333 308 M 436 305.902 C 436 306.940, 437.902 308.443, 438.466 307.850 C 438.649 307.658, 438.169 306.920, 437.399 306.211 C 436.630 305.501, 436 305.362, 436 305.902 M 431 307 C 431 307.733, 431.300 308.033, 431.667 307.667 C 432.033 307.300, 432.033 306.700, 431.667 306.333 C 431.300 305.967, 431 306.267, 431 307 M 412.564 309.293 C 412.940 310.279, 413.499 310.834, 413.807 310.526 C 414.115 310.219, 413.808 309.412, 413.124 308.733 C 412.136 307.753, 412.022 307.868, 412.564 309.293 M 420.211 311.601 C 419.501 312.370, 419.362 313, 419.902 313 C 420.940 313, 422.443 311.098, 421.850 310.534 C 421.658 310.351, 420.920 310.831, 420.211 311.601 M 436.411 355.744 C 436.820 356.153, 435.213 356.961, 432.839 357.539 L 428.522 358.590 433.192 360.851 L 437.861 363.111 441.863 361.070 C 447.624 358.131, 447.639 357.303, 441.958 356.084 C 435.965 354.799, 435.433 354.767, 436.411 355.744 M 420.786 361.414 C 418.744 362.143, 416.724 362.460, 416.297 362.120 C 415.870 361.779, 416.383 362.523, 417.437 363.774 C 418.539 365.082, 419.617 365.619, 419.975 365.040 C 420.318 364.486, 423.376 363.912, 426.770 363.766 C 432.827 363.505, 432.901 363.468, 430.721 361.772 C 428.076 359.715, 425.777 359.632, 420.786 361.414 M 353.599 416.840 C 352.764 418.191, 348.278 437.794, 346.573 447.542 C 345.711 452.469, 345.008 460.100, 345.009 464.500 C 345.012 473.187, 347.243 489.988, 348.927 494 C 349.748 495.956, 349.816 495.413, 349.240 491.500 C 347.355 478.693, 349.688 440.367, 353.456 422.250 C 354.700 416.266, 354.734 415.004, 353.599 416.840 M 513.559 515.231 C 513.154 525.829, 512.498 551.600, 512.101 572.500 L 511.380 610.500 506.787 626 C 501.519 643.777, 492.192 685.525, 493.252 686.585 C 493.526 686.859, 504.105 651.925, 511.143 627.500 C 513.384 619.725, 514.353 613.272, 515.500 598.500 C 516.311 588.050, 517.709 572.300, 518.606 563.500 C 520.628 543.680, 519.994 520.020, 517.068 506.131 C 515.982 500.977, 514.915 496.581, 514.695 496.362 C 514.476 496.142, 513.964 504.634, 513.559 515.231 M 380.491 574.250 C 380.782 575.487, 382.116 581, 383.456 586.500 C 391.427 619.231, 396.299 649.083, 401.903 699.514 C 406.024 736.611, 407.372 756.075, 406.734 769.281 C 406.072 782.982, 403.961 789.906, 398.789 795.343 C 396.703 797.535, 395.150 799.484, 395.339 799.672 C 396.280 800.614, 402.744 794.953, 404.705 791.470 C 412.302 777.976, 412.024 753.970, 403.501 687.500 C 395.967 628.749, 390.532 599.618, 383.305 579.250 C 380.791 572.166, 379.433 569.753, 380.491 574.250 M 596 621.123 C 566.119 624.561, 542.826 633.349, 527.611 646.922 C 522.062 651.872, 513.034 665.288, 510.058 673.007 C 501.270 695.795, 502.454 729.334, 512.826 751.421 C 519.345 765.302, 531.088 779.538, 544.500 789.819 C 550.179 794.172, 550.039 793.966, 541.889 785.959 C 537.153 781.307, 531.705 775.475, 529.782 773 C 524.328 765.980, 517.540 752.545, 513.361 740.500 L 509.544 729.500 509.522 711 C 509.503 694.923, 509.812 691.190, 511.883 682.500 C 515.585 666.966, 519.813 658.974, 529.394 649.398 C 538.813 639.983, 546.617 635.768, 562.558 631.483 C 581.228 626.465, 586.732 625.879, 621 625.265 C 650.982 624.728, 653.021 624.583, 647.320 623.386 C 632.362 620.246, 611.582 619.329, 596 621.123 M 655.813 625.683 C 656.534 625.972, 657.397 625.936, 657.729 625.604 C 658.061 625.272, 657.471 625.036, 656.417 625.079 C 655.252 625.127, 655.015 625.364, 655.813 625.683 M 552 795.378 C 552 795.585, 552.788 796.373, 553.750 797.128 C 555.336 798.371, 555.371 798.336, 554.128 796.750 C 552.821 795.084, 552 794.555, 552 795.378 M 501.940 806.742 C 498.326 809.255, 496.252 812.003, 494.400 816.732 C 492.225 822.285, 492.912 830.357, 495.806 833.251 L 497.890 835.334 497.311 829.725 C 496.638 823.208, 498.687 815.639, 502.723 809.732 C 505.696 805.380, 505.419 804.323, 501.940 806.742 M 450.142 825.952 C 446.861 833.977, 442.268 839.686, 436.750 842.600 C 433.151 844.500, 433.238 845.162, 436.918 843.879 C 443.139 841.710, 450.177 832.296, 452.860 822.556 C 454.604 816.222, 453.615 817.458, 450.142 825.952 M 430.333 845.667 C 430.700 846.033, 431.300 846.033, 431.667 845.667 C 432.033 845.300, 431.733 845, 431 845 C 430.267 845, 429.967 845.300, 430.333 845.667" stroke="none" fill="black" fill-rule="evenodd"/>
</svg>