<!-- Оптимизировано для шелкографии -->
          <!-- Рекомендации: одноцветная печать, плотность красок 100% -->
          <svg xmlns="http://www.w3.org/2000/svg" width="100%" height="100%" viewBox="0 0 1024 1024">
	<path d="M 0 512.001 L 0 1024.002 512.250 1023.751 L 1024.500 1023.500 1024.751 511.750 L 1025.002 0 512.501 0 L 0 0 0 512.001 M 0.496 512.500 C 0.496 794.100, 0.610 909.151, 0.750 768.168 C 0.890 627.186, 0.890 396.786, 0.750 256.168 C 0.610 115.551, 0.496 230.900, 0.496 512.500 M 564.083 198.360 C 564.313 198.558, 567.425 198.965, 571 199.265 C 574.900 199.592, 576.500 199.488, 575 199.005 C 572.531 198.209, 563.276 197.663, 564.083 198.360 M 584.441 199.445 C 585.509 200.300, 586.821 201, 587.358 201 C 588.628 201, 588.061 200.538, 585 199.080 C 582.643 197.958, 582.611 197.978, 584.441 199.445 M 560.264 200.718 C 561.784 200.947, 564.034 200.941, 565.264 200.704 C 566.494 200.467, 565.250 200.279, 562.500 200.286 C 559.750 200.294, 558.744 200.488, 560.264 200.718 M 572.762 201.707 C 574.006 201.946, 575.806 201.937, 576.762 201.687 C 577.718 201.437, 576.700 201.241, 574.500 201.252 C 572.300 201.263, 571.518 201.468, 572.762 201.707 M 581 202.395 C 581 203.138, 585.010 203.793, 585.427 203.118 C 585.663 202.737, 584.763 202.334, 583.428 202.223 C 582.093 202.113, 581 202.190, 581 202.395 M 592 203 C 592.825 203.533, 593.950 203.969, 594.500 203.969 C 595.050 203.969, 594.825 203.533, 594 203 C 593.175 202.467, 592.050 202.031, 591.500 202.031 C 590.950 202.031, 591.175 202.467, 592 203 M 565.750 203.706 C 566.987 203.944, 569.013 203.944, 570.250 203.706 C 571.487 203.467, 570.475 203.272, 568 203.272 C 565.525 203.272, 564.513 203.467, 565.750 203.706 M 577.269 204.693 C 578.242 204.947, 579.592 204.930, 580.269 204.656 C 580.946 204.382, 580.150 204.175, 578.500 204.195 C 576.850 204.215, 576.296 204.439, 577.269 204.693 M 548.713 206.178 C 548.078 206.570, 547.852 207.186, 548.212 207.546 C 548.572 207.906, 549.426 207.855, 550.109 207.432 C 550.793 207.010, 554.985 206.471, 559.426 206.235 C 563.867 205.999, 567.716 205.596, 567.980 205.340 C 568.761 204.581, 549.974 205.398, 548.713 206.178 M 572.733 206.124 C 573.412 206.808, 574.219 207.115, 574.526 206.807 C 574.834 206.499, 574.279 205.940, 573.293 205.564 C 571.868 205.022, 571.753 205.136, 572.733 206.124 M 587 205.991 C 590.341 207.073, 592 207.159, 591.998 206.250 C 591.997 205.838, 590.309 205.428, 588.248 205.340 C 585.050 205.204, 584.867 205.299, 587 205.991 M 488.486 207.977 C 489.037 208.868, 488.680 209.033, 487.209 208.566 C 486.087 208.210, 484.945 208.280, 484.672 208.722 C 484.399 209.164, 485.721 209.552, 487.611 209.584 C 490.904 209.640, 491.821 208.107, 489.048 207.183 C 488.201 206.900, 487.998 207.187, 488.486 207.977 M 492.500 208 C 492.840 208.550, 493.568 209, 494.118 209 C 494.668 209, 494.840 208.550, 494.500 208 C 494.160 207.450, 493.432 207, 492.882 207 C 492.332 207, 492.160 207.450, 492.500 208 M 543.750 207.662 C 544.438 207.940, 545.563 207.940, 546.250 207.662 C 546.938 207.385, 546.375 207.158, 545 207.158 C 543.625 207.158, 543.063 207.385, 543.750 207.662 M 560.500 207.659 C 551.929 208.568, 543.985 210.313, 542.996 211.504 C 542.066 212.625, 542.766 212.642, 547.231 211.604 C 550.173 210.920, 553.084 210.528, 553.699 210.733 C 554.314 210.938, 555.110 210.632, 555.467 210.053 C 555.825 209.474, 556.654 209.007, 557.309 209.015 C 558.025 209.025, 557.901 209.418, 557 210 C 555.718 210.828, 555.754 210.972, 557.250 210.985 C 558.212 210.993, 559 210.550, 559 210 C 559 209.406, 562.150 209.061, 566.750 209.150 C 573.279 209.277, 573.870 209.416, 570.500 210.035 C 567.110 210.658, 567.350 210.716, 572.079 210.418 C 575.147 210.225, 579.365 210.538, 581.453 211.115 C 587.449 212.770, 589.097 212.966, 588.468 211.948 C 588.146 211.426, 588.455 211, 589.155 211 C 591.487 211, 587.700 208.287, 584.500 207.666 L 581.500 207.083 584.796 208.563 C 589.931 210.869, 587.672 211.913, 581.781 209.956 C 576.467 208.192, 566.068 207.069, 560.500 207.659 M 594.733 209.124 C 595.412 209.808, 596.219 210.115, 596.526 209.807 C 596.834 209.499, 596.279 208.940, 595.293 208.564 C 593.868 208.022, 593.753 208.136, 594.733 209.124 M 560.750 210.662 C 561.438 210.940, 562.563 210.940, 563.250 210.662 C 563.938 210.385, 563.375 210.158, 562 210.158 C 560.625 210.158, 560.063 210.385, 560.750 210.662 M 479 211.393 C 479 212.342, 481.993 212.820, 482.527 211.956 C 482.852 211.430, 482.191 211, 481.059 211 C 479.927 211, 479 211.177, 479 211.393 M 536.160 212.184 C 533.773 212.717, 531.982 213.315, 532.179 213.512 C 532.893 214.226, 541 212.715, 541 211.868 C 541 211.391, 540.888 211.048, 540.750 211.107 C 540.612 211.166, 538.547 211.650, 536.160 212.184 M 488.114 212.372 C 489.214 213.607, 495 214.917, 495 213.930 C 495 213.419, 494.137 213, 493.082 213 C 492.027 213, 490.339 212.703, 489.332 212.341 C 488.324 211.978, 487.776 211.992, 488.114 212.372 M 556.880 212.454 C 556.546 212.787, 554.974 213.231, 553.386 213.439 C 548.435 214.088, 540.546 216.229, 539.500 217.207 C 538.875 217.791, 539.586 217.873, 541.399 217.425 C 543.333 216.947, 544.082 217.059, 543.648 217.761 C 543.243 218.416, 543.748 218.617, 544.987 218.293 C 546.082 218.007, 546.733 217.377, 546.434 216.893 C 546.135 216.409, 546.927 216.074, 548.195 216.149 C 549.463 216.223, 552.525 215.949, 555 215.539 C 568.109 213.369, 575.636 213.163, 574.498 215.004 C 574.196 215.492, 575.289 215.491, 577 215 C 578.671 214.521, 579.831 214.464, 579.578 214.873 C 579.325 215.283, 580.871 216.086, 583.013 216.658 C 586.552 217.603, 586.824 217.540, 585.990 215.981 C 585.484 215.037, 583.593 213.965, 581.786 213.599 C 577.012 212.634, 557.593 211.740, 556.880 212.454 M 496 214.031 C 496 214.564, 496.675 215, 497.500 215 C 498.325 215, 499 214.823, 499 214.607 C 499 214.391, 498.325 213.955, 497.500 213.638 C 496.675 213.322, 496 213.499, 496 214.031 M 527.269 213.693 C 528.242 213.947, 529.592 213.930, 530.269 213.656 C 530.946 213.382, 530.150 213.175, 528.500 213.195 C 526.850 213.215, 526.296 213.439, 527.269 213.693 M 500.750 214.662 C 501.438 214.940, 502.563 214.940, 503.250 214.662 C 503.938 214.385, 503.375 214.158, 502 214.158 C 500.625 214.158, 500.063 214.385, 500.750 214.662 M 513.750 214.662 C 514.438 214.940, 515.563 214.940, 516.250 214.662 C 516.938 214.385, 516.375 214.158, 515 214.158 C 513.625 214.158, 513.063 214.385, 513.750 214.662 M 519.269 214.693 C 520.242 214.947, 521.592 214.930, 522.269 214.656 C 522.946 214.382, 522.150 214.175, 520.500 214.195 C 518.850 214.215, 518.296 214.439, 519.269 214.693 M 485.500 216 C 486.600 216.473, 488.400 216.859, 489.500 216.859 L 491.500 216.859 489.500 216 C 488.400 215.527, 486.600 215.141, 485.500 215.141 L 483.500 215.141 485.500 216 M 562 215.391 C 562 215.605, 563.575 215.965, 565.500 216.190 C 567.425 216.415, 569 216.239, 569 215.799 C 569 215.360, 567.425 215, 565.500 215 C 563.575 215, 562 215.176, 562 215.391 M 570.438 216.300 C 570.066 217.272, 567.741 217.501, 561.220 217.207 C 556.424 216.991, 552.768 217.087, 553.095 217.419 C 553.422 217.751, 559.497 218.281, 566.595 218.595 C 575.735 219, 580.229 219.622, 582 220.727 C 583.375 221.585, 584.166 221.927, 583.759 221.486 C 583.351 221.045, 583.576 219.968, 584.259 219.092 C 585.312 217.741, 585.272 217.677, 583.997 218.667 C 582.836 219.569, 582.058 219.516, 580.577 218.433 C 579.271 217.477, 577.387 217.234, 574.664 217.670 C 571.214 218.221, 570.754 218.082, 571.302 216.654 C 571.652 215.744, 571.712 215, 571.437 215 C 571.162 215, 570.713 215.585, 570.438 216.300 M 588.768 216.168 C 589.350 216.750, 590.415 217.028, 591.137 216.788 C 591.886 216.538, 591.432 216.085, 590.080 215.731 C 588.417 215.296, 588.026 215.426, 588.768 216.168 M 499.548 218.250 C 499.917 219.220, 501.245 220, 502.525 220 C 503.796 220, 505.622 220.301, 506.582 220.670 C 507.773 221.127, 508.098 220.968, 507.605 220.170 C 507.207 219.526, 505.649 219, 504.141 219 C 502.633 219, 500.833 218.438, 500.141 217.750 C 499.131 216.748, 499.014 216.847, 499.548 218.250 M 516 217.969 C 516 218.501, 516.675 218.678, 517.500 218.362 C 518.325 218.045, 519 217.609, 519 217.393 C 519 217.177, 518.325 217, 517.500 217 C 516.675 217, 516 217.436, 516 217.969 M 529.269 217.940 C 526.941 218.319, 524.748 218.919, 524.395 219.272 C 523.717 219.949, 529.108 219.293, 535 217.981 C 539.474 216.984, 535.316 216.954, 529.269 217.940 M 592 218.378 C 592 218.585, 592.788 219.373, 593.750 220.128 C 595.336 221.371, 595.371 221.336, 594.128 219.750 C 592.821 218.084, 592 217.555, 592 218.378 M 483.456 219.862 C 483.938 220.681, 483.707 221.615, 482.878 222.206 C 481.782 222.988, 481.833 223.083, 483.128 222.672 C 484.024 222.389, 485.261 222.661, 485.878 223.278 C 486.609 224.009, 487 224.036, 487 223.355 C 487 222.780, 486.023 221.453, 484.828 220.405 C 483.634 219.357, 483.016 219.113, 483.456 219.862 M 491 220.097 C 492.207 220.963, 492.061 221.077, 490.249 220.680 C 489.010 220.409, 488.216 220.540, 488.483 220.973 C 489.278 222.259, 492.391 222.745, 494.516 221.915 C 495.607 221.489, 495.911 221.109, 495.191 221.070 C 494.471 221.032, 494.101 220.645, 494.369 220.212 C 494.637 219.779, 493.651 219.333, 492.178 219.222 C 490.027 219.060, 489.795 219.232, 491 220.097 M 555.517 219.973 C 555.197 220.490, 554.374 220.697, 553.686 220.433 C 552.999 220.169, 550.651 220.628, 548.468 221.452 L 544.500 222.951 550 222.811 C 553.025 222.733, 556.588 222.277, 557.917 221.796 C 559.571 221.198, 560.573 221.309, 561.091 222.147 C 561.638 223.033, 562.215 223.074, 563.174 222.295 C 564.030 221.600, 567.067 221.460, 571.750 221.898 C 575.737 222.272, 579 222.222, 579 221.789 C 579 220.887, 579.334 220.947, 571.749 220.485 C 568.586 220.293, 563.770 219.888, 561.048 219.585 C 558.325 219.282, 555.836 219.456, 555.517 219.973 M 512.750 220.662 C 513.438 220.940, 514.563 220.940, 515.250 220.662 C 515.938 220.385, 515.375 220.158, 514 220.158 C 512.625 220.158, 512.063 220.385, 512.750 220.662 M 517.813 220.683 C 518.534 220.972, 519.397 220.936, 519.729 220.604 C 520.061 220.272, 519.471 220.036, 518.417 220.079 C 517.252 220.127, 517.015 220.364, 517.813 220.683 M 543.813 220.683 C 544.534 220.972, 545.397 220.936, 545.729 220.604 C 546.061 220.272, 545.471 220.036, 544.417 220.079 C 543.252 220.127, 543.015 220.364, 543.813 220.683 M 497.750 221.662 C 498.438 221.940, 499.563 221.940, 500.250 221.662 C 500.938 221.385, 500.375 221.158, 499 221.158 C 497.625 221.158, 497.063 221.385, 497.750 221.662 M 537.750 221.662 C 538.438 221.940, 539.563 221.940, 540.250 221.662 C 540.938 221.385, 540.375 221.158, 539 221.158 C 537.625 221.158, 537.063 221.385, 537.750 221.662 M 475 223 C 475 223.550, 475.477 224, 476.059 224 C 476.641 224, 476.840 223.550, 476.500 223 C 476.160 222.450, 475.684 222, 475.441 222 C 475.198 222, 475 222.450, 475 223 M 514.401 223.056 L 504.500 223.613 515 223.707 C 520.775 223.760, 527.975 223.452, 531 223.023 L 536.500 222.244 530.401 222.372 C 527.046 222.442, 519.846 222.750, 514.401 223.056 M 580 223.059 C 580 223.641, 580.450 223.840, 581 223.500 C 581.550 223.160, 582 223.359, 582 223.941 C 582 225.167, 579.353 225.381, 578.632 224.213 C 577.994 223.181, 566 222.715, 566 223.724 C 565.999 224.151, 562.439 224.449, 558.087 224.388 C 549.485 224.265, 539.017 225.588, 537.629 226.973 C 537.141 227.459, 538.483 227.454, 540.678 226.961 C 547.422 225.446, 557.221 224.833, 556.518 225.971 C 556.168 226.537, 554.363 227, 552.506 227 C 550.649 227, 547.863 227.507, 546.315 228.126 C 544.767 228.746, 542.150 229.382, 540.500 229.541 C 535.424 230.028, 507.621 230.099, 505.500 229.630 C 500.422 228.507, 497.419 227.676, 496.500 227.140 C 494.812 226.155, 493.036 226.132, 492.445 227.089 C 492.135 227.590, 492.471 228.052, 493.191 228.115 C 493.911 228.179, 494.950 228.335, 495.500 228.463 C 496.050 228.591, 497.498 228.764, 498.719 228.848 C 500.356 228.960, 500.769 229.438, 500.295 230.674 C 499.820 231.912, 500.063 232.190, 501.229 231.742 C 502.096 231.410, 504.987 231.814, 507.653 232.642 C 510.319 233.470, 516.100 234.281, 520.500 234.445 C 526.441 234.666, 527.342 234.557, 524 234.021 C 520.845 233.516, 520.340 233.255, 522.309 233.150 C 523.898 233.065, 524.850 232.566, 524.500 232 C 524.155 231.442, 524.903 231.007, 526.191 231.015 C 528.049 231.028, 528.207 231.220, 527 232 C 526.175 232.533, 525.987 232.976, 526.583 232.985 C 527.179 232.993, 527.966 232.700, 528.332 232.334 C 528.698 231.968, 532.261 231.608, 536.249 231.534 C 540.237 231.461, 546.200 230.662, 549.500 229.760 C 560.327 226.799, 572.380 225.014, 579.391 225.333 C 586.197 225.643, 586.254 225.624, 584.030 223.823 C 581.495 221.771, 580 221.487, 580 223.059 M 541.813 223.683 C 542.534 223.972, 543.397 223.936, 543.729 223.604 C 544.061 223.272, 543.471 223.036, 542.417 223.079 C 541.252 223.127, 541.015 223.364, 541.813 223.683 M 589 225 C 589 225.550, 589.450 226, 590 226 C 590.550 226, 591 225.550, 591 225 C 591 224.450, 590.550 224, 590 224 C 589.450 224, 589 224.450, 589 225 M 505.566 225.893 C 504.648 227.378, 503.689 227.276, 520 227.435 C 527.975 227.512, 533.029 227.417, 531.231 227.223 C 529.433 227.029, 528.222 226.450, 528.540 225.935 C 528.858 225.421, 528.641 225, 528.059 225 C 527.477 225, 527 225.338, 527 225.750 C 527 226.797, 507.642 226.695, 506.875 225.643 C 506.531 225.172, 505.942 225.285, 505.566 225.893 M 530.813 225.683 C 531.534 225.972, 532.397 225.936, 532.729 225.604 C 533.061 225.272, 532.471 225.036, 531.417 225.079 C 530.252 225.127, 530.015 225.364, 530.813 225.683 M 484.500 227 C 487.249 228.181, 488.828 228.181, 487 227 C 486.175 226.467, 484.825 226.055, 484 226.086 C 483.011 226.122, 483.181 226.433, 484.500 227 M 569.924 226.932 C 570.998 227.611, 570.628 227.946, 568.424 228.288 C 566.816 228.538, 568.724 228.739, 572.665 228.733 C 581.280 228.721, 583.974 227.542, 577.433 226.646 C 570.620 225.712, 568.146 225.806, 569.924 226.932 M 480 227.393 C 480 227.609, 480.698 228.054, 481.552 228.382 C 482.442 228.723, 482.843 228.555, 482.493 227.989 C 481.906 227.038, 480 226.583, 480 227.393 M 572.750 227.662 C 573.438 227.940, 574.563 227.940, 575.250 227.662 C 575.938 227.385, 575.375 227.158, 574 227.158 C 572.625 227.158, 572.063 227.385, 572.750 227.662 M 476.500 229 C 479.249 230.181, 480.828 230.181, 479 229 C 478.175 228.467, 476.825 228.055, 476 228.086 C 475.011 228.122, 475.181 228.433, 476.500 229 M 490.525 229.040 C 490.946 229.722, 490.192 229.846, 488.334 229.399 C 486.775 229.025, 485.850 229.095, 486.278 229.554 C 486.706 230.013, 488.412 230.483, 490.070 230.598 C 492.555 230.770, 492.880 230.560, 491.920 229.403 C 490.565 227.771, 489.583 227.516, 490.525 229.040 M 554 230.108 C 550.104 230.808, 550.351 230.908, 557.500 231.531 C 560.250 231.771, 563.850 231.585, 565.500 231.118 L 568.500 230.269 565 229.712 C 561.150 229.099, 559.234 229.168, 554 230.108 M 569.540 230.936 C 569.219 231.455, 569.754 231.856, 570.728 231.829 C 571.703 231.801, 574.075 232.065, 576 232.416 C 578.408 232.854, 578.876 232.779, 577.500 232.175 C 573.816 230.558, 570.128 229.984, 569.540 230.936 M 578.750 230.706 C 579.987 230.944, 582.013 230.944, 583.250 230.706 C 584.487 230.467, 583.475 230.272, 581 230.272 C 578.525 230.272, 577.513 230.467, 578.750 230.706 M 513.097 231.919 C 512.085 232.560, 512.407 232.765, 514.251 232.654 C 515.657 232.569, 516.600 232.162, 516.345 231.750 C 515.743 230.775, 514.828 230.823, 513.097 231.919 M 520.813 231.683 C 521.534 231.972, 522.397 231.936, 522.729 231.604 C 523.061 231.272, 522.471 231.036, 521.417 231.079 C 520.252 231.127, 520.015 231.364, 520.813 231.683 M 481.559 233.468 C 482.626 234.276, 483.950 234.936, 484.500 234.936 C 485.050 234.936, 484.626 234.276, 483.559 233.468 C 482.491 232.661, 481.168 232, 480.618 232 C 480.068 232, 480.491 232.661, 481.559 233.468 M 493 232.972 C 493 233.772, 491.941 233.956, 489.750 233.536 C 487.054 233.019, 486.812 233.107, 488.332 234.052 C 489.339 234.678, 491.099 234.946, 492.243 234.647 C 493.387 234.347, 495.242 234.594, 496.364 235.195 C 497.738 235.930, 498.516 235.951, 498.747 235.259 C 498.969 234.592, 500.392 234.533, 502.795 235.092 C 504.833 235.565, 507.936 235.963, 509.691 235.976 C 511.446 235.989, 513.199 236.512, 513.586 237.138 C 514.091 237.956, 513.191 238.086, 510.395 237.601 C 507.601 237.117, 506.924 237.215, 508 237.948 C 508.825 238.510, 509.050 238.983, 508.500 239 C 507.222 239.039, 510.163 240.969, 511.500 240.969 C 512.050 240.969, 511.825 240.533, 511 240 C 509.718 239.172, 509.754 239.028, 511.250 239.015 C 512.212 239.007, 513 239.450, 513 240 C 513 240.550, 513.477 241, 514.059 241 C 514.641 241, 514.859 240.581, 514.543 240.069 C 514.226 239.557, 514.394 238.875, 514.915 238.553 C 515.436 238.231, 516.144 238.425, 516.490 238.984 C 516.835 239.543, 517.879 239.993, 518.809 239.985 C 519.991 239.974, 520.133 239.736, 519.283 239.196 C 518.577 238.747, 519.743 238.355, 522.060 238.263 C 524.585 238.162, 525.819 238.483, 525.416 239.136 C 525.030 239.760, 525.681 240.036, 527.061 239.834 C 532.385 239.055, 530.161 237, 523.833 236.852 C 515.217 236.650, 514.646 236.595, 513.500 235.847 C 512.562 235.235, 508.148 234.490, 500 233.569 C 498.075 233.352, 495.712 232.861, 494.750 232.480 C 493.677 232.054, 493 232.245, 493 232.972 M 547.269 233.001 C 541.541 233.852, 540.511 235.156, 546.070 234.520 C 552.429 233.792, 549.020 235.511, 540.475 237.343 C 536.639 238.164, 534.625 238.866, 536 238.902 C 538.753 238.974, 554.413 235.218, 552 235.065 C 550.774 234.987, 550.748 234.812, 551.857 234.110 C 553.944 232.787, 551.948 232.305, 547.269 233.001 M 529 234.031 C 529 234.564, 529.675 235, 530.500 235 C 531.325 235, 532 234.823, 532 234.607 C 532 234.391, 531.325 233.955, 530.500 233.638 C 529.675 233.322, 529 233.499, 529 234.031 M 534.813 233.683 C 535.534 233.972, 536.397 233.936, 536.729 233.604 C 537.061 233.272, 536.471 233.036, 535.417 233.079 C 534.252 233.127, 534.015 233.364, 534.813 233.683 M 555.318 234.075 C 551.656 235.335, 557.288 236.044, 562.891 235.029 C 565.976 234.470, 569.850 233.838, 571.500 233.626 C 573.150 233.414, 570.560 233.298, 565.745 233.370 C 560.929 233.441, 556.237 233.759, 555.318 234.075 M 537.750 235.662 C 538.438 235.940, 539.563 235.940, 540.250 235.662 C 540.938 235.385, 540.375 235.158, 539 235.158 C 537.625 235.158, 537.063 235.385, 537.750 235.662 M 531.442 236.906 C 531.750 237.404, 532.902 237.577, 534.001 237.289 C 536.753 236.570, 536.505 236, 533.441 236 C 532.034 236, 531.134 236.408, 531.442 236.906 M 572.250 236.689 C 573.212 236.941, 574.788 236.941, 575.750 236.689 C 576.712 236.438, 575.925 236.232, 574 236.232 C 572.075 236.232, 571.288 236.438, 572.250 236.689 M 491.441 238.426 C 492.509 239.292, 494.309 239.961, 495.441 239.914 C 497.093 239.845, 496.972 239.669, 494.828 239.021 C 493.359 238.578, 491.559 237.908, 490.828 237.533 C 490.098 237.158, 490.374 237.560, 491.441 238.426 M 503.813 237.683 C 504.534 237.972, 505.397 237.936, 505.729 237.604 C 506.061 237.272, 505.471 237.036, 504.417 237.079 C 503.252 237.127, 503.015 237.364, 503.813 237.683 M 560.750 237.728 C 558.688 237.944, 557 238.519, 557 239.005 C 557 240.020, 563.960 239.355, 567.272 238.023 C 569.456 237.145, 569.450 237.129, 567 237.231 C 565.625 237.289, 562.813 237.513, 560.750 237.728 M 499.813 238.683 C 500.534 238.972, 501.397 238.936, 501.729 238.604 C 502.061 238.272, 501.471 238.036, 500.417 238.079 C 499.252 238.127, 499.015 238.364, 499.813 238.683 M 549.750 238.662 C 550.438 238.940, 551.563 238.940, 552.250 238.662 C 552.938 238.385, 552.375 238.158, 551 238.158 C 549.625 238.158, 549.063 238.385, 549.750 238.662 M 503.750 239.662 C 504.438 239.940, 505.563 239.940, 506.250 239.662 C 506.938 239.385, 506.375 239.158, 505 239.158 C 503.625 239.158, 503.063 239.385, 503.750 239.662 M 552 240 C 549.940 240.660, 549.852 240.816, 551.500 240.885 C 552.600 240.931, 554.175 240.533, 555 240 C 556.752 238.868, 555.536 238.868, 552 240 M 521.733 241.124 C 522.412 241.808, 523.219 242.115, 523.526 241.807 C 523.834 241.499, 523.279 240.940, 522.293 240.564 C 520.868 240.022, 520.753 240.136, 521.733 241.124 M 543.768 241.168 C 544.350 241.750, 545.415 242.028, 546.137 241.788 C 546.886 241.538, 546.432 241.085, 545.080 240.731 C 543.417 240.296, 543.026 240.426, 543.768 241.168 M 563.081 241.137 C 559.550 241.565, 555.950 242.197, 555.081 242.540 C 554.211 242.884, 551.475 243.394, 549 243.674 C 546.525 243.955, 543.882 244.529, 543.127 244.950 C 541.099 246.083, 552.640 245.263, 554.770 244.123 C 557.410 242.710, 576 241.485, 576 242.724 C 576 243.273, 574.915 243.515, 573.589 243.262 C 572.263 243.008, 570.351 243.266, 569.339 243.834 C 567.916 244.633, 568.518 244.780, 572 244.484 C 574.475 244.273, 578.075 244.046, 580 243.980 L 583.500 243.859 579.500 242.330 C 574.456 240.401, 571.133 240.159, 563.081 241.137 M 517.813 241.683 C 518.534 241.972, 519.397 241.936, 519.729 241.604 C 520.061 241.272, 519.471 241.036, 518.417 241.079 C 517.252 241.127, 517.015 241.364, 517.813 241.683 M 476 244.059 C 476 244.641, 476.450 244.840, 477 244.500 C 477.550 244.160, 478 243.684, 478 243.441 C 478 243.198, 477.550 243, 477 243 C 476.450 243, 476 243.477, 476 244.059 M 512.476 244.038 C 512.293 244.334, 513.349 244.675, 514.822 244.796 C 516.295 244.918, 517.650 245.463, 517.833 246.009 C 518.017 246.554, 519.367 246.955, 520.833 246.900 L 523.500 246.801 521 246 C 519.157 245.410, 520.187 245.173, 524.917 245.100 C 528.446 245.045, 531.068 244.734, 530.743 244.410 C 529.995 243.662, 512.922 243.314, 512.476 244.038 M 470.232 246 C 470.919 247.100, 471.893 248, 472.396 248 C 472.898 248, 472.495 247.100, 471.500 246 C 470.505 244.900, 469.531 244, 469.337 244 C 469.142 244, 469.545 244.900, 470.232 246 M 483.750 244.662 C 484.438 244.940, 485.563 244.940, 486.250 244.662 C 486.938 244.385, 486.375 244.158, 485 244.158 C 483.625 244.158, 483.063 244.385, 483.750 244.662 M 488.882 244.750 C 488.816 245.162, 488.834 245.889, 488.920 246.364 C 489.006 246.839, 487.515 247.045, 485.608 246.823 C 483.701 246.600, 482.360 246.774, 482.629 247.209 C 482.898 247.644, 486.268 248, 490.118 248 C 493.968 248, 496.871 248.400, 496.569 248.888 C 495.843 250.062, 501.228 250.819, 503.622 249.878 C 505.151 249.278, 504.988 249.128, 502.743 249.070 C 501.113 249.029, 499.098 247.978, 497.813 246.500 C 496.618 245.125, 495.184 244, 494.629 244 C 494.073 244, 494.491 244.661, 495.559 245.468 C 497.539 246.966, 496.431 247.487, 493.588 246.395 C 492.721 246.063, 492.260 245.388, 492.565 244.895 C 492.869 244.403, 492.191 244, 491.059 244 C 489.927 244, 488.947 244.338, 488.882 244.750 M 499.269 244.693 C 500.242 244.947, 501.592 244.930, 502.269 244.656 C 502.946 244.382, 502.150 244.175, 500.500 244.195 C 498.850 244.215, 498.296 244.439, 499.269 244.693 M 504 244.875 C 504 245.356, 505.173 245.750, 506.607 245.750 C 508.446 245.750, 508.814 245.497, 507.857 244.890 C 506.091 243.771, 504 243.763, 504 244.875 M 560.802 244.531 C 560.510 244.824, 559.422 245.246, 558.385 245.471 C 557.348 245.695, 552.225 246.799, 547 247.924 C 533.092 250.919, 533 250.946, 533 252.078 C 533 252.650, 533.506 252.805, 534.125 252.423 C 535.767 251.408, 551.046 248.056, 554.167 248.026 C 555.633 248.012, 557.060 247.438, 557.338 246.750 C 557.741 245.750, 557.858 245.750, 557.921 246.750 C 558.014 248.223, 563 248.468, 563 247 C 563 246.450, 562.438 245.968, 561.750 245.930 C 561.063 245.891, 561.400 245.473, 562.500 245 C 563.971 244.368, 564.081 244.122, 562.917 244.070 C 562.046 244.032, 561.094 244.239, 560.802 244.531 M 489.500 246 C 489.840 246.550, 490.316 247, 490.559 247 C 490.802 247, 491 246.550, 491 246 C 491 245.450, 490.523 245, 489.941 245 C 489.359 245, 489.160 245.450, 489.500 246 M 476.566 246.966 C 475.337 247.404, 475.039 247.906, 475.747 248.344 C 476.360 248.723, 477.132 248.595, 477.463 248.060 C 477.794 247.525, 478.725 247.341, 479.532 247.651 C 480.339 247.960, 481 247.989, 481 247.714 C 481 246.721, 478.458 246.292, 476.566 246.966 M 535.231 246.725 C 533.433 246.947, 532.213 247.536, 532.520 248.032 C 533.150 249.052, 538.999 248.193, 540.450 246.868 C 541.424 245.978, 541.291 245.974, 535.231 246.725 M 566.250 246.820 C 561.957 247.429, 564.025 248.863, 568.750 248.553 C 571.362 248.382, 573.500 248.147, 573.500 248.031 C 573.500 247.915, 575.975 247.595, 579 247.320 C 582.025 247.045, 584.725 246.596, 585 246.323 C 585.503 245.824, 570.452 246.223, 566.250 246.820 M 501.750 247.662 C 502.438 247.940, 503.563 247.940, 504.250 247.662 C 504.938 247.385, 504.375 247.158, 503 247.158 C 501.625 247.158, 501.063 247.385, 501.750 247.662 M 508.500 249.025 C 511.508 249.765, 532.699 250.319, 531.917 249.637 C 531.688 249.437, 525.650 249.052, 518.500 248.780 C 511.350 248.509, 506.850 248.619, 508.500 249.025 M 574.217 249.581 C 567.327 250.844, 564.158 252.473, 570.536 251.473 C 572.716 251.131, 576.975 250.538, 580 250.156 C 583.959 249.656, 584.800 249.317, 583 248.945 C 581.625 248.661, 577.673 248.947, 574.217 249.581 M 492.625 249.798 C 492.281 250.354, 490.087 250.620, 487.750 250.389 C 484.558 250.073, 483.998 250.204, 485.500 250.914 C 486.600 251.434, 489.975 251.839, 493 251.814 C 496.025 251.789, 497.600 251.543, 496.500 251.268 C 495.400 250.993, 494.219 250.323, 493.875 249.778 C 493.465 249.127, 493.035 249.134, 492.625 249.798 M 550 250.629 C 542.915 252.489, 541.622 252.955, 542.130 253.463 C 542.359 253.692, 545.686 253.051, 549.523 252.038 C 553.695 250.937, 556.882 250.559, 557.450 251.099 C 558.772 252.353, 559.700 252.224, 560.283 250.704 C 560.978 248.895, 556.725 248.864, 550 250.629 M 509 250.393 C 509 250.609, 509.698 251.054, 510.552 251.382 C 511.442 251.723, 511.843 251.555, 511.493 250.989 C 510.906 250.038, 509 249.583, 509 250.393 M 561.500 251 C 561.143 251.577, 562.070 251.994, 563.691 251.985 C 565.872 251.973, 566.165 251.753, 565 251 C 563.079 249.758, 562.267 249.758, 561.500 251 M 479 252.024 C 476.740 252.639, 476.884 252.771, 480.500 253.407 C 482.700 253.794, 485.352 254.285, 486.394 254.499 C 488.754 254.984, 487.339 253.722, 484 252.362 C 482.625 251.803, 480.375 251.651, 479 252.024 M 496.578 253.478 L 493.655 254.741 497.279 255.164 C 500.096 255.493, 500.671 255.309, 499.864 254.336 C 498.841 253.104, 503.728 253.202, 511 254.561 C 513.119 254.956, 513.233 254.865, 511.745 253.961 C 509.086 252.346, 499.876 252.052, 496.578 253.478 M 516.751 253.051 C 517.989 253.538, 519.642 253.691, 520.423 253.391 C 521.204 253.091, 522.833 253.376, 524.043 254.023 C 525.696 254.908, 526.063 254.911, 525.522 254.036 C 524.999 253.190, 525.853 253.047, 528.652 253.511 C 531.205 253.935, 532.043 253.830, 531.143 253.200 C 530.396 252.677, 526.346 252.230, 522.143 252.207 C 516.712 252.177, 515.152 252.421, 516.751 253.051 M 550.011 253.487 C 548.746 255.011, 549.064 254.967, 556 252.657 C 556.825 252.383, 556.093 252.122, 554.372 252.079 C 552.652 252.036, 550.690 252.669, 550.011 253.487 M 537.500 253.781 C 536.400 254.008, 535.050 254.632, 534.500 255.168 C 533.574 256.069, 538.847 255.282, 539.917 254.359 C 540.719 253.668, 539.482 253.372, 537.500 253.781 M 561.612 253.819 C 561.333 254.270, 562.432 254.443, 564.053 254.206 C 565.674 253.968, 567 253.599, 567 253.387 C 567 252.625, 562.107 253.017, 561.612 253.819 M 554 255.634 L 549.500 257.007 554 256.452 C 556.475 256.147, 558.928 255.471, 559.450 254.949 C 560.641 253.759, 559.798 253.865, 554 255.634 M 569.601 254.837 C 569 255.809, 574.689 255.644, 575.673 254.660 C 576.036 254.297, 574.935 254, 573.226 254 C 571.516 254, 569.885 254.377, 569.601 254.837 M 578.813 254.683 C 579.534 254.972, 580.397 254.936, 580.729 254.604 C 581.061 254.272, 580.471 254.036, 579.417 254.079 C 578.252 254.127, 578.015 254.364, 578.813 254.683 M 485.508 256.014 C 485.844 256.556, 487.516 257, 489.226 257 C 493.061 257, 492.200 255.877, 487.990 255.387 C 486.132 255.171, 485.142 255.421, 485.508 256.014 M 502.813 255.683 C 503.534 255.972, 504.397 255.936, 504.729 255.604 C 505.061 255.272, 504.471 255.036, 503.417 255.079 C 502.252 255.127, 502.015 255.364, 502.813 255.683 M 506.818 256.218 C 507.351 256.751, 508.623 257.011, 509.644 256.794 C 511.019 256.503, 510.767 256.251, 508.674 255.825 C 506.849 255.452, 506.192 255.592, 506.818 256.218 M 563.250 256.119 C 561.462 256.635, 560 257.258, 560 257.504 C 560 258.225, 566.411 256.817, 567.450 255.868 C 568.620 254.799, 567.613 254.859, 563.250 256.119 M 512.500 257 C 512.840 257.550, 513.541 258, 514.059 258 C 514.577 258, 515 257.550, 515 257 C 515 256.450, 514.298 256, 513.441 256 C 512.584 256, 512.160 256.450, 512.500 257 M 517.750 256.662 C 518.438 256.940, 519.563 256.940, 520.250 256.662 C 520.938 256.385, 520.375 256.158, 519 256.158 C 517.625 256.158, 517.063 256.385, 517.750 256.662 M 495.120 257.453 C 495.990 258.323, 502.939 258.710, 502.413 257.859 C 502.121 257.387, 500.259 257, 498.274 257 C 496.290 257, 494.870 257.204, 495.120 257.453 M 479.083 258.367 C 479.313 258.569, 481.300 259.009, 483.500 259.344 C 486.288 259.768, 486.894 259.678, 485.500 259.047 C 483.580 258.177, 478.224 257.610, 479.083 258.367 M 556.813 258.683 C 557.534 258.972, 558.397 258.936, 558.729 258.604 C 559.061 258.272, 558.471 258.036, 557.417 258.079 C 556.252 258.127, 556.015 258.364, 556.813 258.683 M 489.750 259.662 C 490.438 259.940, 491.563 259.940, 492.250 259.662 C 492.938 259.385, 492.375 259.158, 491 259.158 C 489.625 259.158, 489.063 259.385, 489.750 259.662 M 515.750 260.662 C 516.438 260.940, 517.563 260.940, 518.250 260.662 C 518.938 260.385, 518.375 260.158, 517 260.158 C 515.625 260.158, 515.063 260.385, 515.750 260.662 M 558.558 269.907 C 558.249 270.405, 558.898 270.578, 559.999 270.290 C 562.334 269.679, 562.629 269, 560.559 269 C 559.766 269, 558.866 269.408, 558.558 269.907 M 578.500 270 C 576.870 270.701, 576.812 270.872, 578.191 270.930 C 579.121 270.968, 580.160 270.550, 580.500 270 C 581.211 268.850, 581.176 268.850, 578.500 270 M 568.979 270.953 C 568.165 271.387, 561.126 271.981, 553.336 272.274 C 545.329 272.574, 538.373 273.306, 537.336 273.957 C 535.877 274.873, 536.628 274.981, 541 274.482 C 552.379 273.181, 562.771 272.915, 571 273.714 C 579.692 274.557, 583 274.400, 583 273.144 C 583 272.754, 579.737 272.560, 575.750 272.714 C 571.296 272.886, 569.246 272.676, 570.434 272.169 C 571.497 271.716, 571.938 271.079, 571.412 270.755 C 570.887 270.430, 569.792 270.520, 568.979 270.953 M 482.756 271.574 C 483.447 271.902, 483.721 272.642, 483.365 273.218 C 482.928 273.926, 484.468 274.070, 488.109 273.663 C 493.812 273.026, 504.929 276.287, 505.782 278.847 C 506.071 279.714, 505.541 279.783, 503.840 279.101 C 498.369 276.907, 497.305 276.638, 493.500 276.484 C 491.300 276.395, 488.375 275.978, 487 275.558 C 484.574 274.816, 484.559 274.840, 486.500 276.365 C 487.600 277.229, 489.314 277.951, 490.309 277.968 C 491.418 277.988, 491.842 278.447, 491.405 279.155 C 490.960 279.873, 491.130 280.037, 491.854 279.590 C 493.552 278.541, 496.667 279.787, 496.667 281.514 C 496.667 282.332, 496.292 283, 495.833 283 C 495.375 283, 495 282.523, 495 281.941 C 495 281.359, 494.592 281.134, 494.094 281.442 C 493.596 281.750, 490.946 280.839, 488.205 279.417 C 485.448 277.986, 482.168 277.014, 480.861 277.240 C 478.318 277.680, 479.323 278.363, 484 279.373 C 485.375 279.670, 487.400 280.641, 488.500 281.531 C 489.600 282.420, 489.933 282.861, 489.241 282.510 C 487.494 281.623, 483.832 282.920, 484.596 284.155 C 484.939 284.710, 483.708 284.396, 481.860 283.455 C 477.046 281.006, 477.062 280.836, 482.038 281.535 C 485.335 281.998, 486.108 281.883, 485 281.096 C 484.175 280.510, 481.570 280.024, 479.211 280.015 C 475.112 280.001, 475.001 280.077, 476.711 281.750 C 479.997 284.965, 488.607 288.714, 496.811 290.504 C 503.271 291.913, 514.483 292.345, 511.500 291.069 C 509.918 290.393, 510.441 290.140, 514 289.857 C 517.551 289.575, 518.471 289.131, 518.361 287.750 C 518.248 286.319, 519.053 286, 522.778 286 C 530.615 286, 526.738 284.986, 516.898 284.463 C 511.729 284.188, 506.644 283.948, 505.597 283.931 C 504.550 283.913, 502.810 283.280, 501.730 282.523 C 499.914 281.252, 500.020 281.171, 503.133 281.456 C 504.985 281.626, 507.800 282.280, 509.389 282.910 C 513.470 284.529, 513.676 283.628, 509.792 281.142 C 507.981 279.982, 507.149 279.026, 507.941 279.017 C 508.975 279.005, 508.834 278.585, 507.441 277.532 C 506.374 276.724, 505.972 276.049, 506.550 276.032 C 507.127 276.014, 508.196 276.563, 508.925 277.250 C 509.920 278.188, 510.358 278.207, 510.683 277.325 C 511.007 276.447, 511.944 276.496, 514.392 277.519 C 517.163 278.677, 517.667 278.677, 517.667 277.518 C 517.667 276.765, 516.954 276.135, 516.083 276.118 C 510.436 276.007, 501.827 274.751, 497.947 273.472 C 495.443 272.646, 491.843 272.030, 489.947 272.103 C 488.051 272.177, 485.375 271.953, 484 271.607 C 482.625 271.261, 482.065 271.246, 482.756 271.574 M 474.621 273.196 C 474.895 273.638, 476.351 274, 477.859 274 C 479.367 274, 481.195 274.563, 481.922 275.250 C 483.012 276.280, 483.050 276.121, 482.140 274.348 C 481.313 272.738, 480.167 272.222, 477.580 272.295 C 475.680 272.349, 474.348 272.754, 474.621 273.196 M 502.500 273 C 503.600 273.473, 505.625 273.846, 507 273.830 L 509.500 273.801 507 273 C 505.625 272.560, 503.600 272.186, 502.500 272.170 L 500.500 272.141 502.500 273 M 511.083 273.359 C 511.313 273.557, 512.850 274.021, 514.500 274.390 C 516.691 274.880, 517.095 274.787, 516 274.046 C 514.650 273.132, 510.080 272.494, 511.083 273.359 M 554.750 274.810 C 552.688 274.981, 551 275.532, 551 276.034 C 551 276.536, 548.472 276.771, 545.383 276.556 C 541.495 276.286, 540.086 276.486, 540.805 277.205 C 541.404 277.804, 545.379 278.135, 550.172 277.985 C 554.753 277.842, 559.513 277.740, 560.750 277.757 C 561.987 277.774, 563 277.499, 563.001 277.144 C 563.001 276.355, 576.183 276.389, 577.532 277.181 C 578.065 277.494, 579.400 277.388, 580.500 276.945 C 582.331 276.209, 582.288 276.126, 580 275.971 C 578.625 275.877, 575.475 275.629, 573 275.418 C 564.595 274.702, 558.510 274.499, 554.750 274.810 M 519.750 275.662 C 520.438 275.940, 521.563 275.940, 522.250 275.662 C 522.938 275.385, 522.375 275.158, 521 275.158 C 519.625 275.158, 519.063 275.385, 519.750 275.662 M 526.813 275.683 C 527.534 275.972, 528.397 275.936, 528.729 275.604 C 529.061 275.272, 528.471 275.036, 527.417 275.079 C 526.252 275.127, 526.015 275.364, 526.813 275.683 M 586.459 276.067 C 586.096 276.653, 586.014 277.348, 586.276 277.610 C 586.538 277.872, 587.019 277.392, 587.345 276.543 C 588.021 274.781, 587.445 274.471, 586.459 276.067 M 555.813 276.683 C 556.534 276.972, 557.397 276.936, 557.729 276.604 C 558.061 276.272, 557.471 276.036, 556.417 276.079 C 555.252 276.127, 555.015 276.364, 555.813 276.683 M 474.750 277.662 C 475.438 277.940, 476.563 277.940, 477.250 277.662 C 477.938 277.385, 477.375 277.158, 476 277.158 C 474.625 277.158, 474.063 277.385, 474.750 277.662 M 495 277.393 C 495 277.609, 495.698 278.054, 496.552 278.382 C 497.442 278.723, 497.843 278.555, 497.493 277.989 C 496.906 277.038, 495 276.583, 495 277.393 M 523.558 278.907 C 523.249 279.405, 523.898 279.578, 524.999 279.290 C 527.334 278.679, 527.629 278, 525.559 278 C 524.766 278, 523.866 278.408, 523.558 278.907 M 569.917 278.391 C 569.688 278.606, 565.291 279.027, 560.147 279.327 C 555.003 279.627, 550.541 280.126, 550.231 280.436 C 549.920 280.746, 550.292 281, 551.056 281 C 553.995 281, 548.152 283.927, 544.756 284.156 C 541.376 284.383, 540.424 285.864, 542.465 287.721 C 542.935 288.149, 542.997 287.938, 542.601 287.250 C 542.206 286.563, 542.359 285.944, 542.941 285.875 C 543.523 285.806, 544.450 285.637, 545 285.500 C 545.550 285.363, 547.602 285.194, 549.559 285.125 C 551.744 285.048, 552.870 284.598, 552.475 283.960 C 552.062 283.291, 552.715 283.141, 554.307 283.541 C 555.818 283.920, 557.083 283.675, 557.555 282.911 C 558.081 282.059, 557.848 281.844, 556.823 282.238 C 555.996 282.555, 554.684 282.413, 553.909 281.923 C 552.878 281.270, 553.215 281.027, 555.168 281.015 C 556.636 281.007, 558.661 280.733, 559.668 280.406 C 561.155 279.923, 561.223 280.007, 560.029 280.851 C 558.196 282.147, 559.141 283.267, 561.351 282.419 C 562.252 282.073, 562.680 281.275, 562.302 280.645 C 561.793 279.796, 561.989 279.798, 563.058 280.653 C 565.396 282.522, 570.500 282.760, 570.500 281 C 570.500 280.175, 570.950 279.169, 571.500 278.765 C 572.148 278.289, 572.119 278.025, 571.417 278.015 C 570.821 278.007, 570.146 278.176, 569.917 278.391 M 509 279.552 C 509 279.672, 510.155 280.527, 511.567 281.452 C 513.714 282.859, 514.400 282.918, 515.759 281.817 C 516.769 280.998, 517.116 280.947, 516.676 281.681 C 516.286 282.330, 516.425 283.144, 516.984 283.490 C 517.543 283.835, 518 283.717, 518 283.227 C 518 282.737, 520.475 282.541, 523.500 282.792 C 527.449 283.119, 529 282.899, 529 282.010 C 529 281.182, 527.927 280.933, 525.750 281.258 C 523.962 281.525, 520.250 281.182, 517.500 280.495 C 513.060 279.387, 509 278.936, 509 279.552 M 536 280 C 534.020 280.634, 533.916 280.801, 535.500 280.801 C 536.600 280.801, 538.625 280.440, 540 280 C 541.980 279.366, 542.084 279.199, 540.500 279.199 C 539.400 279.199, 537.375 279.560, 536 280 M 573.114 279.908 C 572.239 280.463, 573.469 280.668, 576.457 280.467 C 579.057 280.292, 581.443 279.890, 581.759 279.574 C 582.694 278.639, 574.625 278.951, 573.114 279.908 M 565.750 280.662 C 566.438 280.940, 567.563 280.940, 568.250 280.662 C 568.938 280.385, 568.375 280.158, 567 280.158 C 565.625 280.158, 565.063 280.385, 565.750 280.662 M 538.500 282.598 L 533.500 283.959 538.500 283.288 C 541.250 282.919, 544.775 282.640, 546.334 282.669 C 548.249 282.704, 548.735 282.448, 547.834 281.876 C 546.141 280.803, 544.681 280.916, 538.500 282.598 M 572.786 282.414 C 570.744 283.143, 568.856 283.522, 568.590 283.257 C 568.325 282.992, 565.747 283.341, 562.862 284.033 C 559.977 284.725, 556.690 285.393, 555.558 285.518 C 552.006 285.909, 551.867 285.977, 552.500 287 C 552.840 287.550, 552.491 288, 551.726 288 C 550.960 288, 550.333 288.621, 550.333 289.381 C 550.333 291.178, 563.460 290.999, 566.788 289.156 C 568.046 288.459, 570.015 288.187, 571.163 288.552 C 572.402 288.945, 573.009 288.823, 572.655 288.252 C 572.315 287.701, 573.038 287.476, 574.341 287.725 C 575.672 287.979, 577.180 287.488, 577.963 286.544 C 579.526 284.662, 574.489 285.079, 565.717 287.560 C 563.086 288.303, 560.200 288.630, 559.303 288.286 C 558.406 287.942, 557.926 288.074, 558.238 288.580 C 558.549 289.086, 557.511 289.547, 555.932 289.605 C 550.823 289.792, 553.793 288.244, 561.746 286.575 C 571.978 284.428, 577 282.869, 577 281.840 C 577 280.834, 577.343 280.787, 572.786 282.414 M 529 284.941 C 529 285.459, 529.445 286.157, 529.989 286.493 C 530.555 286.843, 530.723 286.442, 530.382 285.552 C 529.717 283.820, 529 283.503, 529 284.941 M 580.459 285.067 C 580.096 285.653, 580.131 286.441, 580.537 286.817 C 580.942 287.192, 581.476 286.935, 581.722 286.244 C 581.969 285.553, 582.551 285.223, 583.016 285.510 C 583.481 285.797, 584.144 285.575, 584.490 285.016 C 584.835 284.457, 584.218 284, 583.118 284 C 582.018 284, 580.821 284.480, 580.459 285.067 M 477.813 285.683 C 478.534 285.972, 479.397 285.936, 479.729 285.604 C 480.061 285.272, 479.471 285.036, 478.417 285.079 C 477.252 285.127, 477.015 285.364, 477.813 285.683 M 508.559 287.468 C 509.626 288.276, 510.924 288.951, 511.441 288.968 C 511.959 288.986, 511.509 288.339, 510.441 287.532 C 509.374 286.724, 508.076 286.049, 507.559 286.032 C 507.041 286.014, 507.491 286.661, 508.559 287.468 M 512 286.402 C 512 286.623, 513.400 287.292, 515.112 287.889 C 517.822 288.834, 518.064 288.782, 516.989 287.487 C 515.905 286.180, 512 285.331, 512 286.402 M 479.244 287.664 C 477.366 288.422, 478.795 290, 481.359 290 C 482.592 290, 484.140 290.540, 484.800 291.200 C 485.460 291.860, 486 292.114, 486 291.764 C 486 291.414, 489.038 291.946, 492.750 292.947 C 496.462 293.947, 501.300 294.791, 503.500 294.823 C 505.700 294.854, 509.188 295.027, 511.250 295.207 C 513.313 295.387, 515 295.189, 515 294.767 C 515 294.345, 513.763 293.968, 512.250 293.930 C 506.556 293.784, 499.484 292.794, 497.838 291.913 C 496.899 291.411, 494.982 291, 493.576 291 C 492.171 291, 488.654 290.100, 485.761 289.001 C 482.867 287.901, 480.500 287.036, 480.500 287.079 C 480.500 287.123, 479.935 287.386, 479.244 287.664 M 491.601 288.164 C 491.856 288.576, 492.725 288.659, 493.532 288.349 C 495.568 287.568, 495.366 287.097, 493.069 287.270 C 492.007 287.350, 491.347 287.752, 491.601 288.164 M 499.174 287.724 C 501.195 287.937, 503.387 288.762, 504.046 289.556 C 504.706 290.350, 505.752 290.986, 506.372 290.970 C 506.993 290.953, 506.659 290.450, 505.630 289.853 C 504.120 288.976, 504.024 288.599, 505.130 287.898 C 505.987 287.356, 504.441 287.088, 501 287.183 C 496.888 287.298, 496.427 287.434, 499.174 287.724 M 520 288 C 520 288.550, 520.450 289, 521 289 C 521.550 289, 522 288.550, 522 288 C 522 287.450, 521.550 287, 521 287 C 520.450 287, 520 287.450, 520 288 M 523.500 288 C 523.840 288.550, 524.879 288.993, 525.809 288.985 C 527.266 288.971, 527.293 288.835, 526 288 C 524.042 286.734, 522.718 286.734, 523.500 288 M 537.768 288.168 C 538.350 288.750, 539.415 289.028, 540.137 288.788 C 540.886 288.538, 540.432 288.085, 539.080 287.731 C 537.417 287.296, 537.026 287.426, 537.768 288.168 M 543.712 289.199 C 543.001 289.651, 543.842 289.976, 545.750 289.985 C 547.538 289.993, 549 289.646, 549 289.214 C 549 288.204, 545.294 288.194, 543.712 289.199 M 519.158 291.065 C 517.869 291.582, 516.407 291.751, 515.908 291.443 C 515.408 291.134, 515 291.411, 515 292.058 C 515 292.776, 515.854 293.010, 517.198 292.658 C 518.407 292.342, 520.007 292.591, 520.754 293.211 C 521.797 294.076, 522.042 294.008, 521.806 292.919 C 521.588 291.906, 522.358 291.563, 524.500 291.719 C 526.735 291.882, 527.117 291.694, 526 290.984 C 524.160 289.814, 522.223 289.837, 519.158 291.065 M 470 292 C 470 292.550, 470.477 293, 471.059 293 C 471.641 293, 471.840 292.550, 471.500 292 C 471.160 291.450, 470.684 291, 470.441 291 C 470.198 291, 470 291.450, 470 292 M 474.194 292.081 C 474.428 292.783, 477.731 293.986, 481.534 294.754 C 488.060 296.073, 494.868 298.642, 489 297.571 C 487.625 297.320, 484.700 296.878, 482.500 296.587 L 478.500 296.059 482 297.454 C 483.925 298.220, 486.962 298.882, 488.750 298.924 C 490.538 298.966, 492 299.383, 492 299.851 C 492 300.319, 489.637 300.299, 486.750 299.808 C 476.418 298.049, 475 297.963, 475 299.099 C 475 299.816, 474.015 299.974, 472.250 299.538 C 470.156 299.021, 469.774 299.138, 470.650 300.029 C 471.282 300.672, 472.969 301.267, 474.399 301.350 C 475.829 301.432, 476.999 302.051, 476.999 302.725 C 477 303.627, 476.323 303.693, 474.435 302.975 C 470.554 301.500, 469.795 301.749, 471.046 304.086 C 471.660 305.233, 471.931 306.403, 471.648 306.686 C 470.682 307.651, 469 305.887, 469 303.910 C 469 301.758, 466.754 300.416, 464.983 301.511 C 464.221 301.981, 464.443 302.853, 465.685 304.271 C 466.684 305.412, 466.869 305.972, 466.095 305.517 C 465.053 304.904, 464.916 305.053, 465.565 306.095 C 466.045 306.868, 466.322 308.402, 466.180 309.505 C 466.037 310.608, 466.600 312.408, 467.429 313.505 C 468.418 314.813, 468.947 315.028, 468.968 314.130 C 468.987 313.298, 470.769 314.209, 473.500 316.446 C 475.975 318.475, 478 319.648, 478 319.053 C 478 318.011, 476.025 314.025, 475 313 C 474.725 312.725, 473.833 311.600, 473.017 310.500 C 471.576 308.556, 471.593 308.549, 473.596 310.250 C 474.730 311.212, 476.204 312, 476.873 312 C 477.541 312, 477.995 312.563, 477.881 313.250 C 477.428 315.987, 479.254 320.117, 480.675 319.571 C 481.501 319.254, 481.835 319.459, 481.466 320.055 C 480.713 321.273, 482.750 324.014, 484.372 323.968 C 484.993 323.951, 484.699 323.329, 483.721 322.586 C 482.251 321.471, 482.193 321.140, 483.388 320.681 C 484.183 320.376, 485.063 320.722, 485.343 321.451 C 485.978 323.107, 494.224 324.041, 495.250 322.573 C 495.766 321.835, 496.263 321.907, 496.842 322.803 C 497.305 323.519, 498.092 324.029, 498.592 323.934 C 500.488 323.577, 502 324.036, 502 324.969 C 502 325.501, 501.212 325.690, 500.250 325.387 C 498.731 324.909, 498.752 325.043, 500.412 326.397 C 501.565 327.338, 503.251 327.724, 504.662 327.370 C 507.059 326.768, 508.027 328.467, 505.750 329.280 C 505.063 329.525, 504.845 330.095, 505.267 330.546 C 505.688 330.998, 506.566 330.834, 507.217 330.183 C 507.867 329.533, 509.435 329, 510.700 329 C 511.965 329, 513 328.488, 513 327.862 C 513 327.077, 514.781 326.904, 518.750 327.303 C 521.913 327.621, 523.935 327.644, 523.244 327.355 C 522.553 327.066, 522.239 326.423, 522.546 325.926 C 522.853 325.429, 522.451 325.273, 521.653 325.580 C 520.855 325.886, 519.905 325.656, 519.542 325.068 C 519.179 324.481, 519.385 324, 520 324 C 520.615 324, 520.840 323.550, 520.500 323 C 520.160 322.450, 520.610 322, 521.500 322 C 522.390 322, 522.852 321.570, 522.527 321.044 C 522.202 320.518, 521.308 320.328, 520.541 320.623 C 519.535 321.009, 519.297 320.579, 519.690 319.079 C 520.315 316.686, 520.461 316.641, 523.066 318.035 C 524.460 318.782, 525 318.747, 525 317.913 C 525 317.075, 525.414 317.099, 526.500 318 C 527.365 318.718, 528 318.815, 528 318.229 C 528 316.877, 526.337 316.436, 521.376 316.471 C 517.136 316.501, 516.066 314.853, 519.070 312.920 C 519.972 312.340, 520.131 311.723, 519.500 311.250 C 518.950 310.837, 518.455 309.938, 518.400 309.250 C 518.345 308.563, 518.232 307.569, 518.150 307.042 C 518.067 306.515, 516.450 306.206, 514.556 306.356 C 512.662 306.505, 511.339 306.261, 511.615 305.813 C 511.892 305.366, 511.191 304.944, 510.059 304.875 C 508.927 304.806, 506.538 304.594, 504.750 304.404 C 502.962 304.213, 500.606 304.024, 499.513 303.984 C 497.931 303.926, 497.819 303.730, 498.965 303.022 C 499.757 302.532, 500.770 302.358, 501.217 302.634 C 503.378 303.970, 510 303.818, 510 302.433 C 510 301.428, 511.194 301, 514 301 C 516.200 301, 518 300.625, 518 300.168 C 518 299.710, 520.138 298.834, 522.750 298.221 C 527.368 297.137, 527.306 297.122, 520.500 297.654 C 509.922 298.481, 500.803 297.853, 498.603 296.145 C 496.787 294.736, 492.909 294.043, 493.663 295.263 C 494.105 295.979, 493.687 296.079, 492.414 295.562 C 489.015 294.180, 479.575 292.144, 478.797 292.626 C 478.381 292.882, 477.080 292.578, 475.905 291.949 C 474.229 291.052, 473.860 291.081, 474.194 292.081 M 564 293.038 C 559.325 294.075, 552.688 295.468, 549.250 296.134 C 545.813 296.801, 543 297.766, 543 298.280 C 543 298.794, 543.700 298.945, 544.556 298.617 C 545.412 298.288, 552.387 296.818, 560.056 295.349 C 567.725 293.880, 574 292.301, 574 291.839 C 574 290.795, 574.246 290.765, 564 293.038 M 577.750 293.662 C 578.438 293.940, 579.563 293.940, 580.250 293.662 C 580.938 293.385, 580.375 293.158, 579 293.158 C 577.625 293.158, 577.063 293.385, 577.750 293.662 M 536.813 294.683 C 537.534 294.972, 538.397 294.936, 538.729 294.604 C 539.061 294.272, 538.471 294.036, 537.417 294.079 C 536.252 294.127, 536.015 294.364, 536.813 294.683 M 566.500 296.014 C 562.100 297.010, 556.310 298.533, 553.634 299.399 C 550.957 300.266, 548.300 300.686, 547.729 300.333 C 547.107 299.948, 546.994 300.181, 547.447 300.914 C 547.862 301.586, 548.832 301.895, 549.601 301.600 C 550.371 301.304, 551 301.467, 551 301.961 C 551 302.455, 554.007 301.999, 557.681 300.948 C 561.356 299.897, 563.943 299.395, 563.431 299.832 C 562.919 300.269, 559.913 301.409, 556.750 302.365 C 553.587 303.320, 551 304.577, 551 305.158 C 551 305.739, 551.675 305.941, 552.500 305.607 C 556.876 303.836, 557.539 303.805, 555.500 305.466 C 554.400 306.362, 552.713 306.891, 551.751 306.642 C 550.789 306.392, 549.750 306.596, 549.442 307.094 C 549.134 307.592, 549.359 308, 549.941 308 C 550.523 308, 551 308.730, 551 309.622 C 551 310.951, 551.271 311.020, 552.500 310 C 553.757 308.957, 554 309.116, 554 310.985 C 554 312.693, 553.591 313.059, 552.250 312.553 C 550.603 311.931, 550.600 311.993, 552.200 313.610 C 553.410 314.833, 554.274 315.034, 555.200 314.309 C 556.562 313.240, 561 311.910, 561 312.570 C 561 312.780, 559.390 313.778, 557.421 314.788 C 552.724 317.198, 554.690 319.701, 559.864 317.897 C 561.603 317.291, 563.727 317.065, 564.585 317.394 C 565.443 317.723, 567.068 317.499, 568.197 316.895 C 569.325 316.291, 571.205 315.641, 572.374 315.450 C 576.093 314.844, 582 312.540, 582 311.696 C 582 311.248, 582.470 311.172, 583.044 311.527 C 583.618 311.882, 584.804 311.578, 585.679 310.851 C 587.278 309.525, 587.606 309.433, 591.750 309.152 C 593.141 309.058, 594 308.351, 594 307.300 C 594 306.006, 594.278 305.878, 595.165 306.765 C 596.848 308.448, 599.298 305.064, 597.748 303.196 C 596.934 302.215, 597.017 301.964, 598.081 302.194 C 598.861 302.362, 599.372 301.890, 599.215 301.145 C 599.058 300.399, 599.373 299.256, 599.914 298.604 C 600.612 297.763, 600.337 297.376, 598.969 297.273 C 597.908 297.193, 596.779 297.549, 596.461 298.064 C 596.142 298.579, 596.471 299.007, 597.191 299.015 C 598.213 299.027, 598.228 299.204, 597.259 299.819 C 596.576 300.253, 595.131 302.383, 594.048 304.554 C 592.966 306.724, 592.062 307.910, 592.040 307.190 C 592.012 306.281, 591.006 306.033, 588.750 306.379 C 585.731 306.843, 585.638 306.776, 587.441 305.439 C 588.509 304.648, 589.873 304, 590.472 304 C 591.071 304, 592.071 302.650, 592.694 301 C 594.105 297.262, 593.253 297.172, 590.324 300.750 C 589.085 302.262, 588.056 302.970, 588.036 302.321 C 588.016 301.673, 588.675 300.468, 589.500 299.643 C 591.421 297.722, 591.397 297, 589.413 297 C 588.540 297, 587.317 298.350, 586.694 300 C 586.071 301.650, 585.210 303, 584.781 303 C 583.812 303, 583.761 301.573, 584.696 300.638 C 585.806 299.527, 585.915 297, 584.852 297 C 584.319 297, 584.120 296.615, 584.410 296.145 C 584.701 295.675, 583.604 295.337, 581.972 295.395 C 580.322 295.453, 579.004 296.055, 579.002 296.750 C 579.001 297.438, 578.523 298, 577.941 298 C 577.359 298, 577.191 297.500, 577.569 296.888 C 578.178 295.903, 576.311 293.890, 575 294.117 C 574.725 294.165, 570.900 295.018, 566.500 296.014 M 461.500 296 C 461.840 296.550, 462.316 297, 462.559 297 C 462.802 297, 463 296.550, 463 296 C 463 295.450, 462.523 295, 461.941 295 C 461.359 295, 461.160 295.450, 461.500 296 M 466.647 297.320 C 467.655 298.519, 468.596 299.688, 468.739 299.917 C 468.883 300.146, 469 299.411, 469 298.283 C 469 297.044, 468.172 296.017, 466.908 295.686 C 464.861 295.151, 464.855 295.186, 466.647 297.320 M 531.813 295.683 C 532.534 295.972, 533.397 295.936, 533.729 295.604 C 534.061 295.272, 533.471 295.036, 532.417 295.079 C 531.252 295.127, 531.015 295.364, 531.813 295.683 M 573 296.500 C 572.282 297.365, 572.185 298, 572.771 298 C 573.329 298, 574.045 297.325, 574.362 296.500 C 574.678 295.675, 574.781 295, 574.591 295 C 574.401 295, 573.685 295.675, 573 296.500 M 470 297.137 C 470 297.944, 470.487 298.149, 473 298.400 C 473.550 298.455, 474.006 298.050, 474.013 297.500 C 474.020 296.950, 473.120 296.449, 472.013 296.387 C 470.906 296.324, 470 296.662, 470 297.137 M 495.863 297.894 C 497.014 298.623, 497.014 298.832, 495.863 299.231 C 495.113 299.491, 495.850 299.708, 497.500 299.713 C 500.295 299.721, 501.718 299.980, 507.330 301.506 C 509.431 302.077, 509.437 302.057, 507.508 300.863 C 506.413 300.185, 504.838 299.552, 504.008 299.457 C 503.179 299.361, 501.233 298.769, 499.685 298.141 C 496.317 296.776, 493.846 296.616, 495.863 297.894 M 580 298.583 C 577.656 299.884, 577.633 299.971, 579.628 299.985 C 580.798 299.993, 582.315 299.325, 583 298.500 C 584.508 296.683, 583.367 296.715, 580 298.583 M 604.020 298.476 C 603.231 299.426, 603.155 300, 603.819 300 C 605.027 300, 606.436 298.103, 605.743 297.409 C 605.491 297.158, 604.716 297.638, 604.020 298.476 M 536.493 299.011 C 536.298 299.327, 536.999 299.650, 538.050 299.729 C 539.101 299.808, 540.204 299.479, 540.502 298.997 C 540.800 298.515, 540.099 298.192, 538.946 298.279 C 537.792 298.366, 536.688 298.695, 536.493 299.011 M 459.469 300.050 C 459.101 300.646, 459.070 301.403, 459.400 301.733 C 459.730 302.063, 460.007 301.696, 460.015 300.917 C 460.028 299.750, 460.202 299.765, 461 301 C 461.582 301.901, 461.975 302.025, 461.985 301.309 C 462.006 299.625, 460.269 298.756, 459.469 300.050 M 527 300.787 C 527 301.220, 528.007 301.650, 529.237 301.743 C 530.996 301.875, 531.156 301.710, 529.987 300.971 C 528.159 299.815, 527 299.744, 527 300.787 M 543.667 301.667 C 542.735 302.599, 542.835 304, 543.833 304 C 544.292 304, 544.667 303.325, 544.667 302.500 C 544.667 300.801, 544.594 300.740, 543.667 301.667 M 603.345 302.543 C 602.445 304.889, 603.417 305.164, 604.796 302.955 C 605.569 301.717, 605.635 301, 604.977 301 C 604.405 301, 603.671 301.694, 603.345 302.543 M 511.393 303.173 C 511.112 303.628, 512.709 304.067, 514.941 304.150 C 517.173 304.233, 519.450 304.345, 520 304.400 C 520.550 304.455, 520.888 304.093, 520.750 303.595 C 520.432 302.443, 512.077 302.067, 511.393 303.173 M 523 303 C 523 303.550, 523.477 304, 524.059 304 C 524.641 304, 524.840 303.550, 524.500 303 C 524.160 302.450, 523.684 302, 523.441 302 C 523.198 302, 523 302.450, 523 303 M 458.490 305.111 C 458.575 306.272, 459.400 307.644, 460.323 308.161 C 461.245 308.677, 462 309.752, 462 310.550 C 462 311.347, 462.745 312, 463.655 312 C 465.143 312, 465.128 311.799, 463.500 310 C 462.435 308.823, 462.175 308, 462.868 308 C 463.649 308, 463.495 307.158, 462.408 305.500 C 460.409 302.449, 458.278 302.238, 458.490 305.111 M 547.500 305 C 547.160 305.550, 547.359 306, 547.941 306 C 548.523 306, 549 305.550, 549 305 C 549 304.450, 548.802 304, 548.559 304 C 548.316 304, 547.840 304.450, 547.500 305 M 582.118 306.637 C 580.922 307.989, 580.977 308.151, 582.536 307.849 C 583.525 307.657, 584.522 306.938, 584.750 306.250 C 585.325 304.524, 583.789 304.749, 582.118 306.637 M 519.500 307 C 519.160 307.550, 519.332 308, 519.882 308 C 520.432 308, 521.160 307.550, 521.500 307 C 521.840 306.450, 521.668 306, 521.118 306 C 520.568 306, 519.840 306.450, 519.500 307 M 523.151 307.683 C 522.070 308.840, 522.298 308.985, 524.553 308.576 C 528.003 307.951, 528.548 307.377, 526.260 306.778 C 525.260 306.517, 523.860 306.924, 523.151 307.683 M 539 307.059 C 539 307.641, 539.450 307.840, 540 307.500 C 540.550 307.160, 541 306.684, 541 306.441 C 541 306.198, 540.550 306, 540 306 C 539.450 306, 539 306.477, 539 307.059 M 606.500 307 C 606.840 307.550, 607.316 308, 607.559 308 C 607.802 308, 608 307.550, 608 307 C 608 306.450, 607.523 306, 606.941 306 C 606.359 306, 606.160 306.450, 606.500 307 M 507 308.016 C 507 308.460, 508.798 309.128, 510.995 309.499 C 514.951 310.167, 517.563 312, 514.559 312 C 513.702 312, 513 312.466, 513 313.035 C 513 313.727, 513.684 313.704, 515.061 312.967 C 516.194 312.361, 516.951 311.354, 516.743 310.730 C 516.303 309.408, 507 306.816, 507 308.016 M 468 308.941 C 468 309.459, 468.445 310.157, 468.989 310.493 C 469.555 310.843, 469.723 310.442, 469.382 309.552 C 468.717 307.820, 468 307.503, 468 308.941 M 547.020 309.524 C 547.716 310.362, 548.491 310.842, 548.743 310.591 C 549.436 309.897, 548.027 308, 546.819 308 C 546.155 308, 546.231 308.574, 547.020 309.524 M 522.500 311 C 522.160 311.550, 522.584 312, 523.441 312 C 524.298 312, 525 311.550, 525 311 C 525 310.450, 524.577 310, 524.059 310 C 523.541 310, 522.840 310.450, 522.500 311 M 542 311 C 542 311.550, 542.450 312, 543 312 C 543.550 312, 544 311.550, 544 311 C 544 310.450, 543.550 310, 543 310 C 542.450 310, 542 310.450, 542 311 M 597.981 311.012 C 595.986 312.244, 597.471 313.395, 599.553 312.230 C 600.490 311.706, 600.840 311.019, 600.331 310.704 C 599.821 310.390, 598.764 310.528, 597.981 311.012 M 585.652 314.721 C 584.085 316.525, 583.260 318, 583.818 318 C 584.377 318, 585.062 317.438, 585.341 316.750 C 585.735 315.778, 586.039 315.769, 586.708 316.710 C 587.349 317.611, 588.265 317.357, 590.306 315.710 L 593.043 313.500 590.772 312.471 C 588.818 311.587, 588.101 311.902, 585.652 314.721 M 507.299 313.140 C 506.406 314.217, 506.660 314.529, 508.521 314.640 C 509.813 314.717, 511.135 314.091, 511.458 313.249 C 511.929 312.021, 511.763 311.952, 510.620 312.900 C 509.554 313.785, 509.098 313.793, 508.811 312.932 C 508.541 312.122, 508.092 312.184, 507.299 313.140 M 547.733 313.124 C 548.412 313.808, 549.219 314.115, 549.526 313.807 C 549.834 313.499, 549.279 312.940, 548.293 312.564 C 546.868 312.022, 546.753 312.136, 547.733 313.124 M 581.500 315 C 581.160 315.550, 581.332 316, 581.882 316 C 582.432 316, 583.160 315.550, 583.500 315 C 583.840 314.450, 583.668 314, 583.118 314 C 582.568 314, 581.840 314.450, 581.500 315 M 594 315.059 C 594 315.641, 594.450 315.840, 595 315.500 C 595.550 315.160, 596 315.385, 596 316 C 596 316.615, 596.498 316.810, 597.107 316.434 C 597.878 315.957, 597.803 315.490, 596.857 314.890 C 595.019 313.726, 594 313.786, 594 315.059 M 578.459 316.067 C 578.096 316.653, 578.014 317.348, 578.276 317.610 C 578.538 317.872, 579.019 317.392, 579.345 316.543 C 580.021 314.781, 579.445 314.471, 578.459 316.067 M 467 317 C 467 317.550, 467.679 318, 468.510 318 C 469.340 318, 470.770 318.877, 471.688 319.949 C 472.606 321.021, 473.726 321.669, 474.178 321.390 C 474.630 321.110, 475 321.359, 475 321.941 C 475 322.523, 475.538 323, 476.196 323 C 476.854 323, 475.866 321.425, 474 319.500 C 470.784 316.182, 467 314.831, 467 317 M 570.813 318.683 C 571.534 318.972, 572.397 318.936, 572.729 318.604 C 573.061 318.272, 572.471 318.036, 571.417 318.079 C 570.252 318.127, 570.015 318.364, 570.813 318.683 M 503 321 C 501.732 322.100, 501.143 323, 501.692 323 C 502.241 323, 503.505 322.100, 504.500 321 C 505.495 319.900, 506.084 319, 505.808 319 C 505.532 319, 504.268 319.900, 503 321 M 514.750 319.662 C 515.438 319.940, 516.563 319.940, 517.250 319.662 C 517.938 319.385, 517.375 319.158, 516 319.158 C 514.625 319.158, 514.063 319.385, 514.750 319.662 M 599 320.408 C 599 321.192, 598.460 322.013, 597.799 322.234 C 597.130 322.457, 597.019 322.865, 597.549 323.156 C 598.072 323.443, 599.479 323.163, 600.676 322.533 C 602.797 321.418, 602.803 321.358, 600.926 320.186 C 599.363 319.210, 599 319.252, 599 320.408 M 512.335 321.022 C 514.483 322.395, 519.171 323.085, 518.452 321.923 C 518.182 321.485, 517.182 321.159, 516.230 321.197 C 515.279 321.236, 513.600 320.948, 512.500 320.558 C 510.636 319.897, 510.625 319.929, 512.335 321.022 M 524 321 C 524 321.550, 524.450 322, 525 322 C 525.550 322, 526 321.550, 526 321 C 526 320.450, 525.550 320, 525 320 C 524.450 320, 524 320.450, 524 321 M 586.704 321.104 C 587.495 321.895, 588.330 321.903, 589.654 321.134 C 591.272 320.193, 591.136 320.057, 588.550 320.030 C 586.399 320.008, 585.899 320.299, 586.704 321.104 M 593 321 C 593 321.550, 593.423 322, 593.941 322 C 594.459 322, 595.160 321.550, 595.500 321 C 595.840 320.450, 595.416 320, 594.559 320 C 593.702 320, 593 320.450, 593 321 M 506.250 322.689 C 507.212 322.941, 508.788 322.941, 509.750 322.689 C 510.712 322.438, 509.925 322.232, 508 322.232 C 506.075 322.232, 505.288 322.438, 506.250 322.689 M 579.065 324.421 C 578.097 325.588, 578.255 325.746, 579.943 325.305 C 581.074 325.009, 582 324.369, 582 323.883 C 582 322.535, 580.386 322.830, 579.065 324.421 M 590 324 C 588.707 324.835, 588.734 324.971, 590.191 324.985 C 591.121 324.993, 592.160 324.550, 592.500 324 C 593.282 322.734, 591.958 322.734, 590 324 M 494.459 325.067 C 494.096 325.653, 494.040 326.373, 494.333 326.667 C 495.050 327.383, 497 326.121, 497 324.941 C 497 323.663, 495.274 323.748, 494.459 325.067 M 583.500 325 C 583.160 325.550, 583.332 326, 583.882 326 C 584.432 326, 585.160 325.550, 585.500 325 C 585.840 324.450, 585.668 324, 585.118 324 C 584.568 324, 583.840 324.450, 583.500 325 M 511.750 329.689 C 508.508 330.537, 509.967 331.889, 513.750 331.545 C 515.813 331.357, 518.314 331.157, 519.309 331.101 C 520.304 331.046, 520.840 330.550, 520.500 330 C 519.882 329, 515.046 328.828, 511.750 329.689 M 520.655 395.250 C 520.910 395.663, 520.529 396.014, 519.809 396.032 C 519.016 396.051, 519.289 396.665, 520.500 397.588 C 522.426 399.056, 522.398 399.094, 519.750 398.622 C 517.190 398.166, 517.081 398.283, 518.164 400.316 C 519.186 402.235, 519.140 402.345, 517.781 401.224 C 516.506 400.173, 516.127 400.227, 515.628 401.526 C 515.295 402.394, 515.379 402.884, 515.814 402.615 C 516.797 402.008, 516.563 408.848, 515.518 411.296 C 515.096 412.285, 514.976 415.097, 515.252 417.546 C 515.529 420.004, 515.335 422, 514.818 422 C 514.303 422, 514.216 422.540, 514.623 423.200 C 515.635 424.836, 515.749 429, 514.783 429 C 514.352 429, 514 429.675, 514 430.500 C 514 431.325, 514.450 432, 515 432 C 515.550 432, 516 432.477, 516 433.059 C 516 433.641, 515.542 433.835, 514.981 433.488 C 513.602 432.636, 514.746 453.989, 516.171 455.707 C 516.822 456.491, 517.039 459.900, 516.730 464.484 C 516.443 468.736, 516.608 471.742, 517.112 471.431 C 518.078 470.834, 518.426 473.580, 518.054 478.865 C 517.873 481.444, 518.131 482.047, 519.159 481.444 C 519.896 481.011, 519.643 481.634, 518.595 482.828 C 516.812 484.862, 516.803 485, 518.467 485 C 519.934 485, 520.027 485.262, 519 486.500 C 518.179 487.489, 518.126 488, 518.846 488 C 519.446 488, 519.696 488.629, 519.400 489.399 C 519.105 490.168, 519.346 491.096, 519.935 491.460 C 520.649 491.901, 520.684 492.722, 520.038 493.929 C 519.506 494.924, 519.355 496.021, 519.702 496.369 C 520.049 496.716, 519.808 497, 519.167 497 C 517.275 497, 517.835 498.993, 519.750 499.079 C 520.795 499.126, 520.997 499.361, 520.250 499.662 C 519.563 499.940, 519 500.818, 519 501.615 C 519 502.411, 518.328 503.321, 517.506 503.636 C 516.684 503.952, 516.249 504.594, 516.540 505.064 C 517.093 505.959, 515.132 510.040, 513.622 511.138 C 513.139 511.489, 513.053 512.277, 513.431 512.888 C 513.840 513.550, 513.372 514, 512.273 514 C 511.247 514, 510.354 514.776, 510.261 515.750 C 509.293 525.833, 510.601 531.229, 513.936 530.916 C 514.796 530.836, 515.725 530.861, 516 530.973 C 517.746 531.685, 527.721 531.465, 528.750 530.693 C 529.500 530.130, 530 530.123, 530 530.677 C 530 532.412, 536.757 534.201, 538.926 533.039 C 542.902 530.912, 546.296 525.273, 545.414 522.260 C 544.970 520.742, 544.571 519.050, 544.527 518.500 C 544.483 517.950, 544.184 517.050, 543.862 516.500 C 543.540 515.950, 542.981 514.263, 542.619 512.750 C 542.258 511.238, 541.295 510, 540.481 510 C 539.666 510, 539 509.564, 539 509.031 C 539 508.499, 539.675 508.322, 540.500 508.638 C 542.162 509.276, 542.583 507.478, 541 506.500 C 540.450 506.160, 540 505.057, 540 504.048 C 540 503.039, 539.347 501.963, 538.548 501.657 C 537.741 501.347, 537.266 500.217, 537.478 499.114 C 537.688 498.022, 537.222 496.599, 536.441 495.951 C 535.661 495.303, 535.300 494.324, 535.639 493.775 C 535.979 493.226, 535.665 492.411, 534.942 491.964 C 533.858 491.294, 533.860 490.873, 534.952 489.557 C 536.066 488.216, 535.992 487.648, 534.485 485.983 C 532.729 484.043, 532.761 484.011, 536.062 484.396 C 539.151 484.755, 539.272 484.672, 537.524 483.394 C 536.476 482.627, 534.916 481.993, 534.059 481.985 C 532.784 481.972, 532.751 481.810, 533.878 481.096 C 534.636 480.616, 534.950 479.728, 534.576 479.123 C 534.149 478.431, 534.472 478.244, 535.448 478.618 C 537.486 479.400, 537.422 478.123, 535.306 475.786 C 533.944 474.281, 533.909 474.028, 535.127 474.495 C 536.703 475.100, 536.919 469.296, 535.412 466.857 C 535.044 466.263, 535.273 465.449, 535.920 465.049 C 536.953 464.411, 537.234 461.551, 537.926 444.691 C 537.967 443.696, 538.361 443.105, 538.802 443.377 C 540.370 444.346, 539.083 430.334, 536.655 420 C 535.298 414.225, 534.555 409.113, 535.004 408.640 C 536.384 407.185, 533.973 401.796, 532.239 402.462 C 530.979 402.945, 530.934 402.784, 531.981 401.523 C 533.066 400.215, 532.812 400, 530.181 400 C 528.497 400, 526.866 399.592, 526.558 399.093 C 526.249 398.595, 526.847 398.409, 527.886 398.680 C 528.924 398.952, 530.062 398.709, 530.413 398.141 C 530.821 397.481, 529.578 397.189, 526.981 397.334 C 524.741 397.460, 522.373 397.230, 521.717 396.825 C 520.963 396.359, 521.255 396.099, 522.513 396.116 C 524.960 396.151, 527.769 395.565, 528.457 394.876 C 528.740 394.593, 526.996 394.392, 524.582 394.431 C 522.167 394.469, 520.400 394.837, 520.655 395.250 M 438.639 406.776 C 438.358 407.229, 439.771 407.710, 441.777 407.846 C 443.783 407.981, 445.087 407.754, 444.674 407.341 C 443.563 406.230, 439.227 405.824, 438.639 406.776 M 474 406.833 C 474 407.475, 473.438 407.887, 472.750 407.750 C 472.005 407.601, 471.631 408.308, 471.824 409.500 C 472.003 410.600, 472.212 412.212, 472.289 413.083 C 472.366 413.954, 472.964 414.667, 473.619 414.667 C 474.274 414.667, 474.551 413.993, 474.235 413.169 C 473.884 412.256, 474.080 411.931, 474.737 412.337 C 475.434 412.768, 475.614 412.241, 475.249 410.845 C 474.813 409.178, 475.005 408.880, 476.092 409.536 C 477.242 410.229, 477.232 410.029, 476.033 408.442 C 475.226 407.374, 474.439 406.313, 474.283 406.083 C 474.127 405.854, 474 406.192, 474 406.833 M 567.911 407.186 C 566.844 407.944, 566.988 408.029, 568.500 407.535 C 570.104 407.011, 570.253 407.131, 569.250 408.141 C 568.563 408.833, 568 409.787, 568 410.259 C 568 410.731, 568.563 410.789, 569.250 410.387 C 569.938 409.985, 569.600 410.711, 568.500 412 C 567.400 413.289, 567.139 413.968, 567.920 413.508 C 569.004 412.870, 569.176 413.099, 568.647 414.477 C 568.034 416.074, 568.153 416.122, 569.669 414.891 C 570.617 414.122, 571.067 414.028, 570.676 414.681 C 570.286 415.330, 570.425 416.144, 570.984 416.490 C 571.543 416.835, 572.033 416.529, 572.074 415.809 C 572.146 414.540, 572.704 411.249, 573.238 408.939 C 573.616 407.308, 569.598 405.987, 567.911 407.186 M 613.052 408.053 C 614.388 408.899, 621.855 409.453, 620.917 408.638 C 620.688 408.438, 618.498 408.019, 616.052 407.706 C 613.174 407.338, 612.115 407.461, 613.052 408.053 M 426.500 409 C 424.668 409.787, 424.710 409.864, 427 409.914 C 428.375 409.945, 430.175 409.533, 431 409 C 432.968 407.728, 429.460 407.728, 426.500 409 M 472 408.941 C 472 409.459, 472.445 410.157, 472.989 410.493 C 473.555 410.843, 473.723 410.442, 473.382 409.552 C 472.717 407.820, 472 407.503, 472 408.941 M 638.269 408.693 C 639.242 408.947, 640.592 408.930, 641.269 408.656 C 641.946 408.382, 641.150 408.175, 639.500 408.195 C 637.850 408.215, 637.296 408.439, 638.269 408.693 M 419.250 409.689 C 420.212 409.941, 421.788 409.941, 422.750 409.689 C 423.712 409.438, 422.925 409.232, 421 409.232 C 419.075 409.232, 418.288 409.438, 419.250 409.689 M 628 409.975 C 628 410.535, 629.383 410.687, 631.250 410.331 C 635.807 409.464, 635.952 409, 631.667 409 C 629.650 409, 628 409.439, 628 409.975 M 452.813 410.683 C 453.534 410.972, 454.397 410.936, 454.729 410.604 C 455.061 410.272, 454.471 410.036, 453.417 410.079 C 452.252 410.127, 452.015 410.364, 452.813 410.683 M 578.813 410.683 C 579.534 410.972, 580.397 410.936, 580.729 410.604 C 581.061 410.272, 580.471 410.036, 579.417 410.079 C 578.252 410.127, 578.015 410.364, 578.813 410.683 M 666.872 452.750 C 665.629 454.336, 665.664 454.371, 667.250 453.128 C 668.212 452.373, 669 451.585, 669 451.378 C 669 450.555, 668.179 451.084, 666.872 452.750 M 672.872 453.750 C 671.629 455.336, 671.664 455.371, 673.250 454.128 C 674.212 453.373, 675 452.585, 675 452.378 C 675 451.555, 674.179 452.084, 672.872 453.750 M 674.872 454.750 C 673.629 456.336, 673.664 456.371, 675.250 455.128 C 676.916 453.821, 677.445 453, 676.622 453 C 676.415 453, 675.627 453.788, 674.872 454.750 M 596.603 456.833 C 596.320 457.292, 596.723 457.667, 597.500 457.667 C 598.277 457.667, 598.680 457.292, 598.397 456.833 C 598.114 456.375, 597.710 456, 597.500 456 C 597.290 456, 596.886 456.375, 596.603 456.833 M 674 458.089 C 671.846 459.851, 671.804 459.986, 673.694 459.062 C 674.901 458.472, 676.165 457.542, 676.503 456.995 C 677.406 455.534, 676.800 455.799, 674 458.089 M 663.558 461.907 C 663.249 462.405, 663.898 462.578, 664.999 462.290 C 667.334 461.679, 667.629 461, 665.559 461 C 664.766 461, 663.866 461.408, 663.558 461.907 M 612 463.759 C 612 464.177, 613.013 465.141, 614.250 465.901 C 616.492 467.278, 616.493 467.276, 614.595 465.142 C 612.557 462.850, 612 462.554, 612 463.759 M 612 468.059 C 612 468.641, 612.450 468.840, 613 468.500 C 613.550 468.160, 614 467.684, 614 467.441 C 614 467.198, 613.550 467, 613 467 C 612.450 467, 612 467.477, 612 468.059 M 619.199 471.523 C 622.114 474.992, 619.762 477.046, 616.391 473.974 C 614.899 472.613, 614.049 472.139, 614.503 472.920 C 615.140 474.017, 614.893 474.174, 613.414 473.611 C 612.150 473.129, 611.840 473.217, 612.500 473.869 C 613.050 474.413, 614.164 475.002, 614.976 475.179 C 617.160 475.654, 620.413 479.987, 619.370 481.030 C 618.854 481.546, 617.859 481.522, 616.992 480.974 C 615.905 480.287, 615.856 480.026, 616.809 480.015 C 617.529 480.007, 617.852 479.570, 617.527 479.044 C 617.202 478.518, 616.202 478.369, 615.304 478.714 C 614.287 479.104, 613.920 478.938, 614.330 478.275 C 614.692 477.689, 614.293 476.943, 613.442 476.616 C 611.738 475.962, 611.906 476.337, 615.853 482 C 617.195 483.925, 618.016 484.712, 617.678 483.750 C 616.853 481.403, 617.674 481.523, 618.968 483.939 C 620.230 486.298, 618.738 487.554, 616.807 485.759 C 614.383 483.506, 612.323 483.594, 614.376 485.863 C 615.405 487, 615.869 488.403, 615.443 489.091 C 614.941 489.905, 615.109 490.050, 615.953 489.529 C 616.873 488.961, 617.039 489.302, 616.566 490.791 C 615.699 493.522, 617.623 494.574, 618.950 492.094 C 620.197 489.762, 620.340 487.916, 619.124 489.834 C 618.436 490.919, 618.171 490.888, 617.702 489.667 C 616.723 487.114, 619.405 487.111, 622.528 489.661 C 624.162 490.996, 625.050 492.015, 624.500 491.926 C 622.404 491.585, 621 492.039, 621 493.059 C 621 493.657, 621.544 493.777, 622.250 493.335 C 624.377 492.004, 626.387 492.406, 629.335 494.755 C 630.894 495.997, 632.689 496.692, 633.325 496.299 C 634.038 495.858, 633.528 495.361, 631.990 494.998 C 630.620 494.674, 629.500 493.755, 629.500 492.955 C 629.500 492.155, 629.050 491.493, 628.500 491.485 C 626.861 491.460, 624.999 489.967, 625.015 488.691 C 625.026 487.853, 625.248 487.826, 625.765 488.599 C 626.857 490.231, 630.195 489.951, 629.554 488.281 C 629.245 487.474, 629.464 487.169, 630.080 487.549 C 630.661 487.908, 630.933 488.733, 630.684 489.382 C 630.435 490.031, 631.304 491.068, 632.616 491.687 C 636.673 493.601, 635.578 489.664, 631 485.878 C 627.360 482.868, 625.372 479.876, 628.155 481.595 C 628.870 482.038, 629.038 481.870, 628.595 481.155 C 627.493 479.371, 624.678 479.719, 625.382 481.552 C 625.709 482.406, 625.561 482.847, 625.052 482.532 C 624.543 482.218, 624.192 481.101, 624.271 480.050 C 624.350 478.999, 624.884 478.419, 625.458 478.761 C 626.031 479.104, 625.882 478.623, 625.128 477.692 C 624.373 476.761, 623.087 476, 622.271 476 C 621.406 476, 621.011 475.413, 621.326 474.594 C 621.622 473.821, 620.883 472.358, 619.683 471.344 C 617.524 469.521, 617.519 469.522, 619.199 471.523 M 624.445 473.089 C 623.731 474.244, 624.883 476.190, 625.906 475.558 C 626.905 474.941, 631 477.810, 631 479.128 C 631 479.686, 630.293 479.436, 629.429 478.571 C 627.840 476.983, 627 476.604, 627 477.477 C 627 479.029, 637.420 485.980, 638.351 485.049 C 639.812 483.588, 641.278 483.734, 640.367 485.250 C 639.857 486.099, 640.158 486.060, 641.308 485.128 C 643.438 483.400, 643.470 483.475, 640.500 483.229 C 639.125 483.116, 638 483.483, 638 484.046 C 638 484.692, 637.170 484.626, 635.753 483.868 C 634.368 483.126, 633.984 482.505, 634.753 482.249 C 636.636 481.621, 636.250 480.214, 634 479.500 C 632.900 479.151, 632 478.419, 632 477.874 C 632 477.328, 632.520 477.203, 633.155 477.595 C 633.876 478.041, 634.037 477.869, 633.585 477.138 C 633.187 476.494, 632.534 476.170, 632.133 476.418 C 631.074 477.072, 628.500 475.276, 628.500 473.882 C 628.500 472.444, 625.238 471.806, 624.445 473.089 M 635.500 478 C 634.853 479.047, 634.966 479.096, 639 479.515 C 642.329 479.862, 643.857 478.847, 641.434 477.898 C 638.645 476.806, 636.212 476.848, 635.500 478 M 621.250 480.496 C 619.606 482.364, 619.667 482.962, 621.750 485.343 C 622.712 486.444, 622.938 487.015, 622.250 486.613 C 621.563 486.211, 621 486.332, 621 486.882 C 621 488.428, 622.446 488.960, 624.014 487.991 C 624.869 487.463, 625.943 487.538, 626.716 488.180 C 628.367 489.549, 628.394 487.824, 626.750 486.053 C 625.726 484.949, 625.842 484.827, 627.391 485.376 C 628.979 485.938, 629.084 485.806, 628.046 484.555 C 627.365 483.735, 626.514 483.121, 626.154 483.191 C 624.480 483.515, 622.183 481.687, 622.670 480.417 C 623.353 478.639, 622.861 478.666, 621.250 480.496 M 633.226 485.579 C 634.176 486.570, 635.168 487.166, 635.431 486.903 C 635.694 486.640, 634.917 485.829, 633.705 485.100 C 631.598 483.835, 631.577 483.857, 633.226 485.579 M 639 487.383 C 639 487.594, 639.901 488.002, 641.001 488.290 C 642.102 488.578, 642.751 488.405, 642.442 487.907 C 641.904 487.036, 639 486.594, 639 487.383 M 637 489.430 C 637 489.705, 637.900 490.411, 639 491 C 640.100 491.589, 641 491.845, 641 491.570 C 641 491.295, 640.100 490.589, 639 490 C 637.900 489.411, 637 489.155, 637 489.430 M 637 493 C 637 493.550, 637.450 494, 638 494 C 638.550 494, 639 493.550, 639 493 C 639 492.450, 638.550 492, 638 492 C 637.450 492, 637 492.450, 637 493 M 621.507 495.989 C 621.157 496.555, 621.558 496.723, 622.448 496.382 C 624.180 495.717, 624.497 495, 623.059 495 C 622.541 495, 621.843 495.445, 621.507 495.989 M 627.751 495.920 C 627.892 496.151, 627.252 497.501, 626.329 498.920 C 625.167 500.706, 625.089 501.148, 626.075 500.358 C 626.859 499.729, 628.220 499.054, 629.100 498.858 C 630.566 498.530, 630.566 498.374, 629.097 497 C 628.216 496.175, 627.610 495.689, 627.751 495.920 M 534.232 498 C 534.919 499.100, 535.878 500, 536.363 500 C 536.848 500, 536.744 499.396, 536.131 498.658 C 535.519 497.920, 535.313 497.020, 535.675 496.658 C 536.037 496.296, 535.580 496, 534.658 496 C 533.233 496, 533.170 496.299, 534.232 498 M 538.249 611.483 C 530.242 615.707, 524.822 615.635, 516.290 611.192 C 512.077 608.999, 507 608.259, 507 609.840 C 507 610.301, 510.488 612.386, 514.750 614.473 C 522.493 618.262, 530.375 619.561, 531.853 617.291 C 532.542 616.232, 542.336 612.684, 547.750 611.532 C 551.259 610.786, 551.948 609.578, 549.418 608.607 C 546.702 607.565, 544.698 608.081, 538.249 611.483 M 504.667 648.667 C 504.300 649.033, 504.039 650.496, 504.086 651.917 C 504.170 654.453, 504.188 654.447, 505.053 651.550 C 505.962 648.507, 505.828 647.506, 504.667 648.667 M 519.500 650 C 519.840 650.550, 520.316 651, 520.559 651 C 520.802 651, 521 650.550, 521 650 C 521 649.450, 520.523 649, 519.941 649 C 519.359 649, 519.160 649.450, 519.500 650" stroke="#000000" stroke-width="0.5" fill="#000000" fill-rule="evenodd"/>
</svg>